<svg xmlns="http://www.w3.org/2000/svg" width="130" height="100" viewBox="0 0 130 100"><path d="M13.906,100A13.9,13.9,0,0,1,0,86.13L.066.105H2.44C26.9.074,86.159,0,108.163,0c3.775,0,6.228,0,7.32.007l.6,0A13.91,13.91,0,0,1,130,13.881L129.958,100Z" fill="#fdfdfd"/><path d="M129.62,14.694l-.042,84.932H14.716A12.717,12.717,0,0,1,2,86.942L2.065,2.105H3.25c50.46-.065,110.459-.131,113.559-.095V2h.089A12.719,12.719,0,0,1,129.62,14.694" transform="translate(-0.81 -0.813)" fill="#074684"/><path d="M127.667,62.154H92.4c.666,1.543-.119,3.638-2.7,3.781l-41.07.018a2.73,2.73,0,0,1-2.731-3.8H19.66a7.37,7.37,0,0,1-7.385-7.366V12.477H120.288a7.372,7.372,0,0,1,7.379,7.36Z" transform="translate(-4.971 -5.072)" fill="#fdfdfd"/><path d="M177.42,26.77a2.145,2.145,0,0,1,1.961,2.29V51.672a1.984,1.984,0,1,1-3.922,0V29.06a2.146,2.146,0,0,1,1.961-2.29m0-6.222a7.871,7.871,0,0,1,7.72,8.014V52.169a7.725,7.725,0,1,1-15.439,0V28.562a7.871,7.871,0,0,1,7.72-8.014" transform="translate(-68.72 -8.352)" fill="#074684" fill-rule="evenodd"/><path d="M63.716,20.548A7.526,7.526,0,0,1,68.538,22.3a7.507,7.507,0,0,1,4.822-1.754,7.869,7.869,0,0,1,7.717,8.014V59.438H75.319V29.06a1.985,1.985,0,1,0-3.923,0V59.438h-5.72V29.06a1.984,1.984,0,1,0-3.921,0V59.438H55.994V28.562a7.872,7.872,0,0,1,7.722-8.014" transform="translate(-22.675 -8.352)" fill="#074684"/><path d="M146.846,26.77a2.145,2.145,0,0,0-1.961,2.29V51.672a1.985,1.985,0,1,0,3.923,0V50.556h5.756V52.17a7.725,7.725,0,1,1-15.439,0V28.563a7.725,7.725,0,1,1,15.439,0v1.612h-5.756V29.06a2.146,2.146,0,0,0-1.961-2.29" transform="translate(-56.339 -8.353)" fill="#074684"/><path d="M115.377,44.055v-15a1.985,1.985,0,1,0-3.923,0v15Zm-1.96-23.507a7.873,7.873,0,0,1,7.721,8.014V59.438h-5.761V49.8h-3.923v9.636h-5.759V28.562a7.873,7.873,0,0,1,7.722-8.014" transform="translate(-42.801 -8.352)" fill="#074684" fill-rule="evenodd"/><path d="M29.938,20.55a7.869,7.869,0,0,1,7.717,8.015V59.44H31.9V49.8H27.975V59.44H22.216V28.565a7.871,7.871,0,0,1,7.722-8.015M31.9,44.057v-15a2.144,2.144,0,0,0-1.959-2.289,2.146,2.146,0,0,0-1.962,2.289v15Z" transform="translate(-8.996 -8.353)" fill="#074684" fill-rule="evenodd"/><path d="M22.438,105.894a2.98,2.98,0,0,1,5.958.113l-.007,15.887c.462,4.023,5.066,5.311,6.046,4.974a5.92,5.92,0,0,0,6.21-6.21c0-2.891-2.743-7.741-8.381-5.882-3.152.773-5.117-2.114-2.791-4.7,6.982-4.175,17.585,1.5,17.065,11.253-.516,6.339-5.326,11.189-11.583,11.292-6.673.668-12.508-4.8-12.508-10.679Z" transform="translate(-9.086 -41.889)" fill="#ffbd2e"/><path d="M62.658,122.837c1.188-8.668,7.914-10.419,11.118-10.214,6.932-.053,4.138,6.913,1.4,6.088-7.136-.927-6.651,4.748-6.651,4.748l.054,10.057c.083,3.353-5.815,3.921-6.1.049Z" transform="translate(-25.299 -45.773)" fill="#ffbd2e"/><path d="M95.682,122.662c-3.455-.383-4.18,4.361.062,4.93.877.05,8.848-.012,8.848-.012s3.724-.258,2.581-5.724c-.411-1.7-5.064-9.7-12.824-9.235-6.828.31-11.689,7.017-11.069,13.466.515,7.84,7.653,11.035,11.895,10.93a10.807,10.807,0,0,0,6.05-1.956,2.62,2.62,0,1,0-2.432-4.64,6.632,6.632,0,0,1-3.567,1.264c-3.517.689-6.576-3.178-6.516-6.167,0,0-.517-6.57,6.258-7.451,2.795.024,5.275.814,6.816,4.5a59.442,59.442,0,0,1-6.1.1" transform="translate(-33.703 -45.771)" fill="#ffbd2e"/><path d="M123.5,134.442c.054-.208-.01-11.3-.01-11.3.468-4.024,5.227-10.112,12.051-9.9,7.758,0,11.778,7.892,11.728,9.386.362.879.166,11.707.166,11.707-.618,3.716-5.43,3.406-6.1.624l-.012-10.781c-.406-3.253-3.194-4.8-6.089-4.936a5.319,5.319,0,0,0-5.535,4.834l.061,10.057a3.152,3.152,0,0,1-6.259.31" transform="translate(-50.007 -46.029)" fill="#ffbd2e"/><path d="M163.241,107.874c.353-5.261,6.867-3.717,6.1-.04l.01,2.938,8.544.012c3.692-.06,4.161,5.191.03,5.415l-8.635.034-.008,6.033c.464,5.929,4.237,6.858,8.48,5,4.416-2.9,7.4,3.2,2.349,5.167-4.935,2.619-15.071,2.1-16.624-8.573-.2-3.765-.248-15.99-.248-15.99" transform="translate(-66.105 -42.469)" fill="#ffbd2e"/><path d="M83.236,95.144H81.025v.918H83.5v.716H79.668V92.91h3.7v.718H81.025v.8h2.212Z" transform="translate(-32.262 -37.766)" fill="#074684"/><path d="M87.545,95.838a4.954,4.954,0,0,0,1.508.242c.622,0,.954-.166.954-.418s-.286-.379-1.009-.539c-1-.231-1.657-.586-1.657-1.148,0-.661.863-1.161,2.273-1.161a5.233,5.233,0,0,1,1.536.2l-.3.7a4.085,4.085,0,0,0-1.25-.184c-.589,0-.874.177-.874.372,0,.247.331.356,1.115.545,1.062.255,1.553.609,1.553,1.153,0,.649-.768,1.2-2.419,1.2a5.81,5.81,0,0,1-1.7-.242Z" transform="translate(-35.339 -37.727)" fill="#074684"/><path d="M96.609,93.646H94.985v-.734h4.622v.734H97.966v3.133H96.609Z" transform="translate(-38.464 -37.767)" fill="#074684"/><path d="M102.481,98.28c0-.316.331-.534.8-.534s.785.212.793.534c0,.3-.32.528-.81.528-.455,0-.786-.224-.786-.528" transform="translate(-41.5 -39.732)" fill="#074684"/><path d="M109.78,93.919h-.018l-1.106.339-.221-.656,1.541-.458h1.116v3.728H109.78Z" transform="translate(-43.911 -37.862)" fill="#074684"/><path d="M116.079,96.205c.179.012.32,0,.589,0a3.171,3.171,0,0,0,1.141-.23,1.243,1.243,0,0,0,.73-.693l-.017-.006a2.116,2.116,0,0,1-1.169.268c-.981,0-1.8-.434-1.8-1.163s.91-1.343,2.187-1.343c1.487,0,2.192.733,2.192,1.606a1.919,1.919,0,0,1-1.015,1.722,4.732,4.732,0,0,1-2.223.516c-.223.011-.463.007-.615,0Zm.821-1.877c0,.322.277.6.821.6a1.046,1.046,0,0,0,.757-.239.321.321,0,0,0,.062-.224.748.748,0,0,0-.855-.785.7.7,0,0,0-.785.653" transform="translate(-46.793 -37.818)" fill="#074684"/><path d="M125.669,93.919h-.019l-1.106.339-.221-.656,1.541-.458h1.115v3.728h-1.31Z" transform="translate(-50.345 -37.862)" fill="#074684"/><path d="M131.967,96.205c.18.012.321,0,.592,0a3.16,3.16,0,0,0,1.139-.23,1.255,1.255,0,0,0,.733-.693l-.018-.006a2.118,2.118,0,0,1-1.17.268c-.979,0-1.8-.434-1.8-1.163s.91-1.343,2.186-1.343c1.49,0,2.195.733,2.195,1.606a1.919,1.919,0,0,1-1.017,1.722,4.716,4.716,0,0,1-2.223.516c-.223.011-.463.007-.615,0Zm.822-1.877c0,.322.275.6.821.6a1.05,1.05,0,0,0,.757-.239.321.321,0,0,0,.064-.224.751.751,0,0,0-.859-.785.694.694,0,0,0-.782.653" transform="translate(-53.227 -37.818)" fill="#074684"/></svg>