<?xml version="1.0" encoding="UTF-8" standalone="no"?>
<!DOCTYPE svg PUBLIC "-//W3C//DTD SVG 1.1//EN" "http://www.w3.org/Graphics/SVG/1.1/DTD/svg11.dtd">
<svg width="100%" height="100%" viewBox="0 0 746 267" version="1.1" xmlns="http://www.w3.org/2000/svg" xmlns:xlink="http://www.w3.org/1999/xlink" xml:space="preserve" xmlns:serif="http://www.serif.com/" style="fill-rule:evenodd;clip-rule:evenodd;stroke-linejoin:round;stroke-miterlimit:2;">
    <path id="main" d="M121.797,266.56L120.833,266.456L120.989,254.095C121.075,250.517 121.165,236.406 121.189,222.737C121.228,200.685 121.187,197.585 120.821,195.202C118.962,183.1 113.95,173.112 105.514,164.695C103.792,162.978 101.458,160.873 100.326,160.019C93.216,154.651 84.841,151.084 76.024,149.668C74.342,149.398 70.631,149.204 64.362,149.059C57.441,148.899 54.723,148.748 53.371,148.445C44.099,146.373 36.705,139.449 34.077,130.38C32.524,125.022 32.519,112.225 34.067,106.884C36.377,98.91 42.78,92.139 50.325,89.691C54.85,88.222 50.491,88.336 108.845,88.166C161.395,88.012 162.318,88.001 165.006,87.498C170.162,86.533 174.721,85.091 178.992,83.074C193.306,76.314 204.159,63.053 207.966,47.666C209.405,41.853 209.43,41.468 209.545,23.002L209.651,0.248L215.021,0.248L214.889,75.352L214.756,144.787L216.348,144.464C217.222,144.286 218.469,144.066 219.117,143.974L220.299,143.807L220.299,0.248L225.98,0.248L226.081,27.476C226.166,45.723 226.243,49.357 226.574,51.146C228.459,61.318 232.607,69.278 239.464,75.877C245.974,82.142 252.747,85.627 262.296,87.623C263.926,87.964 269.219,88.031 304.542,88.163C349.487,88.331 345.888,88.182 349.645,90.03C352.875,91.618 355.363,94.144 356.929,97.423L357.846,99.342L360.671,99.349L363.499,99.355L363.34,98.563C363.087,97.299 361.64,94.138 360.593,92.559C357.941,88.565 353.889,85.409 349.52,83.936C345.865,82.704 346.033,82.709 305.835,82.707C281.349,82.706 267.399,82.615 265.827,82.445C249.926,80.73 236.721,69.298 232.839,53.888C231.767,49.63 231.739,48.958 231.733,26.978L231.73,0.248L237.179,0.248L237.263,27.6C237.34,47.307 237.388,49.451 237.789,51.146C239.304,57.561 242.029,62.644 246.334,67.088C251.046,71.955 256.507,75.008 263.229,76.537L265.65,77.088L306.033,77.239C343.553,77.379 346.546,77.421 348.264,77.831C354.771,79.385 360.489,83.127 364.444,88.421C365.903,90.376 368.028,94.814 368.674,97.261L369.228,99.355L374.804,99.355L374.59,98.212C373.421,91.954 370.244,86.016 365.558,81.33C361.072,76.844 355.725,73.902 349.272,72.367C347.537,71.954 344.6,71.913 307.026,71.77C267.145,71.619 266.616,71.611 264.355,71.094C253.616,68.641 245.822,60.895 243.255,50.125C242.858,48.461 242.81,46.284 242.73,27.103L242.644,0.248L248.131,0.248L248.133,25.612C248.135,46.463 248.215,48.185 249.329,51.4C251.581,57.893 256.695,62.916 263.291,65.115L265.65,65.902L305.535,66.089C333.251,66.219 346.065,66.363 347.534,66.562C360.176,68.275 371.049,76.089 376.815,87.605C378.193,90.356 379.708,95.128 380.211,98.299L380.379,99.355L385.86,99.355L385.687,97.739C385.592,96.85 385.189,94.885 384.792,93.373C382.83,85.888 379.039,79.229 373.626,73.758C367.038,67.099 359.635,63.203 349.91,61.276C347.166,60.732 347.062,60.731 306.903,60.595L266.646,60.458L265.03,59.882C260.588,58.297 257.37,55.5 255.498,51.601C254.887,50.325 254.265,48.689 254.115,47.965C253.935,47.082 253.847,39.939 253.847,26.283L253.847,0.248L259.314,0.248L259.317,25.86C259.319,47.466 259.297,47.068 260.693,49.632C261.373,50.884 263.757,53.382 264.269,53.382C264.452,53.382 264.532,46.199 264.532,29.65L264.532,0.248L269.999,0.248L269.999,55.122L275.467,55.122L275.467,0.248L280.933,0.248L280.933,55.122L286.4,55.122L286.4,0.248L292.116,0.248L292.116,55.122L297.582,55.122L297.582,0.248L303.051,0.248L303.051,55.122L308.517,55.122L308.517,0.248L313.982,0.248L314.045,30.458L314.109,54.997L319.7,55.138L319.7,0.248L325.166,0.248L325.166,55.122L330.635,55.122L330.635,0.248L336.101,0.248L336.101,55.122L341.817,55.122L341.817,0.248L347.284,0.248L347.284,55.295L349.459,55.595C350.654,55.761 351.884,55.958 352.191,56.033L352.75,56.169L352.75,0.248L358.215,0.248L358.278,31.78L358.342,57.643L361.076,58.742C362.58,59.347 363.838,59.842 363.871,59.842C363.905,59.843 363.933,47.71 363.933,32.88L363.933,0.248L369.401,0.248L369.401,62.982L374.743,66.983L374.806,36.45L374.87,0.248L380.334,0.248L380.334,72.727L381.948,74.867C382.837,76.044 384.067,77.868 384.682,78.919L385.803,80.831L385.803,0.248L391.517,0.248L391.517,98.126L392.247,97.748C393.431,97.136 395.435,94.93 396.173,93.423L396.86,92.024L396.924,48.971L396.989,0.248L402.7,0.248L402.763,44.995C402.836,91.134 402.841,90.455 402.34,92.463C401.769,94.745 400.18,97.786 398.681,99.461C396.987,101.355 394.229,103.148 391.673,104.013L389.653,104.698L349.395,104.832C305.934,104.976 308.351,104.903 303.174,106.226C291.261,109.27 280.816,117.652 275.271,128.619C274.459,130.224 273.497,132.331 273.132,133.302C272.325,135.452 271.106,140.211 270.865,142.16L270.688,143.589L273.445,143.589C276.108,143.589 276.205,143.57 276.307,143.03C278.059,133.65 281.56,126.936 287.803,120.975C292.964,116.049 299.605,112.538 306.346,111.172C310.279,110.375 314.265,110.297 351.582,110.293C392.769,110.289 390.641,110.364 394.754,108.78C398.361,107.391 402.262,104.28 404.487,101.018C405.823,99.061 407.05,96.407 407.728,94.013L408.291,92.024L408.196,48.971L408.099,0.248L413.573,0.248L413.752,48.101C413.91,85.741 413.888,90.54 413.541,92.656C411.67,104.078 404.194,112.127 392.512,115.299C391.664,115.529 381.577,115.642 350.887,115.766C307.127,115.944 309.701,115.862 304.847,117.237C294.034,120.302 285.276,129.436 282.417,140.635C281.615,143.772 281.478,143.589 284.652,143.589L287.375,143.589L287.647,142.533C289.061,137.033 291.464,132.817 295.262,129.166C299.224,125.359 302.956,123.354 308.765,121.909C309.554,121.713 321.819,121.584 350.266,121.471C394.905,121.295 392.096,121.401 397.108,119.695C408.975,115.655 417.313,105.51 419.119,92.918C419.347,91.328 419.39,80.705 419.3,48.374L419.183,0.248L424.491,0.248L424.653,10.431C424.94,18.335 424.847,91.975 424.549,93.965C422.424,108.118 413.206,119.539 399.854,124.565C397.964,125.277 396.05,125.806 393.258,126.389C391.627,126.73 386.317,126.796 350.887,126.923L310.381,127.068L308.144,127.764C302.971,129.374 298.786,132.495 295.974,136.844C294.917,138.476 293.609,141.364 293.225,142.906L293.055,143.589L298.708,143.589L299.506,141.879C301.017,138.633 303.757,135.808 306.901,134.249C310.603,132.416 306.87,132.569 351.882,132.406C374.159,132.325 392.611,132.186 392.885,132.096C393.157,132.006 394.329,131.751 395.489,131.529C406.832,129.358 417.558,121.908 423.777,111.879C426.356,107.719 427.944,103.955 429.148,99.142C430.464,93.89 430.416,95.966 430.313,49.344L430.216,0.248L435.675,0.248L435.843,48.101C435.953,75.454 435.927,91.202 435.767,92.894C435.614,94.51 435.517,113.089 435.511,141.671L435.502,187.84L441.093,187.698L441.16,124.454C441.218,69.251 441.177,60.793 440.849,57.929C440.378,53.825 440.376,50.922 440.844,46.797C441.132,44.238 441.209,39.651 441.213,24.742L441.218,0.248L446.685,0.248L446.685,30.323L448.081,28.371C448.849,27.298 450.079,25.731 450.815,24.89L452.153,23.361L452.153,0.248L457.61,0.248L457.677,12.224L457.744,18.53L463.086,15.282L463.086,0.248L468.802,0.248L468.802,9.415C468.802,12.091 468.875,12.893 469.113,12.83C469.283,12.785 470.513,12.476 471.846,12.142L474.269,11.536L474.269,0.248L479.737,0.248L479.737,10.888L485.203,10.888L485.203,0.248L490.655,0.248L490.724,8.834L490.795,11.75L493.156,12.46C494.453,12.851 495.711,13.229 495.952,13.301C496.352,13.421 496.386,13.136 496.386,9.674L496.386,0.248L501.852,0.248L501.858,10.95L501.864,15.982L503.14,16.728C503.843,17.138 505.071,17.948 505.869,18.529L507.321,19.584L507.321,0.248L512.787,0.248L512.787,24.549L514.724,27.099C515.788,28.502 517.046,30.321 517.519,31.141L518.379,32.632L518.444,19.275L518.507,0.248L523.97,0.248L523.97,55.122L529.436,55.122L529.436,0.248L535.656,0.248L535.591,94.696L535.525,183.475L534.992,185.027C533.499,189.375 529.91,192.421 525.461,193.108L523.722,193.379L523.722,198.758L524.777,198.752C527.759,198.741 531.91,197.138 534.716,194.914C537.292,192.872 539.462,189.534 540.537,185.959C540.966,184.535 540.988,180.414 541.053,95.193L541.12,0.248L546.589,0.248L546.524,95.566L546.46,185.214L545.897,187.202C544.283,192.918 540.843,197.621 535.999,200.733C532.754,202.817 528.361,204.224 525.099,204.224L523.722,204.224L523.722,207.081C523.722,209.204 523.802,209.938 524.031,209.938C525.114,209.931 529.093,209.377 530.555,209.033C541.208,206.511 549.768,197.364 551.669,186.472C552.009,184.526 552.051,174.266 552.051,95.098L552.051,0.248L557.522,0.248L557.453,96.311C557.386,182.423 557.361,186.792 556.935,188.568C554.933,196.892 550.587,203.663 544.125,208.528C539.009,212.378 533.354,214.548 526.747,215.194L523.722,215.491L523.722,220.95L526.268,220.804C542.675,219.876 557.005,208.369 561.611,192.428C563.225,186.841 563.094,194.972 563.171,95.814L563.242,0.248L568.701,0.248L568.701,55.122L573.671,55.122L573.671,0.248L579.138,0.248L579.138,55.122L584.604,55.122L584.604,0.248L590.073,0.248L590.073,55.138L595.664,54.997L595.727,30.458L595.791,0.248L601.255,0.248L601.255,55.122L606.722,55.122L606.722,0.248L612.188,0.248L612.188,55.122L617.656,55.122L617.656,0.248L623.371,0.248L623.371,55.122L628.839,55.122L628.839,0.248L634.306,0.248L634.306,55.122L639.772,55.122L639.772,0.248L645.24,0.248L645.24,30.271C645.24,44.43 645.334,54.624 645.462,54.624C645.928,54.624 649.132,53.554 650.023,53.1L650.955,52.626L650.955,0.248L656.419,0.248L656.483,27.078L656.546,48.238L657.62,46.709C658.21,45.867 659.12,44.257 659.644,43.13C661.407,39.329 661.412,39.275 661.643,22.94C661.757,14.876 661.86,7.691 661.871,6.974L661.889,0L667.382,0L667.242,19.026C667.076,34.606 666.97,37.44 666.452,39.963C665.367,45.242 662.969,49.579 659.071,53.308C655.027,57.178 650.286,59.512 644.819,60.323C643.615,60.502 630.927,60.589 605.866,60.589L568.701,60.589L568.701,66.056L606.41,66.055C647.693,66.054 646.254,66.101 650.893,64.585C661.683,61.059 669.645,52.107 671.986,40.868C672.405,38.852 672.776,26.499 672.806,13.559L672.824,0L674.405,0C675.273,0 676.503,0.071 677.137,0.158L678.291,0.316L678.278,15.581C678.257,30.036 677.927,39.35 677.342,42.075C675.7,49.712 672.107,56.176 666.547,61.489C662.042,65.794 656.514,68.9 650.658,70.417C645.874,71.657 647.501,71.609 606.783,71.705L568.701,71.795L568.701,77.258L607.281,77.172C641.494,77.097 646.101,77.042 647.982,76.686C657.662,74.857 664.87,71.096 671.456,64.434C677.555,58.268 681.44,50.643 683.041,41.702C683.506,39.105 683.573,37.352 683.761,22.443C683.875,13.423 683.977,0.345 683.988,0.311C683.998,0.276 685.237,0.248 686.741,0.248L689.477,0.248L689.349,17.908C689.121,39.247 689.011,41.041 687.58,46.76C683.411,63.416 669.756,77.042 653.068,81.195C647.283,82.635 649.777,82.555 607.529,82.643L568.701,82.723L568.701,88.186L608.026,88.11C644.346,88.04 647.533,88.001 649.71,87.596C661.494,85.404 670.992,80.538 678.876,72.649C687.134,64.388 692.163,54.485 694.084,42.696C694.433,40.566 694.561,36.965 694.787,23.064L695.065,0.373L697.985,0.303L700.904,0.233L700.904,99.355L706.123,99.355L706.123,0.248L711.591,0.248L711.591,100.022L713.857,100.578C725.256,103.374 735.434,111.555 740.798,122.234C745.061,130.723 746.244,141.052 744.024,150.423C740.498,165.308 728.29,177.544 713.516,181.001L711.591,181.452L711.591,266.489L706.123,266.489L706.123,182.107L700.656,182.107L700.656,266.489L694.94,266.489L694.94,181.191L693.536,180.878C692.765,180.705 691.535,180.358 690.804,180.107L689.473,179.648L689.473,266.489L684.007,266.489L684.007,177.184L682.825,176.504C682.177,176.129 680.947,175.339 680.093,174.748L678.539,173.675L678.539,266.489L673.072,266.489L673.072,168.769L671.484,166.753C670.61,165.644 669.352,163.879 668.689,162.831L667.481,160.925L667.417,210.779L667.356,266.489L661.889,266.489L661.889,138.122L656.423,138.122L656.423,266.489L650.955,266.489L650.955,138.122L645.24,138.122L645.24,266.489L639.772,266.489L639.772,138.168L637.418,137.992C636.123,137.895 634.893,137.881 634.684,137.961C634.347,138.091 634.306,144.679 634.306,199.371L634.306,266.489L628.839,266.489L628.778,199.317L628.714,137.998L626.043,137.927L623.371,137.857L623.371,266.489L617.656,266.489L617.656,199.999C617.656,166.65 617.587,139.364 617.504,139.364C616.971,139.364 614.788,141.368 613.944,142.632C612.037,145.487 612.188,140.191 612.188,203.648L612.188,266.489L606.466,266.489L606.532,203.167L606.597,145.701L607.279,143.694C609.059,138.44 613.073,134.626 618.525,133.005C619.895,132.598 621.749,132.554 641.077,132.471L662.137,132.381L662.137,126.921L640.581,127.004C615.959,127.099 617.686,126.95 612.811,129.408C607.273,132.198 603.576,136.769 601.574,143.299C601.169,144.617 601.136,148.436 601.071,202.672L601,266.489L595.533,266.489L595.599,202.422L595.664,144.21L596.329,141.798C598.814,132.809 605.406,125.749 613.998,122.878C618.15,121.49 618.463,121.474 641.202,121.473L662.137,121.472L662.137,116.005L640.829,116.006C617.153,116.007 617.073,116.012 612.188,117.645C607.191,119.315 603.013,121.978 599.192,125.926C593.716,131.582 590.788,138.057 590.08,146.074C589.918,147.903 589.827,169.036 589.827,204.783L589.823,266.489L584.356,266.489L584.358,204.41C584.362,168.623 584.451,147.148 584.612,145.329C585.603,134.051 591.321,124.061 600.597,117.405C604.418,114.665 610.268,112.134 615.015,111.168C618.611,110.436 622.877,110.301 642.57,110.295L662.137,110.289L662.137,104.822L641.699,104.831C630.457,104.835 620.135,104.941 618.762,105.065C613.045,105.58 608.505,106.884 603.119,109.555C598.53,111.83 595.586,113.961 591.806,117.74C585.212,124.335 581.391,131.607 579.47,141.228C579.048,143.337 579.018,146.816 578.951,202.049L578.881,266.489L573.34,266.489L573.498,177.261L573.655,93.888L568.701,93.888L568.699,138.681C568.695,176.592 568.639,184.01 568.326,186.952C568.017,189.862 567.955,196.191 567.955,225.533L567.955,266.489L562.489,266.489L562.489,204.375L560.89,206.722C560.01,208.013 558.78,209.666 558.155,210.395L557.022,211.72L557.022,266.489L551.554,266.489L551.554,216.937L548.835,218.719L546.117,220.5L546.102,240.568L546.087,266.489L540.371,266.489L540.371,241.997C540.371,231.747 540.343,223.361 540.31,223.363C540.274,223.367 539.072,223.743 537.637,224.2L535.028,225.031L534.964,242.832L534.901,266.489L529.436,266.489L529.436,226.025L528.285,226.183C527.649,226.271 526.419,226.342 525.55,226.342L523.97,226.342L523.97,266.489L518.338,266.489L518.172,219.962C518.08,197.593 518.006,160.076 518.006,136.59L518.006,93.888L512.327,93.888L512.433,149.118C512.491,179.495 512.586,217.013 512.644,232.492L512.75,266.489L507.071,266.489L507.071,211.368C507.071,184.272 506.997,146.754 506.907,127.995L506.741,93.888L501.291,93.888L501.478,177.261L501.662,266.489L496.22,266.489L496.054,211.99C495.963,185.236 495.888,147.717 495.888,128.617L495.888,93.888L490.211,93.888L490.318,129.238C490.373,148.68 490.469,186.198 490.526,212.611L490.633,266.489L485.284,266.489L485.119,253.885C485.028,250.172 484.955,242.456 484.955,236.738L484.955,226.342L479.737,226.342L479.737,266.489L474.269,266.489L474.269,226.342L468.802,226.342L468.802,266.489L463.086,266.489L463.086,226.342L457.619,226.342L457.619,266.489L452.153,266.489L452.153,226.342L446.685,226.342L446.685,266.489L441.222,266.489L441.159,243.55L441.093,226.465L435.627,226.465L435.564,243.55L435.5,266.489L430.036,266.489L430.036,226.342L424.569,226.342L424.569,266.489L419.104,266.489L419.041,243.55L418.978,226.465L413.509,226.465L413.446,243.55L413.383,266.489L407.918,266.489L407.918,243.71C407.918,229.094 407.87,226.804 407.562,226.921C407.365,226.998 406.733,227.186 406.157,227.341C405.581,227.495 404.513,227.887 403.781,228.211L402.452,228.798L402.452,266.489L396.989,266.489L396.926,246.91L396.86,233.187L395.956,234.423C394.488,236.43 393.332,238.741 392.603,241.127C391.925,243.349 391.919,243.419 391.823,251.998L391.727,266.489L386.298,266.489L386.298,252.621C386.298,244.383 386.514,241.858 387.456,239.043C389.789,232.06 394.413,226.722 400.836,223.594C403.84,222.133 406.261,221.447 409.547,221.127C411.008,220.985 426.93,220.884 448.487,220.881L484.955,220.873L484.955,215.407L447.494,215.411C415.929,215.416 409.64,215.474 407.545,215.78C402.563,216.508 398.922,217.91 394.609,220.761C388.805,224.599 384.194,230.802 382.11,237.584C381.005,241.177 380.834,243.131 380.832,252.123L380.832,266.489L375.117,266.489L375.123,253.987C375.132,243.533 375.537,239.925 377.274,234.79C379.154,229.234 382.045,224.657 386.334,220.452C391.463,215.422 397.209,212.335 404.589,210.645L407.05,210.08L484.955,209.927L484.955,204.224L448.862,204.233C429.009,204.237 411.31,204.342 409.53,204.465C398.793,205.206 389.532,209.394 382.069,216.883C375.725,223.248 371.929,230.623 370.229,239.884C369.968,241.297 369.824,244.59 369.727,251.253L369.593,266.489L364.131,266.489L364.252,251.005C364.343,243.9 364.473,240.821 364.755,239.263C366.624,228.882 370.792,220.616 377.816,213.358C383.963,207.007 391.655,202.534 400.092,200.407C406.362,198.825 403.533,198.922 446.127,198.823L484.955,198.733L484.955,193.271L445.63,193.353C406.552,193.435 406.285,193.438 403.447,193.971C401.876,194.268 399.518,194.793 398.21,195.144C379.779,200.059 365.271,214.678 360.422,233.225C358.99,238.7 358.718,241.628 358.716,251.626L358.716,266.489L352.752,266.489L352.752,181.212L350.579,181.549C349.382,181.734 348.152,181.937 347.845,182L347.286,182.116L347.286,266.489L341.819,266.489L341.819,182.356L336.103,182.356L336.103,266.489L330.637,266.489L330.637,182.356L325.168,182.356L325.168,266.489L319.702,266.489L319.702,182.356L313.986,182.356L313.986,266.489L308.519,266.489L308.519,182.356L303.548,182.356L303.548,266.489L297.754,266.489L297.856,221.432L297.957,182.231L292.491,182.231L292.427,221.432L292.366,266.489L286.899,266.489L286.899,182.107L281.433,182.107L281.433,266.489L275.815,266.489L275.828,221.432L275.841,182.231L270.375,182.231L270.312,221.432L270.248,266.489L264.534,266.489L264.534,182.356L258.82,182.356L258.82,266.489L253.351,266.489L253.351,182.356L247.885,182.356L247.885,266.489L242.418,266.489L242.418,182.356L236.702,182.356L236.702,266.489L231.236,266.489L231.236,182.356L225.767,182.356L225.767,266.489L220.303,266.489L220.239,222.452L220.176,184.267L218.987,185.474C217.466,187.016 216.398,189.208 216.083,191.425C215.93,192.505 215.835,205.978 215.832,226.901L215.826,266.489L209.612,266.489L209.618,225.905C209.621,187.135 209.523,189.373 211.388,185.59C212.207,183.933 212.861,183.052 214.437,181.486C216.583,179.356 218.264,178.321 221.168,177.348L222.908,176.765L285.654,176.627C353.25,176.48 348.807,176.567 353.746,175.28C364.237,172.544 374.068,165.227 379.687,155.972C381.274,153.36 383.128,149.377 384.038,146.633C384.859,144.149 385.803,139.883 385.803,138.642L385.803,137.873L380.398,137.873L379.98,140.172C378.664,147.414 374.918,154.468 369.524,159.865C363.83,165.562 357.602,168.886 349.395,170.606C347.576,170.988 342.091,171.035 284.661,171.162L221.913,171.302L220.049,171.872C213.161,173.982 208.037,178.647 205.503,185.117C204.099,188.697 204.146,187.295 204.146,225.46L204.146,266.489L198.429,266.489L198.433,227.273C198.439,193.759 198.528,189.649 199.339,186.393C201.751,176.7 209.141,169.201 218.931,166.513L221.417,165.83L284.163,165.699C346.805,165.567 346.915,165.566 349.159,165.045C361.23,162.242 370.411,153.743 373.831,142.208C374.238,140.833 374.611,139.323 374.657,138.853L374.743,137.998L371.999,137.928L369.256,137.858L368.583,140.289C365.806,150.32 357.309,158.015 347.064,159.777C345.862,159.984 329.487,160.047 286.027,160.012C246.144,159.98 225.624,160.05 223.559,160.226C221.867,160.37 219.462,160.727 218.215,161.019C204.651,164.202 194.653,175.626 193.222,189.58C193.056,191.194 192.963,204.422 192.963,226.368L192.963,266.489L187.482,266.489L187.566,224.414C187.659,184.796 187.566,187.34 189.114,181.997C190.892,175.861 194.098,170.494 198.782,165.809C204.489,160.103 210.88,156.785 219.429,155.091C221.537,154.673 225.203,154.646 283.17,154.625C340.134,154.605 344.827,154.572 346.745,154.179C352.739,152.951 357.76,149.424 361.057,144.129C361.81,142.922 363.117,139.781 363.348,138.629L363.499,137.873L357.993,137.873L356.933,140.048C355.046,143.918 351.427,146.999 347.036,148.473C345.726,148.912 343.059,148.937 283.045,149.071C220.59,149.211 220.416,149.213 217.876,149.735C205.681,152.246 195.982,158.653 189.377,168.564C186.436,172.978 184.626,177.005 183.384,181.903C182.014,187.308 182.038,186.542 182.033,225.037L182.029,266.489L176.065,266.489L176.065,90.218L174.76,90.68C174.043,90.933 172.812,91.32 172.027,91.538L170.598,91.936L170.598,266.489L165.131,266.489L165.131,93.085L163.453,93.244C162.531,93.331 161.245,93.467 160.595,93.545L159.415,93.686L159.415,266.489L153.948,266.489L153.948,93.64L148.481,93.64L148.481,266.489L143.014,266.489L143.014,93.64L137.547,93.64L137.547,266.489L131.831,266.489L131.831,93.64L126.364,93.64L126.365,144.024C126.365,174.331 126.463,195.994 126.61,198.385C126.767,200.912 126.789,212.991 126.672,231.56L126.488,266.614L124.625,266.638C123.6,266.653 122.327,266.618 121.797,266.56L121.797,266.56ZM362.397,215.034L363.933,212.55L363.933,177.576L363.374,177.712C363.066,177.786 361.78,178.271 360.517,178.789L358.217,179.73L358.228,222.489L359.544,220.005C360.267,218.637 361.551,216.4 362.395,215.034L362.397,215.034ZM374.868,200.892L374.868,170.173L373.045,171.621C372.044,172.418 370.814,173.323 370.313,173.632L369.401,174.195L369.401,206L372.134,203.445L374.868,200.892ZM383.441,195.224C384.261,194.762 385.128,194.309 385.366,194.217C385.776,194.061 385.803,192.931 385.803,175.363C385.803,165.086 385.76,156.724 385.707,156.78C385.655,156.837 385.139,157.667 384.559,158.623C383.982,159.58 382.794,161.327 381.922,162.504L380.334,164.645L380.334,197.058L381.143,196.56C381.587,196.286 382.621,195.684 383.441,195.224ZM395.928,190.057L396.985,189.791L396.985,136.822L396.426,136.973C396.119,137.057 394.888,137.258 393.692,137.42L391.517,137.714L391.517,191.521L393.194,190.92C394.117,190.592 395.347,190.203 395.928,190.057ZM405.993,188.149L407.918,187.998L407.918,133.179L406.49,133.817C405.704,134.168 404.502,134.648 403.818,134.884L402.577,135.311L402.513,161.971L402.45,188.632L403.259,188.466C403.702,188.374 404.934,188.233 405.993,188.149ZM419.101,156.87C419.101,127.373 419.08,125.932 418.665,126.242C418.424,126.42 417.138,127.383 415.807,128.38L413.386,130.194L413.386,187.823L419.101,187.823L419.101,156.87ZM430.036,187.823L430.036,112.164L428.915,114.076C428.3,115.127 427.07,116.951 426.183,118.128L424.569,120.268L424.569,187.823L430.036,187.823ZM452.153,187.823L452.153,81.172L450.697,79.516C449.898,78.605 448.668,77.031 447.963,76.019L446.685,74.178L446.685,187.823L452.153,187.823ZM463.086,187.823L463.086,89.177L462.031,88.642C461.45,88.348 460.219,87.621 459.297,87.027L457.619,85.946L457.619,187.823L463.086,187.823ZM474.269,187.823L474.269,93.018L471.846,92.438C470.515,92.118 469.285,91.802 469.113,91.734C468.865,91.635 468.804,101.331 468.804,139.717L468.802,187.823L474.269,187.823ZM484.955,167.238C484.955,155.917 484.881,134.725 484.79,120.147L484.624,93.64L479.737,93.64L479.737,187.823L484.955,187.823L484.955,167.238ZM525.556,187.471C526.954,187.051 528.309,186.067 528.961,184.999C529.423,184.239 529.435,183.081 529.436,139.054L529.436,93.888L523.968,93.888L523.968,140.856C523.968,166.688 524.063,187.823 524.179,187.823C524.292,187.823 524.913,187.664 525.556,187.471ZM711.037,175.928C723.765,173.194 733.91,164.1 737.919,151.827C739.229,147.819 739.542,145.669 739.529,140.731C739.518,135.815 739.087,133.064 737.702,129.069C732.62,114.4 719.052,104.822 703.349,104.822L700.656,104.822L700.656,110.289L702.581,110.294C711.345,110.313 718.597,113.08 724.49,118.655C732.215,125.96 735.518,136.165 733.55,146.649C731.559,157.244 723.441,166.361 713.082,169.629C709.735,170.684 707.464,171.024 703.763,171.024C700.06,171.024 697.79,170.684 694.444,169.629C683.709,166.242 675.685,156.97 673.708,145.67C673.374,143.76 673.322,139.509 673.322,113.934C673.322,96.552 673.229,84.438 673.096,84.487C672.973,84.532 671.691,85.24 670.247,86.06L667.621,87.551L667.617,113.893C667.615,140.299 667.716,144.243 668.472,147.938C671.173,161.108 681.666,172.158 694.658,175.514C699.441,176.75 706.395,176.925 711.037,175.928ZM120.897,135.016L120.897,93.64L115.43,93.64L115.43,167.595L116.983,169.96C117.837,171.26 119.038,173.239 119.651,174.357C120.264,175.477 120.795,176.392 120.831,176.392C120.867,176.392 120.897,157.772 120.897,135.016ZM182.428,169.371C183.036,168.162 184.656,165.617 186.485,162.997L187.247,161.904L187.247,123.423C187.247,102.258 187.189,84.942 187.118,84.942C187.047,84.942 186.567,85.209 186.049,85.536C185.532,85.862 184.304,86.534 183.32,87.03L181.532,87.93L181.532,129.303C181.532,152.058 181.586,170.676 181.652,170.676C181.718,170.676 182.067,170.089 182.428,169.371ZM706.37,165.446C716.407,164.416 724.798,157.403 727.612,147.691C731.418,134.554 723.832,120.682 710.773,116.897C708.577,116.261 704.753,115.757 702.121,115.757L700.656,115.757L700.656,121.408L704.072,121.533C706.864,121.634 707.854,121.776 709.477,122.309C715.68,124.345 720.159,128.825 722.181,135.016C723.115,137.877 723.277,142.129 722.567,145.104C720.947,151.874 716.316,156.935 709.727,159.133C706.834,160.098 702.419,160.259 699.299,159.513C693.523,158.132 688.851,154.353 686.24,148.951C684.262,144.86 684.408,147.827 684.32,109.47L684.242,75.227L678.788,80.323L678.788,111.551C678.788,145.275 678.77,144.751 680.11,148.683C683.179,157.678 691.428,164.356 700.781,165.416C703.588,165.734 703.564,165.734 706.37,165.446ZM109.845,93.942C109.754,93.703 109.05,93.641 107.047,93.693L104.372,93.764L104.308,124.904L104.245,156.045L105.047,156.713C105.488,157.08 106.746,158.195 107.844,159.189L109.839,160.997L109.902,127.629C109.938,109.277 109.912,94.117 109.845,93.942ZM197.002,152.8L198.182,151.954L198.182,76.215L195.447,78.639L192.715,81.062L192.715,156.276L194.268,154.96C195.121,154.237 196.351,153.265 197.002,152.8ZM707.058,154.149C709.515,153.57 711.514,152.418 713.479,150.45C718.96,144.962 718.955,136.516 713.466,131.028C710.599,128.16 707.5,126.939 703.088,126.939L700.656,126.939L700.656,132.341L703.211,132.455C706.264,132.591 707.878,133.215 709.578,134.915C711.242,136.577 711.947,138.307 711.956,140.736C711.962,142.494 711.867,142.925 711.151,144.381C709.679,147.37 707.168,148.913 703.757,148.925C701.998,148.931 701.569,148.836 700.103,148.114C698.295,147.224 697.033,145.953 696.121,144.105L695.562,142.968L695.313,58.328L694.109,60.763C693.447,62.102 692.185,64.382 691.307,65.829L689.71,68.46L689.777,105.714L689.846,142.968L690.534,144.913C691.428,147.443 692.509,149.095 694.425,150.866C697.831,154.013 702.494,155.225 707.058,154.149ZM98.78,122.963L98.78,93.64L93.313,93.64L93.313,149.298L94.99,150.158C95.913,150.631 97.115,151.3 97.662,151.644C98.209,151.989 98.684,152.275 98.718,152.279C98.752,152.283 98.78,139.091 98.78,122.963ZM208.185,146.8L209.116,146.471L209.103,60.713L208.168,62.452C207.113,64.418 204.871,68.049 204.136,68.982C203.657,69.592 203.648,70.236 203.648,109.189L203.648,148.775L205.45,147.952C206.442,147.499 207.672,146.981 208.185,146.8ZM87.785,120.292L87.722,93.764L82.255,93.764L82.191,119.536L82.128,145.309L83.185,145.581C83.767,145.73 84.858,146.061 85.609,146.316C86.361,146.572 87.172,146.789 87.412,146.8C87.826,146.819 87.845,145.447 87.785,120.292ZM76.663,118.987L76.663,93.64L71.196,93.64L71.196,143.559L72.252,143.686C73.741,143.865 76.527,144.259 76.601,144.3C76.635,144.319 76.663,132.928 76.663,118.987ZM65.729,143.589L65.729,93.64L60.262,93.64L60.262,143.589L65.729,143.589ZM231.232,143.589L231.232,75.314L229.094,72.114C227.918,70.354 226.694,68.41 226.373,67.795L225.788,66.677L225.766,143.589L231.232,143.589ZM242.355,114.488L242.417,85.512L240.087,83.737C238.805,82.761 237.617,81.794 237.446,81.588C237.276,81.383 237.038,81.214 236.918,81.214C236.659,81.214 236.616,143.174 236.874,143.431C236.969,143.527 238.227,143.573 239.669,143.535L242.292,143.465L242.355,114.488ZM253.349,143.589L253.349,90.942L251.978,90.428C251.223,90.146 250.052,89.635 249.376,89.292C248.701,88.95 248.088,88.67 248.015,88.67C247.943,88.67 247.883,101.026 247.883,116.129L247.883,143.589L253.349,143.589ZM264.407,143.465L264.407,93.529L261.923,93.103C260.557,92.868 259.299,92.67 259.127,92.661C258.881,92.649 258.816,97.864 258.816,117.952C258.816,131.87 258.894,143.336 258.991,143.431C259.086,143.527 260.344,143.573 261.787,143.535L264.407,143.465ZM308.517,143.589L308.517,139.579L307.789,140.098C306.816,140.791 305.038,142.829 305.038,143.251C305.038,143.504 305.477,143.589 306.778,143.589L308.517,143.589ZM319.575,143.465L319.575,137.998L314.109,137.998L314.038,140.465C313.997,141.822 314.023,143.084 314.094,143.269C314.194,143.53 314.828,143.59 316.901,143.535L319.575,143.465ZM330.635,143.589L330.635,137.873L325.166,137.873L325.166,143.589L330.635,143.589ZM341.692,143.465L341.692,137.998L336.226,137.998L336.153,140.465C336.114,141.822 336.14,143.084 336.211,143.269C336.312,143.53 336.944,143.59 339.016,143.535L341.692,143.465ZM705.548,142.801C706.076,142.305 706.136,142.058 706.07,140.642C705.975,138.511 705.411,138.047 702.757,137.913L700.904,137.819L700.904,139.61C700.904,141.667 701.325,142.613 702.507,143.216C703.474,143.708 704.769,143.532 705.548,142.801ZM54.546,118.628L54.546,94.163L53.242,94.544C52.524,94.754 51.294,95.21 50.507,95.559L49.077,96.194L49.14,118.671L49.204,141.148L50.695,141.783C51.515,142.133 52.689,142.56 53.304,142.733C53.919,142.906 54.45,143.058 54.484,143.07C54.518,143.082 54.546,132.083 54.546,118.628ZM349.724,140.51C350.458,139.815 351.22,138.938 351.414,138.56L351.77,137.873L347.284,137.873L347.284,140.119C347.284,142.362 347.284,142.364 347.837,142.068C348.141,141.906 348.989,141.204 349.724,140.51ZM43.602,118.552L43.592,100.722L42.839,101.592C41.645,102.969 40.183,105.764 39.501,107.97C38.066,112.61 38.013,124.501 39.407,129.082C39.995,131.014 41.526,134.009 42.651,135.43C43.066,135.954 43.452,136.382 43.509,136.382C43.566,136.382 43.608,128.359 43.602,118.552ZM274,120.064L275.467,118.033L275.467,93.888L269.999,93.888L269.999,126.546L271.268,124.319C271.965,123.095 273.195,121.18 274,120.064ZM580.737,122.762C581.255,121.899 582.336,120.305 583.141,119.219L584.604,117.245L584.604,93.888L579.138,93.888L579.138,109.599C579.138,122.732 579.192,125.23 579.468,124.82C579.648,124.551 580.221,123.624 580.737,122.762ZM284.46,109.348L286.37,107.929L286.4,93.888L280.933,93.888L280.933,112.093L281.74,111.43C282.186,111.066 283.408,110.129 284.46,109.348ZM595.787,107.206L595.787,93.888L590.073,93.888L590.073,111.517L592.93,109.361L595.787,107.206ZM296.9,102.454L297.582,102.283L297.582,93.888L292.116,93.888L292.116,104.542L294.166,103.583C295.294,103.055 296.524,102.547 296.9,102.454ZM602.806,103.495C603.529,103.174 604.707,102.718 605.423,102.481L606.722,102.049L606.722,93.888L601.255,93.888L601.255,98.982C601.255,101.784 601.307,104.077 601.373,104.077C601.436,104.077 602.081,103.815 602.806,103.495ZM305.66,100.099C308.855,99.599 308.517,99.995 308.517,96.741L308.517,93.888L303.051,93.888L303.051,97.26C303.051,100.355 303.086,100.621 303.485,100.501C303.724,100.43 304.702,100.248 305.66,100.099ZM615.047,99.973C616.277,99.771 617.368,99.605 617.47,99.605C617.573,99.604 617.656,98.318 617.656,96.746L617.656,93.888L612.188,93.888L612.188,97.119C612.188,99.54 612.266,100.348 612.499,100.345C612.671,100.342 613.817,100.175 615.047,99.973ZM319.7,99.355L319.7,93.888L313.984,93.888L313.984,96.456C313.984,97.868 314.058,99.099 314.15,99.19C314.241,99.281 315.527,99.355 317.009,99.355L319.7,99.355ZM330.635,99.355L330.635,93.888L325.166,93.888L325.166,99.355L330.635,99.355ZM341.817,99.355L341.817,93.888L336.101,93.888L336.101,99.355L341.817,99.355ZM351.608,99.045C350.816,97.657 348.16,95.131 347.494,95.131C347.379,95.131 347.284,96.081 347.284,97.243L347.284,99.355L349.535,99.355C351.265,99.355 351.746,99.283 351.608,99.045ZM628.839,99.355L628.839,93.888L623.371,93.888L623.371,99.355L628.839,99.355ZM639.772,99.355L639.772,93.64L638.192,93.64C637.323,93.64 636.093,93.711 635.459,93.798L634.306,93.956L634.306,99.355L639.772,99.355ZM650.955,96.098C650.955,92.846 650.955,92.841 650.396,92.974C650.088,93.047 649.305,93.171 648.657,93.249C648.008,93.327 646.974,93.454 646.359,93.531L645.24,93.67L645.24,99.355L650.955,99.355L650.955,96.098ZM661.889,94.729C661.889,90.442 661.858,90.112 661.455,90.225C661.215,90.293 659.985,90.667 658.721,91.057L656.423,91.765L656.423,99.355L661.889,99.355L661.889,94.729ZM514.237,88.256L529.934,88.091L529.934,82.706L505.053,82.706C477.991,82.706 477.325,82.676 472.929,81.297C465.067,78.831 458.361,73.14 454.79,65.905C452.533,61.331 451.616,57.384 451.622,52.264C451.626,46.975 452.565,43.057 454.945,38.397C463.017,22.586 482.769,17.175 498.069,26.583C500.717,28.211 505.478,32.832 507.12,35.37C510.512,40.609 512.273,46.562 512.286,52.823L512.29,55.122L517.827,55.122L517.682,51.208C517.516,46.708 516.932,43.555 515.605,39.971C508.862,21.767 489.317,12.247 470.791,18.142C465.723,19.755 460.441,23.011 456.52,26.939C451.37,32.097 447.81,38.881 446.509,46.019C445.937,49.163 445.943,55.464 446.521,58.601C449.177,73.02 460.246,84.422 474.528,87.451C478.671,88.329 488.446,88.527 514.237,88.256ZM529.934,77.238L529.934,71.835L504.648,71.701C477.107,71.555 478.177,71.611 474.518,70.115C464.689,66.098 459.998,54.665 464.117,44.761C466.225,39.695 470.729,35.603 476.132,33.847C478.837,32.969 482.769,32.77 485.714,33.362C491.587,34.544 497.193,39.003 499.497,44.324C500.613,46.905 500.906,48.301 501.038,51.705L501.172,55.122L506.823,55.122L506.821,53.444C506.808,43.09 501.871,34.662 493.19,30.178C487.869,27.43 481.135,26.723 475.262,28.296C467.783,30.301 460.885,36.757 458.415,44.063C456.635,49.335 456.669,55.41 458.508,60.689C461.524,69.341 469.715,75.892 478.867,76.969C479.823,77.082 491.704,77.189 505.269,77.206L529.934,77.238ZM529.934,66.304L529.934,60.598L504.898,60.531L479.86,60.464L478.494,59.82C474.216,57.802 472.463,52.783 474.535,48.499C475.258,47.007 477.452,45.075 479.051,44.524C483.153,43.109 487.582,44.973 489.38,48.872C489.9,49.998 490.049,50.755 490.129,52.699L490.232,55.122L495.641,55.122L495.637,52.823C495.633,50.024 495.145,47.831 494.081,45.835C489.753,37.71 478.76,36.003 472.271,42.448C464.955,49.711 467.654,61.786 477.392,65.36C479.403,66.098 483.101,66.203 508.998,66.259L529.934,66.304ZM484.668,53.111C484.581,51.205 484.534,51.062 483.768,50.377C482.833,49.542 481.224,49.386 480.289,50.041C479.804,50.381 479.737,50.649 479.737,52.239C479.737,54.732 480.126,55.068 483.054,55.102L484.76,55.122L484.668,53.111ZM21.489,214.723L21.482,168.812L19.6,167.197C18.564,166.309 16.748,164.519 15.564,163.221C7.447,154.322 2.49,144.03 0.569,132.088C0.045,128.831 -0,127.776 -0,118.614C-0,109.453 0.045,108.397 0.569,105.141C2.141,95.367 5.838,86.516 11.543,78.865C13.75,75.905 17.027,72.313 19.49,70.156L21.475,68.416L21.485,37.167L21.496,0.248L26.963,0.248L26.963,35.117C26.963,51.176 27.011,64.316 27.07,64.316C27.129,64.316 28.067,63.785 29.154,63.136C30.241,62.487 31.479,61.765 31.905,61.532L32.678,61.109L32.678,0.248L38.143,0.248L38.206,32.331L38.27,58.744L40.941,57.892L43.612,57.039L43.612,0.248L49.079,0.248L49.079,55.932L50.011,55.766C50.524,55.675 51.754,55.532 52.745,55.449L54.546,55.298L54.546,0.248L60.262,0.248L60.262,55.122L65.729,55.122L65.729,0.248L71.196,0.248L71.196,55.122L76.663,55.122L76.663,0.248L82.13,0.248L82.13,55.122L87.846,55.122L87.846,0.248L93.313,0.248L93.313,55.122L98.78,55.122L98.78,0.248L104.247,0.248L104.247,55.138L109.839,54.997L109.902,30.458L109.965,0.248L115.43,0.248L115.43,55.122L120.897,55.122L120.897,0.248L126.364,0.248L126.364,55.122L131.831,55.122L131.831,0.248L137.547,0.248L137.547,55.122L143.014,55.122L143.014,0.248L148.481,0.248L148.481,55.122L153.948,55.122L153.948,0.248L159.415,0.248L159.415,54.624L159.991,54.624C160.77,54.624 163.055,53.932 164.199,53.35L165.131,52.875L165.131,0.248L170.595,0.248L170.658,27.476L170.722,49.033L172.124,47.169C173.767,44.986 174.809,42.986 175.539,40.62C176.052,38.958 176.065,38.512 176.065,22.417L176.065,0.248L182.029,0.248L182.027,20.02C182.025,27.777 181.915,35.365 181.78,36.884C180.77,48.296 172.927,57.294 161.638,59.997C159.904,60.412 156.432,60.45 106.359,60.596C53.767,60.75 52.888,60.761 50.197,61.265C38.619,63.438 29.633,67.994 21.654,75.737C13.218,83.922 8.119,93.725 6.032,105.773C5.534,108.642 5.485,109.776 5.48,118.49C5.473,129 5.613,130.564 7.093,136.427C9.407,145.59 14.24,154.134 20.877,160.793C29.091,169.033 38.944,174.07 50.695,176.033C52.475,176.331 55.75,176.504 62.25,176.648C72.036,176.864 73.167,176.998 76.989,178.392C84.412,181.102 90.292,187.543 92.747,195.651L93.424,197.887L93.514,212.55C93.564,220.612 93.526,234.73 93.429,243.923L93.253,266.489L87.855,266.489L87.789,229.137L87.722,197.639L86.926,195.572C86.488,194.437 85.776,192.926 85.343,192.218C84.418,190.704 82.584,188.348 82.317,188.332C82.214,188.324 82.13,204.591 82.13,224.478L82.13,266.489L76.663,266.489L76.663,184.149L75.731,183.777C74.386,183.24 72.174,182.604 71.648,182.604C71.213,182.604 71.196,184.067 71.196,221.619L71.196,266.489L65.729,266.489L65.729,182.107L60.262,182.107L60.262,266.489L54.548,266.489L54.485,221.309L54.422,181.984L52.727,181.816C51.794,181.723 50.592,181.574 50.055,181.482L49.079,181.318L49.079,266.489L43.612,266.489L43.612,180.237L40.879,179.337L38.145,178.439L38.145,266.489L32.68,266.489L32.617,218.333L32.554,176.031L30.939,175.144C30.05,174.655 28.792,173.943 28.143,173.561L26.963,172.865L26.963,266.489L21.496,266.489L21.489,214.723ZM98.87,257.59C98.952,255.916 99.046,242.078 99.079,226.837C99.124,205.821 99.065,198.732 98.834,197.477C97.729,191.478 94.882,185.592 91.101,181.488C87.254,177.313 82.043,173.984 77.104,172.549C73.405,171.474 72.437,171.378 63.12,171.165C53.303,170.94 51.46,170.75 46.47,169.451C38.266,167.314 31.171,163.213 24.958,157.018C17.596,149.676 13.106,140.662 11.385,129.774C10.759,125.811 10.767,111.386 11.398,107.356C13.678,92.787 21.745,80.538 33.945,73.119C39.234,69.903 44.318,68.021 51.192,66.734C53.88,66.23 54.803,66.219 107.354,66.065C157.531,65.917 160.895,65.88 162.646,65.462C176.176,62.23 185.624,51.81 187.228,38.347C187.39,36.987 187.495,30.198 187.495,21.014L187.495,0.248L192.991,0.248L192.896,22.754C192.806,39.096 192.786,39.663 192.247,42.075C189.34,55.08 180.734,65.031 168.609,69.414C167.117,69.953 165.725,70.345 162.697,71.08C161.848,71.286 146.849,71.406 108.098,71.517L54.671,71.67L51.813,72.211C42.492,73.975 35.219,77.743 28.858,84.104C23.285,89.677 19.509,96.385 17.682,103.957C16.595,108.465 16.472,110.27 16.588,119.981C16.707,129.937 16.827,130.94 18.554,136.356C22.862,149.87 34.348,160.688 48.156,164.236C52.145,165.261 54.453,165.475 63.865,165.693C71.776,165.876 73.399,165.98 75.487,166.433C89.912,169.566 101.078,180.875 103.968,195.278C104.689,198.869 104.737,201.719 104.577,230.876L104.414,266.489L98.72,266.489L98.87,257.59ZM110.1,230.131C110.289,197.078 110.305,197.598 108.954,192.195C105.867,179.846 97.339,169.496 85.812,164.112C78.909,160.887 73.774,160.017 61.505,159.993C55.624,159.982 52.956,159.751 50.034,158.998C43.156,157.228 36.847,153.585 32.287,148.751C27.396,143.567 24.263,137.58 22.695,130.418C22.156,127.957 22.123,127.287 22.123,118.614C22.123,109.942 22.156,109.271 22.695,106.81C25.932,92.03 36.55,81.299 51.267,77.935L53.677,77.384L107.105,77.235C165.031,77.074 161.321,77.166 166.8,75.766C181.583,71.988 193.442,60.092 197.162,45.306C198.381,40.463 198.428,39.611 198.429,22.257L198.429,0.248L204.192,0.248L204.079,22.505C203.972,37.953 203.93,39.307 203.439,42.199C201.671,52.629 197.252,61.29 189.99,68.55C182.68,75.861 173.971,80.326 163.515,82.127C161.236,82.519 156.615,82.567 107.726,82.703C58.701,82.84 54.283,82.886 52.688,83.275C48.084,84.397 45.002,85.658 41.863,87.704C33.906,92.891 28.838,101.066 27.71,110.531C27.386,113.254 27.386,123.974 27.71,126.697C28.549,133.738 31.535,140.076 36.317,144.964C39.968,148.696 43.666,151.082 48.373,152.741C52.492,154.192 53.425,154.303 63.368,154.525C69.845,154.669 73.298,154.85 75.048,155.137C85.574,156.863 94.405,161.355 101.786,168.737C109.162,176.113 113.802,185.493 115.305,196.072C115.72,198.989 115.804,218.922 115.513,245.539L115.348,266.489L109.925,266.489L110.1,230.131Z" style="fill-rule:nonzero;"/>
</svg>
