<?xml version="1.0" encoding="UTF-8" standalone="no"?>
<!DOCTYPE svg PUBLIC "-//W3C//DTD SVG 1.1//EN" "http://www.w3.org/Graphics/SVG/1.1/DTD/svg11.dtd">
<svg width="100%" height="100%" viewBox="0 0 746 267" version="1.1" xmlns="http://www.w3.org/2000/svg" xmlns:xlink="http://www.w3.org/1999/xlink" xml:space="preserve" xmlns:serif="http://www.serif.com/" style="fill-rule:evenodd;clip-rule:evenodd;stroke-linejoin:round;stroke-miterlimit:2;">
    <g transform="matrix(1,0,0,1,-16.3857,-52.1846)">
        <g transform="matrix(1,0,0,1,-2231.5,1.16086)">
            <g id="path2126" transform="matrix(0.186378,0,0,0.186378,2247.76,37.5581)">
                <g>
                    <path d="M654.161,1502.46L648.989,1501.9L649.826,1435.58C650.286,1416.38 650.769,1340.67 650.899,1267.33C651.11,1149.01 650.887,1132.38 648.924,1119.59C638.951,1054.66 612.061,1001.07 566.795,955.911C557.558,946.696 545.032,935.405 538.96,930.821C500.813,902.02 455.876,882.879 408.572,875.282C399.546,873.832 379.635,872.793 346,872.016C308.865,871.159 294.283,870.344 287.026,868.722C237.28,857.602 197.605,820.454 183.504,771.793C175.174,743.047 175.145,674.387 183.45,645.726C195.848,602.942 230.202,566.613 270.684,553.478C294.963,545.599 271.572,546.209 584.667,545.296C866.622,544.474 871.574,544.415 886,541.714C913.663,536.535 938.123,528.797 961.038,517.976C1037.84,481.705 1096.07,410.556 1116.5,328C1124.22,296.809 1124.35,294.741 1124.97,195.667L1125.54,73.582L1154.35,73.582L1153.64,476.546L1152.93,849.092L1161.47,847.359C1166.16,846.406 1172.85,845.224 1176.33,844.731L1182.67,843.837L1182.67,73.582L1213.15,73.582L1213.69,219.667C1214.15,317.575 1214.56,337.073 1216.34,346.667C1226.45,401.248 1248.71,443.958 1285.5,479.364C1320.43,512.975 1356.77,531.673 1408,542.383C1416.75,544.212 1445.15,544.576 1634.67,545.283C1875.82,546.184 1856.51,545.385 1876.67,555.297C1894,563.821 1907.35,577.375 1915.75,594.964L1920.67,605.261L1935.83,605.297L1951,605.333L1950.15,601.081C1948.79,594.303 1941.03,577.338 1935.41,568.868C1921.18,547.437 1899.44,530.507 1876,522.604C1856.39,515.994 1857.29,516.02 1641.61,516.009C1510.23,516.002 1435.38,515.513 1426.95,514.603C1341.63,505.401 1270.78,444.061 1249.95,361.381C1244.2,338.537 1244.05,334.929 1244.02,217L1244,73.582L1273.24,73.582L1273.69,220.333C1274.1,326.074 1274.36,337.577 1276.51,346.667C1284.64,381.087 1299.26,408.362 1322.36,432.205C1347.64,458.317 1376.94,474.701 1413.01,482.903L1426,485.857L1642.67,486.668C1843.98,487.422 1860.04,487.647 1869.26,489.848C1904.17,498.182 1934.85,518.26 1956.07,546.667C1963.9,557.158 1975.3,580.967 1978.77,594.094L1981.74,605.333L2011.66,605.333L2010.51,599.198C2004.24,565.624 1987.19,533.76 1962.05,508.619C1937.98,484.553 1909.29,468.764 1874.67,460.527C1865.36,458.314 1849.6,458.092 1648,457.328C1434.02,456.517 1431.18,456.472 1419.05,453.701C1361.43,440.539 1319.61,398.977 1305.84,341.194C1303.71,332.266 1303.45,320.584 1303.02,217.667L1302.56,73.582L1332,73.582L1332.01,209.667C1332.02,321.544 1332.45,330.785 1338.43,348.03C1350.51,382.869 1377.95,409.821 1413.34,421.62L1426,425.843L1640,426.845C1788.71,427.541 1857.46,428.316 1865.34,429.383C1933.17,438.574 1991.51,480.498 2022.45,542.288C2029.84,557.046 2037.97,582.654 2040.67,599.667L2041.57,605.333L2070.98,605.333L2070.05,596.66C2069.54,591.889 2067.38,581.348 2065.25,573.236C2054.72,533.073 2034.38,497.348 2005.34,467.991C1969.99,432.265 1930.27,411.359 1878.09,401.021C1863.37,398.105 1862.81,398.096 1647.34,397.367L1431.34,396.635L1422.67,393.541C1398.84,385.036 1381.57,370.029 1371.53,349.112C1368.25,342.267 1364.91,333.487 1364.11,329.601C1363.14,324.863 1362.67,286.538 1362.67,213.268L1362.67,73.582L1392,73.582L1392.02,211C1392.03,326.925 1391.91,324.79 1399.4,338.548C1403.05,345.266 1415.84,358.667 1418.59,358.667C1419.57,358.667 1420,320.128 1420,231.333L1420,73.582L1449.33,73.582L1449.33,368L1478.67,368L1478.67,73.582L1508,73.582L1508,368L1537.33,368L1537.33,73.582L1568,73.582L1568,368L1597.33,368L1597.33,73.582L1626.67,73.582L1626.67,368L1656,368L1656,73.582L1685.32,73.582L1685.66,235.667L1686,367.333L1716,368.087L1716,73.582L1745.33,73.582L1745.33,368L1774.67,368L1774.67,73.582L1804,73.582L1804,368L1834.67,368L1834.67,73.582L1864,73.582L1864,368.929L1875.67,370.542C1882.08,371.43 1888.68,372.486 1890.33,372.889L1893.33,373.622L1893.33,73.582L1922.65,73.582L1922.99,242.764L1923.33,381.528L1938,387.428C1946.07,390.672 1952.82,393.328 1953,393.33C1953.18,393.331 1953.33,328.233 1953.33,248.667L1953.33,73.582L1982.67,73.582L1982.67,410.175L2011.33,431.641L2011.67,267.821L2012.01,73.582L2041.33,73.582L2041.33,462.459L2049.99,473.944C2054.76,480.26 2061.36,490.044 2064.66,495.686L2070.67,505.944L2070.67,73.582L2101.33,73.582L2101.33,598.735L2105.25,596.709C2111.6,593.427 2122.35,581.588 2126.31,573.505L2130,566L2130.34,335L2130.69,73.582L2161.33,73.582L2161.67,313.667C2162.06,561.221 2162.09,557.579 2159.4,568.353C2156.34,580.595 2147.81,596.912 2139.77,605.898C2130.68,616.064 2115.88,625.681 2102.17,630.326L2091.33,634L1875.33,634.717C1642.14,635.492 1655.11,635.101 1627.33,642.198C1563.41,658.532 1507.37,703.502 1477.62,762.348C1473.26,770.956 1468.1,782.263 1466.14,787.474C1461.81,799.006 1455.27,824.543 1453.98,835L1453.03,842.667L1467.82,842.667C1482.11,842.667 1482.63,842.564 1483.18,839.667C1492.58,789.338 1511.36,753.314 1544.86,721.333C1572.55,694.904 1608.18,676.065 1644.35,668.734C1665.45,664.457 1686.84,664.042 1887.06,664.021C2108.05,663.998 2096.63,664.398 2118.7,655.901C2138.05,648.451 2158.98,631.754 2170.92,614.255C2178.09,603.755 2184.67,589.515 2188.31,576.667L2191.33,566L2190.82,335L2190.3,73.582L2219.67,73.582L2220.63,330.333C2221.48,532.286 2221.36,558.037 2219.5,569.389C2209.46,630.671 2169.35,673.859 2106.67,690.876C2102.12,692.11 2048,692.719 1883.33,693.386C1648.54,694.338 1662.35,693.897 1636.31,701.276C1578.29,717.72 1531.3,766.731 1515.96,826.815C1511.66,843.648 1510.92,842.667 1527.95,842.667L1542.56,842.667L1544.02,837C1551.61,807.488 1564.5,784.869 1584.88,765.282C1606.14,744.852 1626.16,734.095 1657.33,726.345C1661.56,725.294 1727.37,724.6 1880,723.996C2119.51,723.049 2104.44,723.62 2131.33,714.465C2195,692.787 2239.74,638.356 2249.43,570.794C2250.65,562.261 2250.88,505.267 2250.4,331.794L2249.77,73.582L2278.25,73.582L2279.12,128.214C2280.66,170.626 2280.16,565.737 2278.56,576.411C2267.16,652.347 2217.7,713.63 2146.06,740.594C2135.92,744.412 2125.65,747.252 2110.67,750.381C2101.92,752.208 2073.43,752.567 1883.33,753.246L1666,754.022L1654,757.756C1626.24,766.395 1603.79,783.141 1588.7,806.476C1583.03,815.232 1576.01,830.73 1573.95,839L1573.04,842.667L1603.37,842.667L1607.65,833.491C1615.76,816.075 1630.46,800.916 1647.33,792.554C1667.19,782.717 1647.16,783.538 1888.67,782.664C2008.2,782.232 2107.2,781.483 2108.67,781.001C2110.13,780.518 2116.42,779.15 2122.64,777.96C2183.5,766.309 2241.05,726.339 2274.42,672.531C2288.26,650.207 2296.78,630.015 2303.24,604.19C2310.3,576.007 2310.04,587.15 2309.49,337L2308.97,73.582L2338.26,73.582L2339.16,330.333C2339.75,477.091 2339.61,561.589 2338.75,570.667C2337.93,579.334 2337.41,679.019 2337.38,832.377L2337.33,1080.09L2367.33,1079.33L2367.69,740C2368,443.813 2367.78,398.428 2366.02,383.064C2363.49,361.042 2363.48,345.467 2365.99,323.333C2367.54,309.605 2367.95,284.994 2367.97,205L2368,73.582L2397.33,73.582L2397.33,234.947L2404.82,224.473C2408.94,218.713 2415.54,210.308 2419.49,205.795L2426.67,197.59L2426.67,73.582L2455.95,73.582L2456.31,137.834L2456.67,171.668L2485.33,154.241L2485.33,73.582L2516,73.582L2516,122.764C2516,137.121 2516.39,141.426 2517.67,141.09C2518.58,140.848 2525.18,139.186 2532.33,137.396L2545.33,134.142L2545.33,73.582L2574.67,73.582L2574.67,130.667L2604,130.667L2604,73.582L2633.25,73.582L2633.62,119.647L2634,135.295L2646.67,139.104C2653.63,141.199 2660.38,143.228 2661.67,143.612C2663.82,144.256 2664,142.729 2664,124.156L2664,73.582L2693.33,73.582L2693.36,131L2693.39,158L2700.24,162C2704.01,164.2 2710.6,168.549 2714.88,171.664L2722.67,177.328L2722.67,73.582L2752,73.582L2752,203.964L2762.39,217.649C2768.1,225.175 2774.85,234.933 2777.39,239.333L2782,247.333L2782.35,175.667L2782.69,73.582L2812,73.582L2812,368L2841.33,368L2841.33,73.582L2874.7,73.582L2874.35,580.333L2874,1056.67L2871.14,1065C2863.13,1088.33 2843.87,1104.67 2820,1108.36L2810.67,1109.81L2810.67,1138.67L2816.33,1138.64C2832.33,1138.58 2854.6,1129.98 2869.66,1118.05C2883.48,1107.09 2895.12,1089.18 2900.89,1070C2903.19,1062.36 2903.31,1040.25 2903.66,583L2904.02,73.582L2933.36,73.582L2933.01,585L2932.67,1066L2929.65,1076.67C2920.99,1107.34 2902.53,1132.57 2876.54,1149.27C2859.13,1160.45 2835.56,1168 2818.06,1168L2810.67,1168L2810.67,1183.33C2810.67,1194.72 2811.1,1198.66 2812.33,1198.66C2818.14,1198.62 2839.49,1195.65 2847.33,1193.8C2904.49,1180.27 2950.42,1131.19 2960.62,1072.75C2962.44,1062.31 2962.67,1007.26 2962.67,582.492L2962.67,73.582L2992.02,73.582L2991.65,589C2991.29,1051.03 2991.16,1074.47 2988.87,1084C2978.13,1128.66 2954.81,1164.99 2920.14,1191.09C2892.69,1211.75 2862.35,1223.39 2826.9,1226.86L2810.67,1228.45L2810.67,1257.74L2824.33,1256.96C2912.36,1251.98 2989.25,1190.24 3013.96,1104.71C3022.62,1074.73 3021.92,1118.36 3022.33,586.333L3022.71,73.582L3052,73.582L3052,368L3078.67,368L3078.67,73.582L3108,73.582L3108,368L3137.33,368L3137.33,73.582L3166.67,73.582L3166.67,368.087L3196.67,367.333L3197.01,235.667L3197.35,73.582L3226.67,73.582L3226.67,368L3256,368L3256,73.582L3285.33,73.582L3285.33,368L3314.67,368L3314.67,73.582L3345.33,73.582L3345.33,368L3374.67,368L3374.67,73.582L3404,73.582L3404,368L3433.33,368L3433.33,73.582L3462.67,73.582L3462.67,234.667C3462.67,310.633 3463.17,365.333 3463.86,365.333C3466.36,365.333 3483.55,359.588 3488.33,357.156L3493.33,354.612L3493.33,73.582L3522.65,73.582L3522.99,217.533L3523.33,331.067L3529.09,322.861C3532.26,318.348 3537.14,309.708 3539.95,303.661C3549.41,283.268 3549.44,282.975 3550.68,195.333C3551.29,152.067 3551.84,113.517 3551.9,109.667L3552,72.249L3581.47,72.249L3580.72,174.333C3579.83,257.923 3579.26,273.131 3576.48,286.667C3570.66,314.991 3557.79,338.263 3536.88,358.271C3515.18,379.034 3489.74,391.557 3460.41,395.91C3453.95,396.87 3385.87,397.333 3251.41,397.333L3052,397.333L3052,426.667L3254.33,426.662C3475.83,426.657 3468.11,426.911 3493,418.775C3550.89,399.857 3593.61,351.824 3606.17,291.522C3608.42,280.707 3610.41,214.428 3610.57,145L3610.67,72.249L3619.15,72.249C3623.81,72.249 3630.41,72.63 3633.81,73.097L3640,73.945L3639.93,155.848C3639.82,233.405 3638.05,283.381 3634.91,298C3626.1,338.974 3606.82,373.656 3576.99,402.163C3552.82,425.26 3523.16,441.927 3491.74,450.067C3466.07,456.719 3474.8,456.463 3256.33,456.978L3052,457.459L3052,486.77L3259,486.312C3442.57,485.907 3467.29,485.612 3477.38,483.705C3529.32,473.892 3567.99,453.712 3603.33,417.965C3636.05,384.88 3656.9,343.972 3665.49,296C3667.98,282.063 3668.34,272.657 3669.35,192.667C3669.96,144.267 3670.51,74.099 3670.57,73.916C3670.62,73.732 3677.27,73.582 3685.34,73.582L3700.02,73.582L3699.33,168.333C3698.11,282.826 3697.52,292.454 3689.84,323.135C3667.47,412.506 3594.21,485.612 3504.67,507.896C3473.63,515.62 3487.01,515.195 3260.33,515.664L3052,516.095L3052,545.404L3263,544.998C3457.87,544.622 3474.97,544.411 3486.65,542.239C3549.88,530.481 3600.84,504.368 3643.14,462.042C3687.45,417.718 3714.43,364.585 3724.74,301.333C3726.61,289.901 3727.3,270.581 3728.51,196L3730,74.249L3745.67,73.873L3761.33,73.497L3761.33,605.333L3789.33,605.333L3789.33,73.582L3818.67,73.582L3818.67,608.913L3830.83,611.896C3891.99,626.896 3946.6,670.791 3975.38,728.09C3998.25,773.635 4004.6,829.055 3992.69,879.333C3973.77,959.199 3908.27,1024.85 3829,1043.4L3818.67,1045.82L3818.67,1502.08L3789.33,1502.08L3789.33,1049.33L3760,1049.33L3760,1502.08L3729.33,1502.08L3729.33,1044.42L3721.8,1042.74C3717.66,1041.81 3711.06,1039.95 3707.14,1038.6L3700,1036.14L3700,1502.08L3670.67,1502.08L3670.67,1022.92L3664.33,1019.27C3660.85,1017.26 3654.25,1013.02 3649.67,1009.85L3641.33,1004.09L3641.33,1502.08L3612,1502.08L3612,977.768L3603.48,966.951C3598.79,961.002 3592.04,951.533 3588.48,945.908L3582,935.682L3581.66,1203.17L3581.33,1502.08L3552,1502.08L3552,813.333L3522.67,813.333L3522.67,1502.08L3493.33,1502.08L3493.33,813.333L3462.67,813.333L3462.67,1502.08L3433.33,1502.08L3433.33,813.582L3420.7,812.635C3413.75,812.114 3407.15,812.039 3406.03,812.469C3404.22,813.166 3404,848.513 3404,1141.96L3404,1502.08L3374.67,1502.08L3374.34,1141.67L3374,812.667L3359.67,812.288L3345.33,811.91L3345.33,1502.08L3314.67,1502.08L3314.67,1145.33C3314.67,966.4 3314.3,820 3313.85,820C3310.99,820 3299.28,830.751 3294.75,837.532C3284.52,852.851 3285.33,824.432 3285.33,1164.91L3285.33,1502.08L3254.63,1502.08L3254.98,1162.33L3255.33,854L3258.99,843.229C3268.54,815.042 3290.08,794.577 3319.33,785.878C3326.68,783.695 3336.63,783.459 3440.33,783.014L3553.33,782.528L3553.33,753.236L3437.67,753.682C3305.56,754.192 3314.83,753.389 3288.67,766.577C3258.96,781.55 3239.12,806.076 3228.38,841.109C3226.21,848.181 3226.03,868.67 3225.68,1159.67L3225.3,1502.08L3195.97,1502.08L3196.32,1158.33L3196.67,846L3200.24,833.059C3213.57,784.829 3248.94,746.948 3295.04,731.543C3317.32,724.095 3319,724.009 3441,724.004L3553.33,724L3553.33,694.667L3439,694.672C3311.97,694.677 3311.54,694.703 3285.33,703.463C3258.52,712.425 3236.1,726.712 3215.6,747.897C3186.22,778.245 3170.51,812.986 3166.71,856C3165.84,865.814 3165.35,979.203 3165.35,1171L3165.33,1502.08L3136,1502.08L3136.01,1169C3136.03,976.984 3136.51,861.76 3137.37,852C3142.69,791.491 3173.37,737.888 3223.14,702.18C3243.64,687.476 3275.03,673.896 3300.5,668.712C3319.79,664.785 3342.68,664.061 3448.34,664.03L3553.33,664L3553.33,634.667L3443.67,634.712C3383.35,634.736 3327.97,635.301 3320.6,635.966C3289.93,638.734 3265.57,645.726 3236.67,660.058C3212.05,672.267 3196.25,683.7 3175.97,703.973C3140.59,739.359 3120.09,778.377 3109.78,830C3107.52,841.313 3107.36,859.983 3107,1156.33L3106.62,1502.08L3076.89,1502.08L3077.74,1023.33L3078.58,576L3052,576L3051.99,816.333C3051.97,1019.74 3051.67,1059.54 3049.99,1075.33C3048.33,1090.94 3048,1124.9 3048,1282.33L3048,1502.08L3018.67,1502.08L3018.67,1168.81L3010.09,1181.4C3005.37,1188.33 2998.77,1197.2 2995.42,1201.11L2989.34,1208.22L2989.34,1502.08L2960,1502.08L2960,1236.21L2945.41,1245.77L2930.83,1255.33L2930.75,1363L2930.67,1502.08L2900,1502.08L2900,1370.67C2900,1315.67 2899.85,1270.68 2899.67,1270.69C2899.48,1270.71 2893.03,1272.73 2885.33,1275.18L2871.33,1279.64L2870.99,1375.15L2870.65,1502.08L2841.33,1502.08L2841.33,1284.97L2835.15,1285.82C2831.74,1286.29 2825.14,1286.67 2820.48,1286.67L2812,1286.67L2812,1502.08L2781.78,1502.08L2780.89,1252.44C2780.4,1132.42 2780,931.124 2780,805.112L2780,576L2749.53,576L2750.1,872.333C2750.41,1035.32 2750.92,1236.62 2751.23,1319.67L2751.8,1502.08L2721.33,1502.08L2721.33,1206.33C2721.33,1060.95 2720.93,859.65 2720.45,759L2719.56,576L2690.32,576L2691.32,1023.33L2692.31,1502.08L2663.11,1502.08L2662.22,1209.67C2661.73,1066.12 2661.33,864.817 2661.33,762.333L2661.33,576L2630.87,576L2631.44,765.667C2631.74,869.983 2632.25,1071.28 2632.56,1213L2633.13,1502.08L2604.43,1502.08L2603.55,1434.45C2603.06,1414.53 2602.67,1373.13 2602.67,1342.45L2602.67,1286.67L2574.67,1286.67L2574.67,1502.08L2545.33,1502.08L2545.33,1286.67L2516,1286.67L2516,1502.08L2485.33,1502.08L2485.33,1286.67L2456,1286.67L2456,1502.08L2426.67,1502.08L2426.67,1286.67L2397.33,1286.67L2397.33,1502.08L2368.02,1502.08L2367.68,1379L2367.33,1287.33L2338,1287.33L2337.66,1379L2337.32,1502.08L2308,1502.08L2308,1286.67L2278.67,1286.67L2278.67,1502.08L2249.35,1502.08L2249.01,1379L2248.67,1287.33L2219.33,1287.33L2218.99,1379L2218.65,1502.08L2189.33,1502.08L2189.33,1379.86C2189.33,1301.44 2189.07,1289.15 2187.42,1289.78C2186.36,1290.19 2182.97,1291.2 2179.88,1292.03C2176.79,1292.86 2171.06,1294.96 2167.13,1296.7L2160,1299.85L2160,1502.08L2130.69,1502.08L2130.35,1397.03L2130,1323.4L2125.15,1330.03C2117.27,1340.8 2111.07,1353.2 2107.16,1366C2103.52,1377.92 2103.49,1378.3 2102.97,1424.33L2102.46,1502.08L2073.33,1502.08L2073.33,1427.67C2073.33,1383.47 2074.49,1369.92 2079.54,1354.82C2092.06,1317.35 2116.87,1288.71 2151.33,1271.93C2167.45,1264.09 2180.44,1260.41 2198.07,1258.69C2205.91,1257.93 2291.34,1257.39 2407,1257.37L2602.67,1257.33L2602.67,1228L2401.67,1228.02C2232.31,1228.05 2198.57,1228.36 2187.33,1230C2160.6,1233.91 2141.06,1241.43 2117.92,1256.73C2086.78,1277.32 2062.04,1310.6 2050.86,1346.99C2044.93,1366.27 2044.01,1376.75 2044,1425L2044,1502.08L2013.34,1502.08L2013.37,1435C2013.42,1378.91 2015.59,1359.55 2024.91,1332C2035,1302.19 2050.51,1277.63 2073.52,1255.07C2101.04,1228.08 2131.87,1211.52 2171.47,1202.45L2184.67,1199.42L2602.67,1198.6L2602.67,1168L2409.01,1168.05C2302.49,1168.07 2207.53,1168.63 2197.98,1169.29C2140.37,1173.27 2090.68,1195.74 2050.64,1235.92C2016.6,1270.07 1996.23,1309.64 1987.11,1359.33C1985.71,1366.91 1984.94,1384.58 1984.42,1420.33L1983.7,1502.08L1954.39,1502.08L1955.04,1419C1955.53,1380.88 1956.23,1364.36 1957.74,1356C1967.77,1300.3 1990.13,1255.95 2027.82,1217.01C2060.8,1182.93 2102.07,1158.93 2147.34,1147.52C2180.98,1139.03 2165.8,1139.55 2394.34,1139.02L2602.67,1138.54L2602.67,1109.23L2391.67,1109.67C2182,1110.11 2180.57,1110.13 2165.34,1112.99C2156.91,1114.58 2144.26,1117.4 2137.24,1119.28C2038.35,1145.65 1960.51,1224.09 1934.49,1323.6C1926.81,1352.98 1925.35,1368.69 1925.34,1422.33L1925.34,1502.08L1893.34,1502.08L1893.34,1044.53L1881.68,1046.34C1875.26,1047.33 1868.66,1048.42 1867.01,1048.76L1864.01,1049.38L1864.01,1502.08L1834.68,1502.08L1834.68,1050.67L1804.01,1050.67L1804.01,1502.08L1774.68,1502.08L1774.68,1050.67L1745.34,1050.67L1745.34,1502.08L1716.01,1502.08L1716.01,1050.67L1685.34,1050.67L1685.34,1502.08L1656.01,1502.08L1656.01,1050.67L1629.34,1050.67L1629.34,1502.08L1598.25,1502.08L1598.8,1260.33L1599.34,1050L1570.01,1050L1569.67,1260.33L1569.34,1502.08L1540.01,1502.08L1540.01,1049.33L1510.68,1049.33L1510.68,1502.08L1480.54,1502.08L1480.61,1260.33L1480.68,1050L1451.35,1050L1451.01,1260.33L1450.67,1502.08L1420.01,1502.08L1420.01,1050.67L1389.35,1050.67L1389.35,1502.08L1360.01,1502.08L1360.01,1050.67L1330.68,1050.67L1330.68,1502.08L1301.35,1502.08L1301.35,1050.67L1270.68,1050.67L1270.68,1502.08L1241.35,1502.08L1241.35,1050.67L1212.01,1050.67L1212.01,1502.08L1182.69,1502.08L1182.35,1265.8L1182.01,1060.92L1175.63,1067.4C1167.47,1075.67 1161.74,1087.43 1160.05,1099.33C1159.23,1105.12 1158.72,1177.41 1158.7,1289.67L1158.67,1502.08L1125.33,1502.08L1125.36,1284.33C1125.38,1076.31 1124.85,1088.32 1134.86,1068.02C1139.25,1059.13 1142.76,1054.4 1151.22,1046C1162.73,1034.57 1171.75,1029.02 1187.33,1023.8L1196.67,1020.67L1533.33,1019.93C1896.01,1019.14 1872.17,1019.61 1898.67,1012.7C1954.96,998.021 2007.71,958.764 2037.86,909.109C2046.37,895.09 2056.32,873.721 2061.2,858.999C2065.61,845.673 2070.67,822.781 2070.67,816.124L2070.67,812L2041.67,812L2039.43,824.333C2032.37,863.191 2012.27,901.037 1983.33,929.992C1952.78,960.562 1919.36,978.397 1875.33,987.626C1865.57,989.673 1836.14,989.925 1528,990.61L1191.33,991.357L1181.33,994.419C1144.37,1005.74 1116.88,1030.77 1103.28,1065.48C1095.75,1084.69 1096,1077.17 1096,1281.94L1096,1502.08L1065.33,1502.08L1065.35,1291.67C1065.38,1111.85 1065.86,1089.8 1070.21,1072.33C1083.15,1020.32 1122.8,980.087 1175.33,965.662L1188.67,962L1525.33,961.294C1861.43,960.589 1862.02,960.583 1874.06,957.787C1938.83,942.747 1988.09,897.147 2006.44,835.255C2008.62,827.878 2010.62,819.778 2010.87,817.255L2011.33,812.667L1996.61,812.292L1981.89,811.918L1978.28,824.959C1963.38,878.781 1917.79,920.068 1862.82,929.523C1856.37,930.634 1768.51,930.972 1535.33,930.784C1321.34,930.611 1211.24,930.988 1200.16,931.931C1191.08,932.704 1178.18,934.619 1171.49,936.188C1098.71,953.264 1045.07,1014.56 1037.39,1089.43C1036.5,1098.09 1036,1169.06 1036,1286.81L1036,1502.08L1006.59,1502.08L1007.04,1276.33C1007.54,1063.76 1007.04,1077.41 1015.35,1048.74C1024.89,1015.82 1042.09,987.021 1067.22,961.889C1097.84,931.273 1132.13,913.471 1178,904.379C1189.31,902.137 1208.98,901.993 1520,901.88C1825.64,901.77 1850.82,901.593 1861.11,899.484C1893.27,892.895 1920.21,873.974 1937.9,845.564C1941.94,839.089 1948.95,822.233 1950.19,816.056L1951,812L1921.46,812L1915.77,823.667C1905.65,844.432 1886.23,860.964 1862.67,868.871C1855.64,871.229 1841.33,871.363 1519.33,872.082C1184.23,872.83 1183.3,872.84 1169.67,875.644C1104.24,889.113 1052.2,923.49 1016.76,976.667C1000.98,1000.35 991.267,1021.96 984.605,1048.24C977.255,1077.24 977.384,1073.13 977.358,1279.67L977.333,1502.08L945.333,1502.08L945.333,556.307L938.333,558.784C934.483,560.146 927.883,562.219 923.667,563.391L916,565.523L916,1502.08L886.667,1502.08L886.667,571.689L877.667,572.543C872.717,573.013 865.817,573.739 862.333,574.157L856,574.917L856,1502.08L826.667,1502.08L826.667,574.667L797.333,574.667L797.333,1502.08L768,1502.08L768,574.667L738.667,574.667L738.667,1502.08L708,1502.08L708,574.667L678.667,574.667L678.67,845C678.671,1007.61 679.197,1123.84 679.988,1136.67C680.826,1150.23 680.946,1215.04 680.32,1314.67L679.334,1502.75L669.334,1502.88C663.834,1502.96 657.007,1502.77 654.162,1502.46L654.161,1502.46ZM1945.09,1226L1953.33,1212.67L1953.33,1025.02L1950.33,1025.75C1948.68,1026.15 1941.78,1028.75 1935,1031.53L1922.66,1036.58L1922.72,1266L1929.78,1252.67C1933.66,1245.33 1940.55,1233.33 1945.08,1226L1945.09,1226ZM2012,1150.12L2012,985.301L2002.22,993.071C1996.85,997.344 1990.25,1002.2 1987.56,1003.86L1982.67,1006.88L1982.67,1177.53L1997.33,1163.82L2012,1150.12ZM2058,1119.71C2062.4,1117.23 2067.05,1114.8 2068.33,1114.31C2070.53,1113.47 2070.67,1107.41 2070.67,1013.15C2070.67,958.008 2070.44,913.139 2070.16,913.444C2069.88,913.75 2067.11,918.2 2064,923.333C2060.9,928.467 2054.53,937.836 2049.85,944.153L2041.33,955.64L2041.33,1129.55L2045.67,1126.88C2048.05,1125.41 2053.6,1122.18 2058,1119.71ZM2125,1091.99L2130.67,1090.56L2130.67,806.356L2127.67,807.17C2126.02,807.618 2119.42,808.696 2113,809.565L2101.33,811.147L2101.33,1099.84L2110.33,1096.62C2115.28,1094.86 2121.88,1092.77 2125,1091.99ZM2179,1081.75L2189.33,1080.94L2189.33,786.813L2181.67,790.237C2177.45,792.12 2171,794.694 2167.33,795.958L2160.67,798.254L2160.33,941.295L2159.99,1084.34L2164.33,1083.45C2166.71,1082.96 2173.32,1082.2 2179,1081.75ZM2249.33,913.924C2249.33,755.66 2249.22,747.931 2246.99,749.591C2245.7,750.549 2238.8,755.713 2231.66,761.066L2218.67,770.798L2218.67,1080L2249.33,1080L2249.33,913.924ZM2308,1080L2308,674.056L2301.99,684.314C2298.69,689.956 2292.09,699.74 2287.33,706.057L2278.67,717.541L2278.67,1080L2308,1080ZM2426.67,1080L2426.67,507.773L2418.86,498.887C2414.57,493.999 2407.97,485.556 2404.19,480.124L2397.33,470.248L2397.33,1080L2426.67,1080ZM2485.33,1080L2485.33,550.721L2479.67,547.852C2476.55,546.274 2469.95,542.373 2465,539.185L2456,533.387L2456,1080L2485.33,1080ZM2545.33,1080L2545.33,571.333L2532.33,568.218C2525.19,566.504 2518.59,564.804 2517.67,564.44C2516.34,563.912 2516.01,615.936 2516.01,821.889L2516,1080L2545.33,1080ZM2602.67,969.554C2602.67,908.809 2602.27,795.109 2601.78,716.888L2600.89,574.667L2574.67,574.667L2574.67,1080L2602.67,1080L2602.67,969.554ZM2820.51,1078.11C2828.01,1075.86 2835.28,1070.58 2838.78,1064.85C2841.26,1060.77 2841.32,1054.56 2841.33,818.333L2841.33,576L2811.99,576L2811.99,828C2811.99,966.6 2812.5,1080 2813.12,1080C2813.73,1080 2817.06,1079.15 2820.51,1078.11ZM3815.7,1016.18C3883.99,1001.51 3938.42,952.716 3959.93,886.868C3966.96,865.363 3968.64,853.826 3968.57,827.333C3968.51,800.958 3966.2,786.193 3958.77,764.759C3931.5,686.054 3858.7,634.667 3774.45,634.667L3760,634.667L3760,664L3770.33,664.023C3817.35,664.128 3856.26,678.975 3887.88,708.882C3929.33,748.081 3947.05,802.831 3936.49,859.085C3925.81,915.934 3882.25,964.846 3826.67,982.38C3808.71,988.044 3796.53,989.868 3776.67,989.868C3756.8,989.868 3744.62,988.044 3726.67,982.38C3669.07,964.21 3626.02,914.461 3615.41,853.831C3613.62,843.585 3613.34,820.777 3613.34,683.556C3613.34,590.292 3612.84,525.294 3612.13,525.556C3611.47,525.8 3604.59,529.6 3596.84,534L3582.75,542L3582.73,683.333C3582.72,825.012 3583.26,846.178 3587.32,866C3601.81,936.661 3658.11,995.951 3727.82,1013.96C3753.48,1020.59 3790.79,1021.53 3815.7,1016.18ZM649.333,796.667L649.333,574.667L620,574.667L620,971.471L628.333,984.157C632.917,991.134 639.358,1001.75 642.647,1007.75C645.937,1013.76 648.787,1018.67 648.981,1018.67C649.175,1018.67 649.333,918.767 649.333,796.667ZM979.475,981C982.739,974.509 991.428,960.855 1001.24,946.799L1005.33,940.932L1005.33,734.466C1005.33,620.91 1005.02,528 1004.64,528C1004.26,528 1001.68,529.433 998.902,531.185C996.128,532.936 989.54,536.544 984.262,539.201L974.667,544.034L974.667,766.017C974.667,888.108 974.957,988 975.311,988C975.665,988 977.539,984.85 979.475,981ZM3790.66,959.937C3844.51,954.411 3889.53,916.783 3904.63,864.673C3925.05,794.191 3884.35,719.758 3814.28,699.453C3802.5,696.039 3781.98,693.333 3767.86,693.333L3760,693.333L3760,723.658L3778.33,724.324C3793.31,724.868 3798.62,725.63 3807.33,728.491C3840.61,739.416 3864.64,763.453 3875.49,796.667C3880.5,812.019 3881.37,834.832 3877.56,850.796C3868.87,887.12 3844.02,914.272 3808.67,926.066C3793.15,931.243 3769.46,932.107 3752.72,928.106C3721.73,920.698 3696.66,900.42 3682.65,871.437C3672.04,849.485 3672.82,865.407 3672.35,659.605L3671.93,475.876L3642.67,503.218L3642.67,670.768C3642.67,851.71 3642.57,848.901 3649.76,870C3666.23,918.261 3710.49,954.091 3760.67,959.776C3775.73,961.483 3775.6,961.482 3790.66,959.937ZM590.034,576.288C589.546,575.007 585.767,574.671 575.024,574.955L560.667,575.333L560.328,742.415L559.99,909.497L564.291,913.082C566.656,915.053 573.408,921.032 579.296,926.367L590,936.067L590.343,757.034C590.531,658.565 590.392,577.23 590.034,576.288ZM1057.67,892.085L1064,887.548L1064,481.178L1049.33,494.18L1034.67,507.181L1034.67,910.735L1043,903.678C1047.58,899.797 1054.18,894.58 1057.67,892.085ZM3794.35,899.326C3807.53,896.218 3818.26,890.037 3828.8,879.481C3858.21,850.031 3858.18,804.714 3828.73,775.269C3813.35,759.883 3796.72,753.333 3773.05,753.333L3760,753.333L3760,782.317L3773.71,782.927C3790.09,783.655 3798.75,787.003 3807.87,796.126C3816.8,805.046 3820.58,814.324 3820.63,827.361C3820.66,836.789 3820.15,839.106 3816.31,846.914C3808.41,862.952 3794.94,871.232 3776.64,871.296C3767.2,871.329 3764.9,870.819 3757.03,866.944C3747.33,862.17 3740.56,855.349 3735.67,845.434L3732.67,839.333L3731.33,385.202L3724.87,398.268C3721.32,405.454 3714.55,417.686 3709.84,425.449L3701.27,439.565L3701.63,639.449L3702,839.333L3705.69,849.77C3710.49,863.346 3716.29,872.207 3726.57,881.709C3744.84,898.597 3769.86,905.1 3794.35,899.326ZM530.667,732L530.667,574.667L501.333,574.667L501.333,873.3L510.333,877.912C515.283,880.449 521.733,884.038 524.667,885.887C527.6,887.737 530.15,889.269 530.333,889.292C530.517,889.315 530.667,818.533 530.667,732ZM1117.67,859.894L1122.67,858.131L1122.6,398L1117.58,407.333C1111.92,417.882 1099.89,437.361 1095.95,442.368C1093.38,445.64 1093.33,449.094 1093.33,658.093L1093.33,870.493L1103,866.075C1108.32,863.645 1114.92,860.864 1117.67,859.894ZM471.673,717.667L471.333,575.333L442,575.333L441.66,713.614L441.321,851.894L446.994,853.352C450.114,854.154 455.967,855.931 460,857.3C464.033,858.669 468.386,859.837 469.673,859.895C471.891,859.995 471.995,852.636 471.673,717.667ZM412,710.667L412,574.667L382.667,574.667L382.667,842.503L388.333,843.186C396.322,844.149 411.269,846.259 411.667,846.481C411.85,846.583 412,785.467 412,710.667ZM353.333,842.667L353.333,574.667L324,574.667L324,842.667L353.333,842.667ZM1241.33,842.667L1241.33,476.343L1229.86,459.172C1223.55,449.727 1216.98,439.3 1215.26,436L1212.12,430L1212,842.667L1241.33,842.667ZM1301.01,686.529L1301.34,531.057L1288.84,521.535C1281.96,516.297 1275.59,511.11 1274.67,510.006C1273.76,508.903 1272.48,508 1271.84,508C1270.45,508 1270.22,840.439 1271.6,841.82C1272.11,842.332 1278.86,842.582 1286.6,842.376L1300.67,842L1301.01,686.529ZM1360,842.667L1360,560.192L1352.64,557.437C1348.59,555.922 1342.31,553.179 1338.68,551.341C1335.06,549.504 1331.77,548 1331.38,548C1330.99,548 1330.67,614.3 1330.67,695.333L1330.67,842.667L1360,842.667ZM1419.33,842L1419.33,574.072L1406,571.785C1398.67,570.528 1391.92,569.462 1391,569.416C1389.68,569.351 1389.33,597.334 1389.33,705.111C1389.33,779.789 1389.75,841.308 1390.27,841.82C1390.78,842.332 1397.53,842.582 1405.27,842.376L1419.33,842ZM1656,842.667L1656,821.152L1652.09,823.936C1646.87,827.655 1637.33,838.586 1637.33,840.854C1637.33,842.209 1639.69,842.667 1646.67,842.667L1656,842.667ZM1715.33,842L1715.33,812.667L1686,812.667L1685.62,825.905C1685.4,833.186 1685.54,839.957 1685.92,840.95C1686.46,842.35 1689.86,842.672 1700.98,842.379L1715.33,842ZM1774.67,842.667L1774.67,812L1745.33,812L1745.33,842.667L1774.67,842.667ZM1834,842L1834,812.667L1804.67,812.667L1804.28,825.905C1804.07,833.186 1804.21,839.957 1804.59,840.95C1805.13,842.35 1808.52,842.672 1819.64,842.379L1834,842ZM3786.25,838.436C3789.08,835.776 3789.4,834.454 3789.05,826.854C3788.54,815.422 3785.51,812.929 3771.27,812.21L3761.33,811.709L3761.33,821.315C3761.33,832.353 3763.59,837.432 3769.93,840.663C3775.12,843.307 3782.07,842.358 3786.25,838.436ZM293.333,708.739L293.333,577.477L286.333,579.52C282.483,580.643 275.88,583.094 271.66,584.967L263.986,588.37L264.326,708.971L264.667,829.572L272.667,832.979C277.067,834.853 283.367,837.145 286.667,838.074C289.967,839.002 292.817,839.815 293,839.881C293.183,839.946 293.333,780.932 293.333,708.739ZM1877.09,826.145C1881.03,822.419 1885.12,817.712 1886.16,815.685L1888.07,812L1864,812L1864,824.047C1864,836.084 1864,836.093 1866.97,834.507C1868.6,833.634 1873.15,829.872 1877.09,826.145ZM234.612,708.333L234.558,612.667L230.516,617.333C224.113,624.724 216.266,639.719 212.607,651.554C204.909,676.451 204.626,740.249 212.105,764.83C215.258,775.194 223.47,791.264 229.511,798.892C231.737,801.701 233.807,804 234.112,804C234.417,804 234.642,760.95 234.612,708.333ZM1470.8,716.442L1478.67,705.55L1478.67,576L1449.33,576L1449.33,751.221L1456.14,739.277C1459.88,732.708 1466.48,722.432 1470.8,716.442ZM3116.58,730.918C3119.36,726.29 3125.16,717.737 3129.48,711.911L3137.33,701.318L3137.33,576L3108,576L3108,660.297C3108,730.757 3108.29,744.162 3109.77,741.963C3110.74,740.517 3113.81,735.547 3116.58,730.918ZM1526.92,658.949L1537.17,651.333L1537.33,576L1508,576L1508,673.675L1512.33,670.12C1514.72,668.164 1521.28,663.138 1526.92,658.949ZM3197.33,647.454L3197.33,576L3166.67,576L3166.67,670.585L3182,659.02L3197.33,647.454ZM1593.67,621.957L1597.33,621.044L1597.33,576L1568,576L1568,633.16L1579,628.015C1585.05,625.185 1591.65,622.458 1593.67,621.957ZM3234.99,627.542C3238.87,625.824 3245.19,623.376 3249.03,622.102L3256,619.786L3256,576L3226.67,576L3226.67,603.333C3226.67,618.367 3226.95,630.667 3227.3,630.667C3227.64,630.667 3231.1,629.261 3234.99,627.542ZM1640.67,609.322C1657.81,606.64 1656,608.767 1656,591.308L1656,576L1626.67,576L1626.67,594.09C1626.67,610.696 1626.86,612.122 1629,611.481C1630.28,611.097 1635.53,610.125 1640.67,609.322ZM3300.67,608.648C3307.27,607.564 3313.12,606.675 3313.67,606.672C3314.22,606.669 3314.67,599.767 3314.67,591.333L3314.67,576L3285.33,576L3285.33,593.333C3285.33,606.324 3285.75,610.661 3287,610.643C3287.92,610.63 3294.07,609.733 3300.67,608.648ZM1716,605.333L1716,576L1685.33,576L1685.33,589.778C1685.33,597.356 1685.73,603.956 1686.22,604.444C1686.71,604.933 1693.61,605.333 1701.56,605.333L1716,605.333ZM1774.67,605.333L1774.67,576L1745.33,576L1745.33,605.333L1774.67,605.333ZM1834.67,605.333L1834.67,576L1804,576L1804,605.333L1834.67,605.333ZM1887.2,603.667C1882.95,596.221 1868.7,582.667 1865.13,582.667C1864.51,582.667 1864,587.767 1864,594L1864,605.333L1876.08,605.333C1885.36,605.333 1887.94,604.947 1887.2,603.667ZM3374.67,605.333L3374.67,576L3345.33,576L3345.33,605.333L3374.67,605.333ZM3433.33,605.333L3433.33,574.667L3424.85,574.667C3420.19,574.667 3413.59,575.048 3410.19,575.515L3404,576.362L3404,605.333L3433.33,605.333ZM3493.33,587.855C3493.33,570.407 3493.33,570.379 3490.33,571.093C3488.68,571.487 3484.48,572.152 3481,572.571C3477.52,572.99 3471.97,573.67 3468.67,574.082L3462.67,574.83L3462.67,605.333L3493.33,605.333L3493.33,587.855ZM3552,580.511C3552,557.509 3551.83,555.737 3549.67,556.346C3548.38,556.708 3541.78,558.715 3535,560.807L3522.67,564.61L3522.67,605.333L3552,605.333L3552,580.511ZM2759.78,545.781L2844,544.896L2844,516L2710.5,516C2565.3,516 2561.73,515.843 2538.14,508.443C2495.96,495.213 2459.98,464.677 2440.82,425.857C2428.71,401.314 2423.79,380.14 2423.82,352.667C2423.84,324.292 2428.88,303.267 2441.65,278.263C2484.96,193.434 2590.94,164.402 2673.03,214.878C2687.24,223.614 2712.78,248.409 2721.59,262.025C2739.79,290.132 2749.24,322.076 2749.31,355.667L2749.33,368L2779.04,368L2778.26,347C2777.37,322.856 2774.24,305.939 2767.12,286.711C2730.94,189.038 2626.07,137.957 2526.67,169.591C2499.48,178.242 2471.14,195.711 2450.1,216.786C2422.47,244.464 2403.37,280.863 2396.39,319.162C2393.32,336.032 2393.35,369.837 2396.45,386.667C2410.7,464.035 2470.09,525.212 2546.72,541.46C2568.95,546.172 2621.4,547.236 2759.78,545.781ZM2844,486.667L2844,457.673L2708.33,456.954C2560.56,456.171 2566.3,456.473 2546.67,448.447C2493.93,426.894 2468.76,365.548 2490.86,312.412C2502.17,285.232 2526.34,263.274 2555.33,253.853C2569.84,249.141 2590.94,248.073 2606.74,251.251C2638.25,257.592 2668.33,281.515 2680.69,310.068C2686.68,323.917 2688.25,331.406 2688.96,349.667L2689.68,368L2720,368L2719.99,359C2719.92,303.443 2693.43,258.224 2646.85,234.169C2618.3,219.422 2582.17,215.628 2550.66,224.07C2510.53,234.826 2473.52,269.468 2460.27,308.667C2450.72,336.951 2450.9,369.55 2460.77,397.872C2476.95,444.291 2520.9,479.44 2570,485.222C2575.13,485.826 2638.88,486.399 2711.66,486.494L2844,486.667ZM2844,428L2844,397.383L2709.67,397.025L2575.33,396.667L2568,393.208C2545.05,382.383 2535.64,355.452 2546.76,332.465C2550.64,324.463 2562.41,314.094 2570.99,311.139C2593,303.548 2616.76,313.548 2626.41,334.469C2629.2,340.509 2630,344.574 2630.43,355L2630.98,368L2660,368L2659.98,355.667C2659.96,340.65 2657.34,328.882 2651.63,318.176C2628.41,274.58 2569.43,265.42 2534.61,300C2495.36,338.972 2509.84,403.759 2562.09,422.934C2572.88,426.895 2592.72,427.459 2731.67,427.758L2844,428ZM2601.13,357.21C2600.66,346.987 2600.41,346.217 2596.3,342.543C2591.28,338.062 2582.65,337.229 2577.63,340.742C2575.03,342.564 2574.67,344.005 2574.67,352.536C2574.67,365.911 2576.76,367.714 2592.47,367.895L2601.62,368L2601.13,357.21ZM115.965,1224.33L115.929,978L105.828,969.333C100.272,964.567 90.528,954.967 84.174,948C40.626,900.256 14.027,845.03 3.718,780.957C0.906,763.485 0.667,757.822 0.667,708.667C0.667,659.512 0.906,653.848 3.718,636.376C12.156,583.933 31.989,536.445 62.601,495.392C74.441,479.514 92.027,460.242 105.238,448.667L115.891,439.333L115.945,271.667L116,73.582L145.333,73.582L145.333,260.667C145.333,346.833 145.593,417.333 145.911,417.333C146.228,417.333 151.26,414.483 157.093,411C162.926,407.517 169.566,403.645 171.849,402.395L176,400.124L176,73.582L205.321,73.582L205.661,245.718L206,387.437L220.333,382.864L234.667,378.29L234.667,73.582L264,73.582L264,372.349L269,371.458C271.75,370.968 278.35,370.203 283.667,369.758L293.333,368.948L293.333,73.582L324,73.582L324,368L353.333,368L353.333,73.582L382.667,73.582L382.667,368L412,368L412,73.582L441.333,73.582L441.333,368L472,368L472,73.582L501.333,73.582L501.333,368L530.667,368L530.667,73.582L560,73.582L560,368.087L590,367.333L590.34,235.667L590.68,73.582L620,73.582L620,368L649.333,368L649.333,73.582L678.667,73.582L678.667,368L708,368L708,73.582L738.667,73.582L738.667,368L768,368L768,73.582L797.333,73.582L797.333,368L826.667,368L826.667,73.582L856,73.582L856,365.333L859.091,365.333C863.27,365.333 875.529,361.618 881.667,358.493L886.667,355.946L886.667,73.582L915.985,73.582L916.326,219.667L916.667,335.333L924.19,325.333C933.002,313.619 938.597,302.89 942.514,290.193C945.264,281.276 945.333,278.884 945.333,192.526L945.333,73.582L977.333,73.582L977.321,179.667C977.314,221.283 976.72,262 975.998,270.148C970.578,331.376 928.5,379.658 867.925,394.158C858.623,396.385 839.995,396.587 571.333,397.373C289.152,398.199 284.437,398.256 269.999,400.965C207.875,412.623 159.663,437.066 116.848,478.611C71.588,522.529 44.231,575.127 33.03,639.765C30.362,655.159 30.097,661.244 30.067,708C30.03,764.388 30.785,772.78 38.726,804.237C51.139,853.402 77.072,899.246 112.68,934.971C156.753,979.186 209.621,1006.21 272.667,1016.74C282.221,1018.34 299.792,1019.27 334.667,1020.04C387.17,1021.2 393.238,1021.92 413.746,1029.4C453.573,1043.94 485.125,1078.5 498.296,1122L501.928,1134L502.413,1212.67C502.68,1255.93 502.474,1331.68 501.955,1381L501.012,1502.08L472.05,1502.08L471.692,1301.67L471.333,1132.67L467.062,1121.58C464.713,1115.49 460.891,1107.38 458.568,1103.58C453.606,1095.46 443.768,1082.82 442.333,1082.73C441.783,1082.69 441.333,1169.97 441.333,1276.67L441.333,1502.08L412,1502.08L412,1060.29L407,1058.29C399.781,1055.41 387.913,1052 385.091,1052C382.758,1052 382.667,1059.85 382.667,1261.33L382.667,1502.08L353.333,1502.08L353.333,1049.33L324,1049.33L324,1502.08L293.342,1502.08L293.004,1259.67L292.667,1048.67L283.569,1047.77C278.566,1047.27 272.116,1046.47 269.236,1045.98L264,1045.1L264,1502.08L234.667,1502.08L234.667,1039.3L220,1034.47L205.333,1029.65L205.333,1502.08L176.008,1502.08L175.67,1243.7L175.333,1016.73L166.667,1011.97C161.9,1009.35 155.15,1005.53 151.667,1003.48L145.333,999.747L145.333,1502.08L116,1502.08L115.965,1224.33ZM531.147,1454.33C531.588,1445.35 532.093,1371.1 532.27,1289.33C532.514,1176.57 532.197,1138.53 530.958,1131.8C525.028,1099.61 509.753,1068.03 489.467,1046.01C468.825,1023.61 440.862,1005.75 414.365,998.049C394.517,992.279 389.324,991.765 339.333,990.622C286.659,989.417 276.771,988.399 250,981.427C205.981,969.963 167.912,947.96 134.578,914.717C95.078,875.326 70.984,826.963 61.752,768.543C58.392,747.278 58.436,669.882 61.821,648.259C74.057,570.09 117.337,504.372 182.797,464.566C211.175,447.31 238.453,437.21 275.333,430.304C289.759,427.603 294.711,427.544 576.667,426.714C845.889,425.922 863.942,425.726 873.333,423.483C945.932,406.142 996.622,350.231 1005.23,278C1006.1,270.7 1006.66,234.277 1006.66,185L1006.66,73.582L1036.15,73.582L1035.64,194.333C1035.16,282.016 1035.05,285.058 1032.16,298C1016.56,367.775 970.388,421.171 905.33,444.685C897.324,447.578 889.856,449.683 873.611,453.624C869.055,454.729 788.576,455.373 580.663,455.968L294,456.788L278.667,459.691C228.655,469.156 189.634,489.374 155.504,523.504C125.6,553.407 105.341,589.396 95.541,630.021C89.706,654.211 89.044,663.895 89.667,716C90.306,769.416 90.952,774.797 100.216,803.859C123.33,876.368 184.959,934.411 259.045,953.448C280.447,958.947 292.83,960.096 343.333,961.265C385.775,962.248 394.486,962.803 405.688,965.236C483.085,982.044 542.996,1042.72 558.501,1120C562.368,1139.27 562.629,1154.56 561.77,1311L560.893,1502.08L530.346,1502.08L531.147,1454.33ZM591.401,1307C592.417,1129.66 592.501,1132.45 585.252,1103.46C568.689,1037.2 522.934,981.671 461.089,952.779C424.05,935.475 396.499,930.808 330.667,930.682C299.117,930.622 284.799,929.38 269.12,925.344C232.216,915.845 198.366,896.3 173.9,870.364C147.658,842.547 130.851,810.424 122.435,772C119.542,758.795 119.368,755.198 119.368,708.667C119.368,662.136 119.542,658.538 122.435,645.333C139.805,566.031 196.774,508.456 275.735,490.404L288.667,487.447L575.333,486.651C886.13,485.787 866.228,486.277 895.621,478.766C974.943,458.496 1038.57,394.667 1058.53,315.333C1065.07,289.352 1065.32,284.778 1065.33,191.667L1065.33,73.582L1096.25,73.582L1095.64,193C1095.07,275.882 1094.84,283.146 1092.21,298.667C1082.72,354.624 1059.01,401.094 1020.05,440.05C980.826,479.274 934.101,503.235 878,512.895C865.771,515 840.976,515.257 578.667,515.988C315.623,516.722 291.92,516.968 283.36,519.054C258.66,525.074 242.124,531.84 225.28,542.82C182.589,570.647 155.394,614.511 149.346,665.298C147.606,679.907 147.606,737.426 149.346,752.035C153.845,789.811 169.866,823.815 195.523,850.044C215.112,870.07 234.953,882.867 260.212,891.77C282.308,899.558 287.315,900.154 340.667,901.342C375.419,902.116 393.941,903.087 403.333,904.627C459.808,913.888 507.191,937.988 546.797,977.594C586.369,1017.17 611.264,1067.5 619.332,1124.26C621.556,1139.91 622.006,1246.86 620.447,1389.67L619.563,1502.08L590.464,1502.08L591.401,1307Z" style="fill-rule:nonzero;"/>
                </g>
            </g>
        </g>
    </g>
</svg>
