<?xml version="1.0" encoding="UTF-8" standalone="no"?>
<!DOCTYPE svg PUBLIC "-//W3C//DTD SVG 1.1//EN" "http://www.w3.org/Graphics/SVG/1.1/DTD/svg11.dtd">
<svg width="100%" height="100%" viewBox="0 0 831 268" version="1.1" xmlns="http://www.w3.org/2000/svg" xmlns:xlink="http://www.w3.org/1999/xlink" xml:space="preserve" xmlns:serif="http://www.serif.com/" style="fill-rule:evenodd;clip-rule:evenodd;stroke-linejoin:round;stroke-miterlimit:2;">
    <path id="main" d="M830.763,267.073L748.344,267.073L748.344,182.18L742.877,182.18L742.877,266.562L737.161,266.562L737.161,181.264L735.757,180.951C734.986,180.778 733.756,180.431 733.025,180.18L731.694,179.721L731.694,266.562L726.228,266.562L726.228,177.257L725.046,176.577C724.398,176.202 723.168,175.412 722.314,174.821L720.76,173.748L720.76,266.562L715.293,266.562L715.293,168.842L713.705,166.826C712.831,165.717 711.573,163.952 710.91,162.904L709.702,160.998L709.638,210.852L709.577,266.562L704.11,266.562L704.11,138.195L698.644,138.195L698.644,266.562L693.176,266.562L693.176,138.195L687.461,138.195L687.461,266.562L681.993,266.562L681.993,138.241L679.639,138.065C678.344,137.968 677.114,137.954 676.905,138.034C676.568,138.164 676.527,144.752 676.527,199.444L676.527,266.562L671.06,266.562L670.999,199.39L670.935,138.071L668.264,138L665.592,137.93L665.592,266.562L659.877,266.562L659.877,200.072C659.877,166.723 659.808,139.437 659.725,139.437C659.192,139.437 657.009,141.441 656.165,142.705C654.258,145.56 654.409,140.264 654.409,203.721L654.409,266.562L648.687,266.562L648.753,203.24L648.818,145.774L649.5,143.767C651.28,138.513 655.294,134.699 660.746,133.078C662.116,132.671 663.97,132.627 683.298,132.544L704.358,132.454L704.358,126.994L682.802,127.077C658.18,127.172 659.907,127.023 655.032,129.481C649.494,132.271 645.797,136.842 643.795,143.372C643.39,144.69 643.357,148.509 643.292,202.745L643.221,266.562L637.754,266.562L637.82,202.495L637.885,144.283L638.55,141.871C641.035,132.882 647.627,125.822 656.219,122.951C660.371,121.563 660.684,121.547 683.423,121.546L704.358,121.545L704.358,116.078L683.05,116.079C659.374,116.08 659.294,116.085 654.409,117.718C649.412,119.388 645.234,122.051 641.413,125.999C635.937,131.655 633.009,138.13 632.301,146.147C632.139,147.976 632.048,169.109 632.048,204.856L632.044,266.562L626.577,266.562L626.579,204.483C626.583,168.696 626.672,147.221 626.833,145.402C627.824,134.124 633.542,124.134 642.818,117.478C646.639,114.738 652.489,112.207 657.236,111.241C660.832,110.509 665.098,110.374 684.791,110.368L704.358,110.362L704.358,104.895L683.92,104.904C672.678,104.908 662.356,105.014 660.983,105.138C655.266,105.653 650.726,106.957 645.34,109.628C640.751,111.903 637.807,114.034 634.027,117.813C627.433,124.408 623.612,131.68 621.691,141.301C621.269,143.41 621.239,146.889 621.172,202.122L621.102,266.562L615.561,266.562L615.719,177.334L615.876,93.961L610.922,93.961L610.92,138.754C610.916,176.665 610.86,184.083 610.547,187.025C610.238,189.935 610.176,196.264 610.176,225.606L610.176,266.562L604.71,266.562L604.71,204.448L603.111,206.795C602.231,208.086 601.001,209.739 600.376,210.468L599.243,211.793L599.243,266.562L593.775,266.562L593.775,217.01L591.056,218.792L588.338,220.573L588.323,240.641L588.308,266.562L582.592,266.562L582.592,242.07C582.592,231.82 582.564,223.434 582.531,223.436C582.495,223.44 581.293,223.816 579.858,224.273L577.249,225.104L577.185,242.905L577.122,266.562L571.657,266.562L571.657,226.098L570.506,226.256C569.87,226.344 568.64,226.415 567.771,226.415L566.191,226.415L566.191,266.562L560.559,266.562L560.393,220.035C560.301,197.666 560.227,160.149 560.227,136.663L560.227,93.961L554.548,93.961L554.654,149.191C554.712,179.568 554.807,217.086 554.865,232.565L554.971,266.562L549.292,266.562L549.292,211.441C549.292,184.345 549.218,146.827 549.128,128.068L548.962,93.961L543.512,93.961L543.699,177.334L543.883,266.562L538.441,266.562L538.275,212.063C538.184,185.309 538.109,147.79 538.109,128.69L538.109,93.961L532.432,93.961L532.539,129.311C532.594,148.753 532.69,186.271 532.747,212.684L532.854,266.562L527.505,266.562L527.34,253.958C527.249,250.245 527.176,242.529 527.176,236.811L527.176,226.415L521.958,226.415L521.958,266.562L516.49,266.562L516.49,226.415L511.023,226.415L511.023,266.562L505.307,266.562L505.307,226.415L499.84,226.415L499.84,266.562L494.374,266.562L494.374,226.415L488.906,226.415L488.906,266.562L483.443,266.562L483.38,243.623L483.314,226.538L477.848,226.538L477.785,243.623L477.721,266.562L472.257,266.562L472.257,226.415L466.79,226.415L466.79,266.562L461.325,266.562L461.262,243.623L461.199,226.538L455.73,226.538L455.667,243.623L455.604,266.562L450.139,266.562L450.139,243.783C450.139,229.167 450.091,226.877 449.783,226.994C449.586,227.071 448.954,227.259 448.378,227.414C447.802,227.568 446.734,227.96 446.002,228.284L444.673,228.871L444.673,266.562L439.21,266.562L439.147,246.983L439.081,233.26L438.177,234.496C436.709,236.503 435.553,238.814 434.824,241.2C434.146,243.422 434.14,243.492 434.044,252.071L433.948,266.562L428.519,266.562L428.519,252.694C428.519,244.456 428.735,241.931 429.677,239.116C432.01,232.133 436.634,226.795 443.057,223.667C446.061,222.206 448.482,221.52 451.768,221.2C453.229,221.058 469.151,220.957 490.708,220.954L527.176,220.946L527.176,215.48L489.715,215.484C458.15,215.489 451.861,215.547 449.766,215.853C444.784,216.581 441.143,217.983 436.83,220.834C431.026,224.672 426.415,230.875 424.331,237.657C423.226,241.25 423.055,243.204 423.053,252.196L423.053,266.562L417.338,266.562L417.344,254.06C417.353,243.606 417.758,239.998 419.495,234.863C421.375,229.307 424.266,224.73 428.555,220.525C433.684,215.495 439.43,212.408 446.81,210.718L449.271,210.153L527.176,210L527.176,204.297L491.083,204.306C471.23,204.31 453.531,204.415 451.751,204.538C441.014,205.279 431.753,209.467 424.29,216.956C417.946,223.321 414.15,230.696 412.45,239.957C412.189,241.37 412.045,244.663 411.948,251.326L411.814,266.562L406.352,266.562L406.473,251.078C406.564,243.973 406.694,240.894 406.976,239.336C408.845,228.955 413.013,220.689 420.037,213.431C426.184,207.08 433.876,202.607 442.313,200.48C448.583,198.898 445.754,198.995 488.348,198.896L527.176,198.806L527.176,193.344L487.851,193.426C448.773,193.508 448.506,193.511 445.668,194.044C444.097,194.341 441.739,194.866 440.431,195.217C422,200.132 407.492,214.751 402.643,233.298C401.211,238.773 400.939,241.701 400.937,251.699L400.937,266.562L394.973,266.562L394.973,181.285L392.8,181.622C391.603,181.807 390.373,182.01 390.066,182.073L389.507,182.189L389.507,266.562L384.04,266.562L384.04,182.429L378.324,182.429L378.324,266.562L372.858,266.562L372.858,182.429L367.389,182.429L367.389,266.562L361.923,266.562L361.923,182.429L356.207,182.429L356.207,266.562L350.74,266.562L350.74,182.429L345.769,182.429L345.769,266.562L339.975,266.562L340.077,221.505L340.178,182.304L334.712,182.304L334.648,221.505L334.587,266.562L329.12,266.562L329.12,182.18L323.654,182.18L323.654,266.562L318.036,266.562L318.049,221.505L318.062,182.304L312.596,182.304L312.533,221.505L312.469,266.562L306.755,266.562L306.755,182.429L301.041,182.429L301.041,266.562L295.572,266.562L295.572,182.429L290.106,182.429L290.106,266.562L284.639,266.562L284.639,182.429L278.923,182.429L278.923,266.562L273.457,266.562L273.457,182.429L267.988,182.429L267.988,266.562L262.524,266.562L262.46,222.525L262.397,184.34L261.208,185.547C259.687,187.089 258.619,189.281 258.304,191.498C258.151,192.578 258.056,206.051 258.053,226.974L258.047,266.562L251.833,266.562L251.839,225.978C251.842,187.208 251.744,189.446 253.609,185.663C254.428,184.006 255.082,183.125 256.658,181.559C258.804,179.429 260.485,178.394 263.389,177.421L265.129,176.838L327.875,176.7C395.471,176.553 391.028,176.64 395.967,175.353C406.458,172.617 416.289,165.3 421.908,156.045C423.495,153.433 425.349,149.45 426.259,146.706C427.08,144.222 428.024,139.956 428.024,138.715L428.024,137.946L422.619,137.946L422.201,140.245C420.885,147.487 417.139,154.541 411.745,159.938C406.051,165.635 399.823,168.959 391.616,170.679C389.797,171.061 384.312,171.108 326.882,171.235L264.134,171.375L262.27,171.945C255.382,174.055 250.258,178.72 247.724,185.19C246.32,188.77 246.367,187.368 246.367,225.533L246.367,266.562L240.65,266.562L240.654,227.346C240.66,193.832 240.749,189.722 241.56,186.466C243.972,176.773 251.362,169.274 261.152,166.586L263.638,165.903L326.384,165.772C389.026,165.64 389.136,165.639 391.38,165.118C403.451,162.315 412.632,153.816 416.052,142.281C416.459,140.906 416.832,139.396 416.878,138.926L416.964,138.071L414.22,138.001L411.477,137.931L410.804,140.362C408.027,150.393 399.53,158.088 389.285,159.85C388.083,160.057 371.708,160.12 328.248,160.085C288.365,160.053 267.845,160.123 265.78,160.299C264.088,160.443 261.683,160.8 260.436,161.092C246.872,164.275 236.874,175.699 235.443,189.653C235.277,191.267 235.184,204.495 235.184,226.441L235.184,266.562L229.703,266.562L229.787,224.487C229.88,184.869 229.787,187.413 231.335,182.07C233.113,175.934 236.319,170.567 241.003,165.882C246.71,160.176 253.101,156.858 261.65,155.164C263.758,154.746 267.424,154.719 325.391,154.698C382.355,154.678 387.048,154.645 388.966,154.252C394.96,153.024 399.981,149.497 403.278,144.202C404.031,142.995 405.338,139.854 405.569,138.702L405.72,137.946L400.214,137.946L399.154,140.121C397.267,143.991 393.648,147.072 389.257,148.546C387.947,148.985 385.28,149.01 325.266,149.144C262.811,149.284 262.637,149.286 260.097,149.808C247.902,152.319 238.203,158.726 231.598,168.637C228.657,173.051 226.847,177.078 225.605,181.976C224.235,187.381 224.259,186.615 224.254,225.11L224.25,266.562L218.286,266.562L218.286,90.291L216.981,90.753C216.264,91.006 215.033,91.393 214.248,91.611L212.819,92.009L212.819,266.562L207.352,266.562L207.352,93.158L205.674,93.317C204.752,93.404 203.466,93.54 202.816,93.618L201.636,93.759L201.636,266.562L196.169,266.562L196.169,93.713L190.702,93.713L190.702,266.562L185.235,266.562L185.235,93.713L179.768,93.713L179.768,266.562L174.052,266.562L174.052,93.713L168.585,93.713L168.586,144.097C168.586,174.404 168.684,196.067 168.831,198.458C168.988,200.985 169.01,213.064 168.893,231.633L168.709,266.687L166.846,266.711C165.821,266.726 164.548,266.691 164.018,266.633L163.054,266.529L163.21,254.168C163.296,250.59 163.386,236.479 163.41,222.81C163.449,200.758 163.408,197.658 163.042,195.275C161.183,183.173 156.171,173.185 147.735,164.768C146.013,163.051 143.679,160.946 142.547,160.092C135.437,154.724 127.062,151.157 118.245,149.741C116.563,149.471 112.852,149.277 106.583,149.132C99.662,148.972 96.944,148.821 95.592,148.518C86.32,146.446 78.926,139.522 76.298,130.453C74.745,125.095 74.74,112.298 76.288,106.957C78.598,98.983 85.001,92.212 92.546,89.764C97.071,88.295 92.712,88.409 151.066,88.239C203.616,88.085 204.539,88.074 207.227,87.571C212.383,86.606 216.942,85.164 221.213,83.147C235.527,76.387 246.38,63.126 250.187,47.739C251.626,41.926 251.651,41.541 251.766,23.075L251.872,0.321L257.242,0.321L257.11,75.425L256.977,144.86L258.569,144.537C259.443,144.359 260.69,144.139 261.338,144.047L262.52,143.88L262.52,0.321L268.201,0.321L268.302,27.549C268.387,45.796 268.464,49.43 268.795,51.219C270.68,61.391 274.828,69.351 281.685,75.95C288.195,82.215 294.968,85.7 304.517,87.696C306.147,88.037 311.44,88.104 346.763,88.236C391.708,88.404 388.109,88.255 391.866,90.103C395.096,91.691 397.584,94.217 399.15,97.496L400.067,99.415L402.892,99.422L405.72,99.428L405.561,98.636C405.308,97.372 403.861,94.211 402.814,92.632C400.162,88.638 396.11,85.482 391.741,84.009C388.086,82.777 388.254,82.782 348.056,82.78C323.57,82.779 309.62,82.688 308.048,82.518C292.147,80.803 278.942,69.371 275.06,53.961C273.988,49.703 273.96,49.031 273.954,27.051L273.951,0.321L279.4,0.321L279.484,27.673C279.561,47.38 279.609,49.524 280.01,51.219C281.525,57.634 284.25,62.717 288.555,67.161C293.267,72.028 298.728,75.081 305.45,76.61L307.871,77.161L348.254,77.312C385.774,77.452 388.767,77.494 390.485,77.904C396.992,79.458 402.71,83.2 406.665,88.494C408.124,90.449 410.249,94.887 410.895,97.334L411.449,99.428L417.025,99.428L416.811,98.285C415.642,92.027 412.465,86.089 407.779,81.403C403.293,76.917 397.946,73.975 391.493,72.44C389.758,72.027 386.821,71.986 349.247,71.843C309.366,71.692 308.837,71.684 306.576,71.167C295.837,68.714 288.043,60.968 285.476,50.198C285.079,48.534 285.031,46.357 284.951,27.176L284.865,0.321L290.352,0.321L290.354,25.685C290.356,46.536 290.436,48.258 291.55,51.473C293.802,57.966 298.916,62.989 305.512,65.188L307.871,65.975L347.756,66.162C375.472,66.292 388.286,66.436 389.755,66.635C402.397,68.348 413.27,76.162 419.036,87.678C420.414,90.429 421.929,95.201 422.432,98.372L422.6,99.428L428.081,99.428L427.908,97.812C427.813,96.923 427.41,94.958 427.013,93.446C425.051,85.961 421.26,79.302 415.847,73.831C409.259,67.172 401.856,63.276 392.131,61.349C389.387,60.805 389.283,60.804 349.124,60.668L308.867,60.531L307.251,59.955C302.809,58.37 299.591,55.573 297.719,51.674C297.108,50.398 296.486,48.762 296.336,48.038C296.156,47.155 296.068,40.012 296.068,26.356L296.068,0.321L301.535,0.321L301.538,25.933C301.54,47.539 301.518,47.141 302.914,49.705C303.594,50.957 305.978,53.455 306.49,53.455C306.673,53.455 306.753,46.272 306.753,29.723L306.753,0.321L312.22,0.321L312.22,55.195L317.688,55.195L317.688,0.321L323.154,0.321L323.154,55.195L328.621,55.195L328.621,0.321L334.337,0.321L334.337,55.195L339.803,55.195L339.803,0.321L345.272,0.321L345.272,55.195L350.738,55.195L350.738,0.321L356.203,0.321L356.266,30.531L356.33,55.07L361.921,55.211L361.921,0.321L367.387,0.321L367.387,55.195L372.856,55.195L372.856,0.321L378.322,0.321L378.322,55.195L384.038,55.195L384.038,0.321L389.505,0.321L389.505,55.368L391.68,55.668C392.875,55.834 394.105,56.031 394.412,56.106L394.971,56.242L394.971,0.321L400.436,0.321L400.499,31.853L400.563,57.716L403.297,58.815C404.801,59.42 406.059,59.915 406.092,59.915C406.126,59.916 406.154,47.783 406.154,32.953L406.154,0.321L411.622,0.321L411.622,63.055L416.964,67.056L417.027,36.523L417.091,0.321L422.555,0.321L422.555,72.8L424.169,74.94C425.058,76.117 426.288,77.941 426.903,78.992L428.024,80.904L428.024,0.321L433.738,0.321L433.738,98.199L434.468,97.821C435.652,97.209 437.656,95.003 438.394,93.496L439.081,92.097L439.145,49.044L439.21,0.321L444.921,0.321L444.984,45.068C445.057,91.207 445.062,90.528 444.561,92.536C443.99,94.818 442.401,97.859 440.902,99.534C439.208,101.428 436.45,103.221 433.894,104.086L431.874,104.771L391.616,104.905C348.155,105.049 350.572,104.976 345.395,106.299C333.482,109.343 323.037,117.725 317.492,128.692C316.68,130.297 315.718,132.404 315.353,133.375C314.546,135.525 313.327,140.284 313.086,142.233L312.909,143.662L315.666,143.662C318.329,143.662 318.426,143.643 318.528,143.103C320.28,133.723 323.781,127.009 330.024,121.048C335.185,116.122 341.826,112.611 348.567,111.245C352.5,110.448 356.486,110.37 393.803,110.366C434.99,110.362 432.862,110.437 436.975,108.853C440.582,107.464 444.483,104.353 446.708,101.091C448.044,99.134 449.271,96.48 449.949,94.086L450.512,92.097L450.417,49.044L450.32,0.321L455.794,0.321L455.973,48.174C456.131,85.814 456.109,90.613 455.762,92.729C453.891,104.151 446.415,112.2 434.733,115.372C433.885,115.602 423.798,115.715 393.108,115.839C349.348,116.017 351.922,115.935 347.068,117.31C336.255,120.375 327.497,129.509 324.638,140.708C323.836,143.845 323.699,143.662 326.873,143.662L329.596,143.662L329.868,142.606C331.282,137.106 333.685,132.89 337.483,129.239C341.445,125.432 345.177,123.427 350.986,121.982C351.775,121.786 364.04,121.657 392.487,121.544C437.126,121.368 434.317,121.474 439.329,119.768C451.196,115.728 459.534,105.583 461.34,92.991C461.568,91.401 461.611,80.778 461.521,48.447L461.404,0.321L466.712,0.321L466.874,10.504C467.161,18.408 467.068,92.048 466.77,94.038C464.645,108.191 455.427,119.612 442.075,124.638C440.185,125.35 438.271,125.879 435.479,126.462C433.848,126.803 428.538,126.869 393.108,126.996L352.602,127.141L350.365,127.837C345.192,129.447 341.007,132.568 338.195,136.917C337.138,138.549 335.83,141.437 335.446,142.979L335.276,143.662L340.929,143.662L341.727,141.952C343.238,138.706 345.978,135.881 349.122,134.322C352.824,132.489 349.091,132.642 394.103,132.479C416.38,132.398 434.832,132.259 435.106,132.169C435.378,132.079 436.55,131.824 437.71,131.602C449.053,129.431 459.779,121.981 465.998,111.952C468.577,107.792 470.165,104.028 471.369,99.215C472.685,93.963 472.637,96.039 472.534,49.417L472.437,0.321L477.896,0.321L478.064,48.174C478.174,75.527 478.148,91.275 477.988,92.967C477.835,94.583 477.738,113.162 477.732,141.744L477.723,187.913L483.314,187.771L483.381,124.527C483.439,69.324 483.398,60.866 483.07,58.002C482.599,53.898 482.597,50.995 483.065,46.87C483.353,44.311 483.43,39.724 483.434,24.815L483.439,0.321L488.906,0.321L488.906,30.396L490.302,28.444C491.07,27.371 492.3,25.804 493.036,24.963L494.374,23.434L494.374,0.321L499.831,0.321L499.898,12.297L499.965,18.603L505.307,15.355L505.307,0.321L511.023,0.321L511.023,9.488C511.023,12.164 511.096,12.966 511.334,12.903C511.504,12.858 512.734,12.549 514.067,12.215L516.49,11.609L516.49,0.321L521.958,0.321L521.958,10.961L527.424,10.961L527.424,0.321L532.876,0.321L532.945,8.907L533.016,11.823L535.377,12.533L538.173,13.374C538.573,13.494 538.607,13.209 538.607,9.747L538.607,0.321L544.073,0.321L544.079,11.023L544.085,16.055L545.361,16.801C546.064,17.211 547.292,18.021 548.09,18.602L549.542,19.657L549.542,0.321L555.008,0.321L555.008,24.622L556.945,27.172C558.009,28.575 559.267,30.394 559.74,31.214L560.6,32.705L560.665,19.348L560.728,0.321L566.191,0.321L566.191,55.195L571.657,55.195L571.657,0.321L577.877,0.321L577.812,94.769L577.746,183.548L577.213,185.1C575.72,189.448 572.131,192.494 567.682,193.181L565.943,193.452L565.943,198.831L566.998,198.825C569.98,198.814 574.131,197.211 576.937,194.987C579.513,192.945 581.683,189.607 582.758,186.032C583.187,184.608 583.209,180.487 583.274,95.266L583.341,0.321L588.81,0.321L588.745,95.639L588.681,185.287L588.118,187.275C586.504,192.991 583.064,197.694 578.22,200.806C574.975,202.89 570.582,204.297 567.32,204.297L565.943,204.297L565.943,207.154C565.943,209.277 566.023,210.011 566.252,210.011C567.335,210.004 571.314,209.45 572.776,209.106C583.429,206.584 591.989,197.437 593.89,186.545C594.23,184.599 594.272,174.339 594.272,95.171L594.272,0.321L599.743,0.321L599.674,96.384C599.607,182.496 599.582,186.865 599.156,188.641C597.154,196.965 592.808,203.736 586.346,208.601C581.23,212.451 575.575,214.621 568.968,215.267L565.943,215.564L565.943,221.023L568.489,220.877C584.896,219.949 599.226,208.442 603.832,192.501C605.446,186.914 605.315,195.045 605.392,95.887L605.463,0.321L610.922,0.321L610.922,55.195L615.892,55.195L615.892,0.321L621.359,0.321L621.359,55.195L626.825,55.195L626.825,0.321L632.294,0.321L632.294,55.211L637.885,55.07L637.948,30.531L638.012,0.321L643.476,0.321L643.476,55.195L648.943,55.195L648.943,0.321L654.409,0.321L654.409,55.195L659.877,55.195L659.877,0.321L665.592,0.321L665.592,55.195L671.06,55.195L671.06,0.321L676.527,0.321L676.527,55.195L681.993,55.195L681.993,0.321L687.461,0.321L687.461,30.344C687.461,44.503 687.555,54.697 687.683,54.697C688.149,54.697 691.353,53.627 692.244,53.173L693.176,52.699L693.176,0.321L698.64,0.321L698.704,27.151L698.767,48.311L699.841,46.782C700.431,45.94 701.341,44.33 701.865,43.203C703.628,39.402 703.633,39.348 703.864,23.013C703.978,14.949 704.081,7.764 704.092,7.047L704.11,0.073L709.603,0.073L709.463,19.099C709.297,34.679 709.191,37.513 708.673,40.036C707.588,45.315 705.19,49.652 701.292,53.381C697.248,57.251 692.507,59.585 687.04,60.396C685.836,60.575 673.148,60.662 648.087,60.662L610.922,60.662L610.922,66.129L648.631,66.128C689.914,66.127 688.475,66.174 693.114,64.658C703.904,61.132 711.866,52.18 714.207,40.941C714.626,38.925 714.997,26.572 715.027,13.632L715.045,0.073L716.626,0.073C717.494,0.073 718.724,0.144 719.358,0.231L720.512,0.389L720.499,15.654C720.478,30.109 720.148,39.423 719.563,42.148C717.921,49.785 714.328,56.249 708.768,61.562C704.263,65.867 698.735,68.973 692.879,70.49C688.095,71.73 689.722,71.682 649.004,71.778L610.922,71.868L610.922,77.331L649.502,77.245C683.715,77.17 688.322,77.115 690.203,76.759C699.883,74.93 707.091,71.169 713.677,64.507C719.776,58.341 723.661,50.716 725.262,41.775C725.727,39.178 725.794,37.425 725.982,22.516C726.096,13.496 726.198,0.418 726.209,0.384C726.219,0.349 727.458,0.321 728.962,0.321L731.698,0.321L731.57,17.981C731.342,39.32 731.232,41.114 729.801,46.833C725.632,63.489 711.977,77.115 695.289,81.268C689.504,82.708 691.998,82.628 649.75,82.716L610.922,82.796L610.922,88.259L650.247,88.183C686.567,88.113 689.754,88.074 691.931,87.669C703.715,85.477 713.213,80.611 721.097,72.722C729.355,64.461 734.384,54.558 736.305,42.769C736.654,40.639 736.782,37.038 737.008,23.137L737.286,0.446L740.206,0.376L743.125,0.306L743.125,99.428L748.344,99.428L748.344,0.321L753.812,0.073L753.812,0.145L830.763,0.145L830.763,267.073ZM657.268,100.046C658.498,99.844 659.589,99.678 659.691,99.678C659.794,99.677 659.877,98.391 659.877,96.819L659.877,93.961L654.409,93.961L654.409,97.192C654.409,99.613 654.487,100.421 654.72,100.418C654.892,100.415 656.038,100.248 657.268,100.046ZM361.921,99.428L361.921,93.961L356.205,93.961L356.205,96.529C356.205,97.941 356.279,99.172 356.371,99.263C356.462,99.354 357.748,99.428 359.23,99.428L361.921,99.428ZM372.856,99.428L372.856,93.961L367.387,93.961L367.387,99.428L372.856,99.428ZM384.038,99.428L384.038,93.961L378.322,93.961L378.322,99.428L384.038,99.428ZM393.829,99.118C393.037,97.73 390.381,95.204 389.715,95.204C389.6,95.204 389.505,96.154 389.505,97.316L389.505,99.428L391.756,99.428C393.486,99.428 393.967,99.356 393.829,99.118ZM383.913,143.538L383.913,138.071L378.447,138.071L378.374,140.538C378.335,141.895 378.361,143.157 378.432,143.342C378.533,143.603 379.165,143.663 381.237,143.608L383.913,143.538ZM747.769,142.874C748.297,142.378 748.357,142.131 748.291,140.715C748.196,138.584 747.632,138.12 744.978,137.986L743.125,137.892L743.125,139.683C743.125,141.74 743.546,142.686 744.728,143.289C745.695,143.781 746.99,143.605 747.769,142.874ZM96.767,118.701L96.767,94.236L95.463,94.617C94.745,94.827 93.515,95.283 92.728,95.632L91.298,96.267L91.361,118.744L91.425,141.221L92.916,141.856C93.736,142.206 94.91,142.633 95.525,142.806C96.14,142.979 96.671,143.131 96.705,143.143C96.739,143.155 96.767,132.156 96.767,118.701ZM391.945,140.583C392.679,139.888 393.441,139.011 393.635,138.633L393.991,137.946L389.505,137.946L389.505,140.192C389.505,142.435 389.505,142.437 390.058,142.141C390.362,141.979 391.21,141.277 391.945,140.583ZM85.823,118.625L85.813,100.795L85.06,101.665C83.866,103.042 82.404,105.837 81.722,108.043C80.287,112.683 80.234,124.574 81.628,129.155C82.216,131.087 83.747,134.082 84.872,135.503C85.287,136.027 85.673,136.455 85.73,136.455C85.787,136.455 85.829,128.432 85.823,118.625ZM671.06,99.428L671.06,93.961L665.592,93.961L665.592,99.428L671.06,99.428ZM681.993,99.428L681.993,93.713L680.413,93.713C679.544,93.713 678.314,93.784 677.68,93.871L676.527,94.029L676.527,99.428L681.993,99.428ZM693.176,96.171C693.176,92.919 693.176,92.914 692.617,93.047C692.309,93.12 691.526,93.244 690.878,93.322C690.229,93.4 689.195,93.527 688.58,93.604L687.461,93.743L687.461,99.428L693.176,99.428L693.176,96.171ZM704.11,94.802C704.11,90.515 704.079,90.185 703.676,90.298C703.436,90.366 702.206,90.74 700.942,91.13L698.644,91.838L698.644,99.428L704.11,99.428L704.11,94.802ZM556.458,88.329L572.155,88.164L572.155,82.779L547.274,82.779C520.212,82.779 519.546,82.749 515.15,81.37C507.288,78.904 500.582,73.213 497.011,65.978C494.754,61.404 493.837,57.457 493.843,52.337C493.847,47.048 494.786,43.13 497.166,38.47C505.238,22.659 524.99,17.248 540.29,26.656C542.938,28.284 547.699,32.905 549.341,35.443C552.733,40.682 554.494,46.635 554.507,52.896L554.511,55.195L560.048,55.195L559.903,51.281C559.737,46.781 559.153,43.628 557.826,40.044C551.083,21.84 531.538,12.32 513.012,18.215C507.944,19.828 502.662,23.084 498.741,27.012C493.591,32.17 490.031,38.954 488.73,46.092C488.158,49.236 488.164,55.537 488.742,58.674C491.398,73.093 502.467,84.495 516.749,87.524C520.892,88.402 530.667,88.6 556.458,88.329ZM572.155,77.311L572.155,71.908L546.869,71.774C519.328,71.628 520.398,71.684 516.739,70.188C506.91,66.171 502.219,54.738 506.338,44.834C508.446,39.768 512.95,35.676 518.353,33.92C521.058,33.042 524.99,32.843 527.935,33.435C533.808,34.617 539.414,39.076 541.718,44.397C542.834,46.978 543.127,48.374 543.259,51.778L543.393,55.195L549.044,55.195L549.042,53.517C549.029,43.163 544.092,34.735 535.411,30.251C530.09,27.503 523.356,26.796 517.483,28.369C510.004,30.374 503.106,36.83 500.636,44.136C498.856,49.408 498.89,55.483 500.729,60.762C503.745,69.414 511.936,75.965 521.088,77.042C522.044,77.155 533.925,77.262 547.49,77.279L572.155,77.311ZM316.221,120.137L317.688,118.106L317.688,93.961L312.22,93.961L312.22,126.619L313.489,124.392C314.186,123.168 315.416,121.253 316.221,120.137ZM622.958,122.835C623.476,121.972 624.557,120.378 625.362,119.292L626.825,117.318L626.825,93.961L621.359,93.961L621.359,109.672C621.359,122.805 621.413,125.303 621.689,124.893C621.869,124.624 622.442,123.697 622.958,122.835ZM326.681,109.421L328.591,108.002L328.621,93.961L323.154,93.961L323.154,112.166L323.961,111.503C324.407,111.139 325.629,110.202 326.681,109.421ZM638.008,107.279L638.008,93.961L632.294,93.961L632.294,111.59L635.151,109.434L638.008,107.279ZM339.121,102.527L339.803,102.356L339.803,93.961L334.337,93.961L334.337,104.615L336.387,103.656C337.515,103.128 338.745,102.62 339.121,102.527ZM645.027,103.568C645.75,103.247 646.928,102.791 647.644,102.554L648.943,102.122L648.943,93.961L643.476,93.961L643.476,99.055C643.476,101.857 643.528,104.15 643.594,104.15C643.657,104.15 644.302,103.888 645.027,103.568ZM347.881,100.172C351.076,99.672 350.738,100.068 350.738,96.814L350.738,93.961L345.272,93.961L345.272,97.333C345.272,100.428 345.307,100.694 345.706,100.574C345.945,100.503 346.923,100.321 347.881,100.172ZM438.149,190.13L439.206,189.864L439.206,136.895L438.647,137.046C438.34,137.13 437.109,137.331 435.913,137.493L433.738,137.787L433.738,191.594L435.415,190.993C436.338,190.665 437.568,190.276 438.149,190.13ZM404.618,215.107L406.154,212.623L406.154,177.649L405.595,177.785C405.287,177.859 404.001,178.344 402.738,178.862L400.438,179.803L400.449,222.562L401.765,220.078C402.488,218.71 403.772,216.473 404.616,215.107L404.618,215.107ZM417.089,200.965L417.089,170.246L415.266,171.694C414.265,172.491 413.035,173.396 412.534,173.705L411.622,174.268L411.622,206.073L414.355,203.518L417.089,200.965ZM425.662,195.297C426.482,194.835 427.349,194.382 427.587,194.29C427.997,194.134 428.024,193.004 428.024,175.436C428.024,165.159 427.981,156.797 427.928,156.853C427.876,156.91 427.36,157.74 426.78,158.696C426.203,159.653 425.015,161.4 424.143,162.577L422.555,164.718L422.555,197.131L423.364,196.633C423.808,196.359 424.842,195.757 425.662,195.297ZM572.155,66.377L572.155,60.671L547.119,60.604L522.081,60.537L520.715,59.893C516.437,57.875 514.684,52.856 516.756,48.572C517.479,47.08 519.673,45.148 521.272,44.597C525.374,43.182 529.803,45.046 531.601,48.945C532.121,50.071 532.27,50.828 532.35,52.772L532.453,55.195L537.862,55.195L537.858,52.896C537.854,50.097 537.366,47.904 536.302,45.908C531.974,37.783 520.981,36.076 514.492,42.521C507.176,49.784 509.875,61.859 519.613,65.433C521.624,66.171 525.322,66.276 551.219,66.332L572.155,66.377ZM526.889,53.184C526.802,51.278 526.755,51.135 525.989,50.45C525.054,49.615 523.445,49.459 522.51,50.114C522.025,50.454 521.958,50.722 521.958,52.312C521.958,54.805 522.347,55.141 525.275,55.175L526.981,55.195L526.889,53.184ZM448.214,188.222L450.139,188.071L450.139,133.252L448.711,133.89C447.925,134.241 446.723,134.721 446.039,134.957L444.798,135.384L444.734,162.044L444.671,188.705L445.48,188.539C445.923,188.447 447.155,188.306 448.214,188.222ZM461.322,156.943C461.322,127.446 461.301,126.005 460.886,126.315C460.645,126.493 459.359,127.456 458.028,128.453L455.607,130.267L455.607,187.896L461.322,187.896L461.322,156.943ZM472.257,187.896L472.257,112.237L471.136,114.149C470.521,115.2 469.291,117.024 468.404,118.201L466.79,120.341L466.79,187.896L472.257,187.896ZM494.374,187.896L494.374,81.245L492.918,79.589C492.119,78.678 490.889,77.104 490.184,76.092L488.906,74.251L488.906,187.896L494.374,187.896ZM505.307,187.896L505.307,89.25L504.252,88.715C503.671,88.421 502.44,87.694 501.518,87.1L499.84,86.019L499.84,187.896L505.307,187.896ZM516.49,187.896L516.49,93.091L514.067,92.511C512.736,92.191 511.506,91.875 511.334,91.807C511.086,91.708 511.025,101.404 511.025,139.79L511.023,187.896L516.49,187.896ZM527.176,167.311C527.176,155.99 527.102,134.798 527.011,120.22L526.845,93.713L521.958,93.713L521.958,187.896L527.176,187.896L527.176,167.311ZM567.777,187.544C569.175,187.124 570.53,186.14 571.182,185.072C571.644,184.312 571.656,183.154 571.657,139.127L571.657,93.961L566.189,93.961L566.189,140.929C566.189,166.761 566.284,187.896 566.4,187.896C566.513,187.896 567.134,187.737 567.777,187.544ZM753.258,176.001C765.986,173.267 776.131,164.173 780.14,151.9C781.45,147.892 781.763,145.742 781.75,140.804C781.739,135.888 781.308,133.137 779.923,129.142C774.841,114.473 761.273,104.895 745.57,104.895L742.877,104.895L742.877,110.362L744.802,110.367C753.566,110.386 760.818,113.153 766.711,118.728C774.436,126.033 777.739,136.238 775.771,146.722C773.78,157.317 765.662,166.434 755.303,169.702C751.956,170.757 749.685,171.097 745.984,171.097C742.281,171.097 740.011,170.757 736.665,169.702C725.93,166.315 717.906,157.043 715.929,145.743C715.595,143.833 715.543,139.582 715.543,114.007C715.543,96.625 715.45,84.511 715.317,84.56C715.194,84.605 713.912,85.313 712.468,86.133L709.842,87.624L709.838,113.966C709.836,140.372 709.937,144.316 710.693,148.011C713.394,161.181 723.887,172.231 736.879,175.587C741.662,176.823 748.616,176.998 753.258,176.001ZM163.118,135.089L163.118,93.713L157.651,93.713L157.651,167.668L159.204,170.033C160.058,171.333 161.259,173.312 161.872,174.43C162.485,175.55 163.016,176.465 163.052,176.465C163.088,176.465 163.118,157.845 163.118,135.089ZM224.649,169.444C225.257,168.235 226.877,165.69 228.706,163.07L229.468,161.977L229.468,123.496C229.468,102.331 229.41,85.015 229.339,85.015C229.268,85.015 228.788,85.282 228.27,85.609C227.753,85.935 226.525,86.607 225.541,87.103L223.753,88.003L223.753,129.376C223.753,152.131 223.807,170.749 223.873,170.749C223.939,170.749 224.288,170.162 224.649,169.444ZM748.591,165.519C758.628,164.489 767.019,157.476 769.833,147.764C773.639,134.627 766.053,120.755 752.994,116.97C750.798,116.334 746.974,115.83 744.342,115.83L742.877,115.83L742.877,121.481L746.293,121.606C749.085,121.707 750.075,121.849 751.698,122.382C757.901,124.418 762.38,128.898 764.402,135.089C765.336,137.95 765.498,142.202 764.788,145.177C763.168,151.947 758.537,157.008 751.948,159.206C749.055,160.171 744.64,160.332 741.52,159.586C735.744,158.205 731.072,154.426 728.461,149.024C726.483,144.933 726.629,147.9 726.541,109.543L726.463,75.3L721.009,80.396L721.009,111.624C721.009,145.348 720.991,144.824 722.331,148.756C725.4,157.751 733.649,164.429 743.002,165.489C745.809,165.807 745.785,165.807 748.591,165.519ZM152.066,94.015C151.975,93.776 151.271,93.714 149.268,93.766L146.593,93.837L146.529,124.977L146.466,156.118L147.268,156.786C147.709,157.153 148.967,158.268 150.065,159.262L152.06,161.07L152.123,127.702C152.159,109.35 152.133,94.19 152.066,94.015ZM239.223,152.873L240.403,152.027L240.403,76.288L237.668,78.712L234.936,81.135L234.936,156.349L236.489,155.033C237.342,154.31 238.572,153.338 239.223,152.873ZM749.279,154.222C751.736,153.643 753.735,152.491 755.7,150.523C761.181,145.035 761.176,136.589 755.687,131.101C752.82,128.233 749.721,127.012 745.309,127.012L742.877,127.012L742.877,132.414L745.432,132.528C748.485,132.664 750.099,133.288 751.799,134.988C753.463,136.65 754.168,138.38 754.177,140.809C754.183,142.567 754.088,142.998 753.372,144.454C751.9,147.443 749.389,148.986 745.978,148.998C744.219,149.004 743.79,148.909 742.324,148.187C740.516,147.297 739.254,146.026 738.342,144.178L737.783,143.041L737.534,58.401L736.33,60.836C735.668,62.175 734.406,64.455 733.528,65.902L731.931,68.533L731.998,105.787L732.067,143.041L732.755,144.986C733.649,147.516 734.73,149.168 736.646,150.939C740.052,154.086 744.715,155.298 749.279,154.222ZM141.001,123.036L141.001,93.713L135.534,93.713L135.534,149.371L137.211,150.231C138.134,150.704 139.336,151.373 139.883,151.717C140.43,152.062 140.905,152.348 140.939,152.352C140.973,152.356 141.001,139.164 141.001,123.036ZM250.406,146.873L251.337,146.544L251.324,60.786L250.389,62.525C249.334,64.491 247.092,68.122 246.357,69.055C245.878,69.665 245.869,70.309 245.869,109.262L245.869,148.848L247.671,148.025C248.663,147.572 249.893,147.054 250.406,146.873ZM130.006,120.365L129.943,93.837L124.476,93.837L124.412,119.609L124.349,145.382L125.406,145.654C125.988,145.803 127.079,146.134 127.83,146.389C128.582,146.645 129.393,146.862 129.633,146.873C130.047,146.892 130.066,145.52 130.006,120.365ZM118.884,119.06L118.884,93.713L113.417,93.713L113.417,143.632L114.473,143.759C115.962,143.938 118.748,144.332 118.822,144.373C118.856,144.392 118.884,133.001 118.884,119.06ZM107.95,143.662L107.95,93.713L102.483,93.713L102.483,143.662L107.95,143.662ZM273.453,143.662L273.453,75.387L271.315,72.187C270.139,70.427 268.915,68.483 268.594,67.868L268.009,66.75L267.987,143.662L273.453,143.662ZM284.576,114.561L284.638,85.585L282.308,83.81C281.026,82.834 279.838,81.867 279.667,81.661C279.497,81.456 279.259,81.287 279.139,81.287C278.88,81.287 278.837,143.247 279.095,143.504C279.19,143.6 280.448,143.646 281.89,143.608L284.513,143.538L284.576,114.561ZM295.57,143.662L295.57,91.015L294.199,90.501C293.444,90.219 292.273,89.708 291.597,89.365C290.922,89.023 290.309,88.743 290.236,88.743C290.164,88.743 290.104,101.099 290.104,116.202L290.104,143.662L295.57,143.662ZM306.628,143.538L306.628,93.602L304.144,93.176C302.778,92.941 301.52,92.743 301.348,92.734C301.102,92.722 301.037,97.937 301.037,118.025C301.037,131.943 301.115,143.409 301.212,143.504C301.307,143.6 302.565,143.646 304.008,143.608L306.628,143.538ZM350.738,143.662L350.738,139.652L350.01,140.171C349.037,140.864 347.259,142.902 347.259,143.324C347.259,143.577 347.698,143.662 348.999,143.662L350.738,143.662ZM361.796,143.538L361.796,138.071L356.33,138.071L356.259,140.538C356.218,141.895 356.244,143.157 356.315,143.342C356.415,143.603 357.049,143.663 359.122,143.608L361.796,143.538ZM372.856,143.662L372.856,137.946L367.387,137.946L367.387,143.662L372.856,143.662ZM64.897,267.073L0.859,267.073L0,0.073L64.038,0.073L64.038,0L69.184,0.321L69.184,35.19C69.184,51.249 69.232,64.389 69.291,64.389C69.35,64.389 70.288,63.858 71.375,63.209C72.462,62.56 73.7,61.838 74.126,61.605L74.899,61.182L74.899,0.321L80.364,0.321L80.427,32.404L80.491,58.817L83.162,57.965L85.833,57.112L85.833,0.321L91.3,0.321L91.3,56.005L92.232,55.839C92.745,55.748 93.975,55.605 94.966,55.522L96.767,55.371L96.767,0.321L102.483,0.321L102.483,55.195L107.95,55.195L107.95,0.321L113.417,0.321L113.417,55.195L118.884,55.195L118.884,0.321L124.351,0.321L124.351,55.195L130.067,55.195L130.067,0.321L135.534,0.321L135.534,55.195L141.001,55.195L141.001,0.321L146.468,0.321L146.468,55.211L152.06,55.07L152.123,30.531L152.186,0.321L157.651,0.321L157.651,55.195L163.118,55.195L163.118,0.321L168.585,0.321L168.585,55.195L174.052,55.195L174.052,0.321L179.768,0.321L179.768,55.195L185.235,55.195L185.235,0.321L190.702,0.321L190.702,55.195L196.169,55.195L196.169,0.321L201.636,0.321L201.636,54.697L202.212,54.697C202.991,54.697 205.276,54.005 206.42,53.423L207.352,52.948L207.352,0.321L212.816,0.321L212.879,27.549L212.943,49.106L214.345,47.242C215.988,45.059 217.03,43.059 217.76,40.693C218.273,39.031 218.286,38.585 218.286,22.49L218.286,0.321L224.25,0.321L224.248,20.093C224.246,27.85 224.136,35.438 224.001,36.957C222.991,48.369 215.148,57.367 203.859,60.07C202.125,60.485 198.653,60.523 148.58,60.669C95.988,60.823 95.109,60.834 92.418,61.338C80.84,63.511 71.854,68.067 63.875,75.81C55.439,83.995 50.34,93.798 48.253,105.846C47.755,108.715 47.706,109.849 47.701,118.563C47.694,129.073 47.834,130.637 49.314,136.5C51.628,145.663 56.461,154.207 63.098,160.866C71.312,169.106 81.165,174.143 92.916,176.106C94.696,176.404 97.971,176.577 104.471,176.721C114.257,176.937 115.388,177.071 119.21,178.465C126.633,181.175 132.513,187.616 134.968,195.724L135.645,197.96L135.735,212.623C135.785,220.685 135.747,234.803 135.65,243.996L135.474,266.562L130.076,266.562L130.01,229.21L129.943,197.712L129.147,195.645C128.709,194.51 127.997,192.999 127.564,192.291C126.639,190.777 124.805,188.421 124.538,188.405C124.435,188.397 124.351,204.664 124.351,224.551L124.351,266.562L118.884,266.562L118.884,184.222L117.952,183.85C116.607,183.313 114.395,182.677 113.869,182.677C113.434,182.677 113.417,184.14 113.417,221.692L113.417,266.562L107.95,266.562L107.95,182.18L102.483,182.18L102.483,266.562L96.769,266.562L96.706,221.382L96.643,182.057L94.948,181.889C94.015,181.796 92.813,181.647 92.276,181.555L91.3,181.391L91.3,266.562L85.833,266.562L85.833,180.31L83.1,179.41L80.366,178.512L80.366,266.562L74.901,266.562L74.838,218.406L74.775,176.104L73.16,175.217C72.271,174.728 71.013,174.016 70.364,173.634L69.184,172.938L70.364,267.241L64.897,267.241L64.897,267.073ZM141.091,257.663C141.173,255.989 141.267,242.151 141.3,226.91C141.345,205.894 141.286,198.805 141.055,197.55C139.95,191.551 137.103,185.665 133.322,181.561C129.475,177.386 124.264,174.057 119.325,172.622C115.626,171.547 114.658,171.451 105.341,171.238C95.524,171.013 93.681,170.823 88.691,169.524C80.487,167.387 73.392,163.286 67.179,157.091C59.817,149.749 55.327,140.735 53.606,129.847C52.98,125.884 52.988,111.459 53.619,107.429C55.899,92.86 63.966,80.611 76.166,73.192C81.455,69.976 86.539,68.094 93.413,66.807C96.101,66.303 97.024,66.292 149.575,66.138C199.752,65.99 203.116,65.953 204.867,65.535C218.397,62.303 227.845,51.883 229.449,38.42C229.611,37.06 229.716,30.271 229.716,21.087L229.716,0.321L235.212,0.321L235.117,22.827C235.027,39.169 235.007,39.736 234.468,42.148C231.561,55.153 222.955,65.104 210.83,69.487C209.338,70.026 207.946,70.418 204.918,71.153C204.069,71.359 189.07,71.479 150.319,71.59L96.892,71.743L94.034,72.284C84.713,74.048 77.44,77.816 71.079,84.177C65.506,89.75 61.73,96.458 59.903,104.03C58.816,108.538 58.693,110.343 58.809,120.054C58.928,130.01 59.048,131.013 60.775,136.429C65.083,149.943 76.569,160.761 90.377,164.309C94.366,165.334 96.674,165.548 106.086,165.766C113.997,165.949 115.62,166.053 117.708,166.506C132.133,169.639 143.299,180.948 146.189,195.351C146.91,198.942 146.958,201.792 146.798,230.949L146.635,266.562L140.941,266.562L141.091,257.663ZM152.321,230.204C152.51,197.151 152.526,197.671 151.175,192.268C148.088,179.919 139.56,169.569 128.033,164.185C121.13,160.96 115.995,160.09 103.726,160.066C97.845,160.055 95.177,159.824 92.255,159.071C85.377,157.301 79.068,153.658 74.508,148.824C69.617,143.64 66.484,137.653 64.916,130.491C64.377,128.03 64.344,127.36 64.344,118.687C64.344,110.015 64.377,109.344 64.916,106.883C68.153,92.103 78.771,81.372 93.488,78.008L95.898,77.457L149.326,77.308C207.252,77.147 203.542,77.239 209.021,75.839C223.804,72.061 235.663,60.165 239.383,45.379C240.602,40.536 240.649,39.684 240.65,22.33L240.65,0.321L246.413,0.321L246.3,22.578C246.193,38.026 246.151,39.38 245.66,42.272C243.892,52.702 239.473,61.363 232.211,68.623C224.901,75.934 216.192,80.399 205.736,82.2C203.457,82.592 198.836,82.64 149.947,82.776C100.922,82.913 96.504,82.959 94.909,83.348C90.305,84.47 87.223,85.731 84.084,87.777C76.127,92.964 71.059,101.139 69.931,110.604C69.607,113.327 69.607,124.047 69.931,126.77C70.77,133.811 73.756,140.149 78.538,145.037C82.189,148.769 85.887,151.155 90.594,152.814C94.713,154.265 95.646,154.376 105.589,154.598C112.066,154.742 115.519,154.923 117.269,155.21C127.795,156.936 136.626,161.428 144.007,168.81C151.383,176.186 156.023,185.566 157.526,196.145C157.941,199.062 158.025,218.995 157.734,245.612L157.569,266.562L152.146,266.562L152.321,230.204Z"/>
</svg>
