<?xml version="1.0" encoding="UTF-8" standalone="no"?>
<!DOCTYPE svg PUBLIC "-//W3C//DTD SVG 1.1//EN" "http://www.w3.org/Graphics/SVG/1.1/DTD/svg11.dtd">
<svg width="100%" height="100%" viewBox="0 0 2699 908" version="1.1" xmlns="http://www.w3.org/2000/svg" xmlns:xlink="http://www.w3.org/1999/xlink" xml:space="preserve" xmlns:serif="http://www.serif.com/" style="fill-rule:evenodd;clip-rule:evenodd;stroke-linejoin:round;stroke-miterlimit:2;">
    <g transform="matrix(2.66667,0,0,2.66667,-0.272685,-11.0933)">
        <path id="path1514" d="M43.441,247.28L43.36,150.24L40.64,149.355C38.506,148.661 36.862,148.399 33.015,148.139C22.93,147.456 15.865,144.495 9.765,138.395C-6.885,121.744 -1.202,93.308 20.552,84.426C24.096,82.979 27.628,82.26 32.852,81.922C37.254,81.637 41.273,80.86 42.928,79.974C43.499,79.669 43.52,78.31 43.52,41.909L43.52,4.16L51.2,4.16L51.2,74.36L52.203,73.42C53.752,71.97 56.171,68.093 57.342,65.187L58.4,62.56L58.49,33.36L58.579,4.16L66.56,4.16L66.56,34.668L68.88,32.438C70.156,31.211 71.668,29.881 72.24,29.482L73.28,28.756L73.28,4.16L81.28,4.16L81.28,24.599L83.44,24.016C84.628,23.695 86.14,23.337 86.8,23.222L88,23.011L88,4.16L96,4.16L96,23.011L97.2,23.213C97.86,23.323 99.372,23.67 100.56,23.982L102.72,24.55L102.72,4.16L110.72,4.16L110.72,28.426L112.08,29.467C112.828,30.039 114.34,31.379 115.44,32.444L117.44,34.382L117.44,4.16L125.414,4.16L125.607,61.28L126.36,63.52C127.584,67.161 130.072,71.537 131.801,73.09L132.48,73.699L132.48,4.16L140.48,4.16L140.48,79.611L141.716,80.105C142.841,80.555 146.538,81.6 147.006,81.6C147.113,81.6 147.2,64.176 147.2,42.88L147.2,4.16L155.2,4.16L155.2,81.671L156.4,81.451C157.06,81.33 158.536,80.912 159.68,80.522L161.76,79.813L161.923,4.16L169.92,4.16L169.946,74.08L170.91,72.96C172.559,71.042 174.173,68.426 175.349,65.762L176.48,63.2L176.653,4.16L184.64,4.16L184.666,35.04L185.853,33.736C186.911,32.574 189.039,30.631 190.994,29.043C191.673,28.492 191.68,28.369 191.68,16.323L191.68,4.16L199.36,4.16L199.36,14.434C199.36,23.531 199.416,24.687 199.85,24.52C200.565,24.246 203.807,23.456 205.2,23.217L206.4,23.011L206.4,4.16L214.4,4.16L214.4,23.011L215.6,23.213C216.26,23.323 217.772,23.67 218.96,23.982L221.12,24.55L221.12,4.16L229.12,4.16L229.124,28.64L230.211,29.38C230.809,29.787 232.32,31.126 233.569,32.355L235.84,34.59L235.84,4.16L243.824,4.16L244,61.92L244.878,64.291C245.918,67.096 247.268,69.562 249.082,71.964L250.4,73.71L250.563,4.16L258.56,4.16L258.56,41.721C258.56,71.387 258.644,79.348 258.96,79.598C259.48,80.01 262.862,81.159 264.4,81.447L265.6,81.671L265.6,4.16L273.6,4.16L273.6,82.211L274.8,82.413C275.46,82.523 276.972,82.87 278.16,83.182L280.32,83.75L280.32,4.16L288.32,4.16L288.32,87.898L289.52,88.749C290.18,89.218 291.692,90.563 292.88,91.739L295.04,93.878L295.04,4.16L303.04,4.16L303.04,34.932L304.628,33.194C305.502,32.238 307.014,30.841 307.988,30.089L309.76,28.722L309.76,4.16L317.76,4.16L317.76,14.434C317.76,23.857 317.804,24.692 318.289,24.506C318.782,24.316 321.59,23.632 323.6,23.212L324.48,23.028L324.48,4.16L332.48,4.16L332.48,23.001L334,23.227C334.836,23.352 336.42,23.711 337.52,24.024L339.52,24.595L339.52,4.16L347.52,4.16L347.52,28.726L348.356,29.274C348.815,29.575 350.327,30.907 351.716,32.233L354.24,34.645L354.24,4.16L362.227,4.16L362.4,62.24L363.254,64.578C364.247,67.296 366.178,70.654 367.798,72.48L368.933,73.76L368.947,38.96L368.96,4.16L376.96,4.16L376.96,79.611L378.196,80.105C379.321,80.555 383.018,81.6 383.486,81.6C383.593,81.6 383.68,64.176 383.68,42.88L383.68,4.16L391.68,4.16L391.68,81.671L392.88,81.449C394.479,81.153 397.82,80.025 398.32,79.612C398.636,79.351 398.72,71.38 398.72,41.721L398.72,4.16L406.4,4.16L406.4,38.88C406.4,61.861 406.508,73.6 406.721,73.6C407.277,73.6 409.958,69.704 411.236,67.04C413.542,62.232 413.44,63.827 413.44,32.413L413.44,4.16L421.44,4.16L421.44,34.671L423.92,32.268C425.284,30.946 426.796,29.609 427.28,29.295L428.16,28.726L428.16,4.16L436.16,4.16L436.16,24.55L438.32,23.982C439.508,23.67 441.02,23.323 441.68,23.213L442.88,23.011L442.88,4.16L450.88,4.16L450.88,23.011L452.08,23.213C452.74,23.323 454.252,23.67 455.44,23.982L457.6,24.55L457.6,4.16L465.6,4.16L465.6,28.411L468.327,30.707C469.827,31.97 471.283,33.354 471.564,33.782C471.844,34.21 472.201,34.56 472.357,34.56C472.517,34.56 472.64,27.963 472.64,19.36L472.64,4.16L480.64,4.16L480.64,93.782L482.853,91.591C484.07,90.386 485.581,89.049 486.211,88.62L487.356,87.84L487.359,46L487.36,4.16L495.36,4.16L495.36,83.691L502.08,82.08L502.08,4.16L510.08,4.16L510.08,81.671L511.28,81.447C511.94,81.324 513.416,80.899 514.56,80.503L516.64,79.783L516.802,4.16L524.8,4.16L524.8,38.88C524.8,57.976 524.885,73.6 524.989,73.6C525.704,73.6 529.049,68.445 530.32,65.384L531.36,62.88L531.533,4.16L539.52,4.16L539.52,19.36C539.52,28.54 539.638,34.56 539.818,34.56C539.982,34.56 540.417,34.138 540.783,33.623C541.15,33.108 542.6,31.728 544.005,30.556L546.56,28.425L546.56,4.16L554.56,4.16L554.56,24.55L556.72,23.982C557.908,23.67 559.42,23.323 560.08,23.213L561.28,23.011L561.28,4.16L569.28,4.16L569.28,23.011L570.48,23.213C571.14,23.323 572.652,23.67 573.84,23.982L576,24.55L576,4.16L584,4.16L584,28.726L584.88,29.295C585.364,29.609 586.876,30.946 588.24,32.268L590.72,34.671L590.72,4.16L598.72,4.16L598.72,32.413C598.72,63.827 598.618,62.232 600.924,67.04C602.202,69.704 604.883,73.6 605.439,73.6C605.652,73.6 605.76,61.861 605.76,38.88L605.76,4.16L613.44,4.16L613.44,41.721C613.44,71.38 613.524,79.351 613.84,79.612C614.34,80.025 617.681,81.153 619.28,81.449L620.48,81.671L620.48,4.16L628.48,4.16L628.48,42.88C628.48,64.176 628.567,81.6 628.674,81.6C629.142,81.6 632.839,80.555 633.964,80.105L635.2,79.611L635.2,4.16L643.2,4.16L643.227,73.76L644.362,72.48C646.123,70.495 648.003,67.114 649.007,64.128L649.92,61.409L649.92,4.16L657.92,4.16L657.92,34.668L660.24,32.438C661.516,31.211 663.028,29.881 663.6,29.482L664.64,28.756L664.64,4.16L672.64,4.16L672.64,24.595L674.64,24.024C675.74,23.711 677.324,23.352 678.16,23.227L679.68,23.001L679.68,4.16L687.68,4.16L687.68,23.028L688.56,23.212C690.57,23.632 693.378,24.316 693.871,24.506C694.356,24.692 694.4,23.857 694.4,14.434L694.4,4.16L702.4,4.16L702.4,28.722L704.124,30.053C705.073,30.784 706.585,32.161 707.484,33.112L709.12,34.842L709.12,4.16L717.12,4.16L717.12,61.407L717.918,63.903C718.892,66.949 720.775,70.398 722.515,72.323L723.814,73.76L723.84,4.16L731.84,4.16L731.84,79.611L733.076,80.105C734.201,80.555 737.898,81.6 738.366,81.6C738.473,81.6 738.56,64.176 738.56,42.88L738.56,4.16L746.56,4.16L746.56,81.671L747.76,81.449C749.359,81.153 752.7,80.025 753.2,79.612C753.516,79.351 753.6,71.38 753.6,41.721L753.6,4.16L761.597,4.16L761.76,73.71L763.078,71.964C764.891,69.562 766.242,67.096 767.281,64.291L768.16,61.92L768.336,4.16L776.32,4.16L776.32,34.635L778.59,32.378C779.839,31.136 781.35,29.788 781.948,29.38L783.036,28.64L783.042,4.16L791.042,4.16L791.042,24.55L793.202,23.982C794.39,23.67 795.902,23.323 796.562,23.213L797.76,23.011L797.76,4.16L805.76,4.16L805.76,23.011L806.96,23.217C808.353,23.456 811.595,24.246 812.31,24.52C812.744,24.687 812.8,23.531 812.8,14.434L812.8,4.16L820.48,4.16L820.48,28.384L822.48,30.106C823.58,31.053 825.161,32.551 825.994,33.434L827.509,35.04L827.514,19.6L827.52,4.16L835.507,4.16L835.68,63.2L836.811,65.762C837.987,68.426 839.6,71.042 841.25,72.96L842.214,74.08L842.227,39.12L842.24,4.16L850.237,4.16L850.4,79.813L852.48,80.522C853.624,80.912 855.1,81.33 855.76,81.451L856.96,81.671L856.96,4.16L864.96,4.16L864.96,42.88C864.96,64.176 865.047,81.6 865.154,81.6C865.621,81.6 869.319,80.555 870.444,80.105L871.68,79.611L871.68,4.16L879.68,4.16L879.706,73.76L881.005,72.323C882.706,70.441 884.589,67.026 885.682,63.84L886.56,61.28L886.743,4.16L894.72,4.16L894.72,34.38L896.56,32.601C897.572,31.623 899.084,30.278 899.92,29.613L901.44,28.403L901.44,4.16L909.44,4.16L909.44,24.55L911.6,23.982C912.788,23.67 914.3,23.323 914.96,23.213L916.16,23.011L916.16,4.16L924.16,4.16L924.16,23.011L925.36,23.213C926.02,23.325 927.532,23.68 928.72,24.003L930.88,24.591L930.88,4.16L938.88,4.16L938.88,28.756L939.92,29.482C940.492,29.881 942.004,31.211 943.28,32.438L945.6,34.668L945.6,4.16L953.6,4.16L953.608,61.6L954.527,64.239C955.551,67.183 957.44,70.544 959.157,72.48L960.293,73.76L960.306,38.96L960.32,4.16L968.32,4.16L968.32,79.627L969.68,80.121C972.844,81.271 974.822,81.638 979.36,81.918C987.826,82.441 994.051,84.669 999.683,89.195C1018.55,104.357 1015.34,133.924 993.657,144.631C986.622,148.105 977.841,148.966 970.425,146.91L968.32,146.326L968.32,174.123C968.32,189.411 968.441,201.92 968.589,201.92C968.737,201.92 969.997,201.608 971.389,201.226C973.494,200.649 974.781,200.532 979.04,200.531C983.58,200.53 984.523,200.627 987.36,201.385C1009.36,207.262 1019.1,232.792 1006.56,251.687C1003.4,256.454 999.058,260.294 993.92,262.878C989.188,265.257 986.025,266.02 978.72,266.546C974.46,266.853 972.775,267.188 969.68,268.345L968.32,268.853L968.32,344.32L960.32,344.32L960.293,274.72L959.158,276C957.441,277.936 955.552,281.297 954.527,284.241L953.608,286.88L953.6,344.32L945.6,344.32L945.6,313.812L943.28,316.042C942.004,317.269 940.492,318.599 939.92,318.998L938.88,319.724L938.88,344.32L930.88,344.32L930.88,323.889L928.72,324.477C927.532,324.8 926.02,325.155 925.36,325.267L924.16,325.469L924.16,344.32L916.16,344.32L916.16,325.469L914.96,325.267C914.3,325.157 912.788,324.81 911.6,324.498L909.44,323.93L909.44,344.32L901.44,344.32L901.44,320.077L899.92,318.867C899.084,318.202 897.572,316.857 896.56,315.879L894.72,314.1L894.72,344.32L886.743,344.32L886.56,287.2L885.682,284.64C884.589,281.454 882.706,278.039 881.005,276.157L879.707,274.72L879.68,344.32L871.68,344.32L871.68,268.87L870.444,268.375C869.32,267.925 865.622,266.88 865.154,266.88C865.048,266.88 864.96,284.304 864.96,305.6L864.96,344.32L856.96,344.32L856.96,266.809L855.76,267.029C855.1,267.15 853.624,267.568 852.48,267.958L850.4,268.667L850.238,344.32L842.24,344.32L842.214,274.4L841.25,275.52C839.6,277.438 837.987,280.054 836.811,282.718L835.68,285.28L835.507,344.32L827.52,344.32L827.51,313.44L825.996,315.046C825.163,315.929 823.581,317.427 822.481,318.374L820.481,320.096L820.481,344.32L812.801,344.32L812.801,334.046C812.801,324.949 812.745,323.793 812.311,323.96C811.596,324.234 808.354,325.024 806.961,325.263L805.761,325.469L805.761,344.32L797.761,344.32L797.761,325.469L796.561,325.267C795.901,325.157 794.389,324.81 793.201,324.498L791.041,323.93L791.041,344.32L783.041,344.32L783.035,319.84L781.948,319.1C781.35,318.692 779.839,317.344 778.59,316.102L776.32,313.845L776.32,344.32L768.32,344.32L768.32,254.251L766.922,255.846C766.153,256.722 764.641,258.147 763.562,259.01L761.6,260.58L761.6,344.32L753.6,344.32L753.6,304.446C753.6,272.679 753.518,264.602 753.2,264.722C752.194,265.101 749.151,265.884 747.92,266.08L746.56,266.296L746.56,344.32L738.56,344.32L738.56,305.6C738.56,273.764 738.485,266.88 738.138,266.88C737.596,266.88 734.593,267.77 733.04,268.39L731.84,268.869L731.84,344.32L723.84,344.32L723.813,274.72L722.515,276.157C720.775,278.082 718.892,281.531 717.918,284.577L717.12,287.073L717.12,344.32L709.12,344.32L709.12,313.638L707.484,315.368C706.585,316.319 705.073,317.696 704.124,318.427L702.4,319.758L702.4,344.32L694.4,344.32L694.4,334.046C694.4,324.623 694.356,323.788 693.871,323.974C693.378,324.164 690.57,324.848 688.56,325.268L687.68,325.452L687.68,344.32L679.68,344.32L679.68,325.479L678.16,325.253C677.324,325.128 675.74,324.769 674.64,324.456L672.64,323.885L672.64,344.32L664.64,344.32L664.64,319.724L663.6,318.998C663.028,318.599 661.516,317.269 660.24,316.042L657.92,313.812L657.92,344.32L649.92,344.32L649.92,287.071L649.006,284.352C648.003,281.366 646.122,277.985 644.362,276L643.226,274.72L643.199,344.32L635.199,344.32L635.199,268.87L633.963,268.375C632.841,267.925 629.143,266.88 628.675,266.88C628.569,266.88 628.481,284.304 628.481,305.6L628.481,344.32L620.481,344.32L620.481,266.809L619.281,267.031C617.682,267.327 614.342,268.455 613.841,268.868C613.526,269.129 613.441,277.1 613.441,306.759L613.441,344.32L605.761,344.32L605.761,309.6C605.761,286.619 605.653,274.88 605.441,274.88C604.884,274.88 602.203,278.776 600.925,281.44C598.62,286.248 598.721,284.653 598.721,316.067L598.721,344.32L590.721,344.32L590.721,313.809L588.241,316.212C586.877,317.534 585.365,318.872 584.881,319.185L584.001,319.754L584.001,344.32L576.001,344.32L576.001,323.93L573.841,324.498C572.653,324.81 571.141,325.157 570.481,325.267L569.281,325.469L569.281,344.32L561.281,344.32L561.281,325.469L560.081,325.267C559.421,325.157 557.909,324.81 556.721,324.498L554.561,323.93L554.561,344.32L546.561,344.32L546.561,320.055L544.007,317.924C542.602,316.752 541.152,315.372 540.785,314.857C540.418,314.342 539.984,313.92 539.82,313.92C539.64,313.92 539.521,319.94 539.521,329.12L539.521,344.32L531.534,344.32L531.361,285.6L530.322,283.096C529.309,280.658 527.268,277.3 525.62,275.36L524.805,274.4L524.805,309.36L524.802,344.32L516.804,344.32L516.642,268.669L514.562,267.98C513.418,267.601 511.942,267.192 511.282,267.071L510.082,266.851L510.082,344.32L502.082,344.32L502.082,266.809L500.882,267.033C500.222,267.156 498.746,267.581 497.602,267.977L495.522,268.697L495.359,344.32L487.362,344.32L487.362,274.781L486.694,275.385C485.566,276.406 483.901,278.85 482.76,281.159C480.523,285.688 480.642,283.761 480.642,315.578L480.642,344.32L472.642,344.32L472.642,329.12C472.642,320.517 472.519,313.92 472.358,313.92C472.203,313.92 471.846,314.27 471.565,314.698C471.285,315.126 469.828,316.51 468.329,317.773L465.602,320.069L465.602,344.32L457.602,344.32L457.602,323.93L455.442,324.498C454.254,324.81 452.742,325.157 452.082,325.267L450.882,325.469L450.882,344.32L442.882,344.32L442.882,325.469L441.682,325.267C441.022,325.157 439.51,324.81 438.322,324.498L436.162,323.93L436.162,344.32L428.162,344.32L428.162,319.754L427.282,319.185C426.798,318.872 425.286,317.534 423.922,316.212L421.442,313.809L421.442,344.32L413.442,344.32L413.442,316.067C413.442,284.653 413.543,286.248 411.238,281.44C409.96,278.776 407.279,274.88 406.722,274.88C406.51,274.88 406.402,286.619 406.402,309.6L406.402,344.32L398.722,344.32L398.722,306.759C398.722,277.1 398.637,269.129 398.322,268.868C397.821,268.455 394.481,267.327 392.882,267.031L391.682,266.809L391.682,344.32L383.682,344.32L383.682,305.6C383.682,284.304 383.594,266.88 383.488,266.88C383.02,266.88 379.322,267.925 378.198,268.375L376.962,268.87L376.962,344.32L368.962,344.32L368.935,274.72L367.799,276C366.18,277.826 364.249,281.184 363.256,283.902L362.402,286.24L362.229,344.32L354.24,344.32L354.24,313.835L351.716,316.247C350.327,317.573 348.815,318.905 348.356,319.206L347.52,319.754L347.52,344.32L339.52,344.32L339.52,323.885L337.52,324.456C336.42,324.769 334.836,325.128 334,325.253L332.48,325.479L332.48,344.32L324.48,344.32L324.48,325.452L323.6,325.268C321.59,324.848 318.782,324.164 318.289,323.974C317.804,323.788 317.76,324.623 317.76,334.046L317.76,344.32L309.76,344.32L309.76,319.758L307.988,318.391C307.014,317.639 305.502,316.242 304.628,315.286L303.04,313.548L303.04,344.32L295.04,344.32L295.036,315.76C295.033,291.903 294.956,286.91 294.57,285.44C293.895,282.866 291.409,278.135 289.771,276.308L288.348,274.72L288.32,344.32L280.32,344.32L280.32,268.87L279.12,268.39C277.566,267.77 274.563,266.88 274.022,266.88C273.675,266.88 273.6,273.764 273.6,305.6L273.6,344.32L265.6,344.32L265.6,266.809L264.4,267.033C262.861,267.321 259.48,268.47 258.96,268.882C258.644,269.132 258.56,277.093 258.56,306.759L258.56,344.32L250.563,344.32L250.4,274.77L249.081,276.516C247.268,278.918 245.918,281.384 244.878,284.189L244,286.56L243.824,344.32L235.84,344.32L235.84,313.89L233.569,316.125C232.32,317.354 230.809,318.693 230.211,319.1L229.124,319.84L229.12,344.32L221.12,344.32L221.12,323.93L218.96,324.498C217.772,324.81 216.26,325.157 215.6,325.267L214.4,325.469L214.4,344.32L206.4,344.32L206.4,325.469L205.2,325.263C203.807,325.024 200.565,324.234 199.851,323.96C199.417,323.793 199.36,324.949 199.36,334.046L199.36,344.32L191.68,344.32L191.68,332.157C191.68,320.111 191.673,319.988 190.995,319.437C189.039,317.849 186.911,315.906 185.854,314.744L184.667,313.44L184.64,344.32L176.653,344.32L176.567,314.8L176.48,285.28L175.35,282.718C174.173,280.054 172.56,277.438 170.91,275.52L169.946,274.4L169.92,344.32L161.923,344.32L161.76,268.667L159.68,267.958C158.536,267.568 157.06,267.15 156.4,267.029L155.2,266.809L155.2,344.32L147.2,344.32L147.2,305.6C147.2,284.304 147.113,266.88 147.007,266.88C146.539,266.88 142.841,267.925 141.717,268.375L140.48,268.87L140.48,344.32L132.48,344.32L132.48,274.781L131.801,275.39C130.074,276.941 127.586,281.315 126.358,284.96L125.604,287.2L125.417,344.32L117.44,344.32L117.44,314.099L115.44,316.036C114.34,317.101 112.828,318.441 112.08,319.013L110.72,320.054L110.72,344.32L102.72,344.32L102.72,323.93L100.56,324.498C99.372,324.81 97.86,325.157 97.2,325.267L96,325.469L96,344.32L88,344.32L88,325.452L87.12,325.281C86.636,325.186 85.124,324.838 83.76,324.506L81.28,323.902L81.28,344.32L73.28,344.32L73.28,319.724L72.24,318.998C71.668,318.599 70.156,317.269 68.88,316.042L66.56,313.812L66.56,344.32L58.567,344.32L58.483,255.92L58.4,167.52L57.506,165.28C56.031,161.582 52.457,156.16 51.495,156.16C51.316,156.16 51.2,193.034 51.2,250.24L51.2,344.32L43.521,344.32L43.441,247.28ZM99.644,318.562C108.801,315.908 115.865,308.687 118.229,299.564C118.519,298.444 118.96,295.061 119.208,292.044C119.752,285.453 120.397,282.928 122.736,278.24C124.864,273.974 127.572,270.641 131.439,267.529C135.812,264.01 139.914,262.186 146.24,260.949C150.789,260.06 156.904,260.619 162.073,262.398C170.244,265.209 177.663,272.413 181.111,280.885C182.415,284.09 183.049,287.288 183.378,292.32C183.866,299.777 185.36,304.277 188.915,308.996C192.169,313.317 197.975,317.242 203.36,318.761C207.033,319.797 213.761,319.798 217.44,318.763C222.055,317.464 227.384,314.185 230.487,310.734C234.956,305.763 236.943,300.56 237.442,292.523C237.743,287.681 238.08,285.64 239.089,282.56C240.558,278.07 242.822,274.339 246.255,270.746C251.509,265.246 256.294,262.616 263.776,261.116C269.156,260.038 273.92,260.38 279.84,262.269C289.1,265.225 297.183,273.476 300.113,282.962C301.016,285.887 301.368,288.106 301.744,293.237C302.141,298.674 302.937,301.736 304.897,305.376C307.485,310.182 310.896,313.556 316.066,316.424C323.748,320.685 333.888,320.645 341.617,316.323C347.999,312.754 352.647,307.012 354.573,300.32C354.927,299.088 355.365,296.136 355.546,293.76C355.935,288.645 356.569,284.846 357.487,282.134C360.282,273.874 367.664,266.1 375.727,262.924C384.698,259.39 394.109,259.837 402.592,264.2C407.377,266.661 412.58,271.547 415.329,276.16C418.193,280.966 419.389,285.13 419.87,291.967C420.416,299.744 421.97,304.434 425.586,309.224C428.872,313.576 435.061,317.595 440.538,318.932C443.944,319.763 450.649,319.679 453.92,318.764C458.558,317.466 463.308,314.611 466.577,311.158C471.367,306.096 473.388,301.067 473.947,292.817C474.324,287.265 474.914,284.23 476.291,280.761C479.702,272.168 487.654,264.711 496.16,262.129C503.332,259.951 509.404,259.993 516.375,262.268C526.742,265.652 535.21,275.142 537.416,285.846C537.698,287.214 538.067,290.389 538.236,292.903C538.783,301.014 540.87,306.214 545.554,311.137C548.868,314.62 553.587,317.447 558.307,318.778C561.515,319.682 568.226,319.756 571.68,318.926C577.071,317.63 583.493,313.369 586.82,308.881C590.339,304.134 591.786,299.697 592.296,292.091C592.652,286.788 593.307,283.751 594.908,279.98C598.259,272.085 605.675,265.127 613.667,262.377C616.668,261.345 621.656,260.48 624.595,260.483C627.691,260.486 632.714,261.504 636.32,262.859C643.86,265.693 651.328,273.241 654.225,280.958C655.553,284.494 656.019,286.905 656.483,292.626C656.992,298.901 657.987,302.681 660.038,306.139C664.353,313.41 671.771,318.333 680,319.387C693.226,321.08 705.893,312.784 709.44,300.105C709.801,298.816 710.234,295.888 710.404,293.6C710.834,287.782 711.008,286.612 711.899,283.52C713.629,277.518 717.781,271.449 722.96,267.354C728.604,262.891 734.941,260.765 743.843,260.349C750.683,260.029 756.344,257.6 761.398,252.817C766.61,247.884 769.028,242.252 769.604,233.703C769.974,228.207 770.594,225.03 771.971,221.561C775.429,212.852 783.497,205.378 792.16,202.861C799.198,200.816 804.322,200.816 811.36,202.861C820.023,205.378 828.091,212.852 831.549,221.561C833.131,225.544 833.695,228.669 833.695,233.44C833.695,238.356 833.141,241.278 831.405,245.529C829.22,250.877 825.609,255.511 820.791,259.149C815.348,263.259 809.927,265.048 801.251,265.6C796.118,265.926 793.71,266.485 790.24,268.154C778.258,273.918 772.25,287.087 775.784,299.84C777.053,304.421 778.645,307.366 781.673,310.734C784.776,314.185 790.105,317.464 794.72,318.763C798.395,319.797 805.125,319.797 808.8,318.763C813.266,317.506 818.594,314.279 821.616,310.999C826.226,305.997 828.307,300.59 828.802,292.322C829.215,285.435 830.311,281.549 833.328,276.271C834.834,273.635 838.923,269.067 841.656,266.964C845.43,264.061 849.712,262.204 855.136,261.116C860.327,260.076 864.535,260.333 870.56,262.061C877.993,264.193 885.408,270.414 889.231,277.728C891.577,282.215 892.421,285.472 892.97,292.16C893.239,295.433 893.701,298.735 894.083,300.106C897.051,310.758 906.618,318.588 917.808,319.52C930.575,320.583 942.401,312.483 945.95,300.245C946.315,298.988 946.773,295.733 947.042,292.48C947.701,284.527 948.943,280.368 952.157,275.344C956.049,269.26 962.708,264.112 969.28,262.106C972.821,261.025 974.402,260.764 979.2,260.466C982.107,260.286 984.736,259.929 986.24,259.509C995.045,257.055 1001.93,250.435 1004.87,241.6C1005.82,238.729 1005.88,238.285 1005.89,233.6C1005.92,227.727 1005.55,226.07 1003.19,221.28C1000.56,215.936 996.563,211.941 991.2,209.291C986.503,206.97 984.747,206.576 979.04,206.568C974.885,206.562 973.919,206.661 971.851,207.31C962.749,210.169 955.686,217.141 953.272,225.652C952.871,227.066 952.418,230.259 952.134,233.676C951.631,239.727 950.826,243.293 949.156,246.88C945.425,254.892 937.549,261.709 929.267,264.096C924.981,265.331 920.354,265.79 916.925,265.32C908.85,264.215 903.463,261.731 898.143,256.662C894.81,253.486 893.012,251.046 891.172,247.2C889.197,243.071 888.29,239.491 888.08,235.001C887.646,225.681 890.739,217.654 897.349,210.948C900.034,208.225 902.049,206.716 905.28,205.011C909.767,202.644 914.652,201.475 921.44,201.145C925.777,200.935 928.859,200.111 932.517,198.184C940.734,193.856 946.073,185.897 946.823,176.857C947.262,171.567 946.456,166.939 944.305,162.391C941.952,157.416 937.646,152.997 932.517,150.296C928.859,148.369 925.777,147.546 921.44,147.335C910.684,146.813 903.673,143.963 897.363,137.55C890.716,130.794 887.644,122.829 888.08,113.479C888.29,108.989 889.197,105.409 891.172,101.28C893.012,97.435 894.81,94.994 898.143,91.818C903.463,86.749 908.85,84.266 916.925,83.16C920.354,82.691 924.981,83.15 929.267,84.385C937.549,86.771 945.425,93.589 949.156,101.6C950.826,105.187 951.631,108.753 952.134,114.805C952.772,122.477 953.615,125.33 956.647,130.069C958.058,132.275 961.41,135.63 963.877,137.305C972.558,143.2 983.389,143.636 992.64,138.462C995.894,136.643 1000.63,131.907 1002.47,128.635C1008.65,117.657 1006.85,104.456 997.983,95.715C995.435,93.204 993.866,92.111 990.56,90.545C987.127,88.919 984.641,88.324 979.854,87.981C974.569,87.604 973.442,87.446 970.4,86.662C963.395,84.856 956.275,79.574 952.148,73.123C948.943,68.113 947.701,63.947 947.042,56C946.42,48.489 945.381,45.031 942.456,40.723C937.026,32.727 927.45,28.157 917.808,28.96C906.608,29.893 897.053,37.712 894.083,48.375C893.701,49.746 893.239,53.047 892.97,56.32C892.421,63.009 891.577,66.265 889.231,70.752C885.408,78.066 877.993,84.287 870.56,86.419C864.535,88.147 860.327,88.405 855.136,87.364C849.712,86.277 845.43,84.419 841.656,81.516C838.923,79.414 834.834,74.845 833.328,72.21C830.311,66.931 829.215,63.045 828.802,56.159C828.307,47.891 826.226,42.483 821.616,37.481C818.594,34.202 813.265,30.974 808.8,29.718C805.125,28.684 798.395,28.684 794.72,29.718C790.254,30.974 784.926,34.202 781.904,37.481C777.263,42.516 775.249,47.756 774.723,56.16C774.147,65.376 771.634,71.633 766.184,77.425C760.775,83.173 756.007,85.836 748.384,87.364C743.193,88.405 738.985,88.147 732.96,86.419C723.467,83.697 714.734,74.799 711.899,64.96C711.008,61.869 710.834,60.698 710.404,54.88C710.234,52.592 709.801,49.667 709.441,48.379C706.438,37.644 696.795,29.809 685.538,28.958C675.213,28.178 665.38,33.338 660.038,42.342C657.987,45.8 656.992,49.579 656.483,55.854C656.019,61.575 655.553,63.987 654.225,67.522C651.328,75.239 643.86,82.788 636.32,85.621C632.714,86.976 627.691,87.994 624.595,87.997C621.656,88 616.668,87.136 613.667,86.103C605.675,83.354 598.259,76.395 594.908,68.5C593.307,64.729 592.652,61.692 592.296,56.389C591.786,48.783 590.339,44.346 586.82,39.599C583.558,35.198 577.298,31.003 571.84,29.559C568.621,28.708 561.563,28.782 558.307,29.701C553.583,31.035 548.867,33.861 545.554,37.343C540.87,42.266 538.783,47.467 538.236,55.577C537.866,61.073 537.246,64.25 535.869,67.719C532.476,76.265 524.515,83.775 516.125,86.344C513.109,87.268 508.874,87.937 504.8,88.135C500.495,88.344 497.445,89.154 493.72,91.078C486.831,94.636 481.828,100.859 479.992,108.153C476.822,120.746 482.313,133.036 493.835,139.136C497.545,141.099 501.491,142.059 505.92,142.075C510.397,142.091 517.196,143.785 520.96,145.822C529.422,150.402 535.544,158.507 537.487,167.702C538.247,171.298 538.247,177.183 537.487,180.778C535.876,188.402 531.528,195.122 525.027,200.039C521.728,202.534 518.222,204.182 513.945,205.251C507.504,206.86 502.293,206.638 495.541,204.467C487.297,201.817 479.899,194.81 476.463,186.399C474.894,182.557 474.338,179.832 473.947,174.064C473.725,170.783 473.391,168.603 472.799,166.56C469.45,155.013 459.023,147.241 446.835,147.207C442.349,147.194 435.506,145.398 431.481,143.176C428.611,141.592 424.646,138.269 422.25,135.439C419.803,132.55 416.997,127.183 416.003,123.489C414.613,118.327 414.615,111.741 416.008,106.578C418.139,98.68 424.48,90.75 431.763,86.876C436.618,84.293 440.228,83.374 447.446,82.882C452.82,82.515 455.804,81.766 459.299,79.907C466.223,76.222 471.028,70.3 473.015,63.002C473.624,60.766 473.743,59.548 473.73,55.68C473.716,51.582 473.613,50.711 472.853,48.222C471.45,43.628 469.749,40.675 466.577,37.323C463.307,33.868 458.555,31.012 453.92,29.718C450.621,28.796 443.913,28.708 440.538,29.542C435.037,30.901 428.868,34.909 425.586,39.256C421.961,44.057 420.397,48.787 419.871,56.537C419.694,59.146 419.267,62.372 418.922,63.705C414.55,80.599 397.171,91.168 380.527,87.055C373.268,85.261 367.798,81.83 363.08,76.111C358.143,70.126 356.325,64.964 355.546,54.72C355.365,52.344 354.927,49.392 354.573,48.16C352.647,41.468 347.999,35.727 341.617,32.158C333.888,27.835 323.748,27.795 316.065,32.057C310.896,34.924 307.485,38.299 304.897,43.105C302.899,46.815 302.033,50.104 301.835,54.739C301.434,64.124 305.212,72.109 312.64,77.578C317.298,81.008 321.352,82.407 328,82.877C330.376,83.046 333.137,83.322 334.136,83.491C346.055,85.511 356.103,94.565 359.557,106.4C360.694,110.296 360.979,117.011 360.176,120.976C359.024,126.66 356.995,130.953 353.399,135.311C348.264,141.537 342.532,144.915 334.304,146.564C330.285,147.37 326.995,147.37 322.976,146.564C316.208,145.207 311.417,142.78 306.828,138.382C300.175,132.006 297.271,125.495 296.605,115.461C296.431,112.844 296.009,109.59 295.668,108.231C294.896,105.162 292.654,100.587 290.738,98.171C287.613,94.23 281.732,90.35 276.8,88.975C275.379,88.579 272.963,88.236 270.88,88.135C260.508,87.631 253.858,85.063 247.705,79.185C244.613,76.231 243.021,74.197 241.308,71.014C238.811,66.373 237.879,62.767 237.456,56.111C236.933,47.885 234.984,42.748 230.487,37.747C227.384,34.296 222.055,31.016 217.44,29.718C213.761,28.682 207.033,28.683 203.36,29.719C197.975,31.238 192.169,35.163 188.915,39.484C185.36,44.203 183.866,48.703 183.378,56.16C182.924,63.109 181.833,66.959 178.832,72.21C177.326,74.845 173.237,79.413 170.504,81.516C163.906,86.591 153.997,89.047 146.24,87.531C139.914,86.294 135.811,84.47 131.439,80.951C127.572,77.839 124.864,74.506 122.735,70.24C120.397,65.552 119.752,63.027 119.208,56.436C118.573,48.728 117.561,45.249 114.71,40.96C104.605,25.762 82.476,24.76 71.061,38.982C67.192,43.804 65.761,47.92 65.111,56.102C64.613,62.37 63.916,65.438 62.122,69.266C59.916,73.975 57.115,77.536 53.01,80.85C47.084,85.635 42.323,87.28 32.32,88C27.289,88.363 25.122,88.878 21.6,90.547C7.204,97.371 1.806,114.629 9.687,128.635C11.541,131.931 15.98,136.396 19.36,138.365C23.713,140.9 26.668,141.626 35.733,142.387C47.063,143.337 56.721,149.933 61.759,160.16C63.847,164.4 64.56,167.354 65.118,174.08C65.392,177.389 65.846,180.596 66.227,181.92C68.319,189.186 73.313,195.033 80.535,198.669C83.503,200.164 86.746,200.952 90.72,201.145C99.995,201.595 106.584,203.854 112.171,208.499C118.323,213.614 122.041,219.701 123.592,227.196C124.417,231.186 124.251,237.624 123.225,241.377C121.73,246.844 119.227,251.272 115.314,255.367C108.596,262.399 102.135,265.032 89.835,265.751C80.7,266.285 71.931,272.283 67.834,280.8C65.818,284.99 65.453,286.799 65.446,292.64C65.44,297.38 65.507,297.974 66.347,300.64C69.449,310.492 78.094,317.914 88.16,319.365C91.317,319.821 96.567,319.453 99.644,318.562ZM205.92,265.137C197.533,263.825 190.724,259.937 185.512,253.481C175.45,241.019 176.044,223.593 186.937,211.692C193.175,204.877 200.766,201.686 212.009,201.151C216.011,200.961 218.806,200.235 222.24,198.494C231.86,193.619 237.424,184.622 237.438,173.92C237.444,169.425 238.944,163.534 241.147,159.36C245.087,151.893 252.692,145.645 260.385,143.555C265.882,142.061 269.802,141.778 274.227,142.557C282.717,144.051 288.681,147.403 294.084,153.716C305.538,167.101 303.531,188.037 289.738,199.051C283.576,203.971 278.542,205.772 269.194,206.399C266.683,206.568 263.739,206.936 262.653,207.217C258.281,208.35 253.668,211.059 250.309,214.463C245.307,219.536 243.12,224.814 242.556,233.177C242.172,238.882 241.557,241.917 240.034,245.626C237.987,250.612 234.578,255.092 230.16,258.603C225.758,262.101 221.031,264.133 215.031,265.106C211.49,265.68 209.442,265.687 205.92,265.137L205.92,265.137ZM206.4,233.44C206.4,219.272 206.289,207.68 206.154,207.68C205.563,207.68 201.118,209.027 200.281,209.46L199.36,209.936L199.36,256.983L200.88,257.636C202.134,258.175 205.196,259.066 206.16,259.173C206.292,259.188 206.4,247.608 206.4,233.44ZM216.718,258.7C217.779,258.425 219.204,257.977 219.884,257.705L221.12,257.211L221.12,205.685L220.4,205.858C220.004,205.953 218.492,206.28 217.04,206.586L214.4,207.141L214.4,233.17C214.4,247.487 214.487,259.2 214.594,259.2C214.7,259.2 215.656,258.975 216.718,258.7ZM191.666,233.36L191.651,215.52L190.203,217.12C188.376,219.138 185.741,224.457 185.123,227.373C184.512,230.256 184.513,236.626 185.125,239.52C185.706,242.269 188.327,247.622 190.101,249.68C190.821,250.516 191.471,251.2 191.545,251.2C191.62,251.2 191.674,243.172 191.666,233.36L191.666,233.36ZM233.417,245.44C235.962,240.496 235.84,241.905 235.84,217.397L235.84,195.551L233.662,197.695C232.464,198.875 230.953,200.2 230.304,200.64L229.124,201.44L229.149,251.36L230.583,249.76C231.372,248.88 232.647,246.936 233.417,245.44L233.417,245.44ZM248.788,207.689L250.56,206.322L250.56,156.41L249.36,157.863C247.555,160.049 246.081,162.638 244.985,165.547L244,168.16L243.819,212.555L245.418,210.805C246.297,209.843 247.814,208.441 248.788,207.689L248.788,207.689ZM262.8,201.09L265.6,200.496L265.6,174.488C265.6,159.547 265.479,148.48 265.316,148.48C264.682,148.48 259.351,150.142 258.97,150.458C258.643,150.73 258.56,155.974 258.56,176.396L258.56,201.995L259.28,201.839C259.676,201.754 261.26,201.417 262.8,201.09ZM275.918,199.5C276.979,199.225 278.404,198.777 279.084,198.505L280.32,198.011L280.32,150.47L279.084,149.975C277.959,149.525 274.262,148.48 273.794,148.48C273.687,148.48 273.6,160.072 273.6,174.24C273.6,188.408 273.687,200 273.794,200C273.9,200 274.856,199.775 275.918,199.5ZM290.875,189.12C292.518,186.703 293.565,184.557 294.364,181.966C294.941,180.092 295.04,178.967 295.04,174.24C295.04,169.513 294.942,168.388 294.364,166.514C293.516,163.766 292.468,161.663 290.711,159.183C288.11,155.514 288.32,154.189 288.32,174.25L288.32,192.099L288.999,191.49C289.372,191.154 290.216,190.088 290.875,189.12ZM324.16,265.128C316.041,263.753 310.345,260.666 304.78,254.624C301.348,250.898 298.779,246.023 297.41,240.64C296.935,238.77 296.803,237.144 296.815,233.28C296.831,227.761 297.363,225.043 299.276,220.691C302.801,212.673 310.014,205.92 317.98,203.179C320.884,202.18 325.937,201.28 328.64,201.28C332.784,201.28 338.725,202.673 342.619,204.559C349.966,208.116 356.431,215.362 358.98,222.895C360.328,226.88 360.728,229.875 360.558,234.689C360.431,238.28 360.226,239.787 359.557,242.08C357.712,248.401 354.054,253.901 348.785,258.271C344.282,262.007 339.262,264.19 332.972,265.148C329.507,265.676 327.366,265.671 324.16,265.128L324.16,265.128ZM324.48,233.44C324.48,219.272 324.372,207.681 324.24,207.682C323.763,207.686 321.401,208.363 319.6,209.014L317.76,209.678L317.76,233.28C317.76,252.136 317.843,256.95 318.172,257.224C318.523,257.515 323.534,259.133 324.24,259.183C324.372,259.192 324.48,247.608 324.48,233.44ZM336.64,258.175C337.784,257.812 338.9,257.372 339.12,257.198C339.434,256.95 339.52,251.778 339.52,233.276L339.52,209.67L338.284,209.175C336.978,208.652 333.433,207.68 332.834,207.68C332.578,207.68 332.48,214.846 332.48,233.465L332.48,259.251L333.52,259.043C334.092,258.929 335.496,258.538 336.64,258.175ZM309.685,224.377L309.6,215.52L308.045,217.6C306.103,220.198 304.594,223.167 303.717,226.115C302.846,229.041 302.746,236.995 303.541,240.114C304.22,242.776 306.185,246.76 308.057,249.266L309.6,251.331L309.685,242.283C309.732,237.306 309.732,229.249 309.685,224.377ZM350.596,247.436C351.93,245.436 353.395,241.997 353.922,239.625C354.163,238.541 354.258,235.94 354.182,232.48C354.075,227.574 353.98,226.811 353.217,224.702C352.238,221.994 350.31,218.635 348.682,216.8L347.547,215.52L347.546,251.36L348.51,250.24C349.039,249.624 349.979,248.362 350.596,247.436ZM560.46,265.101C552.982,263.844 546.998,260.695 541.982,255.379C537.394,250.515 534.744,245.224 533.578,238.596C531.185,225.002 538.497,210.882 551.2,204.567C554.935,202.711 561.077,201.281 565.325,201.28C568.002,201.28 572.946,202.212 576.283,203.347C583.169,205.69 589.966,211.67 593.565,218.554C600.635,232.078 597.292,248.436 585.467,258.181C580.904,261.942 575.743,264.204 569.6,265.135C565.96,265.687 563.9,265.679 560.46,265.101L560.46,265.101ZM561.28,233.44C561.28,209.115 561.249,207.681 560.72,207.694C560.412,207.702 558.936,208.104 557.44,208.588L554.72,209.469L554.556,257.226L555.918,257.746C557.392,258.309 560.235,259.125 560.88,259.171C561.197,259.194 561.28,253.85 561.28,233.44L561.28,233.44ZM571.36,258.741C571.888,258.631 573.148,258.24 574.16,257.872L576,257.202L576,209.67L574.764,209.175C573.639,208.725 569.942,207.68 569.474,207.68C569.367,207.68 569.28,219.282 569.28,233.462C569.28,257.86 569.31,259.235 569.84,259.091C570.148,259.008 570.832,258.85 571.36,258.741ZM546.56,233.44C546.56,223.672 546.45,215.68 546.316,215.68C545.939,215.68 543.569,218.832 542.444,220.829C541.89,221.812 541.047,223.684 540.571,224.989C539.747,227.241 539.703,227.657 539.692,233.28C539.681,238.936 539.72,239.316 540.57,241.791C541.704,245.094 545.375,251.086 546.32,251.177C546.452,251.19 546.56,243.208 546.56,233.44ZM586.391,248.497C588.148,246.017 589.196,243.914 590.044,241.166C590.622,239.291 590.72,238.167 590.72,233.423C590.72,228.387 590.646,227.642 589.922,225.377C588.948,222.331 587.065,218.882 585.325,216.957L584.026,215.52L584.013,233.399C583.998,253.495 583.789,252.167 586.391,248.497L586.391,248.497ZM678.88,265.123C668.131,263.429 658.856,256.527 654.364,246.88C652.545,242.973 651.775,239.578 651.602,234.689C651.432,229.875 651.832,226.88 653.18,222.895C655.729,215.362 662.194,208.116 669.541,204.559C673.435,202.673 679.376,201.28 683.52,201.28C686.194,201.28 691.27,202.178 694.099,203.152C698.516,204.672 702.613,207.313 706.179,210.939C712.796,217.668 715.875,225.668 715.44,235.001C715.23,239.491 714.323,243.071 712.348,247.2C710.508,251.045 708.71,253.486 705.377,256.662C700.246,261.551 695.417,263.881 687.84,265.125C684.47,265.678 682.397,265.678 678.88,265.123L678.88,265.123ZM679.68,233.44C679.68,213.044 679.597,207.68 679.28,207.682C678.66,207.685 676.507,208.282 674.48,209.014L672.64,209.678L672.64,233.28C672.64,251.779 672.727,256.95 673.04,257.198C673.613,257.652 678.05,259.049 679.28,259.163C679.597,259.192 679.68,253.854 679.68,233.44ZM690.754,258.381C692.308,257.931 693.764,257.409 693.99,257.222C694.317,256.951 694.4,252.08 694.4,233.28L694.4,209.678L692.56,209.014C690.759,208.363 688.397,207.685 687.92,207.682C687.788,207.681 687.68,219.272 687.68,233.44C687.68,247.608 687.736,259.2 687.804,259.2C687.872,259.2 689.2,258.832 690.754,258.381ZM664.627,233.36L664.613,215.52L663.478,216.8C661.858,218.626 659.927,221.984 658.934,224.702C658.118,226.937 658.08,227.316 658.08,233.28C658.08,240.056 658.22,240.831 660.177,244.922C661.042,246.728 664.105,251.2 664.478,251.2C664.567,251.2 664.634,243.172 664.627,233.36L664.627,233.36ZM704.169,249.2C706.054,246.692 707.569,243.703 708.443,240.766C709.01,238.862 709.12,237.654 709.12,233.359C709.12,227.648 708.726,225.744 706.718,221.76C705.732,219.803 702.912,215.68 702.561,215.68C702.472,215.68 702.4,223.672 702.4,233.44C702.4,243.208 702.46,251.2 702.533,251.2C702.606,251.2 703.342,250.3 704.169,249.2ZM146.309,205.905C139.878,204.73 135.633,202.783 130.801,198.794C127.46,196.035 124.456,192.221 122.551,188.32C120.384,183.883 119.745,181.283 119.205,174.718C118.512,166.287 117.341,162.791 113.485,157.646C110.392,153.518 104.001,149.281 98.941,148.003C97.831,147.722 94.879,147.361 92.381,147.2C85.845,146.78 82.236,145.908 77.76,143.67C69.906,139.743 63.823,132.389 61.224,123.68C60.44,121.051 60.363,120.312 60.343,115.2C60.32,109.059 60.673,107.159 62.744,102.294C64.713,97.666 69.008,92.351 73.47,89.02C79.252,84.704 88.305,82.275 95.28,83.169C101.294,83.94 106.91,86.066 110.949,89.102C113.576,91.077 117.52,95.283 119.154,97.85C122.273,102.752 123.716,107.418 124.174,114.08C124.533,119.3 124.643,120.042 125.508,123.04C128.53,133.525 138.353,141.353 149.214,141.933C161.141,142.57 168.217,145.531 174.88,152.674C185.361,163.911 186.191,181.396 176.82,193.573C175.045,195.881 171.125,199.562 168.805,201.103C162.482,205.3 153.496,207.218 146.309,205.905ZM147.2,173.953L147.2,147.906L145.147,147.548C144.018,147.352 142.506,146.983 141.787,146.73L140.48,146.268L140.48,198.002L142.32,198.67C144.284,199.383 146.147,199.924 146.8,199.971C147.117,199.994 147.2,194.593 147.2,173.953ZM159.52,198.908L161.76,198.212L161.76,150.268L159.52,149.572C158.288,149.189 156.812,148.775 156.24,148.652L155.2,148.429L155.2,200.051L156.24,199.828C156.812,199.705 158.288,199.291 159.52,198.908ZM171.588,190.48C173.501,188.039 174.868,185.563 175.842,182.777C176.588,180.642 176.64,180.082 176.64,174.24C176.64,168.398 176.588,167.838 175.842,165.703C175.402,164.446 174.59,162.612 174.036,161.629C173.124,160.007 170.307,156.16 170.033,156.16C169.971,156.16 169.92,164.296 169.92,174.24C169.92,184.184 169.971,192.32 170.033,192.32C170.095,192.32 170.795,191.492 171.588,190.48ZM130.487,140.801C129.383,139.833 127.794,138.321 126.955,137.441L125.43,135.84L125.615,179.68L126.359,181.92C127.354,184.916 128.95,187.906 130.799,190.24L132.32,192.16L132.493,142.56L130.487,140.801ZM116.922,107.049C116.126,104.595 114.098,100.857 112.403,98.72L110.88,96.8L110.708,146.72L111.914,147.672C112.577,148.195 114.056,149.519 115.2,150.615L117.28,152.607L117.362,130.633C117.436,111.04 117.388,108.484 116.922,107.049L116.922,107.049ZM102.642,116.894L102.56,91.068L100.32,90.372C99.088,89.989 97.612,89.575 97.04,89.452L96,89.229L96,141.374L98,141.728C99.1,141.922 100.432,142.213 100.96,142.373C101.488,142.534 102.101,142.677 102.322,142.693C102.642,142.714 102.707,137.461 102.642,116.894ZM88,115.034L88,89.268L87.12,89.477C86.636,89.592 85.124,90.033 83.76,90.457L81.28,91.228L81.28,138.802L83.12,139.47C85.084,140.183 86.947,140.724 87.6,140.771C87.917,140.794 88,135.449 88,115.034ZM73.205,106.183L73.12,97.12L71.565,99.2C69.664,101.743 68.136,104.722 67.237,107.634C66.665,109.486 66.561,110.631 66.564,114.994C66.568,120.452 66.784,121.776 68.263,125.381C69.081,127.375 71.118,130.653 72.441,132.106L73.12,132.852L73.205,124.049C73.252,119.207 73.252,111.167 73.205,106.183ZM382.953,205.916C370.459,203.816 360.543,195.047 356.901,182.88C356.104,180.216 356.04,179.568 356.04,174.24C356.04,168.912 356.104,168.264 356.901,165.6C358.814,159.211 362.444,153.765 367.695,149.409C374.106,144.09 383.116,141.364 391.022,142.351C399.011,143.348 405.115,146.294 410.491,151.748C416.719,158.065 419.818,165.539 419.818,174.24C419.818,182.941 416.719,190.415 410.491,196.732C405.378,201.919 399.826,204.738 392.321,205.956C389.044,206.488 386.284,206.476 382.953,205.916L382.953,205.916ZM383.68,174.218C383.68,149.82 383.65,148.445 383.12,148.589C382.812,148.672 382.128,148.83 381.6,148.939C381.072,149.049 379.812,149.44 378.8,149.808L376.96,150.478L376.96,198.002L378.8,198.679C380.345,199.248 382.469,199.838 383.44,199.968C383.572,199.986 383.68,188.398 383.68,174.218ZM396,198.958C397.056,198.604 398.1,198.173 398.32,197.998C398.633,197.75 398.72,192.611 398.72,174.24C398.72,155.869 398.633,150.73 398.32,150.482C397.799,150.069 394.416,148.94 392.88,148.665L391.68,148.451L391.68,200.029L392.88,199.815C393.54,199.697 394.944,199.311 396,198.958ZM368.885,165.177L368.8,156.32L367.117,158.56C365.338,160.928 363.939,163.593 362.98,166.438C362.127,168.97 362.132,179.518 362.987,182.08C363.963,185.002 365.313,187.578 367.102,189.929L368.8,192.16L368.885,183.097C368.931,178.113 368.931,170.049 368.885,165.177L368.885,165.177ZM408.525,190C410.319,187.581 412.288,183.567 412.952,180.973C413.284,179.677 413.44,177.519 413.44,174.24C413.44,168.695 413.087,166.9 411.236,163.04C409.958,160.376 407.277,156.48 406.721,156.48C406.51,156.48 406.4,162.589 406.4,174.24C406.4,185.891 406.51,192 406.721,192C406.897,192 407.709,191.1 408.525,190ZM619.52,205.927C612.534,204.742 607.448,202.231 602.545,197.547C599.125,194.279 597.341,191.864 595.492,188C593.068,182.931 592.504,180.334 592.504,174.24C592.504,168.146 593.068,165.549 595.492,160.48C598.599,153.986 603.855,148.655 610.4,145.36C614.224,143.435 618.303,142.503 624.8,142.072C630.161,141.716 633.058,140.974 636.819,138.994C641.853,136.342 645.626,132.601 648.321,127.587C650.133,124.216 650.833,121.286 651.363,114.859C652.309,103.39 655.584,96.688 663.431,90.164C669.656,84.989 679.099,82.134 686.595,83.16C694.67,84.266 700.057,86.749 705.377,91.818C708.71,94.994 710.508,97.435 712.348,101.28C714.365,105.498 715.161,108.792 715.547,114.515C715.911,119.918 716.672,123.359 718.227,126.638C720.246,130.895 722.708,133.909 726.37,136.61C730.872,139.929 735.505,141.663 740.596,141.935C751.527,142.517 757.972,144.894 764.195,150.638C773.722,159.431 777.091,172.496 772.962,184.634C769.753,194.069 761.475,202.089 752.122,204.825C749.169,205.689 744.911,206.388 742.56,206.394C740.425,206.4 736.165,205.717 733.453,204.935C725.223,202.562 717.96,196.451 714.086,188.64C711.747,183.925 711.112,181.423 710.556,174.72C710.283,171.44 709.817,168.138 709.43,166.749C706.647,156.757 697.745,148.946 687.478,147.486C684.221,147.023 679.213,147.329 676.16,148.177C669.228,150.103 662.492,155.66 659.352,162.044C657.611,165.582 656.988,168.252 656.47,174.4C656.004,179.921 655.422,182.88 654.159,186.142C651.53,192.931 645.503,199.464 638.72,202.878C632.808,205.853 625.72,206.979 619.52,205.927ZM620.48,174.215L620.48,148.429L619.44,148.637C617.843,148.956 614.288,150.127 613.84,150.482C613.527,150.73 613.44,155.869 613.44,174.24C613.44,192.611 613.527,197.75 613.84,197.998C614.413,198.452 618.85,199.849 620.08,199.963C620.397,199.992 620.48,194.649 620.48,174.215ZM630.24,199.664C630.944,199.48 632.348,199.032 633.36,198.666L635.2,198.002L635.2,146.389L628.48,148L628.48,174C628.48,188.3 628.588,199.999 628.72,199.998C628.852,199.997 629.536,199.847 630.24,199.664ZM738.56,173.97L738.56,147.941L735.92,147.386C734.468,147.08 732.956,146.753 732.56,146.658L731.84,146.485L731.84,198.002L733.68,198.67C735.644,199.383 737.507,199.924 738.16,199.971C738.477,199.994 738.56,194.596 738.56,173.97ZM749.954,199.181C751.508,198.731 752.964,198.209 753.19,198.022C753.517,197.751 753.6,192.909 753.6,174.24C753.6,155.571 753.516,150.729 753.19,150.458C752.809,150.142 747.478,148.48 746.844,148.48C746.516,148.48 746.446,199.459 746.773,199.787C747.045,200.058 746.702,200.124 749.954,199.181L749.954,199.181ZM605.76,174.24C605.76,163.71 605.641,156.48 605.467,156.48C604.986,156.48 602.247,160.322 601.091,162.617C599.22,166.333 598.72,168.783 598.72,174.24C598.72,179.698 599.221,182.15 601.093,185.863C602.303,188.263 604.95,192 605.439,192C605.65,192 605.76,185.891 605.76,174.24ZM646.775,187.458C647.477,186.28 648.436,184.264 648.906,182.978L649.76,180.64L649.937,136.192L647.448,138.604C646.08,139.93 644.564,141.272 644.08,141.585L643.2,142.154L643.227,192.16L644.362,190.88C644.987,190.176 646.072,188.636 646.775,187.458L646.775,187.458ZM723.838,167.12L723.835,142.24L722.747,141.5C722.149,141.092 720.638,139.744 719.39,138.502L717.119,136.245L717.119,158.009C717.119,179.203 717.137,179.83 717.791,181.966C718.65,184.774 720.249,187.827 722.083,190.16C722.878,191.172 723.598,192 723.684,192C723.769,192 723.838,180.804 723.837,167.12L723.838,167.12ZM763.267,190.08C764.831,188.097 766.24,185.503 767.28,182.691C768.122,180.415 768.157,180.078 768.157,174.24C768.157,168.41 768.121,168.063 767.285,165.802C766.197,162.863 764.589,159.99 762.898,157.965L761.6,156.41L761.6,174.269C761.6,184.092 761.719,191.991 761.865,191.824C762.011,191.657 762.642,190.872 763.267,190.08ZM708.445,107.722C707.562,104.753 706.053,101.786 704.116,99.209L702.56,97.139L702.383,147.04L703.431,147.829C704.008,148.263 705.488,149.631 706.72,150.869L708.96,153.12L709.042,131.562C709.123,110.397 709.112,109.962 708.445,107.722L708.445,107.722ZM663.763,147.666L664.646,147.04L664.48,97.12L662.797,99.36C661.11,101.607 659.797,104.055 658.679,107.04C658.118,108.538 658.074,110.055 657.991,130.864L657.903,153.088L660.391,150.69C661.76,149.371 663.277,148.01 663.763,147.666L663.763,147.666ZM694.002,91.311C693.693,91.007 688.423,89.28 687.804,89.28C687.736,89.28 687.68,101.009 687.68,115.346L687.68,141.411L688.88,141.615C689.54,141.727 691.016,142.059 692.16,142.352L694.24,142.886L694.322,117.296C694.387,97.095 694.319,91.623 694.002,91.311L694.002,91.311ZM676.88,141.89L679.68,141.296L679.68,89.229L678.64,89.437C677.043,89.756 673.488,90.927 673.04,91.282C672.726,91.53 672.64,97.1 672.64,117.196L672.64,142.795L673.36,142.639C673.756,142.554 675.34,142.217 676.88,141.89ZM204.715,146.564C197.096,144.957 191.854,142.089 187.041,136.89C176.071,125.041 175.43,107.486 185.512,94.999C190.977,88.23 198.053,84.364 207.155,83.173C214.468,82.216 223.204,84.62 229.409,89.295C235.722,94.053 240.148,100.853 241.79,108.32C242.678,112.355 242.556,118.986 241.523,122.884C239.568,130.257 235.484,136.267 229.28,140.902C222.322,146.1 212.86,148.281 204.715,146.564ZM206.4,115.034L206.4,89.268L205.52,89.466C203.231,89.981 202.117,90.315 200.794,90.883L199.36,91.497L199.36,138.544L200.291,139.025C201.211,139.501 205.227,140.733 206,140.777C206.317,140.795 206.4,135.446 206.4,115.034ZM218.72,139.708L220.96,139.012L221.124,91.271L219.886,90.776C218.76,90.325 215.062,89.28 214.594,89.28C214.487,89.28 214.4,100.883 214.4,115.065L214.4,140.851L215.44,140.628C216.012,140.505 217.488,140.091 218.72,139.708L218.72,139.708ZM232.177,129.224C232.96,128.049 234.067,125.961 234.638,124.584C235.671,122.092 235.676,122.05 235.782,115.764C235.869,110.589 235.792,109.116 235.355,107.604C234.58,104.928 232.238,100.567 230.583,98.72L229.149,97.12L229.136,115.2L229.123,133.28L229.939,132.32C230.387,131.792 231.395,130.399 232.177,129.224L232.177,129.224ZM191.666,114.96L191.651,97.12L190.215,98.72C188.37,100.776 185.733,106.081 185.124,108.96C184.513,111.854 184.512,118.224 185.122,121.107C185.712,123.888 188.337,129.267 190.087,131.28C190.814,132.116 191.47,132.8 191.544,132.8C191.619,132.8 191.673,124.772 191.665,114.96L191.666,114.96ZM560.16,146.72C553.211,145.444 548.209,142.961 543.398,138.4C540.501,135.653 538.638,133.267 536.955,130.148C530.462,118.109 532.421,103.346 541.854,93.222C547.153,87.535 553.715,84.262 561.981,83.18C569.805,82.156 578.952,84.929 585.467,90.299C597.292,100.044 600.635,116.402 593.565,129.926C589.966,136.81 583.169,142.79 576.283,145.133C570.665,147.043 564.975,147.603 560.16,146.72ZM561.28,115.04C561.28,100.872 561.193,89.28 561.086,89.28C560.618,89.28 556.92,90.325 555.794,90.776L554.556,91.271L554.72,139.011L557.44,139.892C558.936,140.376 560.412,140.779 560.72,140.786C561.249,140.799 561.28,139.365 561.28,115.04L561.28,115.04ZM571.598,140.3C572.659,140.025 574.084,139.577 574.764,139.305L576,138.811L576,91.278L574.16,90.608C573.148,90.24 571.888,89.849 571.36,89.739C570.832,89.63 570.148,89.472 569.84,89.389C569.31,89.245 569.28,90.62 569.28,115.018C569.28,129.198 569.367,140.8 569.474,140.8C569.58,140.8 570.536,140.575 571.598,140.3ZM546.56,115.04C546.56,105.272 546.481,97.28 546.385,97.28C545.495,97.28 541.683,103.449 540.569,106.692C539.72,109.164 539.681,109.546 539.692,115.2C539.704,120.823 539.748,121.239 540.571,123.491C541.047,124.796 541.89,126.668 542.444,127.651C543.569,129.648 545.939,132.8 546.316,132.8C546.45,132.8 546.56,124.808 546.56,115.04ZM587.873,127.843C588.561,126.61 589.483,124.477 589.922,123.103C590.646,120.838 590.72,120.093 590.72,115.057C590.72,110.313 590.622,109.189 590.044,107.314C589.196,104.566 588.148,102.463 586.391,99.983C583.789,96.313 583.998,94.985 584.013,115.081L584.026,132.96L585.325,131.523C586.039,130.733 587.185,129.077 587.873,127.843L587.873,127.843ZM72.4,266.096L73.28,265.526L73.28,201.354L72.4,200.785C71.916,200.472 70.404,199.134 69.04,197.812L66.56,195.409L66.56,271.471L69.04,269.068C70.404,267.746 71.916,266.409 72.4,266.096ZM781.528,266.382L783.055,265.12L782.88,215.413L781.28,217.453C779.391,219.861 777.86,222.736 776.966,225.554C776.344,227.511 776.32,228.411 776.32,249.462L776.32,271.336L778.16,269.491C779.172,268.475 780.687,267.077 781.528,266.382ZM85.947,260.132L88,259.774L88,207.069L86.8,206.867C86.14,206.757 84.628,206.41 83.44,206.098L81.28,205.53L81.28,261.412L82.587,260.95C83.306,260.697 84.818,260.328 85.947,260.132ZM795.12,260.248L797.76,259.696L797.76,233.688C797.76,219.384 797.673,207.68 797.566,207.68C797.099,207.68 793.401,208.725 792.276,209.175L791.04,209.67L791.04,261.195L791.76,260.997C792.156,260.889 793.668,260.552 795.12,260.248ZM100.32,258.108L102.56,257.412L102.56,209.467L100.48,208.758C99.336,208.368 97.86,207.95 97.2,207.829L96,207.609L96,259.251L97.04,259.028C97.612,258.905 99.088,258.491 100.32,258.108ZM809.276,258.341C810.241,258.075 811.429,257.652 811.916,257.401L812.8,256.944L812.8,209.936L811.879,209.46C811.042,209.027 806.597,207.68 806.006,207.68C805.871,207.68 805.76,219.275 805.76,233.446L805.76,259.212L806.64,259.018C807.124,258.911 808.31,258.607 809.276,258.341ZM916.16,233.404L916.16,207.609L914.96,207.829C914.3,207.95 912.824,208.368 911.68,208.758L909.6,209.467L909.518,233.275C909.473,246.37 909.545,257.191 909.678,257.323C909.937,257.578 915.09,259.154 915.76,259.183C916.077,259.196 916.16,253.837 916.16,233.404L916.16,233.404ZM928.4,258.026L930.88,257.227L930.88,205.589L924.16,207.2L924.16,259.212L925.04,259.018C925.524,258.911 927.036,258.465 928.4,258.026ZM113.111,248.817C114.715,246.553 116.004,244.073 116.842,241.637C117.724,239.075 117.724,227.805 116.842,225.243C116.004,222.807 114.715,220.327 113.111,218.063C110.509,214.392 110.72,213.032 110.72,233.44C110.72,253.848 110.509,252.488 113.111,248.817ZM901.365,224.423L901.28,215.2L899.759,217.12C898.014,219.323 896.246,222.545 895.343,225.169C894.808,226.724 894.72,227.87 894.72,233.272C894.72,240.152 894.932,241.398 896.71,244.96C897.238,246.016 898.481,247.96 899.474,249.28L901.28,251.68L901.365,242.663C901.412,237.703 901.412,229.495 901.365,224.423ZM941.373,248.226C943.046,245.804 944.435,242.846 945.16,240.16C945.503,238.892 945.593,234.085 945.596,216.985L945.6,195.409L943.12,197.812C941.756,199.134 940.244,200.472 939.76,200.785L938.88,201.354L938.88,226.316C938.88,247.723 938.944,251.225 939.33,250.905C939.577,250.7 940.497,249.494 941.373,248.226L941.373,248.226ZM822.41,249.229C824.189,246.979 826.471,242.181 827.04,239.494C827.64,236.66 827.646,230.245 827.05,227.435C826.266,223.735 823.507,218.406 821.307,216.344L820.48,215.568L820.48,233.224C820.48,244.501 820.593,250.88 820.792,250.88C820.964,250.88 821.692,250.137 822.41,249.229L822.41,249.229ZM958.778,207.444L960.32,206.268L960.32,142.212L958.778,141.036C957.93,140.389 956.418,139.002 955.418,137.954L953.6,136.048L953.6,212.433L955.418,210.526C956.418,209.478 957.93,208.091 958.778,207.444ZM502.08,173.97L502.08,147.94L499.44,147.411C497.988,147.12 496.476,146.793 496.08,146.684L495.36,146.485L495.36,198.027L496.72,198.546C498.193,199.109 501.035,199.925 501.68,199.971C501.997,199.994 502.08,194.596 502.08,173.97ZM512.398,199.5C513.459,199.225 514.884,198.777 515.564,198.505L516.8,198.011L516.8,150.47L515.564,149.975C514.439,149.525 510.741,148.48 510.274,148.48C510.167,148.48 510.08,160.072 510.08,174.24C510.08,188.408 510.167,200 510.274,200C510.38,200 511.336,199.775 512.398,199.5ZM485.691,141.134C484.761,140.349 483.244,138.932 482.32,137.985L480.64,136.262L480.64,158.221C480.64,179.639 480.657,180.229 481.308,182.17C482.265,185.019 484.259,188.705 485.839,190.545L487.2,192.129L487.291,167.345L487.382,142.56L485.691,141.134ZM527.224,189.407C528.604,187.527 530.337,184.033 531.004,181.782C531.735,179.318 531.738,169.177 531.008,166.698C530.241,164.09 527.881,159.726 526.263,157.92L524.829,156.32L524.8,192.099L525.467,191.495C525.834,191.163 526.625,190.223 527.224,189.407L527.224,189.407ZM472.64,114.969L472.64,76.977L470.48,79.075C469.292,80.229 467.708,81.642 466.96,82.214L465.6,83.254L465.6,146.789L467.92,148.695C469.196,149.744 470.672,151.122 471.2,151.758C471.728,152.394 472.268,152.924 472.4,152.937C472.532,152.95 472.64,135.864 472.64,114.969ZM945.265,108.837C944.714,106.271 943.162,102.85 941.371,100.254C940.496,98.986 939.577,97.78 939.33,97.575C938.944,97.255 938.88,100.756 938.88,122.157L938.88,147.113L940.08,147.946C940.74,148.404 942.216,149.723 943.36,150.879L945.44,152.979L945.537,131.769C945.607,116.594 945.529,110.07 945.265,108.837L945.265,108.837ZM930.88,117.146L930.88,91.253L928.4,90.454C927.036,90.015 925.524,89.569 925.04,89.462L924.16,89.268L924.16,141.292L927.44,142.115C929.244,142.568 930.756,142.961 930.8,142.989C930.844,143.017 930.88,131.388 930.88,117.146ZM457.6,115.003L457.6,87.285L456.88,87.483C456.484,87.591 454.972,87.928 453.52,88.232L450.88,88.784L450.88,141.374L452.88,141.728C453.98,141.922 455.312,142.213 455.84,142.373C456.368,142.534 456.98,142.677 457.2,142.693C457.517,142.714 457.6,136.978 457.6,115.003ZM324.48,114.784L324.48,88.769L321.357,88.064C319.639,87.677 318.127,87.36 317.997,87.36C317.867,87.36 317.76,98.934 317.76,113.081L317.76,138.802L319.6,139.47C321.564,140.183 323.427,140.724 324.08,140.771C324.397,140.794 324.48,135.399 324.48,114.784ZM335.118,140.3C336.179,140.025 337.604,139.577 338.284,139.305L339.52,138.811L339.52,115.204C339.52,96.702 339.434,91.53 339.12,91.282C338.672,90.927 335.117,89.756 333.52,89.437L332.48,89.229L332.48,115.015C332.48,133.634 332.578,140.8 332.834,140.8C333.028,140.8 334.056,140.575 335.118,140.3ZM442.88,115.018C442.88,90.62 442.85,89.245 442.32,89.389C442.012,89.472 441.328,89.63 440.8,89.739C440.272,89.849 439.012,90.24 438,90.608L436.16,91.278L436.16,138.827L437.52,139.346C438.993,139.909 441.835,140.725 442.48,140.771C442.797,140.794 442.88,135.446 442.88,115.018ZM916.16,115.014L916.16,89.229L915.12,89.452C914.548,89.575 913.072,89.989 911.84,90.372L909.6,91.068L909.436,138.894L910.318,139.253C911.653,139.795 914.967,140.751 915.6,140.777C916.129,140.799 916.16,139.367 916.16,115.015L916.16,115.014ZM901.365,106.023L901.28,96.8L899.474,99.2C898.482,100.52 897.238,102.464 896.711,103.52C894.932,107.082 894.72,108.328 894.72,115.208C894.72,120.61 894.808,121.756 895.343,123.311C896.246,125.935 898.014,129.157 899.759,131.36L901.28,133.28L901.365,124.263C901.412,119.303 901.412,111.095 901.365,106.023L901.365,106.023ZM308.883,82.414C308.397,82.07 306.884,80.713 305.52,79.398L303.04,77.009L303.04,98.55C303.04,119.552 303.057,120.148 303.717,122.366C304.594,125.313 306.103,128.282 308.045,130.88L309.6,132.96L309.766,83.04L308.883,82.414ZM351.095,128.258C351.797,127.08 352.752,125.064 353.217,123.778C353.98,121.669 354.075,120.906 354.182,116C354.258,112.54 354.163,109.939 353.922,108.855C353.128,105.286 351.029,101.169 348.51,98.24L347.546,97.12L347.547,132.96L348.682,131.68C349.307,130.976 350.392,129.436 351.095,128.258ZM428.147,114.96L428.133,97.12L426.995,98.4C425.244,100.368 423.109,104.212 422.232,106.977C421.516,109.234 421.44,110.004 421.44,115.023C421.44,121.242 421.819,123.116 423.87,127.04C424.864,128.941 427.634,132.8 428.005,132.8C428.09,132.8 428.154,124.772 428.147,114.96L428.147,114.96Z" style="fill-rule:nonzero;"/>
    </g>
</svg>
