<?xml version="1.0" encoding="UTF-8" standalone="no"?>
<!DOCTYPE svg PUBLIC "-//W3C//DTD SVG 1.1//EN" "http://www.w3.org/Graphics/SVG/1.1/DTD/svg11.dtd">
<svg width="100%" height="100%" viewBox="0 0 2900 908" version="1.1" xmlns="http://www.w3.org/2000/svg" xmlns:xlink="http://www.w3.org/1999/xlink" xml:space="preserve" xmlns:serif="http://www.serif.com/" style="fill-rule:evenodd;clip-rule:evenodd;stroke-linejoin:round;stroke-miterlimit:2;">
    <path id="main" d="M236.761,907.093L0,907.093L0,0L236.761,0L236.761,187.199L239.436,184.693C243.565,180.826 250.017,170.488 253.139,162.738L255.961,155.733L256.2,77.867L256.439,0L277.721,0L277.721,81.355L283.907,75.408C287.31,72.137 291.342,68.589 292.867,67.525L295.641,65.59L295.641,0L316.974,0L316.974,54.505L322.734,52.949C325.902,52.093 329.934,51.14 331.694,50.831L334.894,50.269L334.894,0L356.227,0L356.227,50.269L359.427,50.807C361.187,51.103 365.219,52.026 368.387,52.859L374.147,54.373L374.147,0L395.481,0L395.481,64.71L399.107,67.484C401.102,69.01 405.134,72.583 408.067,75.424L413.401,80.591L413.401,0L434.665,0L435.179,152.32L437.187,158.293C440.45,168.002 447.086,179.672 451.697,183.812L453.507,185.438L453.507,0L474.841,0L474.841,201.201L478.137,202.52C481.136,203.72 490.997,206.507 492.244,206.507C492.528,206.507 492.761,160.043 492.761,103.253L492.761,0L514.094,0L514.094,206.697L517.294,206.109C519.054,205.785 522.99,204.671 526.041,203.632L531.587,201.742L532.021,0L553.347,0L553.417,186.453L555.986,183.467C560.386,178.352 564.688,171.377 567.825,164.271L570.841,157.44L571.302,0L592.601,0L592.671,82.347L595.836,78.869C598.657,75.77 604.331,70.59 609.546,66.355C611.356,64.884 611.374,64.558 611.374,32.435L611.374,0L631.854,0L631.854,27.398C631.854,51.657 632.004,54.738 633.161,54.294C635.067,53.563 643.713,51.457 647.427,50.819L650.627,50.269L650.627,0L671.961,0L671.961,50.269L675.161,50.807C676.921,51.103 680.953,52.026 684.121,52.859L689.881,54.373L689.881,0L711.214,0L711.225,65.28L714.123,67.254C715.718,68.339 719.747,71.909 723.077,75.188L729.134,81.148L729.134,0L750.424,0L750.894,154.027L753.237,160.35C756.008,167.831 759.61,174.406 764.445,180.81L767.961,185.467L768.395,0L789.721,0L789.721,100.162C789.721,179.273 789.945,200.502 790.787,201.169C792.173,202.267 801.191,205.331 805.294,206.098L808.494,206.697L808.494,0L829.827,0L829.827,208.136L833.027,208.674C834.787,208.969 838.819,209.893 841.987,210.725L847.747,212.24L847.747,0L869.081,0L869.081,223.301L872.281,225.572C874.041,226.821 878.073,230.409 881.241,233.545L887.001,239.247L887.001,0L908.334,0L908.334,82.058L912.569,77.423C914.899,74.875 918.931,71.149 921.529,69.144L926.254,65.499L926.254,0L947.587,0L947.587,27.398C947.587,52.525 947.704,54.751 948.997,54.255C950.313,53.75 957.799,51.926 963.161,50.805L965.507,50.314L965.507,0L986.841,0L986.841,50.242L990.894,50.846C993.123,51.178 997.347,52.135 1000.28,52.972L1005.61,54.493L1005.61,0L1026.95,0L1026.95,65.51L1029.18,66.971C1030.4,67.774 1034.43,71.325 1038.14,74.862L1044.87,81.293L1044.87,0L1066.17,0L1066.63,154.88L1068.9,161.114C1071.55,168.363 1076.7,177.317 1081.02,182.187L1084.05,185.6L1084.09,92.8L1084.12,0L1105.45,0L1105.45,201.201L1108.75,202.52C1111.75,203.72 1121.61,206.507 1122.86,206.507C1123.14,206.507 1123.37,160.043 1123.37,103.253L1123.37,0L1144.71,0L1144.71,206.697L1147.91,206.104C1152.17,205.314 1161.08,202.306 1162.41,201.205C1163.26,200.51 1163.48,179.254 1163.48,100.162L1163.48,0L1183.96,0L1183.96,92.587C1183.96,153.87 1184.25,185.173 1184.82,185.173C1186.3,185.173 1193.45,174.785 1196.86,167.68C1203.01,154.858 1202.73,159.112 1202.73,75.341L1202.73,0L1224.07,0L1224.07,81.363L1230.68,74.954C1234.32,71.429 1238.35,67.863 1239.64,67.028L1241.99,65.51L1241.99,0L1263.32,0L1263.32,54.373L1269.08,52.859C1272.25,52.026 1276.28,51.103 1278.04,50.807L1281.24,50.269L1281.24,0L1302.57,0L1302.57,50.269L1305.77,50.807C1307.53,51.103 1311.57,52.026 1314.73,52.859L1320.49,54.373L1320.49,0L1341.83,0L1341.83,64.67L1349.1,70.793C1353.1,74.161 1356.98,77.851 1357.73,78.992C1358.48,80.133 1359.43,81.067 1359.85,81.067C1360.27,81.067 1360.6,63.475 1360.6,40.533L1360.6,0L1381.93,0L1381.93,238.992L1387.84,233.148C1391.08,229.935 1395.11,226.37 1396.79,225.226L1399.84,223.147L1399.85,111.573L1399.85,0L1421.19,0L1421.19,212.083L1439.11,207.787L1439.11,0L1460.44,0L1460.44,206.697L1463.64,206.099C1465.4,205.77 1469.34,204.637 1472.39,203.581L1477.93,201.662L1478.37,0L1499.69,0L1499.69,92.587C1499.69,143.509 1499.92,185.173 1500.2,185.173C1502.1,185.173 1511.02,171.428 1514.41,163.263L1517.19,156.587L1517.65,0L1538.95,0L1538.95,40.533C1538.95,65.012 1539.26,81.067 1539.74,81.067C1540.18,81.067 1541.34,79.943 1542.32,78.569C1543.3,77.195 1547.16,73.514 1550.91,70.388L1557.72,64.706L1557.72,0L1579.05,0L1579.05,54.373L1584.81,52.859C1587.98,52.026 1592.01,51.103 1593.77,50.807L1596.97,50.269L1596.97,0L1618.31,0L1618.31,50.269L1621.51,50.807C1623.27,51.103 1627.3,52.026 1630.47,52.859L1636.23,54.373L1636.23,0L1657.56,0L1657.56,65.51L1659.91,67.028C1661.2,67.863 1665.23,71.429 1668.87,74.954L1675.48,81.363L1675.48,0L1696.81,0L1696.81,75.341C1696.81,159.112 1696.54,154.858 1702.69,167.68C1706.1,174.785 1713.25,185.173 1714.73,185.173C1715.3,185.173 1715.59,153.87 1715.59,92.587L1715.59,0L1736.07,0L1736.07,100.162C1736.07,179.254 1736.29,200.51 1737.13,201.205C1738.47,202.306 1747.38,205.314 1751.64,206.104L1754.84,206.697L1754.84,0L1776.17,0L1776.17,103.253C1776.17,160.043 1776.41,206.507 1776.69,206.507C1777.94,206.507 1787.8,203.72 1790.8,202.52L1794.09,201.201L1794.09,0L1815.43,0L1815.5,185.6L1818.53,182.187C1823.22,176.894 1828.24,167.877 1830.91,159.914L1833.35,152.665L1833.35,0L1854.68,0L1854.68,81.355L1860.87,75.408C1864.27,72.137 1868.3,68.589 1869.83,67.525L1872.6,65.59L1872.6,0L1893.93,0L1893.93,54.493L1899.27,52.972C1902.2,52.135 1906.42,51.178 1908.65,50.846L1912.71,50.242L1912.71,0L1934.04,0L1934.04,50.314L1936.39,50.805C1941.75,51.926 1949.24,53.75 1950.55,54.255C1951.84,54.751 1951.96,52.525 1951.96,27.398L1951.96,0L1973.29,0L1973.29,65.499L1977.89,69.047C1980.42,70.998 1984.45,74.67 1986.85,77.206L1991.21,81.818L1991.21,0L2012.55,0L2012.55,152.659L2014.68,159.316C2017.27,167.438 2022.29,176.633 2026.93,181.769L2030.4,185.6L2030.47,0L2051.8,0L2051.8,201.201L2055.1,202.52C2058.1,203.72 2067.96,206.507 2069.2,206.507C2069.49,206.507 2069.72,160.043 2069.72,103.253L2069.72,0L2091.05,0L2091.05,206.697L2094.25,206.104C2098.52,205.314 2107.43,202.306 2108.76,201.205C2109.6,200.51 2109.83,179.254 2109.83,100.162L2109.83,0L2131.15,0L2131.59,185.467L2135.1,180.81C2139.94,174.406 2143.54,167.831 2146.31,160.35L2148.65,154.027L2149.12,0L2170.41,0L2170.41,81.266L2176.47,75.247C2179.8,71.937 2183.83,68.34 2185.42,67.254L2188.32,65.28L2188.34,0L2209.67,0L2209.67,54.373L2215.43,52.859C2218.6,52.026 2222.63,51.103 2224.39,50.807L2227.59,50.269L2227.59,0L2248.92,0L2248.92,50.269L2252.12,50.819C2255.84,51.457 2264.48,53.563 2266.39,54.294C2267.54,54.738 2267.69,51.657 2267.69,27.398L2267.69,0L2288.17,0L2288.17,64.597L2293.51,69.19C2296.44,71.716 2300.66,75.709 2302.88,78.064L2306.92,82.347L2306.93,41.173L2306.95,0L2328.25,0L2328.71,157.44L2331.72,164.271C2334.86,171.377 2339.16,178.352 2343.56,183.467L2346.13,186.453L2346.17,93.227L2346.2,0L2367.53,0L2367.96,201.742L2373.51,203.632C2376.56,204.671 2380.49,205.785 2382.25,206.109L2385.45,206.697L2385.45,0L2406.79,0L2406.79,103.253C2406.79,160.043 2407.02,206.507 2407.3,206.507C2408.55,206.507 2418.41,203.72 2421.41,202.52L2424.71,201.201L2424.71,0L2446.04,0L2446.11,185.6L2449.57,181.769C2454.11,176.75 2459.13,167.642 2462.05,159.147L2464.39,152.32L2464.88,0L2486.15,0L2486.15,80.587L2491.05,75.844C2493.75,73.235 2497.78,69.649 2500.01,67.874L2504.07,64.648L2504.07,0L2525.4,0L2525.4,54.373L2531.16,52.859C2534.33,52.026 2538.36,51.103 2540.12,50.807L2543.32,50.269L2543.32,0L2564.65,0L2564.65,50.269L2567.85,50.809C2569.61,51.106 2573.65,52.054 2576.81,52.915L2582.57,54.482L2582.57,0L2603.91,0L2603.91,65.59L2606.68,67.525C2608.21,68.589 2612.24,72.137 2615.64,75.408L2621.83,81.355L2621.83,0L2643.16,0L2643.18,153.173L2645.63,160.21C2648.36,168.06 2653.4,177.025 2657.98,182.187L2661.01,185.6L2661.04,92.8L2661.08,0L2900,0L2900,907.093L2661.08,907.093L2661.01,721.493L2657.98,724.907C2653.4,730.069 2648.37,739.033 2645.63,746.883L2643.18,753.92L2643.16,907.093L2621.83,907.093L2621.83,825.738L2615.64,831.686C2612.24,834.957 2608.21,838.504 2606.68,839.568L2603.91,841.503L2603.91,907.093L2582.58,907.093L2582.58,852.612L2576.82,854.178C2573.65,855.04 2569.62,855.988 2567.86,856.284L2564.66,856.824L2564.66,907.093L2543.32,907.093L2543.32,856.824L2540.12,856.286C2538.36,855.991 2534.33,855.067 2531.16,854.235L2525.4,852.72L2525.4,907.093L2504.07,907.093L2504.07,842.446L2500.01,839.219C2497.79,837.445 2493.75,833.858 2491.05,831.25L2486.15,826.507L2486.15,907.093L2464.88,907.093L2464.39,754.773L2462.05,747.947C2459.13,739.452 2454.11,730.344 2449.57,725.324L2446.11,721.493L2446.04,907.093L2424.71,907.093L2424.71,705.892L2421.41,704.573C2418.41,703.373 2408.55,700.587 2407.3,700.587C2407.02,700.587 2406.79,747.051 2406.79,803.84L2406.79,907.093L2385.45,907.093L2385.45,700.397L2382.26,700.985C2380.49,701.308 2376.56,702.423 2373.51,703.462L2367.96,705.351L2367.53,907.093L2346.2,907.093L2346.13,720.64L2343.56,723.627C2339.16,728.741 2334.86,735.717 2331.72,742.822L2328.71,749.653L2328.25,907.093L2306.95,907.093L2306.92,824.747L2302.88,829.029C2300.66,831.384 2296.44,835.378 2293.51,837.904L2288.18,842.496L2288.18,907.093L2267.7,907.093L2267.7,879.695C2267.7,855.437 2267.55,852.355 2266.39,852.799C2264.49,853.53 2255.84,855.637 2252.12,856.274L2248.92,856.824L2248.92,907.093L2227.59,907.093L2227.59,856.824L2224.39,856.286C2222.63,855.991 2218.6,855.067 2215.43,854.235L2209.67,852.72L2209.67,907.093L2188.34,907.093L2188.32,841.813L2185.42,839.839C2183.83,838.753 2179.8,835.156 2176.47,831.846L2170.41,825.827L2170.41,907.093L2149.08,907.093L2149.08,666.909L2145.35,671.161C2143.3,673.5 2139.27,677.297 2136.39,679.6L2131.16,683.787L2131.16,907.093L2109.83,907.093L2109.83,800.762C2109.83,716.051 2109.61,694.513 2108.76,694.833C2106.08,695.844 2097.96,697.93 2094.68,698.453L2091.05,699.03L2091.05,907.093L2069.72,907.093L2069.72,803.84C2069.72,718.945 2069.52,700.587 2068.59,700.587C2067.15,700.587 2059.14,702.959 2055,704.614L2051.8,705.892L2051.8,907.093L2030.47,907.093L2030.4,721.493L2026.93,725.324C2022.29,730.46 2017.27,739.655 2014.67,747.777L2012.55,754.435L2012.55,907.093L1991.21,907.093L1991.21,825.276L1986.85,829.887C1984.45,832.424 1980.42,836.095 1977.89,838.047L1973.29,841.594L1973.29,907.093L1951.96,907.093L1951.96,879.695C1951.96,854.569 1951.84,852.342 1950.55,852.839C1949.23,853.343 1941.75,855.167 1936.39,856.288L1934.04,856.779L1934.04,907.093L1912.71,907.093L1912.71,856.851L1908.65,856.247C1906.42,855.915 1902.2,854.958 1899.27,854.122L1893.93,852.601L1893.93,907.093L1872.6,907.093L1872.6,841.503L1869.83,839.568C1868.3,838.504 1864.27,834.957 1860.87,831.686L1854.68,825.738L1854.68,907.093L1833.35,907.093L1833.35,754.429L1830.91,747.179C1828.23,739.216 1823.22,730.199 1818.53,724.907L1815.5,721.493L1815.43,907.093L1794.09,907.093L1794.09,705.892L1790.8,704.573C1787.8,703.373 1777.94,700.587 1776.69,700.587C1776.41,700.587 1776.18,747.051 1776.18,803.84L1776.18,907.093L1754.84,907.093L1754.84,700.397L1751.64,700.989C1747.38,701.779 1738.47,704.788 1737.14,705.889C1736.3,706.584 1736.07,727.84 1736.07,806.931L1736.07,907.093L1715.59,907.093L1715.59,814.507C1715.59,753.224 1715.3,721.92 1714.74,721.92C1713.25,721.92 1706.1,732.309 1702.69,739.413C1696.55,752.236 1696.82,747.982 1696.82,831.753L1696.82,907.093L1675.48,907.093L1675.48,825.731L1668.87,832.139C1665.23,835.664 1661.2,839.231 1659.91,840.065L1657.56,841.583L1657.56,907.093L1636.23,907.093L1636.23,852.72L1630.47,854.235C1627.3,855.067 1623.27,855.991 1621.51,856.286L1618.31,856.824L1618.31,907.093L1596.98,907.093L1596.98,856.824L1593.78,856.286C1592.02,855.991 1587.99,855.067 1584.82,854.235L1579.06,852.72L1579.06,907.093L1557.72,907.093L1557.72,842.387L1550.91,836.705C1547.16,833.58 1543.3,829.899 1542.32,828.525C1541.34,827.151 1540.18,826.027 1539.75,826.027C1539.27,826.027 1538.95,842.081 1538.95,866.56L1538.95,907.093L1517.65,907.093L1517.19,750.507L1514.42,743.83C1511.72,737.329 1506.28,728.375 1501.88,723.2L1499.71,720.64L1499.71,813.867L1499.7,907.093L1478.37,907.093L1477.94,705.357L1472.39,703.52C1469.34,702.51 1465.4,701.419 1463.64,701.096L1460.44,700.509L1460.44,907.093L1439.11,907.093L1439.11,700.397L1435.91,700.995C1434.15,701.324 1430.22,702.456 1427.16,703.512L1421.62,705.431L1421.18,907.093L1399.86,907.093L1399.86,721.655L1398.08,723.266C1395.07,725.989 1390.63,732.506 1387.59,738.663C1381.62,750.742 1381.94,745.601 1381.94,830.448L1381.94,907.093L1360.61,907.093L1360.61,866.56C1360.61,843.618 1360.28,826.027 1359.85,826.027C1359.43,826.027 1358.48,826.96 1357.74,828.102C1356.99,829.243 1353.1,832.932 1349.1,836.3L1341.83,842.424L1341.83,907.093L1320.5,907.093L1320.5,852.72L1314.74,854.235C1311.57,855.067 1307.54,855.991 1305.78,856.286L1302.58,856.824L1302.58,907.093L1281.25,907.093L1281.25,856.824L1278.05,856.286C1276.29,855.991 1272.25,855.067 1269.09,854.235L1263.33,852.72L1263.33,907.093L1241.99,907.093L1241.99,841.583L1239.64,840.065C1238.35,839.231 1234.32,835.664 1230.68,832.139L1224.07,825.731L1224.07,907.093L1202.74,907.093L1202.74,831.753C1202.74,747.982 1203.01,752.236 1196.86,739.413C1193.45,732.309 1186.3,721.92 1184.82,721.92C1184.25,721.92 1183.96,753.224 1183.96,814.507L1183.96,907.093L1163.49,907.093L1163.49,806.931C1163.49,727.84 1163.26,706.584 1162.42,705.889C1161.08,704.788 1152.18,701.779 1147.91,700.989L1144.71,700.397L1144.71,907.093L1123.38,907.093L1123.38,803.84C1123.38,747.051 1123.15,700.587 1122.86,700.587C1121.61,700.587 1111.75,703.373 1108.75,704.573L1105.46,705.892L1105.46,907.093L1084.12,907.093L1084.05,721.493L1081.03,724.907C1076.71,729.776 1071.56,738.73 1068.91,745.979L1066.63,752.213L1066.17,907.093L1044.87,907.093L1044.87,825.8L1038.14,832.231C1034.43,835.768 1030.4,839.32 1029.18,840.123L1026.95,841.583L1026.95,907.093L1005.61,907.093L1005.61,852.601L1000.28,854.122C997.347,854.958 993.123,855.915 990.894,856.247L986.841,856.851L986.841,907.093L965.507,907.093L965.507,856.779L963.161,856.288C957.799,855.167 950.313,853.343 948.997,852.839C947.704,852.342 947.587,854.569 947.587,879.695L947.587,907.093L926.254,907.093L926.254,841.594L921.529,837.949C918.931,835.945 914.899,832.219 912.569,829.67L908.334,825.036L908.334,907.093L887.001,907.093L886.99,830.933C886.982,767.315 886.777,754.001 885.748,750.08C883.946,743.216 877.317,730.601 872.951,725.728L869.157,721.493L869.08,907.093L847.747,907.093L847.747,705.892L844.547,704.614C840.404,702.959 832.396,700.587 830.952,700.587C830.027,700.587 829.827,718.945 829.827,803.84L829.827,907.093L808.494,907.093L808.494,700.397L805.294,700.995C801.191,701.763 792.173,704.827 790.787,705.924C789.945,706.591 789.72,727.821 789.72,806.931L789.72,907.093L768.395,907.093L767.96,721.626L764.445,726.283C759.61,732.687 756.007,739.263 753.236,746.743L750.894,753.067L750.424,907.093L729.134,907.093L729.134,825.946L723.078,831.906C719.748,835.184 715.718,838.754 714.124,839.84L711.226,841.813L711.215,907.093L689.882,907.093L689.882,852.72L684.122,854.235C680.954,855.067 676.922,855.991 675.162,856.286L671.962,856.824L671.962,907.093L650.628,907.093L650.628,856.824L647.428,856.274C643.714,855.637 635.068,853.53 633.162,852.799C632.005,852.355 631.855,855.437 631.855,879.695L631.855,907.093L611.375,907.093L611.375,874.658C611.375,842.535 611.356,842.209 609.547,840.738C604.332,836.503 598.658,831.323 595.837,828.224L592.672,824.747L592.602,907.093L571.303,907.093L571.072,828.373L570.842,749.653L567.826,742.822C564.689,735.717 560.387,728.741 555.987,723.627L553.418,720.64L553.349,907.093L532.022,907.093L531.589,705.351L526.042,703.462C522.991,702.423 519.055,701.308 517.295,700.985L514.095,700.397L514.095,907.093L492.762,907.093L492.762,803.84C492.762,747.051 492.529,700.587 492.245,700.587C490.998,700.587 481.137,703.373 478.139,704.573L474.841,705.892L474.841,907.093L453.507,907.093L453.507,721.655L451.697,723.281C447.09,727.417 440.457,739.08 437.183,748.8L435.17,754.773L434.673,907.093L413.401,907.093L413.401,826.503L408.067,831.669C405.134,834.51 401.102,838.084 399.107,839.609L395.481,842.383L395.481,907.093L374.147,907.093L374.147,852.72L368.387,854.235C365.219,855.067 361.187,855.991 359.427,856.286L356.227,856.824L356.227,907.093L334.894,907.093L334.894,856.779L332.547,856.322C331.257,856.07 327.225,855.14 323.587,854.255L316.974,852.646L316.974,907.093L295.641,907.093L295.641,841.503L292.867,839.568C291.342,838.504 287.31,834.957 283.907,831.686L277.721,825.738L277.721,907.093L256.405,907.093L255.961,435.627L253.578,429.653C249.644,419.792 240.113,405.333 237.547,405.333C237.069,405.333 236.761,503.663 236.761,656.213L236.761,907.093ZM1466.62,520.906C1469.45,520.173 1473.25,518.979 1475.06,518.254L1478.36,516.935L1478.36,390.159L1475.06,388.84C1472.07,387.64 1462.2,384.853 1460.96,384.853C1460.67,384.853 1460.44,415.765 1460.44,453.547C1460.44,491.328 1460.67,522.24 1460.96,522.24C1461.24,522.24 1463.79,521.64 1466.62,520.906ZM1395.4,365.263C1392.92,363.172 1388.88,359.393 1386.41,356.866L1381.93,352.271L1381.93,410.829C1381.93,467.943 1381.98,469.518 1383.71,474.694C1386.27,482.291 1391.58,492.119 1395.8,497.025L1399.43,501.251L1399.91,369.067L1395.4,365.263ZM1506.16,493.992C1509.84,488.979 1514.46,479.66 1516.24,473.658C1518.19,467.088 1518.2,440.046 1516.25,433.435C1514.2,426.481 1507.91,414.842 1503.59,410.027L1499.77,405.76L1499.69,501.171L1501.47,499.561C1502.45,498.675 1504.56,496.169 1506.16,493.992ZM1360.6,295.49L1360.6,194.179L1354.84,199.774C1351.67,202.852 1347.45,206.618 1345.45,208.143L1341.83,210.917L1341.83,380.343L1348.01,385.427C1351.42,388.224 1355.35,391.899 1356.76,393.594C1358.17,395.29 1359.61,396.705 1359.96,396.738C1360.31,396.772 1360.6,351.21 1360.6,295.49ZM2620.93,279.138C2619.46,272.295 2615.33,263.174 2610.55,256.251C2608.22,252.869 2605.77,249.654 2605.11,249.106C2604.08,248.253 2603.91,257.589 2603.91,314.659L2603.91,381.208L2607.11,383.428C2608.87,384.65 2612.8,388.169 2615.85,391.249L2621.4,396.85L2621.66,340.292C2621.85,299.824 2621.64,282.426 2620.93,279.138ZM2582.57,301.297L2582.57,232.247L2575.96,230.119C2572.32,228.948 2568.29,227.757 2567,227.472L2564.65,226.954L2564.65,365.685L2573.4,367.88C2578.21,369.087 2582.24,370.136 2582.36,370.211C2582.48,370.285 2582.57,339.274 2582.57,301.297ZM1320.49,295.58L1320.49,221.668L1318.57,222.194C1317.52,222.483 1313.49,223.382 1309.61,224.192L1302.57,225.665L1302.57,365.905L1307.91,366.848C1310.84,367.366 1314.39,368.141 1315.8,368.569C1317.21,368.997 1318.84,369.38 1319.43,369.42C1320.27,369.478 1320.49,354.181 1320.49,295.58ZM965.507,294.998L965.507,225.623L957.179,223.745C952.598,222.712 948.566,221.867 948.219,221.867C947.871,221.867 947.587,252.732 947.587,290.456L947.587,359.045L952.494,360.827C957.732,362.728 962.699,364.171 964.441,364.296C965.286,364.357 965.507,349.971 965.507,294.998ZM993.874,363.04C996.705,362.306 1000.5,361.113 1002.32,360.387L1005.61,359.068L1005.61,296.119C1005.61,246.778 1005.38,232.986 1004.55,232.325C1003.35,231.379 993.873,228.256 989.614,227.405L986.841,226.851L986.841,295.612C986.841,345.265 987.103,364.373 987.784,364.373C988.303,364.373 991.044,363.773 993.874,363.04ZM1281.24,295.623C1281.24,230.56 1281.16,226.893 1279.75,227.277C1278.93,227.499 1277.1,227.92 1275.69,228.212C1274.29,228.503 1270.93,229.546 1268.23,230.528L1263.32,232.315L1263.32,359.112L1266.95,360.497C1270.87,361.996 1278.45,364.174 1280.17,364.297C1281.02,364.358 1281.24,350.095 1281.24,295.623ZM329.419,682.592L334.894,681.638L334.894,541.091L331.694,540.553C329.934,540.257 325.902,539.334 322.734,538.501L316.974,536.987L316.974,686.004L320.459,684.775C322.376,684.098 326.408,683.116 329.419,682.592ZM2543.32,295.612L2543.32,226.851L2540.55,227.446C2539.02,227.774 2535.09,228.877 2531.8,229.897L2525.83,231.753L2525.39,359.291L2527.74,360.247C2531.3,361.693 2540.14,364.244 2541.83,364.313C2543.24,364.37 2543.32,360.553 2543.32,295.612ZM2503.87,271.634L2503.64,247.04L2498.83,253.44C2496.18,256.96 2492.86,262.144 2491.45,264.96C2486.71,274.459 2486.15,277.78 2486.15,296.128C2486.15,310.533 2486.38,313.589 2487.81,317.736C2490.22,324.733 2494.93,333.325 2499.58,339.2L2503.64,344.32L2503.87,320.274C2503.99,307.049 2503.99,285.161 2503.87,271.634ZM923.915,208.677C922.62,207.759 918.585,204.14 914.947,200.636L908.334,194.264L908.334,251.707C908.334,307.711 908.379,309.301 910.139,315.215C912.478,323.075 916.503,330.992 921.681,337.92L925.827,343.467L926.269,210.347L923.915,208.677ZM1036.48,330.928C1038.35,327.786 1040.9,322.41 1042.14,318.981C1044.17,313.359 1044.43,311.323 1044.71,298.24C1044.91,289.012 1044.66,282.078 1044.02,279.185C1041.9,269.669 1036.3,258.69 1029.59,250.88L1027.02,247.893L1027.02,343.467L1030.05,340.053C1031.71,338.176 1034.61,334.069 1036.48,330.928ZM1241.95,295.467L1241.92,247.893L1238.88,251.307C1234.21,256.555 1228.52,266.807 1226.18,274.177C1224.27,280.198 1224.07,282.25 1224.07,295.634C1224.07,312.218 1225.08,317.215 1230.55,327.68C1233.2,332.75 1240.58,343.04 1241.57,343.04C1241.8,343.04 1241.97,321.632 1241.95,295.467ZM365.943,838.404C390.362,831.328 409.199,812.072 415.504,787.743C416.277,784.758 417.453,775.735 418.116,767.692C419.566,750.114 421.286,743.382 427.522,730.88C433.197,719.503 440.419,710.615 450.731,702.316C462.391,692.933 473.331,688.07 490.201,684.772C502.332,682.4 518.638,683.891 532.421,688.633C554.212,696.131 573.996,715.342 583.19,737.934C586.668,746.479 588.359,755.008 589.236,768.427C590.537,788.313 594.52,800.311 604,812.897C612.678,824.419 628.161,834.885 642.521,838.935C652.316,841.698 670.257,841.7 680.067,838.941C692.375,835.478 706.585,826.733 714.86,817.529C726.778,804.274 732.076,790.401 733.407,768.967C734.209,756.056 735.108,750.613 737.797,742.4C741.717,730.427 747.752,720.477 756.907,710.895C770.918,696.229 783.679,689.216 803.63,685.217C817.978,682.341 830.681,683.252 846.467,688.292C871.159,696.175 892.714,718.176 900.528,743.473C902.936,751.271 903.876,757.188 904.877,770.871C905.938,785.37 908.059,793.536 913.285,803.242C920.186,816.058 929.284,825.057 943.069,832.704C963.555,844.067 990.595,843.96 1011.21,832.434C1028.22,822.916 1040.62,807.605 1045.75,789.76C1046.7,786.475 1047.87,778.603 1048.35,772.267C1049.39,758.628 1051.08,748.496 1053.53,741.263C1060.98,719.238 1080.66,698.507 1102.17,690.038C1126.09,680.614 1151.18,681.806 1173.81,693.441C1186.57,700.002 1200.44,713.032 1207.77,725.334C1215.41,738.151 1218.6,749.255 1219.88,767.485C1221.34,788.225 1225.48,800.732 1235.12,813.505C1243.88,825.11 1260.39,835.826 1275,839.392C1284.08,841.609 1301.96,841.384 1310.68,838.944C1323.05,835.483 1335.72,827.87 1344.43,818.661C1357.21,805.164 1362.6,791.753 1364.09,769.752C1365.09,754.947 1366.66,746.854 1370.34,737.603C1379.43,714.689 1400.64,694.804 1423.32,687.917C1442.45,682.109 1458.64,682.221 1477.23,688.288C1504.87,697.313 1527.45,722.618 1533.34,751.164C1534.09,754.81 1535.07,763.278 1535.52,769.982C1536.98,791.61 1542.55,805.477 1555.04,818.606C1563.88,827.894 1576.46,835.433 1589.05,838.98C1597.6,841.392 1615.5,841.59 1624.71,839.376C1639.08,835.92 1656.21,824.558 1665.08,812.59C1674.46,799.932 1678.32,788.099 1679.68,767.816C1680.63,753.675 1682.38,745.577 1686.65,735.521C1695.59,714.468 1715.36,695.911 1736.67,688.579C1744.68,685.825 1757.98,683.52 1765.81,683.528C1774.07,683.536 1787.46,686.251 1797.08,689.865C1817.19,697.42 1837.1,717.549 1844.83,738.129C1848.37,747.556 1849.61,753.987 1850.85,769.243C1852.21,785.976 1854.86,796.055 1860.33,805.276C1871.83,824.667 1891.62,837.796 1913.56,840.605C1948.83,845.121 1982.61,822.997 1992.07,789.188C1993.03,785.748 1994.19,777.942 1994.64,771.84C1995.79,756.326 1996.25,753.204 1998.62,744.96C2003.24,728.955 2014.31,712.772 2028.12,701.851C2043.17,689.949 2060.07,684.281 2083.81,683.17C2102.05,682.317 2117.14,675.839 2130.62,663.086C2144.52,649.932 2150.97,634.913 2152.5,612.115C2153.49,597.459 2155.14,588.987 2158.82,579.736C2168.04,556.511 2189.55,536.583 2212.65,529.87C2231.42,524.416 2245.09,524.416 2263.85,529.87C2286.95,536.583 2308.47,556.511 2317.69,579.736C2321.91,590.358 2323.41,598.692 2323.41,611.414C2323.41,624.521 2321.94,632.316 2317.31,643.651C2311.48,657.913 2301.85,670.269 2289,679.97C2274.49,690.93 2260.03,695.702 2236.9,697.173C2223.21,698.043 2216.79,699.532 2207.53,703.984C2175.58,719.356 2159.56,754.473 2168.98,788.48C2172.37,800.697 2176.61,808.548 2184.69,817.529C2192.96,826.733 2207.17,835.478 2219.48,838.941C2229.28,841.698 2247.23,841.698 2257.03,838.941C2268.93,835.59 2283.14,826.984 2291.2,818.238C2303.5,804.9 2309.05,790.479 2310.37,768.431C2311.47,750.067 2314.39,739.704 2322.43,725.629C2326.45,718.601 2337.35,706.418 2344.64,700.812C2354.71,693.07 2366.13,688.116 2380.59,685.217C2394.43,682.442 2405.66,683.129 2421.72,687.736C2441.54,693.421 2461.32,710.012 2471.51,729.515C2477.77,741.481 2480.02,750.165 2481.48,768C2482.2,776.729 2483.43,785.533 2484.45,789.188C2492.36,817.595 2517.88,838.474 2547.71,840.96C2581.76,843.796 2613.3,822.196 2622.76,789.561C2623.73,786.207 2624.95,777.528 2625.67,768.854C2627.43,747.646 2630.74,736.555 2639.31,723.157C2649.69,706.933 2667.45,693.205 2684.97,687.857C2694.42,684.975 2698.63,684.278 2711.43,683.484C2719.18,683.003 2726.19,682.05 2730.2,680.932C2753.68,674.385 2772.04,656.734 2779.87,633.174C2782.41,625.518 2782.57,624.332 2782.61,611.84C2782.68,596.179 2781.71,591.761 2775.41,578.987C2768.39,564.736 2757.73,554.084 2743.43,547.016C2730.9,540.826 2726.22,539.777 2711,539.754C2699.92,539.738 2697.35,540.002 2691.83,541.734C2667.56,549.356 2648.72,567.949 2642.28,590.645C2641.22,594.415 2640.01,602.931 2639.25,612.042C2637.91,628.18 2635.76,637.688 2631.31,647.254C2621.36,668.617 2600.36,686.798 2578.27,693.162C2566.84,696.455 2554.5,697.679 2545.36,696.427C2523.83,693.479 2509.46,686.856 2495.28,673.339C2486.39,664.869 2481.59,658.362 2476.69,648.107C2471.42,637.096 2469,627.55 2468.44,615.577C2467.28,590.722 2475.53,569.316 2493.16,551.434C2500.32,544.173 2505.69,540.149 2514.31,535.603C2526.27,529.29 2539.3,526.173 2557.4,525.294C2568.97,524.733 2577.18,522.536 2586.94,517.398C2608.85,505.857 2623.09,484.633 2625.09,460.526C2626.26,446.419 2624.11,434.076 2618.38,421.95C2612.1,408.683 2600.62,396.9 2586.94,389.696C2577.18,384.559 2568.97,382.362 2557.4,381.8C2528.72,380.408 2510.02,372.809 2493.2,355.707C2475.47,337.691 2467.28,316.452 2468.44,291.518C2469,279.544 2471.42,269.999 2476.69,258.987C2481.59,248.733 2486.39,242.225 2495.28,233.756C2509.46,220.238 2523.83,213.615 2545.36,210.667C2554.5,209.415 2566.84,210.64 2578.27,213.933C2600.36,220.297 2621.36,238.477 2631.31,259.84C2635.76,269.407 2637.91,278.915 2639.25,295.052C2640.95,315.513 2643.2,323.119 2651.28,335.757C2655.05,341.64 2663.99,350.587 2670.57,355.054C2693.72,370.775 2722.6,371.936 2747.27,358.14C2755.94,353.287 2768.58,340.659 2773.49,331.933C2789.96,302.66 2785.16,267.456 2761.51,244.147C2754.72,237.449 2750.54,234.535 2741.72,230.359C2732.57,226.023 2725.94,224.436 2713.17,223.524C2699.08,222.516 2696.07,222.097 2687.96,220.005C2669.28,215.188 2650.29,201.105 2639.29,183.901C2630.74,170.542 2627.43,159.431 2625.67,138.24C2624.01,118.21 2621.24,108.988 2613.44,97.501C2598.96,76.178 2573.43,63.992 2547.71,66.134C2517.85,68.622 2492.37,89.473 2484.45,117.906C2483.43,121.562 2482.2,130.366 2481.48,139.094C2480.02,156.93 2477.77,165.613 2471.51,177.579C2461.32,197.083 2441.54,213.673 2421.72,219.358C2405.66,223.965 2394.43,224.653 2380.59,221.877C2366.13,218.978 2354.71,214.024 2344.64,206.283C2337.35,200.676 2326.45,188.493 2322.43,181.466C2314.39,167.39 2311.47,157.027 2310.37,138.663C2309.05,116.615 2303.5,102.195 2291.2,88.856C2283.14,80.111 2268.93,71.504 2257.03,68.154C2247.23,65.396 2229.28,65.396 2219.48,68.154C2207.57,71.504 2193.36,80.111 2185.3,88.856C2172.93,102.284 2167.56,116.255 2166.16,138.667C2164.62,163.242 2157.92,179.927 2143.38,195.374C2128.96,210.702 2116.25,217.802 2095.92,221.877C2082.08,224.653 2070.85,223.965 2054.79,219.358C2029.47,212.098 2006.19,188.371 1998.62,162.134C1996.25,153.89 1995.79,150.769 1994.64,135.254C1994.19,129.152 1993.03,121.352 1992.07,117.918C1984.06,89.289 1958.35,68.397 1928.33,66.128C1900.79,64.047 1874.58,77.808 1860.33,101.818C1854.86,111.039 1852.21,121.118 1850.85,137.851C1849.61,153.108 1848.37,159.538 1844.83,168.965C1837.1,189.545 1817.19,209.674 1797.08,217.229C1787.46,220.843 1774.07,223.557 1765.81,223.566C1757.98,223.575 1744.68,221.269 1736.67,218.515C1715.36,211.183 1695.59,192.627 1686.65,171.573C1682.38,161.517 1680.63,153.42 1679.68,139.279C1678.32,118.996 1674.46,107.162 1665.08,94.504C1656.38,82.769 1639.69,71.582 1625.13,67.731C1616.55,65.461 1597.73,65.659 1589.05,68.111C1576.45,71.668 1563.87,79.203 1555.04,88.488C1542.55,101.617 1536.98,115.484 1535.52,137.112C1534.54,151.769 1532.88,160.241 1529.21,169.491C1520.16,192.279 1498.93,212.306 1476.56,219.157C1468.52,221.62 1457.23,223.406 1446.36,223.934C1434.88,224.491 1426.75,226.651 1416.81,231.782C1398.44,241.27 1385.1,257.864 1380.21,277.316C1371.75,310.897 1386.4,343.669 1417.12,359.935C1427.01,365.172 1437.54,367.731 1449.35,367.773C1461.29,367.815 1479.42,372.333 1489.45,377.765C1512.02,389.98 1528.34,411.593 1533.53,436.113C1535.55,445.7 1535.55,461.394 1533.53,470.981C1529.23,491.311 1517.64,509.232 1500.3,522.344C1491.5,528.997 1482.15,533.393 1470.75,536.243C1453.57,540.533 1439.67,539.941 1421.67,534.153C1399.69,527.084 1379.96,508.4 1370.8,485.971C1366.61,475.725 1365.13,468.458 1364.09,453.076C1363.49,444.329 1362.6,438.516 1361.02,433.067C1352.09,402.274 1324.29,381.549 1291.79,381.458C1279.82,381.424 1261.58,376.634 1250.84,370.709C1243.19,366.485 1232.62,357.624 1226.23,350.078C1219.7,342.372 1212.22,328.063 1209.57,318.211C1205.86,304.445 1205.87,286.882 1209.58,273.115C1215.26,252.053 1232.17,230.906 1251.6,220.575C1264.54,213.688 1274.17,211.236 1293.42,209.924C1307.75,208.948 1315.7,206.951 1325.02,201.991C1343.49,192.166 1356.3,176.373 1361.6,156.912C1363.23,150.95 1363.54,147.702 1363.51,137.387C1363.47,126.459 1363.2,124.136 1361.17,117.498C1357.43,105.248 1352.89,97.372 1344.43,88.434C1335.71,79.221 1323.04,71.606 1310.68,68.154C1301.88,65.696 1283.99,65.462 1275,67.685C1260.33,71.31 1243.87,81.998 1235.12,93.589C1225.46,106.393 1221.29,119.006 1219.88,139.671C1219.41,146.628 1218.27,155.231 1217.35,158.788C1205.69,203.837 1159.35,232.021 1114.97,221.052C1095.61,216.269 1081.02,207.119 1068.44,191.87C1055.28,175.909 1050.43,162.145 1048.35,134.827C1047.87,128.491 1046.7,120.619 1045.75,117.334C1040.62,99.489 1028.22,84.178 1011.21,74.661C990.595,63.134 963.555,63.027 943.069,74.391C929.283,82.037 920.186,91.036 913.285,103.853C907.957,113.747 905.649,122.518 905.121,134.877C904.052,159.904 914.125,181.198 933.934,195.782C946.356,204.928 957.166,208.658 974.894,209.913C981.23,210.362 988.593,211.098 991.257,211.55C1023.04,216.935 1049.84,241.081 1059.05,272.64C1062.08,283.028 1062.84,300.937 1060.7,311.51C1057.63,326.665 1052.21,338.114 1042.63,349.737C1028.93,366.338 1013.65,375.346 991.705,379.744C980.986,381.893 972.215,381.893 961.496,379.744C943.448,376.126 930.673,369.653 918.436,357.925C900.694,340.922 892.95,323.56 891.174,296.804C890.711,289.823 889.586,281.147 888.674,277.523C886.616,269.337 880.639,257.14 875.528,250.695C867.195,240.186 851.513,229.84 838.36,226.173C834.572,225.117 828.129,224.203 822.574,223.933C794.914,222.59 777.181,215.742 760.775,200.067C752.529,192.189 748.282,186.765 743.715,178.278C737.056,165.903 734.57,156.285 733.443,138.536C732.049,116.6 726.851,102.902 714.86,89.565C706.585,80.361 692.374,71.616 680.067,68.154C670.256,65.393 652.315,65.396 642.52,68.158C628.161,72.209 612.678,82.674 604,94.196C594.52,106.782 590.537,118.781 589.236,138.667C588.024,157.197 585.116,167.464 577.112,181.465C573.096,188.493 562.193,200.676 554.904,206.282C537.31,219.816 510.885,226.366 490.2,222.322C473.33,219.024 462.391,214.161 450.731,204.777C440.419,196.478 433.197,187.59 427.522,176.213C421.285,163.712 419.565,156.98 418.116,139.402C416.421,118.849 413.724,109.571 406.12,98.133C379.175,57.606 320.162,54.932 289.724,92.859C279.405,105.717 275.59,116.694 273.856,138.513C272.528,155.227 270.671,163.409 265.887,173.617C260.003,186.174 252.533,195.67 241.588,204.507C225.785,217.266 213.089,221.654 186.414,223.575C172.999,224.541 167.218,225.914 157.827,230.366C119.439,248.563 105.044,294.584 126.058,331.932C131.004,340.722 142.841,352.628 151.854,357.879C163.461,364.641 171.342,366.577 195.515,368.605C225.728,371.139 251.482,388.727 264.917,416C270.487,427.307 272.388,435.185 273.875,453.12C274.606,461.945 275.816,470.497 276.832,474.027C282.411,493.403 295.73,508.995 314.987,518.692C322.901,522.677 331.55,524.779 342.147,525.294C366.881,526.494 384.451,532.518 399.349,544.904C415.755,558.544 425.671,574.775 429.806,594.762C432.007,605.403 431.563,622.571 428.827,632.579C424.841,647.158 418.165,658.965 407.732,669.885C389.816,688.637 372.588,695.659 339.787,697.576C315.427,699 292.044,714.994 281.117,737.707C275.742,748.88 274.769,753.705 274.75,769.28C274.735,781.921 274.913,783.503 277.152,790.613C285.424,816.887 308.479,836.678 335.321,840.548C343.74,841.761 357.74,840.781 365.943,838.404ZM1594.79,695.843C1574.85,692.491 1558.89,684.094 1545.51,669.916C1533.28,656.946 1526.21,642.838 1523.1,625.163C1516.72,588.911 1536.22,551.259 1570.09,534.419C1580.05,529.468 1596.43,525.657 1607.76,525.655C1614.9,525.653 1628.08,528.14 1636.98,531.166C1655.35,537.412 1673.47,553.361 1683.07,571.717C1701.92,607.78 1693.01,651.401 1661.47,677.389C1649.31,687.418 1635.54,693.45 1619.16,695.934C1609.45,697.406 1603.96,697.385 1594.79,695.843ZM1623.85,678.882C1625.26,678.59 1628.62,677.547 1631.32,676.565L1636.23,674.779L1636.23,548.025L1632.93,546.706C1629.93,545.506 1620.07,542.72 1618.82,542.72C1618.54,542.72 1618.31,573.658 1618.31,611.471C1618.31,676.533 1618.39,680.2 1619.8,679.817C1620.62,679.594 1622.45,679.173 1623.85,678.882ZM1557.72,611.413C1557.72,585.365 1557.43,564.053 1557.07,564.053C1556.07,564.053 1549.75,572.46 1546.75,577.783C1545.27,580.406 1543.02,585.398 1541.75,588.876C1539.55,594.883 1539.44,595.992 1539.41,610.987C1539.38,626.069 1539.48,627.082 1541.75,633.682C1544.77,642.49 1554.56,658.469 1557.08,658.712C1557.43,658.746 1557.72,637.461 1557.72,611.413ZM1596.97,611.413C1596.97,546.546 1596.89,542.722 1595.48,542.757C1594.66,542.778 1590.72,543.85 1586.73,545.142L1579.48,547.491L1579.04,674.841L1582.67,676.228C1586.61,677.729 1594.19,679.907 1595.91,680.03C1596.75,680.091 1596.97,665.84 1596.97,611.413ZM1663.94,651.565C1668.62,644.952 1671.42,639.345 1673.68,632.017C1675.22,627.016 1675.48,624.019 1675.48,611.368C1675.48,597.938 1675.28,595.952 1673.35,589.911C1670.76,581.788 1665.73,572.593 1661.09,567.457L1657.63,563.627L1657.6,611.305C1657.56,664.892 1657,661.352 1663.94,651.565ZM490.384,537.986C473.236,534.853 461.915,529.662 449.031,519.023C440.121,511.666 432.11,501.496 427.03,491.093C421.252,479.261 419.546,472.328 418.107,454.822C416.259,432.338 413.136,423.016 402.853,409.295C394.605,398.289 377.564,386.99 364.07,383.581C361.109,382.833 353.237,381.87 346.577,381.441C329.147,380.319 319.525,377.996 307.587,372.027C286.642,361.554 270.421,341.944 263.491,318.72C261.399,311.709 261.195,309.74 261.143,296.107C261.08,279.732 262.022,274.665 267.544,261.689C272.795,249.348 284.248,235.176 296.148,226.293C311.566,214.785 335.708,208.308 354.307,210.691C370.345,212.746 385.32,218.417 396.091,226.513C403.096,231.779 413.615,242.993 417.971,249.84C426.287,262.912 430.136,275.356 431.358,293.12C432.315,307.039 432.61,309.018 434.914,317.013C442.973,344.973 469.168,365.848 498.132,367.395C529.936,369.093 548.807,376.991 566.574,396.038C594.524,426.002 596.736,472.629 571.749,505.102C567.014,511.255 556.562,521.073 550.373,525.181C533.512,536.373 509.549,541.488 490.384,537.986ZM525.614,519.329L531.587,517.473L531.587,389.62L525.614,387.764C522.329,386.743 518.393,385.64 516.867,385.313L514.094,384.718L514.094,522.376L516.867,521.78C518.393,521.453 522.329,520.35 525.614,519.329ZM557.795,496.853C562.896,490.345 566.543,483.74 569.138,476.313C571.128,470.619 571.267,469.125 571.267,453.547C571.267,437.969 571.128,436.475 569.138,430.78C567.967,427.428 565.801,422.539 564.325,419.916C561.89,415.591 554.38,405.333 553.648,405.333C553.483,405.333 553.347,427.029 553.347,453.547C553.347,480.064 553.483,501.76 553.648,501.76C553.813,501.76 555.679,499.552 557.795,496.853ZM492.761,452.781L492.761,383.322L487.286,382.369C484.275,381.844 480.243,380.862 478.326,380.185L474.841,378.956L474.841,516.912L479.747,518.693C484.985,520.595 489.952,522.037 491.694,522.163C492.539,522.224 492.761,507.82 492.761,452.781ZM448.192,364.375C445.249,361.795 441.01,357.763 438.774,355.415L434.707,351.147L435.2,468.053L437.185,474.027C439.839,482.016 444.094,489.99 449.024,496.213L453.081,501.333L453.543,369.067L448.192,364.375ZM412.021,274.371C409.897,267.826 404.489,257.858 399.969,252.16L395.907,247.04L395.45,380.16L398.665,382.698C400.434,384.093 404.377,387.625 407.427,390.546L412.974,395.858L413.193,337.26C413.389,285.013 413.262,278.198 412.021,274.371ZM373.939,300.623L373.721,231.754L367.747,229.897C364.462,228.877 360.526,227.774 359.001,227.446L356.227,226.851L356.227,365.905L361.561,366.848C364.494,367.366 368.046,368.141 369.454,368.569C370.862,368.997 372.496,369.38 373.086,369.42C373.939,369.478 374.113,355.47 373.939,300.623ZM334.894,295.664L334.894,226.954L332.547,227.511C331.257,227.818 327.225,228.994 323.587,230.125L316.974,232.181L316.974,359.045L321.881,360.827C327.118,362.728 332.086,364.171 333.827,364.296C334.672,364.357 334.894,350.104 334.894,295.664ZM295.441,272.061L295.214,247.893L291.068,253.44C285.999,260.222 281.922,268.165 279.526,275.93C278.001,280.87 277.722,283.922 277.731,295.557C277.741,310.113 278.319,313.642 282.262,323.255C284.443,328.572 289.874,337.316 293.402,341.189L295.214,343.179L295.441,319.703C295.565,306.792 295.565,285.353 295.441,272.061ZM1121.44,538.017C1088.12,532.415 1061.67,509.032 1051.96,476.587C1049.84,469.482 1049.67,467.755 1049.67,453.547C1049.67,439.338 1049.84,437.611 1051.96,430.507C1057.06,413.469 1066.74,398.947 1080.75,387.33C1097.84,373.148 1121.87,365.878 1142.95,368.509C1164.26,371.167 1180.53,379.024 1194.87,393.567C1211.48,410.414 1219.74,430.344 1219.74,453.547C1219.74,476.75 1211.48,496.679 1194.87,513.526C1181.23,527.358 1166.43,534.873 1146.42,538.122C1137.68,539.541 1130.32,539.51 1121.44,538.017ZM1123.37,453.489C1123.37,388.427 1123.29,384.76 1121.88,385.143C1121.06,385.366 1119.24,385.787 1117.83,386.078C1116.42,386.37 1113.06,387.413 1110.36,388.395L1105.45,390.181L1105.45,516.912L1110.36,518.718C1114.48,520.235 1120.14,521.807 1122.73,522.154C1123.09,522.201 1123.37,491.302 1123.37,453.489ZM1156.23,519.461C1159.04,518.518 1161.83,517.367 1162.41,516.902C1163.25,516.24 1163.48,502.536 1163.48,453.547C1163.48,404.557 1163.25,390.853 1162.41,390.191C1161.03,389.091 1152,386.079 1147.91,385.348L1144.71,384.776L1144.71,522.317L1147.91,521.746C1149.67,521.432 1153.41,520.403 1156.23,519.461ZM1083.92,429.379L1083.69,405.76L1079.21,411.733C1074.46,418.048 1070.73,425.155 1068.17,432.742C1065.9,439.492 1065.91,467.62 1068.19,474.453C1070.79,482.245 1074.4,489.115 1079.17,495.385L1083.69,501.333L1083.92,477.166C1084.05,463.874 1084.05,442.37 1083.92,429.379ZM1189.63,495.573C1194.41,489.123 1199.66,478.419 1201.43,471.501C1202.32,468.045 1202.73,462.291 1202.73,453.547C1202.73,438.76 1201.79,433.973 1196.86,423.68C1193.45,416.575 1186.3,406.187 1184.82,406.187C1184.26,406.187 1183.96,422.477 1183.96,453.547C1183.96,484.616 1184.26,500.907 1184.82,500.907C1185.29,500.907 1187.45,498.507 1189.63,495.573ZM1752.28,538.046C1733.65,534.886 1720.09,528.189 1707.01,515.697C1697.89,506.984 1693.14,500.544 1688.21,490.24C1681.74,476.722 1680.24,469.798 1680.24,453.547C1680.24,437.295 1681.74,430.371 1688.21,416.853C1696.49,399.536 1710.51,385.32 1727.96,376.533C1738.16,371.399 1749.03,368.916 1766.36,367.766C1780.66,366.817 1788.38,364.838 1798.41,359.557C1811.84,352.486 1821.9,342.508 1829.08,329.138C1833.91,320.149 1835.78,312.337 1837.19,295.197C1839.72,264.614 1848.45,246.741 1869.38,229.344C1885.98,215.544 1911.16,207.93 1931.15,210.667C1952.68,213.615 1967.05,220.237 1981.23,233.755C1990.12,242.224 1994.91,248.732 1999.82,258.987C2005.2,270.234 2007.33,279.018 2008.35,294.279C2009.32,308.689 2011.35,317.865 2015.5,326.608C2020.88,337.959 2027.45,345.998 2037.22,353.199C2049.22,362.051 2061.57,366.675 2075.15,367.399C2104.3,368.953 2121.49,375.292 2138.08,390.609C2163.49,414.057 2172.47,448.895 2161.46,481.264C2152.9,506.424 2130.83,527.812 2105.88,535.108C2098.01,537.411 2086.66,539.274 2080.39,539.291C2074.69,539.307 2063.33,537.486 2056.1,535.4C2034.15,529.071 2014.79,512.777 2004.46,491.947C1998.22,479.372 1996.53,472.701 1995.04,454.827C1994.32,446.079 1993.07,437.274 1992.04,433.571C1984.62,406.927 1960.88,386.096 1933.5,382.203C1924.82,380.968 1911.46,381.783 1903.32,384.045C1884.84,389.182 1866.87,404.001 1858.5,421.024C1853.86,430.457 1852.2,437.58 1850.81,453.973C1849.57,468.696 1848.02,476.588 1844.65,485.286C1837.64,503.389 1821.57,520.812 1803.48,529.914C1787.71,537.849 1768.81,540.851 1752.28,538.046ZM1754.84,453.479L1754.84,384.718L1752.07,385.272C1747.81,386.123 1738.33,389.246 1737.13,390.191C1736.3,390.853 1736.07,404.557 1736.07,453.547C1736.07,502.536 1736.3,516.24 1737.13,516.902C1738.66,518.111 1750.49,521.837 1753.77,522.141C1754.62,522.219 1754.84,507.972 1754.84,453.479ZM1780.87,521.343C1782.75,520.855 1786.49,519.658 1789.19,518.683L1794.09,516.912L1794.09,379.277L1776.17,383.573L1776.17,452.906C1776.17,491.04 1776.46,522.238 1776.81,522.235C1777.17,522.233 1778.99,521.831 1780.87,521.343ZM2069.72,452.828L2069.72,383.416L2062.68,381.935C2058.81,381.121 2054.78,380.248 2053.72,379.995L2051.8,379.534L2051.8,516.912L2056.71,518.693C2061.94,520.595 2066.91,522.037 2068.65,522.163C2069.5,522.224 2069.72,507.83 2069.72,452.828ZM2100.11,520.056C2104.25,518.855 2108.13,517.464 2108.73,516.965C2109.61,516.242 2109.83,503.332 2109.83,453.547C2109.83,403.762 2109.61,390.851 2108.73,390.128C2107.72,389.285 2093.5,384.853 2091.81,384.853C2090.94,384.853 2090.75,520.798 2091.62,521.671C2092.35,522.395 2091.43,522.569 2100.11,520.056ZM1715.59,453.547C1715.59,425.466 1715.27,406.187 1714.81,406.187C1713.52,406.187 1706.22,416.431 1703.14,422.552C1698.15,432.462 1696.81,438.996 1696.81,453.547C1696.81,468.102 1698.15,474.641 1703.14,484.541C1706.37,490.942 1713.43,500.907 1714.73,500.907C1715.29,500.907 1715.59,484.616 1715.59,453.547ZM1950.9,232.404C1950.07,231.593 1936.02,226.987 1934.37,226.987C1934.19,226.987 1934.04,258.265 1934.04,296.495L1934.04,366.003L1937.24,366.546C1939,366.845 1942.94,367.73 1945.99,368.513L1951.53,369.936L1951.75,301.697C1951.92,247.827 1951.74,233.236 1950.9,232.404ZM1905.24,367.28L1912.71,365.695L1912.71,226.851L1909.93,227.405C1905.67,228.256 1896.2,231.379 1895,232.325C1894.16,232.988 1893.93,247.84 1893.93,301.431L1893.93,369.692L1895.85,369.278C1896.91,369.05 1901.13,368.151 1905.24,367.28ZM1824.96,488.794C1826.83,485.653 1829.39,480.277 1830.64,476.848L1832.92,470.613L1833.39,352.087L1826.76,358.517C1823.11,362.054 1819.07,365.631 1817.77,366.465L1815.43,367.983L1815.5,501.333L1818.53,497.92C1820.19,496.043 1823.09,491.936 1824.96,488.794ZM2030.46,434.56L2030.45,368.213L2027.55,366.239C2025.96,365.153 2021.93,361.556 2018.6,358.246L2012.55,352.227L2012.55,410.264C2012.55,466.783 2012.59,468.453 2014.34,474.15C2016.63,481.637 2020.89,489.778 2025.78,496C2027.9,498.699 2029.82,500.907 2030.05,500.907C2030.28,500.907 2030.46,471.051 2030.46,434.56ZM2135.61,495.787C2139.78,490.498 2143.54,483.58 2146.31,476.084C2148.55,470.012 2148.65,469.114 2148.65,453.547C2148.65,438 2148.55,437.075 2146.32,431.044C2143.42,423.208 2139.13,415.547 2134.62,410.147L2131.16,406.001L2131.16,453.624C2131.16,479.817 2131.48,500.883 2131.87,500.437C2132.26,499.991 2133.94,497.899 2135.61,495.787ZM1989.41,276.165C1987.06,268.248 1983.04,260.335 1977.87,253.465L1973.72,247.945L1973.25,381.013L1976.04,383.117C1977.58,384.274 1981.53,387.922 1984.81,391.224L1990.79,397.227L1991.01,339.739C1991.22,283.3 1991.19,282.14 1989.41,276.165ZM1870.26,382.683L1872.62,381.013L1872.17,247.893L1867.69,253.867C1863.19,259.858 1859.68,266.387 1856.7,274.347C1855.21,278.342 1855.09,282.386 1854.87,337.877L1854.63,397.14L1861.27,390.746C1864.92,387.23 1868.97,383.601 1870.26,382.683ZM1910.57,695.901C1881.91,691.382 1857.18,672.978 1845.2,647.253C1840.35,636.835 1838.3,627.78 1837.83,614.743C1837.38,601.906 1838.45,593.92 1842.04,583.294C1848.84,563.204 1866.08,543.882 1885.67,534.397C1896.06,529.369 1911.9,525.653 1922.95,525.653C1930.08,525.653 1943.61,528.048 1951.16,530.644C1962.94,534.699 1973.86,541.742 1983.37,551.409C2001.02,569.354 2009.23,590.688 2008.07,615.576C2007.51,627.549 2005.09,637.095 1999.82,648.107C1994.91,658.361 1990.12,664.869 1981.23,673.338C1967.55,686.376 1954.67,692.59 1934.47,695.906C1925.48,697.381 1919.95,697.381 1910.57,695.901ZM1872.57,611.2L1872.53,563.627L1869.5,567.04C1865.18,571.909 1860.03,580.864 1857.38,588.112C1855.21,594.071 1855.11,595.082 1855.11,610.987C1855.11,629.056 1855.48,631.122 1860.7,642.032C1863.01,646.848 1871.17,658.773 1872.17,658.773C1872.41,658.773 1872.59,637.365 1872.57,611.2ZM1978.01,653.44C1983.04,646.753 1987.08,638.781 1989.41,630.948C1990.92,625.872 1991.21,622.651 1991.21,611.198C1991.21,595.967 1990.16,590.892 1984.81,580.267C1982.18,575.049 1974.66,564.053 1973.72,564.053C1973.49,564.053 1973.29,585.365 1973.29,611.413C1973.29,637.461 1973.45,658.773 1973.65,658.773C1973.84,658.773 1975.81,656.374 1978.01,653.44ZM1912.71,611.413C1912.71,557.025 1912.49,542.721 1911.64,542.725C1909.99,542.733 1904.25,544.325 1898.84,546.277L1893.93,548.048L1893.93,610.986C1893.93,660.318 1894.16,674.107 1895,674.769C1896.53,675.978 1908.36,679.703 1911.64,680.008C1912.49,680.086 1912.71,665.852 1912.71,611.413ZM1942.24,677.923C1946.38,676.722 1950.27,675.331 1950.87,674.832C1951.74,674.109 1951.96,661.119 1951.96,610.986L1951.96,548.048L1947.05,546.277C1942.25,544.542 1935.95,542.734 1934.68,542.725C1934.33,542.722 1934.04,573.632 1934.04,611.413C1934.04,649.195 1934.19,680.107 1934.37,680.107C1934.55,680.107 1938.09,679.124 1942.24,677.923ZM1593.99,380.159C1575.46,376.757 1562.12,370.136 1549.29,357.973C1541.56,350.649 1536.6,344.285 1532.11,335.967C1514.79,303.864 1520.02,264.496 1545.17,237.498C1559.3,222.334 1576.8,213.604 1598.84,210.72C1619.71,207.991 1644.1,215.384 1661.47,229.704C1693.01,255.692 1701.92,299.313 1683.07,335.376C1673.47,353.732 1655.35,369.681 1636.98,375.927C1622,381.022 1606.83,382.516 1593.99,380.159ZM1596.97,295.68C1596.97,257.899 1596.74,226.987 1596.46,226.987C1595.21,226.987 1585.35,229.774 1582.35,230.975L1579.04,232.296L1579.48,359.603L1586.73,361.951C1590.72,363.243 1594.66,364.317 1595.48,364.337C1596.89,364.371 1596.97,360.547 1596.97,295.68ZM1624.49,363.04C1627.32,362.306 1631.12,361.113 1632.93,360.387L1636.23,359.068L1636.23,232.315L1631.32,230.528C1628.62,229.546 1625.26,228.503 1623.85,228.212C1622.45,227.92 1620.62,227.499 1619.8,227.277C1618.39,226.893 1618.31,230.56 1618.31,295.623C1618.31,333.435 1618.54,364.373 1618.82,364.373C1619.11,364.373 1621.66,363.773 1624.49,363.04ZM1557.72,295.68C1557.72,269.632 1557.51,248.32 1557.25,248.32C1554.88,248.32 1544.71,264.772 1541.74,273.419C1539.48,280.01 1539.38,281.029 1539.41,296.107C1539.44,311.101 1539.55,312.211 1541.75,318.217C1543.02,321.695 1545.27,326.687 1546.75,329.31C1549.75,334.634 1556.07,343.04 1557.07,343.04C1557.43,343.04 1557.72,321.728 1557.72,295.68ZM1667.89,329.823C1669.72,326.532 1672.18,320.844 1673.35,317.183C1675.28,311.141 1675.48,309.155 1675.48,295.726C1675.48,283.075 1675.22,280.077 1673.68,275.077C1671.42,267.748 1668.62,262.141 1663.94,255.528C1657,245.742 1657.56,242.201 1657.6,295.789L1657.63,343.467L1661.09,339.636C1663,337.529 1666.06,333.113 1667.89,329.823ZM964.654,695.915C943.003,692.249 927.814,684.016 912.974,667.904C903.822,657.968 896.971,644.969 893.321,630.613C892.054,625.627 891.703,621.291 891.733,610.987C891.777,596.27 893.194,589.02 898.296,577.416C907.696,556.035 926.931,538.027 948.174,530.718C955.918,528.054 969.391,525.653 976.601,525.653C987.651,525.653 1003.49,529.369 1013.88,534.397C1033.47,543.882 1050.71,563.204 1057.51,583.294C1061.1,593.92 1062.17,601.906 1061.71,614.743C1061.38,624.32 1060.83,628.34 1059.05,634.453C1054.13,651.31 1044.37,665.975 1030.32,677.63C1018.31,687.593 1004.93,693.414 988.152,695.968C978.912,697.376 973.205,697.363 964.654,695.915ZM926.054,587.246L925.827,563.627L921.681,569.173C916.503,576.101 912.478,584.018 910.139,591.879C907.817,599.682 907.551,620.893 909.67,629.21C911.48,636.31 916.722,646.934 921.713,653.615L925.827,659.124L926.054,634.995C926.179,621.724 926.179,600.237 926.054,587.246ZM1035.15,648.736C1038.71,643.403 1042.61,634.232 1044.02,627.908C1044.66,625.015 1044.91,618.081 1044.71,608.853C1044.43,595.77 1044.17,593.735 1042.14,588.112C1039.53,580.89 1034.39,571.934 1030.05,567.04L1027.02,563.627L1027.02,659.2L1029.59,656.213C1031,654.571 1033.5,651.206 1035.15,648.736ZM997.934,677.373C1000.99,676.405 1003.96,675.233 1004.55,674.769C1005.38,674.107 1005.61,660.315 1005.61,610.975L1005.61,548.025L1002.32,546.706C998.836,545.313 989.381,542.72 987.784,542.72C987.103,542.72 986.841,561.829 986.841,611.481L986.841,680.242L989.614,679.688C991.139,679.383 994.883,678.342 997.934,677.373ZM965.507,611.413C965.507,573.632 965.219,542.722 964.867,542.725C963.596,542.735 957.298,544.542 952.494,546.277L947.587,548.048L947.587,610.986C947.587,661.269 947.808,674.108 948.686,674.836C949.622,675.613 962.983,679.928 964.867,680.061C965.219,680.085 965.507,649.195 965.507,611.413ZM646.134,379.743C625.815,375.46 611.839,367.81 599.004,353.947C569.749,322.349 568.04,275.536 594.926,242.236C609.498,224.187 628.368,213.877 652.64,210.701C672.142,208.15 695.437,214.559 711.984,227.027C728.82,239.714 740.622,257.847 745.002,277.76C747.368,288.52 747.043,306.202 744.287,316.596C739.075,336.258 728.186,352.284 711.641,364.645C693.086,378.506 667.854,384.322 646.134,379.743ZM650.627,295.664L650.627,226.954L648.281,227.483C642.178,228.857 639.206,229.748 635.678,231.26L631.854,232.899L631.854,358.356L634.336,359.64C636.791,360.909 647.498,364.196 649.561,364.313C650.406,364.361 650.627,350.095 650.627,295.664ZM683.481,361.463L689.454,359.607L689.891,232.296L686.589,230.975C683.587,229.774 673.726,226.987 672.477,226.987C672.193,226.987 671.961,257.929 671.961,295.748L671.961,364.509L674.734,363.914C676.259,363.586 680.195,362.483 683.481,361.463ZM719.367,333.503C721.454,330.37 724.407,324.802 725.929,321.13C728.682,314.485 728.697,314.374 728.979,297.612C729.211,283.811 729.005,279.882 727.839,275.852C725.775,268.713 719.53,257.086 715.115,252.16L711.29,247.893L711.257,296.107L711.222,344.32L713.397,341.76C714.593,340.352 717.28,336.636 719.367,333.503ZM611.336,295.467L611.298,247.893L607.468,252.16C602.548,257.642 595.515,271.789 593.892,279.467C592.262,287.184 592.26,304.171 593.887,311.859C595.458,319.276 602.459,333.619 607.127,338.987C609.066,341.216 610.814,343.04 611.012,343.04C611.211,343.04 611.357,321.632 611.336,295.467ZM649.347,695.937C626.981,692.441 608.825,682.073 594.926,664.857C568.094,631.624 569.679,585.155 598.727,553.419C615.36,535.247 635.602,526.736 665.584,525.309C676.258,524.802 683.709,522.867 692.867,518.225C718.521,505.224 733.359,481.232 733.395,452.693C733.411,440.706 737.412,424.997 743.285,413.867C753.793,393.955 774.074,377.293 794.587,371.719C809.247,367.736 819.698,366.983 831.501,369.06C854.14,373.044 870.043,381.981 884.45,398.817C914.994,434.509 909.642,490.338 872.861,519.709C856.43,532.83 843.006,537.631 818.079,539.304C811.382,539.754 803.533,540.736 800.635,541.486C788.978,544.507 776.674,551.73 767.719,560.809C754.378,574.335 748.547,588.41 747.044,610.712C746.018,625.927 744.379,634.019 740.319,643.908C734.86,657.205 725.77,669.152 713.987,678.515C702.249,687.843 689.644,693.261 673.644,695.856C664.201,697.387 658.738,697.405 649.347,695.937ZM801.027,525.146L808.494,523.562L808.494,454.208C808.494,414.364 808.172,384.853 807.736,384.853C806.046,384.853 791.831,389.285 790.814,390.128C789.942,390.852 789.721,404.836 789.721,459.297L789.721,527.559L791.641,527.145C792.697,526.917 796.921,526.018 801.027,525.146ZM836.008,520.906C838.838,520.173 842.638,518.979 844.451,518.254L847.747,516.935L847.747,390.159L844.451,388.84C841.452,387.64 831.591,384.853 830.344,384.853C830.06,384.853 829.827,415.765 829.827,453.547C829.827,491.328 830.06,522.24 830.344,522.24C830.628,522.24 833.177,521.64 836.008,520.906ZM763.663,542.744L768.387,539.099L768.387,406.001L765.187,409.876C760.374,415.704 756.442,422.609 753.519,430.365L750.894,437.333L750.411,555.719L754.675,551.054C757.02,548.488 761.064,544.749 763.663,542.744ZM875.893,493.227C880.275,486.782 883.066,481.06 885.197,474.15C886.738,469.152 887.001,466.151 887.001,453.547C887.001,440.942 886.738,437.941 885.197,432.943C882.937,425.615 880.143,420.008 875.456,413.395C868.52,403.61 869.081,400.078 869.081,453.574L869.081,501.171L870.891,499.546C871.887,498.652 874.138,495.808 875.893,493.227ZM611.337,611.2L611.298,563.627L607.435,567.893C602.564,573.274 595.535,587.46 593.888,595.234C592.26,602.923 592.262,619.909 593.894,627.627C595.443,634.958 602.433,649.231 607.162,654.72C609.083,656.949 610.817,658.773 611.015,658.773C611.213,658.773 611.358,637.365 611.337,611.2ZM722.672,643.413C729.459,630.228 729.134,633.987 729.134,568.633L729.134,510.376L723.326,516.095C720.131,519.24 716.102,522.773 714.372,523.947L711.226,526.08L711.291,659.2L715.115,654.933C717.218,652.587 720.619,647.403 722.672,643.413ZM650.627,611.413C650.627,573.632 650.332,542.72 649.97,542.72C648.394,542.72 636.542,546.313 634.31,547.467L631.854,548.737L631.854,674.194L635.907,675.935C639.253,677.372 647.418,679.75 649.987,680.036C650.339,680.075 650.627,649.195 650.627,611.413ZM678.141,678.773C680.971,678.04 684.771,676.846 686.584,676.12L689.881,674.801L689.881,537.401L687.961,537.861C686.905,538.114 682.873,538.988 679.001,539.802L671.961,541.283L671.961,610.695C671.961,648.871 672.193,680.107 672.477,680.107C672.762,680.107 675.31,679.507 678.141,678.773ZM293.294,698.495L295.641,696.977L295.641,525.85L293.294,524.332C292.003,523.497 287.971,519.931 284.334,516.406L277.721,509.997L277.721,712.829L284.334,706.421C287.971,702.896 292.003,699.329 293.294,698.495ZM2184.3,699.26L2188.38,695.893L2187.91,563.341L2183.64,568.781C2178.6,575.202 2174.52,582.87 2172.14,590.383C2170.48,595.602 2170.41,598.001 2170.41,654.139L2170.41,712.471L2175.32,707.548C2178.02,704.841 2182.06,701.111 2184.3,699.26ZM2220.55,682.901L2227.59,681.429L2227.59,612.074C2227.59,573.929 2227.36,542.72 2227.07,542.72C2225.82,542.72 2215.96,545.506 2212.96,546.706L2209.67,548.025L2209.67,685.426L2211.59,684.9C2212.64,684.61 2216.68,683.711 2220.55,682.901ZM367.747,677.196L373.721,675.34L373.721,547.484L368.174,545.595C365.123,544.556 361.187,543.441 359.427,543.118L356.227,542.53L356.227,680.242L359.001,679.647C360.526,679.32 364.462,678.217 367.747,677.196ZM2258.3,677.816C2260.87,677.108 2264.04,675.979 2265.34,675.309L2267.69,674.09L2267.69,548.737L2265.24,547.467C2263.01,546.313 2251.15,542.72 2249.58,542.72C2249.22,542.72 2248.92,573.639 2248.92,611.43L2248.92,680.139L2251.27,679.622C2252.56,679.337 2255.72,678.525 2258.3,677.816ZM2543.32,611.318L2543.32,542.53L2540.12,543.118C2538.36,543.441 2534.43,544.556 2531.37,545.595L2525.83,547.484L2525.61,610.974C2525.49,645.893 2525.68,674.75 2526.03,675.101C2526.72,675.782 2540.47,679.985 2542.25,680.061C2543.1,680.097 2543.32,665.804 2543.32,611.318ZM2575.96,676.975L2582.57,674.847L2582.57,537.144L2564.65,541.439L2564.65,680.139L2567,679.621C2568.29,679.336 2572.32,678.145 2575.96,676.975ZM401.856,652.418C406.134,646.383 409.572,639.768 411.807,633.272C414.158,626.439 414.158,596.387 411.807,589.554C409.572,583.059 406.134,576.444 401.856,570.409C394.917,560.619 395.481,556.993 395.481,611.413C395.481,665.834 394.917,662.208 401.856,652.418ZM2503.87,587.367L2503.64,562.773L2499.58,567.893C2494.93,573.768 2490.22,582.36 2487.81,589.357C2486.38,593.504 2486.15,596.561 2486.15,610.965C2486.15,629.313 2486.71,632.634 2491.45,642.133C2492.86,644.949 2496.18,650.133 2498.83,653.653L2503.64,660.053L2503.87,636.007C2503.99,622.782 2503.99,600.894 2503.87,587.367ZM2610.55,650.842C2615.02,644.384 2618.72,636.495 2620.66,629.333C2621.57,625.952 2621.81,613.132 2621.82,567.532L2621.83,509.997L2615.21,516.406C2611.58,519.931 2607.55,523.497 2606.25,524.332L2603.91,525.85L2603.91,592.416C2603.91,649.502 2604.08,658.841 2605.11,657.987C2605.77,657.439 2608.22,654.224 2610.55,650.842ZM2293.32,653.517C2298.07,647.516 2304.15,634.722 2305.67,627.558C2307.27,620.001 2307.28,602.894 2305.69,595.4C2303.6,585.533 2296.25,571.323 2290.38,565.825L2288.17,563.756L2288.17,610.838C2288.17,640.91 2288.47,657.92 2289.01,657.92C2289.47,657.92 2291.41,655.939 2293.32,653.517ZM2656.97,542.091L2661.08,538.956L2661.08,368.137L2656.97,365.002C2654.71,363.278 2650.68,359.579 2648.01,356.783L2643.16,351.7L2643.16,555.393L2648.01,550.31C2650.68,547.514 2654.71,543.816 2656.97,542.091ZM1439.11,452.827L1439.11,383.413L1432.07,382.003C1428.19,381.228 1424.16,380.355 1423.11,380.064L1421.19,379.534L1421.19,516.979L1424.81,518.364C1428.74,519.863 1436.32,522.041 1438.04,522.164C1438.89,522.224 1439.11,507.829 1439.11,452.827Z" style="fill:white;"/>
</svg>
