<?xml version="1.0" encoding="UTF-8" standalone="no"?>
<!DOCTYPE svg PUBLIC "-//W3C//DTD SVG 1.1//EN" "http://www.w3.org/Graphics/SVG/1.1/DTD/svg11.dtd">
<svg width="100%" height="100%" viewBox="0 0 2699 908" version="1.1" xmlns="http://www.w3.org/2000/svg" xmlns:xlink="http://www.w3.org/1999/xlink" xml:space="preserve" xmlns:serif="http://www.serif.com/" style="fill-rule:evenodd;clip-rule:evenodd;stroke-linejoin:round;stroke-miterlimit:2;">
    <path id="main" d="M115.569,648.32L115.354,389.547L108.101,387.187C102.411,385.337 98.027,384.637 87.767,383.943C60.873,382.122 42.035,374.227 25.768,357.96C-18.634,313.558 -3.478,237.728 54.532,214.043C63.984,210.184 73.401,208.267 87.334,207.365C99.071,206.605 109.789,204.533 114.202,202.172C115.724,201.357 115.781,197.734 115.781,100.663L115.781,0L136.261,0L136.261,187.199L138.936,184.693C143.065,180.826 149.517,170.488 152.639,162.738L155.461,155.733L155.7,77.867L155.939,0L177.221,0L177.221,81.355L183.407,75.408C186.81,72.137 190.842,68.589 192.367,67.525L195.141,65.59L195.141,0L216.474,0L216.474,54.505L222.234,52.949C225.402,52.093 229.434,51.14 231.194,50.831L234.394,50.269L234.394,0L255.727,0L255.727,50.269L258.927,50.807C260.687,51.103 264.719,52.026 267.887,52.859L273.647,54.373L273.647,0L294.981,0L294.981,64.71L298.607,67.484C300.602,69.01 304.634,72.583 307.567,75.424L312.901,80.591L312.901,0L334.165,0L334.679,152.32L336.687,158.293C339.95,168.002 346.586,179.672 351.197,183.812L353.007,185.438L353.007,0L374.341,0L374.341,201.201L377.637,202.52C380.636,203.72 390.497,206.507 391.744,206.507C392.028,206.507 392.261,160.043 392.261,103.253L392.261,0L413.594,0L413.594,206.697L416.794,206.109C418.554,205.785 422.49,204.671 425.541,203.632L431.087,201.742L431.521,0L452.847,0L452.917,186.453L455.486,183.467C459.886,178.352 464.188,171.377 467.325,164.271L470.341,157.44L470.802,0L492.101,0L492.171,82.347L495.336,78.869C498.157,75.77 503.831,70.59 509.046,66.355C510.856,64.884 510.874,64.558 510.874,32.435L510.874,0L531.354,0L531.354,27.398C531.354,51.657 531.504,54.738 532.661,54.294C534.567,53.563 543.213,51.457 546.927,50.819L550.127,50.269L550.127,0L571.461,0L571.461,50.269L574.661,50.807C576.421,51.103 580.453,52.026 583.621,52.859L589.381,54.373L589.381,0L610.714,0L610.725,65.28L613.623,67.254C615.218,68.339 619.247,71.909 622.577,75.188L628.634,81.148L628.634,0L649.924,0L650.394,154.027L652.737,160.35C655.508,167.831 659.11,174.406 663.945,180.81L667.461,185.467L667.895,0L689.221,0L689.221,100.162C689.221,179.273 689.445,200.502 690.287,201.169C691.673,202.267 700.691,205.331 704.794,206.098L707.994,206.697L707.994,0L729.327,0L729.327,208.136L732.527,208.674C734.287,208.969 738.319,209.893 741.487,210.725L747.247,212.24L747.247,0L768.581,0L768.581,223.301L771.781,225.572C773.541,226.821 777.573,230.409 780.741,233.545L786.501,239.247L786.501,0L807.834,0L807.834,82.058L812.069,77.423C814.399,74.875 818.431,71.149 821.029,69.144L825.754,65.499L825.754,0L847.087,0L847.087,27.398C847.087,52.525 847.204,54.751 848.497,54.255C849.813,53.75 857.299,51.926 862.661,50.805L865.007,50.314L865.007,0L886.341,0L886.341,50.242L890.394,50.846C892.623,51.178 896.847,52.135 899.781,52.972L905.114,54.493L905.114,0L926.447,0L926.447,65.51L928.676,66.971C929.902,67.774 933.934,71.325 937.636,74.862L944.367,81.293L944.367,0L965.666,0L966.127,154.88L968.405,161.114C971.053,168.363 976.202,177.317 980.522,182.187L983.55,185.6L983.585,92.8L983.621,0L1004.95,0L1004.95,201.201L1008.25,202.52C1011.25,203.72 1021.11,206.507 1022.36,206.507C1022.64,206.507 1022.87,160.043 1022.87,103.253L1022.87,0L1044.21,0L1044.21,206.697L1047.41,206.104C1051.67,205.314 1060.58,202.306 1061.91,201.205C1062.76,200.51 1062.98,179.254 1062.98,100.162L1062.98,0L1083.46,0L1083.46,92.587C1083.46,153.87 1083.75,185.173 1084.32,185.173C1085.8,185.173 1092.95,174.785 1096.36,167.68C1102.51,154.858 1102.23,159.112 1102.23,75.341L1102.23,0L1123.57,0L1123.57,81.363L1130.18,74.954C1133.82,71.429 1137.85,67.863 1139.14,67.028L1141.49,65.51L1141.49,0L1162.82,0L1162.82,54.373L1168.58,52.859C1171.75,52.026 1175.78,51.103 1177.54,50.807L1180.74,50.269L1180.74,0L1202.07,0L1202.07,50.269L1205.27,50.807C1207.03,51.103 1211.07,52.026 1214.23,52.859L1219.99,54.373L1219.99,0L1241.33,0L1241.33,64.67L1248.6,70.793C1252.6,74.161 1256.48,77.851 1257.23,78.992C1257.98,80.133 1258.93,81.067 1259.35,81.067C1259.77,81.067 1260.1,63.475 1260.1,40.533L1260.1,0L1281.43,0L1281.43,238.992L1287.34,233.148C1290.58,229.935 1294.61,226.37 1296.29,225.226L1299.34,223.147L1299.35,111.573L1299.35,0L1320.69,0L1320.69,212.083L1338.61,207.787L1338.61,0L1359.94,0L1359.94,206.697L1363.14,206.099C1364.9,205.77 1368.84,204.637 1371.89,203.581L1377.43,201.662L1377.87,0L1399.19,0L1399.19,92.587C1399.19,143.509 1399.42,185.173 1399.7,185.173C1401.6,185.173 1410.52,171.428 1413.91,163.263L1416.69,156.587L1417.15,0L1438.45,0L1438.45,40.533C1438.45,65.012 1438.76,81.067 1439.24,81.067C1439.68,81.067 1440.84,79.943 1441.82,78.569C1442.8,77.195 1446.66,73.514 1450.41,70.388L1457.22,64.706L1457.22,0L1478.55,0L1478.55,54.373L1484.31,52.859C1487.48,52.026 1491.51,51.103 1493.27,50.807L1496.47,50.269L1496.47,0L1517.81,0L1517.81,50.269L1521.01,50.807C1522.77,51.103 1526.8,52.026 1529.97,52.859L1535.73,54.373L1535.73,0L1557.06,0L1557.06,65.51L1559.41,67.028C1560.7,67.863 1564.73,71.429 1568.37,74.954L1574.98,81.363L1574.98,0L1596.31,0L1596.31,75.341C1596.31,159.112 1596.04,154.858 1602.19,167.68C1605.6,174.785 1612.75,185.173 1614.23,185.173C1614.8,185.173 1615.09,153.87 1615.09,92.587L1615.09,0L1635.57,0L1635.57,100.162C1635.57,179.254 1635.79,200.51 1636.63,201.205C1637.97,202.306 1646.88,205.314 1651.14,206.104L1654.34,206.697L1654.34,0L1675.67,0L1675.67,103.253C1675.67,160.043 1675.91,206.507 1676.19,206.507C1677.44,206.507 1687.3,203.72 1690.3,202.52L1693.59,201.201L1693.59,0L1714.93,0L1715,185.6L1718.03,182.187C1722.72,176.894 1727.74,167.877 1730.41,159.914L1732.85,152.665L1732.85,0L1754.18,0L1754.18,81.355L1760.37,75.408C1763.77,72.137 1767.8,68.589 1769.33,67.525L1772.1,65.59L1772.1,0L1793.43,0L1793.43,54.493L1798.77,52.972C1801.7,52.135 1805.92,51.178 1808.15,50.846L1812.21,50.242L1812.21,0L1833.54,0L1833.54,50.314L1835.89,50.805C1841.25,51.926 1848.74,53.75 1850.05,54.255C1851.34,54.751 1851.46,52.525 1851.46,27.398L1851.46,0L1872.79,0L1872.79,65.499L1877.39,69.047C1879.92,70.998 1883.95,74.67 1886.35,77.206L1890.71,81.818L1890.71,0L1912.05,0L1912.05,152.659L1914.18,159.316C1916.77,167.438 1921.79,176.633 1926.43,181.769L1929.9,185.6L1929.97,0L1951.3,0L1951.3,201.201L1954.6,202.52C1957.6,203.72 1967.46,206.507 1968.7,206.507C1968.99,206.507 1969.22,160.043 1969.22,103.253L1969.22,0L1990.55,0L1990.55,206.697L1993.75,206.104C1998.02,205.314 2006.93,202.306 2008.26,201.205C2009.1,200.51 2009.33,179.254 2009.33,100.162L2009.33,0L2030.65,0L2031.09,185.467L2034.6,180.81C2039.44,174.406 2043.04,167.831 2045.81,160.35L2048.15,154.027L2048.62,0L2069.91,0L2069.91,81.266L2075.97,75.247C2079.3,71.937 2083.33,68.34 2084.92,67.254L2087.82,65.28L2087.84,0L2109.17,0L2109.17,54.373L2114.93,52.859C2118.1,52.026 2122.13,51.103 2123.89,50.807L2127.09,50.269L2127.09,0L2148.42,0L2148.42,50.269L2151.62,50.819C2155.34,51.457 2163.98,53.563 2165.89,54.294C2167.04,54.738 2167.19,51.657 2167.19,27.398L2167.19,0L2187.67,0L2187.67,64.597L2193.01,69.19C2195.94,71.716 2200.16,75.709 2202.38,78.064L2206.42,82.347L2206.43,41.173L2206.45,0L2227.75,0L2228.21,157.44L2231.22,164.271C2234.36,171.377 2238.66,178.352 2243.06,183.467L2245.63,186.453L2245.67,93.227L2245.7,0L2267.03,0L2267.46,201.742L2273.01,203.632C2276.06,204.671 2279.99,205.785 2281.75,206.109L2284.95,206.697L2284.95,0L2306.29,0L2306.29,103.253C2306.29,160.043 2306.52,206.507 2306.8,206.507C2308.05,206.507 2317.91,203.72 2320.91,202.52L2324.21,201.201L2324.21,0L2345.54,0L2345.61,185.6L2349.07,181.769C2353.61,176.75 2358.63,167.642 2361.55,159.147L2363.89,152.32L2364.38,0L2385.65,0L2385.65,80.587L2390.55,75.844C2393.25,73.235 2397.28,69.649 2399.51,67.874L2403.57,64.648L2403.57,0L2424.9,0L2424.9,54.373L2430.66,52.859C2433.83,52.026 2437.86,51.103 2439.62,50.807L2442.82,50.269L2442.82,0L2464.15,0L2464.15,50.269L2467.35,50.809C2469.11,51.106 2473.15,52.054 2476.31,52.915L2482.07,54.482L2482.07,0L2503.41,0L2503.41,65.59L2506.18,67.525C2507.71,68.589 2511.74,72.137 2515.14,75.408L2521.33,81.355L2521.33,0L2542.66,0L2542.68,153.173L2545.13,160.21C2547.86,168.06 2552.9,177.025 2557.48,182.187L2560.51,185.6L2560.54,92.8L2560.58,0L2581.91,0L2581.91,201.246L2585.54,202.563C2593.98,205.63 2599.25,206.609 2611.35,207.356C2633.93,208.749 2650.53,214.692 2665.55,226.759C2715.87,267.191 2707.3,346.037 2649.48,374.589C2630.72,383.853 2607.3,386.15 2587.53,380.666L2581.91,379.109L2581.91,453.235C2581.91,494.004 2582.24,527.36 2582.63,527.36C2583.03,527.36 2586.39,526.527 2590.1,525.509C2595.71,523.97 2599.14,523.658 2610.5,523.655C2622.61,523.653 2625.12,523.911 2632.69,525.932C2691.35,541.605 2717.33,609.686 2683.89,660.073C2675.45,672.785 2663.88,683.025 2650.18,689.914C2637.56,696.259 2629.13,698.294 2609.65,699.696C2598.29,700.514 2593.79,701.408 2585.54,704.492L2581.91,705.848L2581.91,907.093L2560.58,907.093L2560.51,721.493L2557.48,724.907C2552.9,730.069 2547.87,739.033 2545.13,746.883L2542.68,753.92L2542.66,907.093L2521.33,907.093L2521.33,825.738L2515.14,831.686C2511.74,834.957 2507.71,838.504 2506.18,839.568L2503.41,841.503L2503.41,907.093L2482.08,907.093L2482.08,852.612L2476.32,854.178C2473.15,855.04 2469.12,855.988 2467.36,856.284L2464.16,856.824L2464.16,907.093L2442.82,907.093L2442.82,856.824L2439.62,856.286C2437.86,855.991 2433.83,855.067 2430.66,854.235L2424.9,852.72L2424.9,907.093L2403.57,907.093L2403.57,842.446L2399.51,839.219C2397.29,837.445 2393.25,833.858 2390.55,831.25L2385.65,826.507L2385.65,907.093L2364.38,907.093L2363.89,754.773L2361.55,747.947C2358.63,739.452 2353.61,730.344 2349.07,725.324L2345.61,721.493L2345.54,907.093L2324.21,907.093L2324.21,705.892L2320.91,704.573C2317.91,703.373 2308.05,700.587 2306.8,700.587C2306.52,700.587 2306.29,747.051 2306.29,803.84L2306.29,907.093L2284.95,907.093L2284.95,700.397L2281.76,700.985C2279.99,701.308 2276.06,702.423 2273.01,703.462L2267.46,705.351L2267.03,907.093L2245.7,907.093L2245.63,720.64L2243.06,723.627C2238.66,728.741 2234.36,735.717 2231.22,742.822L2228.21,749.653L2227.75,907.093L2206.45,907.093L2206.42,824.747L2202.38,829.029C2200.16,831.384 2195.94,835.378 2193.01,837.904L2187.68,842.496L2187.68,907.093L2167.2,907.093L2167.2,879.695C2167.2,855.437 2167.05,852.355 2165.89,852.799C2163.99,853.53 2155.34,855.637 2151.62,856.274L2148.42,856.824L2148.42,907.093L2127.09,907.093L2127.09,856.824L2123.89,856.286C2122.13,855.991 2118.1,855.067 2114.93,854.235L2109.17,852.72L2109.17,907.093L2087.84,907.093L2087.82,841.813L2084.92,839.839C2083.33,838.753 2079.3,835.156 2075.97,831.846L2069.91,825.827L2069.91,907.093L2048.58,907.093L2048.58,666.909L2044.85,671.161C2042.8,673.5 2038.77,677.297 2035.89,679.6L2030.66,683.787L2030.66,907.093L2009.33,907.093L2009.33,800.762C2009.33,716.051 2009.11,694.513 2008.26,694.833C2005.58,695.844 1997.46,697.93 1994.18,698.453L1990.55,699.03L1990.55,907.093L1969.22,907.093L1969.22,803.84C1969.22,718.945 1969.02,700.587 1968.09,700.587C1966.65,700.587 1958.64,702.959 1954.5,704.614L1951.3,705.892L1951.3,907.093L1929.97,907.093L1929.9,721.493L1926.43,725.324C1921.79,730.46 1916.77,739.655 1914.17,747.777L1912.05,754.435L1912.05,907.093L1890.71,907.093L1890.71,825.276L1886.35,829.887C1883.95,832.424 1879.92,836.095 1877.39,838.047L1872.79,841.594L1872.79,907.093L1851.46,907.093L1851.46,879.695C1851.46,854.569 1851.34,852.342 1850.05,852.839C1848.73,853.343 1841.25,855.167 1835.89,856.288L1833.54,856.779L1833.54,907.093L1812.21,907.093L1812.21,856.851L1808.15,856.247C1805.92,855.915 1801.7,854.958 1798.77,854.122L1793.43,852.601L1793.43,907.093L1772.1,907.093L1772.1,841.503L1769.33,839.568C1767.8,838.504 1763.77,834.957 1760.37,831.686L1754.18,825.738L1754.18,907.093L1732.85,907.093L1732.85,754.429L1730.41,747.179C1727.73,739.216 1722.72,730.199 1718.03,724.907L1715,721.493L1714.93,907.093L1693.59,907.093L1693.59,705.892L1690.3,704.573C1687.3,703.373 1677.44,700.587 1676.19,700.587C1675.91,700.587 1675.68,747.051 1675.68,803.84L1675.68,907.093L1654.34,907.093L1654.34,700.397L1651.14,700.989C1646.88,701.779 1637.97,704.788 1636.64,705.889C1635.8,706.584 1635.57,727.84 1635.57,806.931L1635.57,907.093L1615.09,907.093L1615.09,814.507C1615.09,753.224 1614.8,721.92 1614.24,721.92C1612.75,721.92 1605.6,732.309 1602.19,739.413C1596.05,752.236 1596.32,747.982 1596.32,831.753L1596.32,907.093L1574.98,907.093L1574.98,825.731L1568.37,832.139C1564.73,835.664 1560.7,839.231 1559.41,840.065L1557.06,841.583L1557.06,907.093L1535.73,907.093L1535.73,852.72L1529.97,854.235C1526.8,855.067 1522.77,855.991 1521.01,856.286L1517.81,856.824L1517.81,907.093L1496.48,907.093L1496.48,856.824L1493.28,856.286C1491.52,855.991 1487.49,855.067 1484.32,854.235L1478.56,852.72L1478.56,907.093L1457.22,907.093L1457.22,842.387L1450.41,836.705C1446.66,833.58 1442.8,829.899 1441.82,828.525C1440.84,827.151 1439.68,826.027 1439.25,826.027C1438.77,826.027 1438.45,842.081 1438.45,866.56L1438.45,907.093L1417.15,907.093L1416.69,750.507L1413.92,743.83C1411.22,737.329 1405.78,728.375 1401.38,723.2L1399.21,720.64L1399.21,813.867L1399.2,907.093L1377.87,907.093L1377.44,705.357L1371.89,703.52C1368.84,702.51 1364.9,701.419 1363.14,701.096L1359.94,700.509L1359.94,907.093L1338.61,907.093L1338.61,700.397L1335.41,700.995C1333.65,701.324 1329.72,702.456 1326.66,703.512L1321.12,705.431L1320.68,907.093L1299.36,907.093L1299.36,721.655L1297.58,723.266C1294.57,725.989 1290.13,732.506 1287.09,738.663C1281.12,750.742 1281.44,745.601 1281.44,830.448L1281.44,907.093L1260.11,907.093L1260.11,866.56C1260.11,843.618 1259.78,826.027 1259.35,826.027C1258.93,826.027 1257.98,826.96 1257.24,828.102C1256.49,829.243 1252.6,832.932 1248.6,836.3L1241.33,842.424L1241.33,907.093L1220,907.093L1220,852.72L1214.24,854.235C1211.07,855.067 1207.04,855.991 1205.28,856.286L1202.08,856.824L1202.08,907.093L1180.75,907.093L1180.75,856.824L1177.55,856.286C1175.79,855.991 1171.75,855.067 1168.59,854.235L1162.83,852.72L1162.83,907.093L1141.49,907.093L1141.49,841.583L1139.14,840.065C1137.85,839.231 1133.82,835.664 1130.18,832.139L1123.57,825.731L1123.57,907.093L1102.24,907.093L1102.24,831.753C1102.24,747.982 1102.51,752.236 1096.36,739.413C1092.95,732.309 1085.8,721.92 1084.32,721.92C1083.75,721.92 1083.46,753.224 1083.46,814.507L1083.46,907.093L1062.99,907.093L1062.99,806.931C1062.99,727.84 1062.76,706.584 1061.92,705.889C1060.58,704.788 1051.68,701.779 1047.41,700.989L1044.21,700.397L1044.21,907.093L1022.88,907.093L1022.88,803.84C1022.88,747.051 1022.65,700.587 1022.36,700.587C1021.11,700.587 1011.25,703.373 1008.25,704.573L1004.96,705.892L1004.96,907.093L983.625,907.093L983.554,721.493L980.526,724.907C976.206,729.776 971.057,738.73 968.409,745.979L966.132,752.213L965.67,907.093L944.367,907.093L944.367,825.8L937.636,832.231C933.934,835.768 929.902,839.32 928.676,840.123L926.447,841.583L926.447,907.093L905.114,907.093L905.114,852.601L899.781,854.122C896.847,854.958 892.623,855.915 890.394,856.247L886.341,856.851L886.341,907.093L865.007,907.093L865.007,856.779L862.661,856.288C857.299,855.167 849.813,853.343 848.497,852.839C847.204,852.342 847.087,854.569 847.087,879.695L847.087,907.093L825.754,907.093L825.754,841.594L821.029,837.949C818.431,835.945 814.399,832.219 812.069,829.67L807.834,825.036L807.834,907.093L786.501,907.093L786.49,830.933C786.482,767.315 786.277,754.001 785.248,750.08C783.446,743.216 776.817,730.601 772.451,725.728L768.657,721.493L768.58,907.093L747.247,907.093L747.247,705.892L744.047,704.614C739.904,702.959 731.896,700.587 730.452,700.587C729.527,700.587 729.327,718.945 729.327,803.84L729.327,907.093L707.994,907.093L707.994,700.397L704.794,700.995C700.691,701.763 691.673,704.827 690.287,705.924C689.445,706.591 689.22,727.821 689.22,806.931L689.22,907.093L667.895,907.093L667.46,721.626L663.945,726.283C659.11,732.687 655.507,739.263 652.736,746.743L650.394,753.067L649.924,907.093L628.634,907.093L628.634,825.946L622.578,831.906C619.248,835.184 615.218,838.754 613.624,839.84L610.726,841.813L610.715,907.093L589.382,907.093L589.382,852.72L583.622,854.235C580.454,855.067 576.422,855.991 574.662,856.286L571.462,856.824L571.462,907.093L550.128,907.093L550.128,856.824L546.928,856.274C543.214,855.637 534.568,853.53 532.662,852.799C531.505,852.355 531.355,855.437 531.355,879.695L531.355,907.093L510.875,907.093L510.875,874.658C510.875,842.535 510.856,842.209 509.047,840.738C503.832,836.503 498.158,831.323 495.337,828.224L492.172,824.747L492.102,907.093L470.803,907.093L470.572,828.373L470.342,749.653L467.326,742.822C464.189,735.717 459.887,728.741 455.487,723.627L452.918,720.64L452.849,907.093L431.522,907.093L431.089,705.351L425.542,703.462C422.491,702.423 418.555,701.308 416.795,700.985L413.595,700.397L413.595,907.093L392.262,907.093L392.262,803.84C392.262,747.051 392.029,700.587 391.745,700.587C390.498,700.587 380.637,703.373 377.639,704.573L374.341,705.892L374.341,907.093L353.007,907.093L353.007,721.655L351.197,723.281C346.59,727.417 339.957,739.08 336.683,748.8L334.67,754.773L334.173,907.093L312.901,907.093L312.901,826.503L307.567,831.669C304.634,834.51 300.602,838.084 298.607,839.609L294.981,842.383L294.981,907.093L273.647,907.093L273.647,852.72L267.887,854.235C264.719,855.067 260.687,855.991 258.927,856.286L255.727,856.824L255.727,907.093L234.394,907.093L234.394,856.779L232.047,856.322C230.757,856.07 226.725,855.14 223.087,854.255L216.474,852.646L216.474,907.093L195.141,907.093L195.141,841.503L192.367,839.568C190.842,838.504 186.81,834.957 183.407,831.686L177.221,825.738L177.221,907.093L155.905,907.093L155.683,671.36L155.461,435.627L153.078,429.653C149.144,419.792 139.613,405.333 137.047,405.333C136.569,405.333 136.261,503.663 136.261,656.213L136.261,907.093L115.783,907.093L115.569,648.32ZM265.443,838.404C289.862,831.328 308.699,812.072 315.004,787.743C315.777,784.758 316.953,775.735 317.616,767.692C319.066,750.114 320.786,743.382 327.022,730.88C332.697,719.503 339.919,710.615 350.231,702.316C361.891,692.933 372.831,688.07 389.701,684.772C401.832,682.4 418.138,683.891 431.921,688.633C453.712,696.131 473.496,715.342 482.69,737.934C486.168,746.479 487.859,755.008 488.736,768.427C490.037,788.313 494.02,800.311 503.5,812.897C512.178,824.419 527.661,834.885 542.021,838.935C551.816,841.698 569.757,841.7 579.567,838.941C591.875,835.478 606.085,826.733 614.36,817.529C626.278,804.274 631.576,790.401 632.907,768.967C633.709,756.056 634.608,750.613 637.297,742.4C641.217,730.427 647.252,720.477 656.407,710.895C670.418,696.229 683.179,689.216 703.13,685.217C717.478,682.341 730.181,683.252 745.967,688.292C770.659,696.175 792.214,718.176 800.028,743.473C802.436,751.271 803.376,757.188 804.377,770.871C805.438,785.37 807.559,793.536 812.785,803.242C819.686,816.058 828.784,825.057 842.569,832.704C863.055,844.067 890.095,843.96 910.706,832.434C927.724,822.916 940.12,807.605 945.254,789.76C946.2,786.475 947.367,778.603 947.849,772.267C948.887,758.628 950.578,748.496 953.026,741.263C960.48,719.238 980.165,698.507 1001.67,690.038C1025.59,680.614 1050.68,681.806 1073.31,693.441C1086.07,700.002 1099.94,713.032 1107.27,725.334C1114.91,738.151 1118.1,749.255 1119.38,767.485C1120.84,788.225 1124.98,800.732 1134.62,813.505C1143.38,825.11 1159.89,835.826 1174.5,839.392C1183.58,841.609 1201.46,841.384 1210.18,838.944C1222.55,835.483 1235.22,827.87 1243.93,818.661C1256.71,805.164 1262.1,791.753 1263.59,769.752C1264.59,754.947 1266.16,746.854 1269.84,737.603C1278.93,714.689 1300.14,694.804 1322.82,687.917C1341.95,682.109 1358.14,682.221 1376.73,688.288C1404.37,697.313 1426.95,722.618 1432.84,751.164C1433.59,754.81 1434.57,763.278 1435.02,769.982C1436.48,791.61 1442.05,805.477 1454.54,818.606C1463.38,827.894 1475.96,835.433 1488.55,838.98C1497.1,841.392 1515,841.59 1524.21,839.376C1538.58,835.92 1555.71,824.558 1564.58,812.59C1573.96,799.932 1577.82,788.099 1579.18,767.816C1580.13,753.675 1581.88,745.577 1586.15,735.521C1595.09,714.468 1614.86,695.911 1636.17,688.579C1644.18,685.825 1657.48,683.52 1665.31,683.528C1673.57,683.536 1686.96,686.251 1696.58,689.865C1716.69,697.42 1736.6,717.549 1744.33,738.129C1747.87,747.556 1749.11,753.987 1750.35,769.243C1751.71,785.976 1754.36,796.055 1759.83,805.276C1771.33,824.667 1791.12,837.796 1813.06,840.605C1848.33,845.121 1882.11,822.997 1891.57,789.188C1892.53,785.748 1893.69,777.942 1894.14,771.84C1895.29,756.326 1895.75,753.204 1898.12,744.96C1902.74,728.955 1913.81,712.772 1927.62,701.851C1942.67,689.949 1959.57,684.281 1983.31,683.17C2001.55,682.317 2016.64,675.839 2030.12,663.086C2044.02,649.932 2050.47,634.913 2052,612.115C2052.99,597.459 2054.64,588.987 2058.32,579.736C2067.54,556.511 2089.05,536.583 2112.15,529.87C2130.92,524.416 2144.59,524.416 2163.35,529.87C2186.45,536.583 2207.97,556.511 2217.19,579.736C2221.41,590.358 2222.91,598.692 2222.91,611.414C2222.91,624.521 2221.44,632.316 2216.81,643.651C2210.98,657.913 2201.35,670.269 2188.5,679.97C2173.99,690.93 2159.53,695.702 2136.4,697.173C2122.71,698.043 2116.29,699.532 2107.03,703.984C2075.08,719.356 2059.06,754.473 2068.48,788.48C2071.87,800.697 2076.11,808.548 2084.19,817.529C2092.46,826.733 2106.67,835.478 2118.98,838.941C2128.78,841.698 2146.73,841.698 2156.53,838.941C2168.43,835.59 2182.64,826.984 2190.7,818.238C2203,804.9 2208.55,790.479 2209.87,768.431C2210.97,750.067 2213.89,739.704 2221.93,725.629C2225.95,718.601 2236.85,706.418 2244.14,700.812C2254.21,693.07 2265.63,688.116 2280.09,685.217C2293.93,682.442 2305.16,683.129 2321.22,687.736C2341.04,693.421 2360.82,710.012 2371.01,729.515C2377.27,741.481 2379.52,750.165 2380.98,768C2381.7,776.729 2382.93,785.533 2383.95,789.188C2391.86,817.595 2417.38,838.474 2447.21,840.96C2481.26,843.796 2512.8,822.196 2522.26,789.561C2523.23,786.207 2524.45,777.528 2525.17,768.854C2526.93,747.646 2530.24,736.555 2538.81,723.157C2549.19,706.933 2566.95,693.205 2584.47,687.857C2593.92,684.975 2598.13,684.278 2610.93,683.484C2618.68,683.003 2625.69,682.05 2629.7,680.932C2653.18,674.385 2671.54,656.734 2679.37,633.174C2681.91,625.518 2682.07,624.332 2682.11,611.84C2682.18,596.179 2681.21,591.761 2674.91,578.987C2667.89,564.736 2657.23,554.084 2642.93,547.016C2630.4,540.826 2625.72,539.777 2610.5,539.754C2599.42,539.738 2596.85,540.002 2591.33,541.734C2567.06,549.356 2548.22,567.949 2541.78,590.645C2540.72,594.415 2539.51,602.931 2538.75,612.042C2537.41,628.18 2535.26,637.688 2530.81,647.254C2520.86,668.617 2499.86,686.798 2477.77,693.162C2466.34,696.455 2454,697.679 2444.86,696.427C2423.33,693.479 2408.96,686.856 2394.78,673.339C2385.89,664.869 2381.09,658.362 2376.19,648.107C2370.92,637.096 2368.5,627.55 2367.94,615.577C2366.78,590.722 2375.03,569.316 2392.66,551.434C2399.82,544.173 2405.19,540.149 2413.81,535.603C2425.77,529.29 2438.8,526.173 2456.9,525.294C2468.47,524.733 2476.68,522.536 2486.44,517.398C2508.35,505.857 2522.59,484.633 2524.59,460.526C2525.76,446.419 2523.61,434.076 2517.88,421.95C2511.6,408.683 2500.12,396.9 2486.44,389.696C2476.68,384.559 2468.47,382.362 2456.9,381.8C2428.22,380.408 2409.52,372.809 2392.7,355.707C2374.97,337.691 2366.78,316.452 2367.94,291.518C2368.5,279.544 2370.92,269.999 2376.19,258.987C2381.09,248.733 2385.89,242.225 2394.78,233.756C2408.96,220.238 2423.33,213.615 2444.86,210.667C2454,209.415 2466.34,210.64 2477.77,213.933C2499.86,220.297 2520.86,238.477 2530.81,259.84C2535.26,269.407 2537.41,278.915 2538.75,295.052C2540.45,315.513 2542.7,323.119 2550.78,335.757C2554.55,341.64 2563.49,350.587 2570.07,355.054C2593.22,370.775 2622.1,371.936 2646.77,358.14C2655.44,353.287 2668.08,340.659 2672.99,331.933C2689.46,302.66 2684.66,267.456 2661.01,244.147C2654.22,237.449 2650.04,234.535 2641.22,230.359C2632.07,226.023 2625.44,224.436 2612.67,223.524C2598.58,222.516 2595.57,222.097 2587.46,220.005C2568.78,215.188 2549.79,201.105 2538.79,183.901C2530.24,170.542 2526.93,159.431 2525.17,138.24C2523.51,118.21 2520.74,108.988 2512.94,97.501C2498.46,76.178 2472.93,63.992 2447.21,66.134C2417.35,68.622 2391.87,89.473 2383.95,117.906C2382.93,121.562 2381.7,130.366 2380.98,139.094C2379.52,156.93 2377.27,165.613 2371.01,177.579C2360.82,197.083 2341.04,213.673 2321.22,219.358C2305.16,223.965 2293.93,224.653 2280.09,221.877C2265.63,218.978 2254.21,214.024 2244.14,206.283C2236.85,200.676 2225.95,188.493 2221.93,181.466C2213.89,167.39 2210.97,157.027 2209.87,138.663C2208.55,116.615 2203,102.195 2190.7,88.856C2182.64,80.111 2168.43,71.504 2156.53,68.154C2146.73,65.396 2128.78,65.396 2118.98,68.154C2107.07,71.504 2092.86,80.111 2084.8,88.856C2072.43,102.284 2067.06,116.255 2065.66,138.667C2064.12,163.242 2057.42,179.927 2042.88,195.374C2028.46,210.702 2015.75,217.802 1995.42,221.877C1981.58,224.653 1970.35,223.965 1954.29,219.358C1928.97,212.098 1905.69,188.371 1898.12,162.134C1895.75,153.89 1895.29,150.769 1894.14,135.254C1893.69,129.152 1892.53,121.352 1891.57,117.918C1883.56,89.289 1857.85,68.397 1827.83,66.128C1800.29,64.047 1774.08,77.808 1759.83,101.818C1754.36,111.039 1751.71,121.118 1750.35,137.851C1749.11,153.108 1747.87,159.538 1744.33,168.965C1736.6,189.545 1716.69,209.674 1696.58,217.229C1686.96,220.843 1673.57,223.557 1665.31,223.566C1657.48,223.575 1644.18,221.269 1636.17,218.515C1614.86,211.183 1595.09,192.627 1586.15,171.573C1581.88,161.517 1580.13,153.42 1579.18,139.279C1577.82,118.996 1573.96,107.162 1564.58,94.504C1555.88,82.769 1539.19,71.582 1524.63,67.731C1516.05,65.461 1497.23,65.659 1488.55,68.111C1475.95,71.668 1463.37,79.203 1454.54,88.488C1442.05,101.617 1436.48,115.484 1435.02,137.112C1434.04,151.769 1432.38,160.241 1428.71,169.491C1419.66,192.279 1398.43,212.306 1376.06,219.157C1368.02,221.62 1356.73,223.406 1345.86,223.934C1334.38,224.491 1326.25,226.651 1316.31,231.782C1297.94,241.27 1284.6,257.864 1279.71,277.316C1271.25,310.897 1285.9,343.669 1316.62,359.935C1326.51,365.172 1337.04,367.731 1348.85,367.773C1360.79,367.815 1378.92,372.333 1388.95,377.765C1411.52,389.98 1427.84,411.593 1433.03,436.113C1435.05,445.7 1435.05,461.394 1433.03,470.981C1428.73,491.311 1417.14,509.232 1399.8,522.344C1391,528.997 1381.65,533.393 1370.25,536.243C1353.07,540.533 1339.17,539.941 1321.17,534.153C1299.19,527.084 1279.46,508.4 1270.3,485.971C1266.11,475.725 1264.63,468.458 1263.59,453.076C1262.99,444.329 1262.1,438.516 1260.52,433.067C1251.59,402.274 1223.79,381.549 1191.29,381.458C1179.32,381.424 1161.08,376.634 1150.34,370.709C1142.69,366.485 1132.12,357.624 1125.73,350.078C1119.2,342.372 1111.72,328.063 1109.07,318.211C1105.36,304.445 1105.37,286.882 1109.08,273.115C1114.76,252.053 1131.67,230.906 1151.1,220.575C1164.04,213.688 1173.67,211.236 1192.92,209.924C1207.25,208.948 1215.2,206.951 1224.52,201.991C1242.99,192.166 1255.8,176.373 1261.1,156.912C1262.73,150.95 1263.04,147.702 1263.01,137.387C1262.97,126.459 1262.7,124.136 1260.67,117.498C1256.93,105.248 1252.39,97.372 1243.93,88.434C1235.21,79.221 1222.54,71.606 1210.18,68.154C1201.38,65.696 1183.49,65.462 1174.5,67.685C1159.83,71.31 1143.37,81.998 1134.62,93.589C1124.96,106.393 1120.79,119.006 1119.38,139.671C1118.91,146.628 1117.77,155.231 1116.85,158.788C1105.19,203.837 1058.85,232.021 1014.47,221.052C995.108,216.269 980.521,207.119 967.942,191.87C954.775,175.909 949.927,162.145 947.849,134.827C947.367,128.491 946.199,120.619 945.254,117.334C940.12,99.489 927.724,84.178 910.705,74.661C890.095,63.134 863.055,63.027 842.569,74.391C828.783,82.037 819.686,91.036 812.785,103.853C807.457,113.747 805.149,122.518 804.621,134.877C803.552,159.904 813.625,181.198 833.434,195.782C845.856,204.928 856.666,208.658 874.394,209.913C880.73,210.362 888.093,211.098 890.757,211.55C922.541,216.935 949.335,241.081 958.547,272.64C961.579,283.028 962.339,300.937 960.196,311.51C957.126,326.665 951.713,338.114 942.126,349.737C928.43,366.338 913.146,375.346 891.205,379.744C880.486,381.893 871.715,381.893 860.996,379.744C842.948,376.126 830.173,369.653 817.936,357.925C800.194,340.922 792.45,323.56 790.674,296.804C790.211,289.823 789.086,281.147 788.174,277.523C786.116,269.337 780.139,257.14 775.028,250.695C766.695,240.186 751.013,229.84 737.86,226.173C734.072,225.117 727.629,224.203 722.074,223.933C694.414,222.59 676.681,215.742 660.275,200.067C652.029,192.189 647.782,186.765 643.215,178.278C636.556,165.903 634.07,156.285 632.943,138.536C631.549,116.6 626.351,102.902 614.36,89.565C606.085,80.361 591.874,71.616 579.567,68.154C569.756,65.393 551.815,65.396 542.02,68.158C527.661,72.209 512.178,82.674 503.5,94.196C494.02,106.782 490.037,118.781 488.736,138.667C487.524,157.197 484.616,167.464 476.612,181.465C472.596,188.493 461.693,200.676 454.404,206.282C436.81,219.816 410.385,226.366 389.7,222.322C372.83,219.024 361.891,214.161 350.231,204.777C339.919,196.478 332.697,187.59 327.022,176.213C320.785,163.712 319.065,156.98 317.616,139.402C315.921,118.849 313.224,109.571 305.62,98.133C278.675,57.606 219.662,54.932 189.224,92.859C178.905,105.717 175.09,116.694 173.356,138.513C172.028,155.227 170.171,163.409 165.387,173.617C159.503,186.174 152.033,195.67 141.088,204.507C125.285,217.266 112.589,221.654 85.914,223.575C72.499,224.541 66.718,225.914 57.327,230.366C18.939,248.563 4.544,294.584 25.558,331.932C30.504,340.722 42.341,352.628 51.354,357.879C62.961,364.641 70.842,366.577 95.015,368.605C125.228,371.139 150.982,388.727 164.417,416C169.987,427.307 171.888,435.185 173.375,453.12C174.106,461.945 175.316,470.497 176.332,474.027C181.911,493.403 195.23,508.995 214.487,518.692C222.401,522.677 231.05,524.779 241.647,525.294C266.381,526.494 283.951,532.518 298.849,544.904C315.255,558.544 325.171,574.775 329.306,594.762C331.507,605.403 331.063,622.571 328.327,632.579C324.341,647.158 317.665,658.965 307.232,669.885C289.316,688.637 272.088,695.659 239.287,697.576C214.927,699 191.544,714.994 180.617,737.707C175.242,748.88 174.269,753.705 174.25,769.28C174.235,781.921 174.413,783.503 176.652,790.613C184.924,816.887 207.979,836.678 234.821,840.548C243.24,841.761 257.24,840.781 265.443,838.404ZM548.847,695.937C526.481,692.441 508.325,682.073 494.426,664.857C467.594,631.624 469.179,585.155 498.227,553.419C514.86,535.247 535.102,526.736 565.084,525.309C575.758,524.802 583.209,522.867 592.367,518.225C618.021,505.224 632.859,481.232 632.895,452.693C632.911,440.706 636.912,424.997 642.785,413.867C653.293,393.955 673.574,377.293 694.087,371.719C708.747,367.736 719.198,366.983 731.001,369.06C753.64,373.044 769.543,381.981 783.95,398.817C814.494,434.509 809.142,490.338 772.361,519.709C755.93,532.83 742.506,537.631 717.579,539.304C710.882,539.754 703.033,540.736 700.135,541.486C688.478,544.507 676.174,551.73 667.219,560.809C653.878,574.335 648.047,588.41 646.544,610.712C645.518,625.927 643.879,634.019 639.819,643.908C634.36,657.205 625.27,669.152 613.487,678.515C601.749,687.843 589.144,693.261 573.144,695.856C563.701,697.387 558.238,697.405 548.847,695.937L548.847,695.937ZM550.127,611.413C550.127,573.632 549.832,542.72 549.47,542.72C547.894,542.72 536.042,546.313 533.81,547.467L531.354,548.737L531.354,674.194L535.407,675.935C538.753,677.372 546.918,679.75 549.487,680.036C549.839,680.075 550.127,649.195 550.127,611.413ZM577.641,678.773C580.471,678.04 584.271,676.846 586.084,676.12L589.381,674.801L589.381,537.401L587.461,537.861C586.405,538.114 582.373,538.988 578.501,539.802L571.461,541.283L571.461,610.695C571.461,648.871 571.693,680.107 571.977,680.107C572.262,680.107 574.81,679.507 577.641,678.773ZM510.836,611.2L510.798,563.627L506.935,567.893C502.064,573.274 495.035,587.46 493.388,595.234C491.76,602.923 491.762,619.909 493.394,627.627C494.943,634.958 501.933,649.231 506.662,654.72C508.583,656.949 510.317,658.773 510.515,658.773C510.713,658.773 510.858,637.365 510.837,611.2L510.836,611.2ZM622.172,643.413C628.959,630.228 628.634,633.987 628.634,568.633L628.634,510.376L622.826,516.095C619.631,519.24 615.602,522.773 613.872,523.947L610.726,526.08L610.791,659.2L614.615,654.933C616.718,652.587 620.119,647.403 622.172,643.413L622.172,643.413ZM663.163,542.744L667.887,539.099L667.887,406.001L664.687,409.876C659.874,415.704 655.942,422.609 653.019,430.365L650.394,437.333L649.911,555.719L654.175,551.054C656.52,548.488 660.564,544.749 663.163,542.744L663.163,542.744ZM700.527,525.146L707.994,523.562L707.994,454.208C707.994,414.364 707.672,384.853 707.236,384.853C705.546,384.853 691.331,389.285 690.314,390.128C689.442,390.852 689.221,404.836 689.221,459.297L689.221,527.559L691.141,527.145C692.197,526.917 696.421,526.018 700.527,525.146ZM735.508,520.906C738.338,520.173 742.138,518.979 743.951,518.254L747.247,516.935L747.247,390.159L743.951,388.84C740.952,387.64 731.091,384.853 729.844,384.853C729.56,384.853 729.327,415.765 729.327,453.547C729.327,491.328 729.56,522.24 729.844,522.24C730.128,522.24 732.677,521.64 735.508,520.906ZM775.393,493.227C779.775,486.782 782.566,481.06 784.697,474.15C786.238,469.152 786.501,466.151 786.501,453.547C786.501,440.942 786.238,437.941 784.697,432.943C782.437,425.615 779.643,420.008 774.956,413.395C768.02,403.61 768.581,400.078 768.581,453.574L768.581,501.171L770.391,499.546C771.387,498.652 773.638,495.808 775.393,493.227ZM864.154,695.915C842.503,692.249 827.314,684.016 812.474,667.904C803.322,657.968 796.471,644.969 792.821,630.613C791.554,625.627 791.203,621.291 791.233,610.987C791.277,596.27 792.694,589.02 797.796,577.416C807.196,556.035 826.431,538.027 847.674,530.718C855.418,528.054 868.891,525.653 876.101,525.653C887.151,525.653 902.993,529.369 913.379,534.397C932.97,543.882 950.21,563.204 957.006,583.294C960.601,593.92 961.67,601.906 961.215,614.743C960.875,624.32 960.331,628.34 958.547,634.453C953.626,651.31 943.87,665.975 929.821,677.63C917.812,687.593 904.426,693.414 887.652,695.968C878.412,697.376 872.705,697.363 864.154,695.915L864.154,695.915ZM865.007,611.413C865.007,573.632 864.719,542.722 864.367,542.725C863.096,542.735 856.798,544.542 851.994,546.277L847.087,548.048L847.087,610.986C847.087,661.269 847.308,674.108 848.186,674.836C849.122,675.613 862.483,679.928 864.367,680.061C864.719,680.085 865.007,649.195 865.007,611.413ZM897.434,677.373C900.485,676.405 903.461,675.233 904.047,674.769C904.883,674.107 905.114,660.315 905.114,610.975L905.114,548.025L901.817,546.706C898.336,545.313 888.881,542.72 887.284,542.72C886.603,542.72 886.341,561.829 886.341,611.481L886.341,680.242L889.114,679.688C890.639,679.383 894.383,678.342 897.434,677.373ZM825.554,587.246L825.327,563.627L821.181,569.173C816.003,576.101 811.978,584.018 809.639,591.879C807.317,599.682 807.051,620.893 809.17,629.21C810.98,636.31 816.222,646.934 821.213,653.615L825.327,659.124L825.554,634.995C825.679,621.724 825.679,600.237 825.554,587.246ZM934.651,648.736C938.208,643.403 942.113,634.232 943.519,627.908C944.162,625.015 944.415,618.081 944.213,608.853C943.927,595.77 943.674,593.735 941.64,588.112C939.028,580.89 933.887,571.934 929.546,567.04L926.518,563.627L926.517,659.2L929.086,656.213C930.499,654.571 933.003,651.206 934.651,648.736ZM1494.29,695.843C1474.35,692.491 1458.39,684.094 1445.01,669.916C1432.78,656.946 1425.71,642.838 1422.6,625.163C1416.22,588.911 1435.72,551.259 1469.59,534.419C1479.55,529.468 1495.93,525.657 1507.26,525.655C1514.4,525.653 1527.58,528.14 1536.48,531.166C1554.85,537.412 1572.97,553.361 1582.57,571.717C1601.42,607.78 1592.51,651.401 1560.97,677.389C1548.81,687.418 1535.04,693.45 1518.66,695.934C1508.95,697.406 1503.46,697.385 1494.29,695.843L1494.29,695.843ZM1496.47,611.413C1496.47,546.546 1496.39,542.722 1494.98,542.757C1494.16,542.778 1490.22,543.85 1486.23,545.142L1478.98,547.491L1478.54,674.841L1482.17,676.228C1486.11,677.729 1493.69,679.907 1495.41,680.03C1496.25,680.091 1496.47,665.84 1496.47,611.413L1496.47,611.413ZM1523.35,678.882C1524.76,678.59 1528.12,677.547 1530.82,676.565L1535.73,674.779L1535.73,548.025L1532.43,546.706C1529.43,545.506 1519.57,542.72 1518.32,542.72C1518.04,542.72 1517.81,573.658 1517.81,611.471C1517.81,676.533 1517.89,680.2 1519.3,679.817C1520.12,679.594 1521.95,679.173 1523.35,678.882ZM1457.22,611.413C1457.22,585.365 1456.93,564.053 1456.57,564.053C1455.57,564.053 1449.25,572.46 1446.25,577.783C1444.77,580.406 1442.52,585.398 1441.25,588.876C1439.05,594.883 1438.94,595.992 1438.91,610.987C1438.88,626.069 1438.98,627.082 1441.25,633.682C1444.27,642.49 1454.06,658.469 1456.58,658.712C1456.93,658.746 1457.22,637.461 1457.22,611.413ZM1563.44,651.565C1568.12,644.952 1570.92,639.345 1573.18,632.017C1574.72,627.016 1574.98,624.019 1574.98,611.368C1574.98,597.938 1574.78,595.952 1572.85,589.911C1570.26,581.788 1565.23,572.593 1560.59,567.457L1557.13,563.627L1557.1,611.305C1557.06,664.892 1556.5,661.352 1563.44,651.565L1563.44,651.565ZM1810.07,695.902C1781.41,691.383 1756.68,672.978 1744.7,647.253C1739.85,636.835 1737.8,627.78 1737.33,614.743C1736.88,601.906 1737.95,593.92 1741.54,583.294C1748.34,563.204 1765.58,543.882 1785.17,534.397C1795.56,529.369 1811.4,525.653 1822.45,525.653C1829.58,525.653 1843.11,528.048 1850.66,530.644C1862.44,534.699 1873.36,541.742 1882.87,551.409C1900.52,569.354 1908.73,590.688 1907.57,615.576C1907.01,627.549 1904.59,637.095 1899.32,648.107C1894.41,658.361 1889.62,664.869 1880.73,673.338C1867.05,686.376 1854.17,692.59 1833.97,695.906C1824.98,697.381 1819.45,697.38 1810.07,695.901L1810.07,695.902ZM1812.21,611.413C1812.21,557.025 1811.99,542.721 1811.14,542.725C1809.49,542.733 1803.75,544.325 1798.34,546.277L1793.43,548.048L1793.43,610.986C1793.43,660.318 1793.66,674.107 1794.5,674.769C1796.03,675.978 1807.86,679.703 1811.14,680.008C1811.99,680.086 1812.21,665.852 1812.21,611.413ZM1841.74,677.923C1845.88,676.722 1849.77,675.331 1850.37,674.832C1851.24,674.109 1851.46,661.119 1851.46,610.986L1851.46,548.048L1846.55,546.277C1841.75,544.542 1835.45,542.734 1834.18,542.725C1833.83,542.722 1833.54,573.632 1833.54,611.413C1833.54,649.195 1833.69,680.107 1833.87,680.107C1834.05,680.107 1837.59,679.124 1841.74,677.923ZM1772.07,611.2L1772.03,563.627L1769,567.04C1764.68,571.909 1759.53,580.864 1756.88,588.112C1754.71,594.071 1754.61,595.082 1754.61,610.987C1754.61,629.056 1754.98,631.122 1760.2,642.032C1762.51,646.848 1770.67,658.773 1771.67,658.773C1771.91,658.773 1772.09,637.365 1772.07,611.2L1772.07,611.2ZM1877.51,653.44C1882.54,646.753 1886.58,638.781 1888.91,630.948C1890.42,625.872 1890.71,622.651 1890.71,611.198C1890.71,595.967 1889.66,590.892 1884.31,580.267C1881.68,575.049 1874.16,564.053 1873.22,564.053C1872.99,564.053 1872.79,585.365 1872.79,611.413C1872.79,637.461 1872.95,658.773 1873.15,658.773C1873.34,658.773 1875.31,656.374 1877.51,653.44ZM389.884,537.986C372.736,534.853 361.415,529.662 348.531,519.023C339.621,511.666 331.61,501.496 326.53,491.093C320.752,479.261 319.046,472.328 317.607,454.822C315.759,432.338 312.636,423.016 302.353,409.295C294.105,398.289 277.064,386.99 263.57,383.581C260.609,382.833 252.737,381.87 246.077,381.441C228.647,380.319 219.025,377.996 207.087,372.027C186.142,361.554 169.921,341.944 162.991,318.72C160.899,311.709 160.695,309.74 160.643,296.107C160.58,279.732 161.522,274.665 167.044,261.689C172.295,249.348 183.748,235.176 195.648,226.293C211.066,214.785 235.208,208.308 253.807,210.691C269.845,212.746 284.82,218.417 295.591,226.513C302.596,231.779 313.115,242.993 317.471,249.84C325.787,262.912 329.636,275.356 330.858,293.12C331.815,307.039 332.11,309.018 334.414,317.013C342.473,344.973 368.668,365.848 397.632,367.395C429.436,369.093 448.307,376.991 466.074,396.038C494.024,426.002 496.236,472.629 471.249,505.102C466.514,511.255 456.062,521.073 449.873,525.181C433.012,536.373 409.049,541.488 389.884,537.986ZM392.261,452.781L392.261,383.322L386.786,382.369C383.775,381.844 379.743,380.862 377.826,380.185L374.341,378.956L374.341,516.912L379.247,518.693C384.485,520.595 389.452,522.037 391.194,522.163C392.039,522.224 392.261,507.82 392.261,452.781ZM425.114,519.329L431.087,517.473L431.087,389.62L425.114,387.764C421.829,386.743 417.893,385.64 416.367,385.313L413.594,384.718L413.594,522.376L416.367,521.78C417.893,521.453 421.829,520.35 425.114,519.329ZM457.295,496.853C462.396,490.345 466.043,483.74 468.638,476.313C470.628,470.619 470.767,469.125 470.767,453.547C470.767,437.969 470.628,436.475 468.638,430.78C467.467,427.428 465.301,422.539 463.825,419.916C461.39,415.591 453.88,405.333 453.148,405.333C452.983,405.333 452.847,427.029 452.847,453.547C452.847,480.064 452.983,501.76 453.148,501.76C453.313,501.76 455.179,499.552 457.295,496.853ZM347.692,364.375C344.749,361.795 340.51,357.763 338.274,355.415L334.207,351.147L334.7,468.053L336.685,474.027C339.339,482.016 343.594,489.99 348.524,496.213L352.581,501.333L353.043,369.067L347.692,364.375ZM311.521,274.371C309.397,267.826 303.989,257.858 299.469,252.16L295.407,247.04L294.95,380.16L298.165,382.698C299.934,384.093 303.877,387.625 306.927,390.546L312.474,395.858L312.693,337.26C312.889,285.013 312.762,278.198 311.521,274.371L311.521,274.371ZM273.439,300.623L273.221,231.754L267.247,229.897C263.962,228.877 260.026,227.774 258.501,227.446L255.727,226.851L255.727,365.905L261.061,366.848C263.994,367.366 267.546,368.141 268.954,368.569C270.362,368.997 271.996,369.38 272.586,369.42C273.439,369.478 273.613,355.47 273.439,300.623ZM234.394,295.664L234.394,226.954L232.047,227.511C230.757,227.818 226.725,228.994 223.087,230.125L216.474,232.181L216.474,359.045L221.381,360.827C226.618,362.728 231.586,364.171 233.327,364.296C234.172,364.357 234.394,350.104 234.394,295.664ZM194.941,272.061L194.714,247.893L190.568,253.44C185.499,260.222 181.422,268.165 179.026,275.93C177.501,280.87 177.222,283.922 177.231,295.557C177.241,310.113 177.819,313.642 181.762,323.255C183.943,328.572 189.374,337.316 192.902,341.189L194.714,343.179L194.941,319.703C195.065,306.792 195.065,285.353 194.941,272.061ZM1020.94,538.017C987.619,532.415 961.174,509.032 951.464,476.587C949.338,469.482 949.166,467.755 949.166,453.547C949.166,439.338 949.338,437.611 951.464,430.507C956.563,413.469 966.244,398.947 980.247,387.33C997.342,373.148 1021.37,365.878 1042.45,368.509C1063.76,371.167 1080.03,379.024 1094.37,393.567C1110.98,410.414 1119.24,430.344 1119.24,453.547C1119.24,476.75 1110.98,496.679 1094.37,513.526C1080.73,527.358 1065.93,534.873 1045.92,538.122C1037.18,539.541 1029.82,539.51 1020.94,538.017L1020.94,538.017ZM1022.87,453.489C1022.87,388.427 1022.79,384.76 1021.38,385.143C1020.56,385.366 1018.74,385.787 1017.33,386.078C1015.92,386.37 1012.56,387.413 1009.86,388.395L1004.95,390.181L1004.95,516.912L1009.86,518.718C1013.98,520.235 1019.64,521.807 1022.23,522.154C1022.59,522.201 1022.87,491.302 1022.87,453.489ZM1055.73,519.461C1058.54,518.518 1061.33,517.367 1061.91,516.902C1062.75,516.24 1062.98,502.536 1062.98,453.547C1062.98,404.557 1062.75,390.853 1061.91,390.191C1060.53,389.091 1051.5,386.079 1047.41,385.348L1044.21,384.776L1044.21,522.317L1047.41,521.746C1049.17,521.432 1052.91,520.403 1055.73,519.461ZM983.421,429.379L983.194,405.76L978.707,411.733C973.963,418.048 970.231,425.155 967.675,432.742C965.4,439.492 965.413,467.62 967.693,474.453C970.294,482.245 973.896,489.115 978.667,495.385L983.193,501.333L983.42,477.166C983.545,463.874 983.545,442.37 983.42,429.379L983.421,429.379ZM1089.13,495.573C1093.91,489.123 1099.16,478.419 1100.93,471.501C1101.82,468.045 1102.23,462.291 1102.23,453.547C1102.23,438.76 1101.29,433.973 1096.36,423.68C1092.95,416.575 1085.8,406.187 1084.32,406.187C1083.76,406.187 1083.46,422.477 1083.46,453.547C1083.46,484.616 1083.76,500.907 1084.32,500.907C1084.79,500.907 1086.95,498.507 1089.13,495.573ZM1651.78,538.046C1633.15,534.886 1619.59,528.189 1606.51,515.697C1597.39,506.984 1592.64,500.544 1587.71,490.24C1581.24,476.722 1579.74,469.798 1579.74,453.547C1579.74,437.295 1581.24,430.371 1587.71,416.853C1595.99,399.536 1610.01,385.32 1627.46,376.533C1637.66,371.399 1648.53,368.916 1665.86,367.766C1680.16,366.817 1687.88,364.838 1697.91,359.557C1711.34,352.486 1721.4,342.508 1728.58,329.138C1733.41,320.149 1735.28,312.337 1736.69,295.197C1739.22,264.614 1747.95,246.741 1768.88,229.344C1785.48,215.544 1810.66,207.93 1830.65,210.667C1852.18,213.615 1866.55,220.237 1880.73,233.755C1889.62,242.224 1894.41,248.732 1899.32,258.987C1904.7,270.234 1906.83,279.018 1907.85,294.279C1908.82,308.689 1910.85,317.865 1915,326.608C1920.38,337.959 1926.95,345.998 1936.72,353.199C1948.72,362.051 1961.07,366.675 1974.65,367.399C2003.8,368.953 2020.99,375.292 2037.58,390.609C2062.99,414.057 2071.97,448.895 2060.96,481.264C2052.4,506.424 2030.33,527.812 2005.38,535.108C1997.51,537.411 1986.16,539.274 1979.89,539.291C1974.19,539.307 1962.83,537.486 1955.6,535.4C1933.65,529.071 1914.29,512.777 1903.96,491.947C1897.72,479.372 1896.03,472.701 1894.54,454.827C1893.82,446.079 1892.57,437.274 1891.54,433.571C1884.12,406.927 1860.38,386.096 1833,382.203C1824.32,380.968 1810.96,381.783 1802.82,384.045C1784.34,389.182 1766.37,404.001 1758,421.024C1753.36,430.457 1751.7,437.58 1750.31,453.973C1749.07,468.696 1747.52,476.588 1744.15,485.286C1737.14,503.389 1721.07,520.812 1702.98,529.914C1687.21,537.849 1668.31,540.851 1651.78,538.046ZM1654.34,453.479L1654.34,384.718L1651.57,385.272C1647.31,386.123 1637.83,389.246 1636.63,390.191C1635.8,390.853 1635.57,404.557 1635.57,453.547C1635.57,502.536 1635.8,516.24 1636.63,516.902C1638.16,518.111 1649.99,521.837 1653.27,522.141C1654.12,522.219 1654.34,507.972 1654.34,453.479ZM1680.37,521.343C1682.25,520.855 1685.99,519.658 1688.69,518.683L1693.59,516.912L1693.59,379.277L1675.67,383.573L1675.67,452.906C1675.67,491.04 1675.96,522.238 1676.31,522.235C1676.67,522.233 1678.49,521.831 1680.37,521.343ZM1969.22,452.828L1969.22,383.416L1962.18,381.935C1958.31,381.121 1954.28,380.248 1953.22,379.995L1951.3,379.534L1951.3,516.912L1956.21,518.693C1961.44,520.595 1966.41,522.037 1968.15,522.163C1969,522.224 1969.22,507.83 1969.22,452.828ZM1999.61,520.056C2003.75,518.855 2007.63,517.464 2008.23,516.965C2009.11,516.242 2009.33,503.332 2009.33,453.547C2009.33,403.762 2009.11,390.851 2008.23,390.128C2007.22,389.285 1993,384.853 1991.31,384.853C1990.44,384.853 1990.25,520.798 1991.12,521.671C1991.85,522.395 1990.93,522.569 1999.61,520.056L1999.61,520.056ZM1615.09,453.547C1615.09,425.466 1614.77,406.187 1614.31,406.187C1613.02,406.187 1605.72,416.431 1602.64,422.552C1597.65,432.462 1596.31,438.996 1596.31,453.547C1596.31,468.102 1597.65,474.641 1602.64,484.541C1605.87,490.942 1612.93,500.907 1614.23,500.907C1614.79,500.907 1615.09,484.616 1615.09,453.547ZM1724.46,488.794C1726.33,485.653 1728.89,480.277 1730.14,476.848L1732.42,470.613L1732.89,352.087L1726.26,358.517C1722.61,362.054 1718.57,365.631 1717.27,366.465L1714.93,367.983L1715,501.333L1718.03,497.92C1719.69,496.043 1722.59,491.936 1724.46,488.794L1724.46,488.794ZM1929.96,434.56L1929.95,368.213L1927.05,366.239C1925.46,365.153 1921.43,361.556 1918.1,358.246L1912.05,352.227L1912.05,410.264C1912.05,466.783 1912.09,468.453 1913.84,474.15C1916.13,481.637 1920.39,489.778 1925.28,496C1927.4,498.699 1929.32,500.907 1929.55,500.907C1929.78,500.907 1929.96,471.051 1929.96,434.56L1929.96,434.56ZM2035.11,495.787C2039.28,490.498 2043.04,483.58 2045.81,476.084C2048.05,470.012 2048.15,469.114 2048.15,453.547C2048.15,438 2048.05,437.075 2045.82,431.044C2042.92,423.208 2038.63,415.547 2034.12,410.147L2030.66,406.001L2030.66,453.624C2030.66,479.817 2030.98,500.883 2031.37,500.437C2031.76,499.991 2033.44,497.899 2035.11,495.787ZM1888.91,276.165C1886.56,268.248 1882.54,260.335 1877.37,253.465L1873.22,247.945L1872.75,381.013L1875.54,383.117C1877.08,384.274 1881.03,387.922 1884.31,391.224L1890.29,397.227L1890.51,339.739C1890.72,283.3 1890.69,282.14 1888.91,276.165L1888.91,276.165ZM1769.76,382.683L1772.12,381.013L1771.67,247.893L1767.19,253.867C1762.69,259.858 1759.18,266.387 1756.2,274.347C1754.71,278.342 1754.59,282.386 1754.37,337.877L1754.13,397.14L1760.77,390.746C1764.42,387.23 1768.47,383.601 1769.76,382.683L1769.76,382.683ZM1850.4,232.404C1849.57,231.593 1835.52,226.987 1833.87,226.987C1833.69,226.987 1833.54,258.265 1833.54,296.495L1833.54,366.003L1836.74,366.546C1838.5,366.845 1842.44,367.73 1845.49,368.513L1851.03,369.936L1851.25,301.697C1851.42,247.827 1851.24,233.236 1850.4,232.404L1850.4,232.404ZM1804.74,367.28L1812.21,365.695L1812.21,226.851L1809.43,227.405C1805.17,228.256 1795.7,231.379 1794.5,232.325C1793.66,232.988 1793.43,247.84 1793.43,301.431L1793.43,369.692L1795.35,369.278C1796.41,369.05 1800.63,368.151 1804.74,367.28ZM545.634,379.743C525.315,375.46 511.339,367.81 498.504,353.947C469.249,322.349 467.54,275.536 494.426,242.236C508.998,224.187 527.868,213.877 552.14,210.701C571.642,208.15 594.937,214.559 611.484,227.027C628.32,239.714 640.122,257.847 644.502,277.76C646.868,288.52 646.543,306.202 643.787,316.596C638.575,336.258 627.686,352.284 611.141,364.645C592.586,378.506 567.354,384.322 545.634,379.743ZM550.127,295.664L550.127,226.954L547.781,227.483C541.678,228.857 538.706,229.748 535.178,231.26L531.354,232.899L531.354,358.356L533.836,359.64C536.291,360.909 546.998,364.196 549.061,364.313C549.906,364.361 550.127,350.095 550.127,295.664ZM582.981,361.463L588.954,359.607L589.391,232.296L586.089,230.975C583.087,229.774 573.226,226.987 571.977,226.987C571.693,226.987 571.461,257.929 571.461,295.748L571.461,364.509L574.234,363.914C575.759,363.586 579.695,362.483 582.981,361.463L582.981,361.463ZM618.867,333.503C620.954,330.37 623.907,324.802 625.429,321.13C628.182,314.485 628.197,314.374 628.479,297.612C628.711,283.811 628.505,279.882 627.339,275.852C625.275,268.713 619.03,257.086 614.615,252.16L610.79,247.893L610.757,296.107L610.722,344.32L612.897,341.76C614.093,340.352 616.78,336.636 618.867,333.503L618.867,333.503ZM510.836,295.467L510.798,247.893L506.968,252.16C502.048,257.642 495.015,271.789 493.392,279.467C491.762,287.184 491.76,304.171 493.387,311.859C494.958,319.276 501.959,333.619 506.627,338.987C508.566,341.216 510.314,343.04 510.512,343.04C510.711,343.04 510.856,321.632 510.835,295.467L510.836,295.467ZM1493.49,380.159C1474.96,376.757 1461.62,370.136 1448.79,357.973C1441.06,350.649 1436.1,344.285 1431.61,335.967C1414.29,303.864 1419.52,264.496 1444.67,237.498C1458.8,222.334 1476.3,213.604 1498.34,210.72C1519.21,207.991 1543.6,215.384 1560.97,229.704C1592.51,255.692 1601.42,299.313 1582.57,335.376C1572.97,353.732 1554.85,369.681 1536.48,375.927C1521.5,381.022 1506.33,382.516 1493.49,380.159ZM1496.47,295.68C1496.47,257.899 1496.24,226.987 1495.96,226.987C1494.71,226.987 1484.85,229.774 1481.85,230.975L1478.54,232.296L1478.98,359.603L1486.23,361.951C1490.22,363.243 1494.16,364.317 1494.98,364.337C1496.39,364.371 1496.47,360.547 1496.47,295.68L1496.47,295.68ZM1523.99,363.04C1526.82,362.306 1530.62,361.113 1532.43,360.387L1535.73,359.068L1535.73,232.315L1530.82,230.528C1528.12,229.546 1524.76,228.503 1523.35,228.212C1521.95,227.92 1520.12,227.499 1519.3,227.277C1517.89,226.893 1517.81,230.56 1517.81,295.623C1517.81,333.435 1518.04,364.373 1518.32,364.373C1518.61,364.373 1521.16,363.773 1523.99,363.04ZM1457.22,295.68C1457.22,269.632 1457.01,248.32 1456.75,248.32C1454.38,248.32 1444.21,264.772 1441.24,273.419C1438.98,280.01 1438.88,281.029 1438.91,296.107C1438.94,311.101 1439.05,312.211 1441.25,318.217C1442.52,321.695 1444.77,326.687 1446.25,329.31C1449.25,334.634 1455.57,343.04 1456.57,343.04C1456.93,343.04 1457.22,321.728 1457.22,295.68ZM1567.39,329.823C1569.22,326.532 1571.68,320.844 1572.85,317.183C1574.78,311.141 1574.98,309.155 1574.98,295.726C1574.98,283.075 1574.72,280.077 1573.18,275.077C1570.92,267.748 1568.12,262.141 1563.44,255.528C1556.5,245.742 1557.06,242.201 1557.1,295.789L1557.13,343.467L1560.59,339.636C1562.5,337.529 1565.56,333.113 1567.39,329.823L1567.39,329.823ZM192.794,698.495L195.141,696.977L195.141,525.85L192.794,524.332C191.503,523.497 187.471,519.931 183.834,516.406L177.221,509.997L177.221,712.829L183.834,706.421C187.471,702.896 191.503,699.329 192.794,698.495ZM2083.8,699.26L2087.88,695.893L2087.41,563.341L2083.14,568.781C2078.1,575.202 2074.02,582.87 2071.64,590.383C2069.98,595.602 2069.91,598.001 2069.91,654.139L2069.91,712.471L2074.82,707.548C2077.52,704.841 2081.56,701.111 2083.8,699.26ZM228.919,682.592L234.394,681.638L234.394,541.091L231.194,540.553C229.434,540.257 225.402,539.334 222.234,538.501L216.474,536.987L216.474,686.004L219.959,684.775C221.876,684.098 225.908,683.116 228.919,682.592ZM2120.05,682.901L2127.09,681.429L2127.09,612.074C2127.09,573.929 2126.86,542.72 2126.57,542.72C2125.32,542.72 2115.46,545.506 2112.46,546.706L2109.17,548.025L2109.17,685.426L2111.09,684.9C2112.14,684.61 2116.18,683.711 2120.05,682.901ZM267.247,677.196L273.221,675.34L273.221,547.484L267.674,545.595C264.623,544.556 260.687,543.441 258.927,543.118L255.727,542.53L255.727,680.242L258.501,679.647C260.026,679.32 263.962,678.217 267.247,677.196ZM2157.8,677.816C2160.37,677.108 2163.54,675.979 2164.84,675.309L2167.19,674.09L2167.19,548.737L2164.74,547.467C2162.51,546.313 2150.65,542.72 2149.08,542.72C2148.72,542.72 2148.42,573.639 2148.42,611.43L2148.42,680.139L2150.77,679.622C2152.06,679.337 2155.22,678.525 2157.8,677.816ZM2442.82,611.318L2442.82,542.53L2439.62,543.118C2437.86,543.441 2433.93,544.556 2430.87,545.595L2425.33,547.484L2425.11,610.974C2424.99,645.893 2425.18,674.75 2425.53,675.101C2426.22,675.782 2439.97,679.985 2441.75,680.061C2442.6,680.097 2442.82,665.804 2442.82,611.318L2442.82,611.318ZM2475.46,676.975L2482.07,674.847L2482.07,537.144L2464.15,541.439L2464.15,680.139L2466.5,679.621C2467.79,679.336 2471.82,678.145 2475.46,676.975ZM301.356,652.418C305.634,646.383 309.072,639.768 311.307,633.272C313.658,626.439 313.658,596.387 311.307,589.554C309.072,583.059 305.634,576.444 301.356,570.409C294.417,560.619 294.981,556.993 294.981,611.413C294.981,665.834 294.417,662.208 301.356,652.418ZM2403.37,587.367L2403.14,562.773L2399.08,567.893C2394.43,573.768 2389.72,582.36 2387.31,589.357C2385.88,593.504 2385.65,596.561 2385.65,610.965C2385.65,629.313 2386.21,632.634 2390.95,642.133C2392.36,644.949 2395.68,650.133 2398.33,653.653L2403.14,660.053L2403.37,636.007C2403.49,622.782 2403.49,600.894 2403.37,587.367ZM2510.05,650.842C2514.52,644.384 2518.22,636.495 2520.16,629.333C2521.07,625.952 2521.31,613.132 2521.32,567.532L2521.33,509.997L2514.71,516.406C2511.08,519.931 2507.05,523.497 2505.75,524.332L2503.41,525.85L2503.41,592.416C2503.41,649.502 2503.58,658.841 2504.61,657.987C2505.27,657.439 2507.72,654.224 2510.05,650.842L2510.05,650.842ZM2192.82,653.517C2197.57,647.516 2203.65,634.722 2205.17,627.558C2206.77,620.001 2206.78,602.894 2205.19,595.4C2203.1,585.533 2195.75,571.323 2189.88,565.825L2187.67,563.756L2187.67,610.838C2187.67,640.91 2187.97,657.92 2188.51,657.92C2188.97,657.92 2190.91,655.939 2192.82,653.517L2192.82,653.517ZM2556.47,542.091L2560.58,538.956L2560.58,368.137L2556.47,365.002C2554.21,363.278 2550.18,359.579 2547.51,356.783L2542.66,351.7L2542.66,555.393L2547.51,550.31C2550.18,547.514 2554.21,543.816 2556.47,542.091ZM1338.61,452.827L1338.61,383.413L1331.57,382.003C1327.69,381.228 1323.66,380.355 1322.61,380.064L1320.69,379.534L1320.69,516.979L1324.31,518.364C1328.24,519.863 1335.82,522.041 1337.54,522.164C1338.39,522.224 1338.61,507.829 1338.61,452.827ZM1366.12,520.906C1368.95,520.173 1372.75,518.979 1374.56,518.254L1377.86,516.935L1377.86,390.159L1374.56,388.84C1371.57,387.64 1361.7,384.853 1360.46,384.853C1360.17,384.853 1359.94,415.765 1359.94,453.547C1359.94,491.328 1360.17,522.24 1360.46,522.24C1360.74,522.24 1363.29,521.64 1366.12,520.906ZM1294.9,365.263C1292.42,363.172 1288.38,359.393 1285.91,356.866L1281.43,352.271L1281.43,410.829C1281.43,467.943 1281.48,469.518 1283.21,474.694C1285.77,482.291 1291.08,492.119 1295.3,497.025L1298.93,501.251L1299.17,435.159L1299.41,369.067L1294.9,365.263ZM1405.66,493.992C1409.34,488.979 1413.96,479.66 1415.74,473.658C1417.69,467.088 1417.7,440.046 1415.75,433.435C1413.7,426.481 1407.41,414.842 1403.09,410.027L1399.27,405.76L1399.19,501.171L1400.97,499.561C1401.95,498.675 1404.06,496.169 1405.66,493.992L1405.66,493.992ZM1260.1,295.49L1260.1,194.179L1254.34,199.774C1251.17,202.852 1246.95,206.618 1244.95,208.143L1241.33,210.917L1241.33,380.343L1247.51,385.427C1250.92,388.224 1254.85,391.899 1256.26,393.594C1257.67,395.29 1259.11,396.705 1259.46,396.738C1259.81,396.772 1260.1,351.21 1260.1,295.49ZM2520.43,279.138C2518.96,272.295 2514.83,263.174 2510.05,256.251C2507.72,252.869 2505.27,249.654 2504.61,249.106C2503.58,248.253 2503.41,257.589 2503.41,314.659L2503.41,381.208L2506.61,383.428C2508.37,384.65 2512.3,388.169 2515.35,391.249L2520.9,396.85L2521.16,340.292C2521.35,299.824 2521.14,282.426 2520.43,279.138L2520.43,279.138ZM2482.07,301.297L2482.07,232.247L2475.46,230.119C2471.82,228.948 2467.79,227.757 2466.5,227.472L2464.15,226.954L2464.15,365.685L2472.9,367.88C2477.71,369.087 2481.74,370.136 2481.86,370.211C2481.98,370.285 2482.07,339.274 2482.07,301.297ZM1219.99,295.58L1219.99,221.668L1218.07,222.194C1217.02,222.483 1212.99,223.382 1209.11,224.192L1202.07,225.665L1202.07,365.905L1207.41,366.848C1210.34,367.366 1213.89,368.141 1215.3,368.569C1216.71,368.997 1218.34,369.38 1218.93,369.42C1219.77,369.478 1219.99,354.181 1219.99,295.58ZM865.007,294.998L865.007,225.623L856.679,223.745C852.098,222.712 848.066,221.867 847.719,221.867C847.371,221.867 847.087,252.732 847.087,290.456L847.087,359.045L851.994,360.827C857.232,362.728 862.199,364.171 863.941,364.296C864.786,364.357 865.007,349.971 865.007,294.998ZM893.374,363.04C896.205,362.306 900.004,361.113 901.817,360.387L905.114,359.068L905.114,296.119C905.114,246.778 904.883,232.986 904.047,232.325C902.852,231.379 893.373,228.256 889.114,227.405L886.341,226.851L886.341,295.612C886.341,345.265 886.603,364.373 887.284,364.373C887.803,364.373 890.544,363.773 893.374,363.04ZM1180.74,295.623C1180.74,230.56 1180.66,226.893 1179.25,227.277C1178.43,227.499 1176.6,227.92 1175.19,228.212C1173.79,228.503 1170.43,229.546 1167.73,230.528L1162.82,232.315L1162.82,359.112L1166.45,360.497C1170.37,361.996 1177.95,364.174 1179.67,364.297C1180.52,364.358 1180.74,350.095 1180.74,295.623ZM2442.82,295.612L2442.82,226.851L2440.05,227.446C2438.52,227.774 2434.59,228.877 2431.3,229.897L2425.33,231.753L2424.89,359.291L2427.24,360.247C2430.8,361.693 2439.64,364.244 2441.33,364.313C2442.74,364.37 2442.82,360.553 2442.82,295.612L2442.82,295.612ZM2403.37,271.634L2403.14,247.04L2398.33,253.44C2395.68,256.96 2392.36,262.144 2390.95,264.96C2386.21,274.459 2385.65,277.78 2385.65,296.128C2385.65,310.533 2385.88,313.589 2387.31,317.736C2389.72,324.733 2394.43,333.325 2399.08,339.2L2403.14,344.32L2403.37,320.274C2403.49,307.049 2403.49,285.161 2403.37,271.634L2403.37,271.634ZM823.415,208.677C822.12,207.759 818.085,204.14 814.447,200.636L807.834,194.264L807.834,251.707C807.834,307.711 807.879,309.301 809.639,315.215C811.978,323.075 816.003,330.992 821.181,337.92L825.327,343.467L825.769,210.347L823.415,208.677ZM935.98,330.928C937.853,327.786 940.4,322.41 941.64,318.981C943.674,313.359 943.927,311.323 944.213,298.24C944.415,289.012 944.163,282.078 943.519,279.185C941.403,269.669 935.804,258.69 929.086,250.88L926.517,247.893L926.518,343.467L929.546,340.053C931.212,338.176 934.107,334.069 935.98,330.928ZM1141.45,295.467L1141.42,247.893L1138.38,251.307C1133.71,256.555 1128.02,266.807 1125.68,274.177C1123.77,280.198 1123.57,282.25 1123.57,295.634C1123.57,312.218 1124.58,317.215 1130.05,327.68C1132.7,332.75 1140.08,343.04 1141.07,343.04C1141.3,343.04 1141.47,321.632 1141.45,295.467L1141.45,295.467Z" style="fill:white;"/>
</svg>
