<?xml version="1.0" encoding="UTF-8" standalone="no"?>
<!DOCTYPE svg PUBLIC "-//W3C//DTD SVG 1.1//EN" "http://www.w3.org/Graphics/SVG/1.1/DTD/svg11.dtd">
<svg width="100%" height="100%" viewBox="0 0 757 267" version="1.1" xmlns="http://www.w3.org/2000/svg" xmlns:xlink="http://www.w3.org/1999/xlink" xml:space="preserve" xmlns:serif="http://www.serif.com/" style="fill-rule:evenodd;clip-rule:evenodd;stroke-linejoin:round;stroke-miterlimit:2;">
    <g transform="matrix(1,0,0,1,3.60591,-52.6262)">
        <g transform="matrix(0.15986,0,0,0.170696,-26.7718,58.28)">
            <path d="M144.914,0.091L144.914,-33.122L243.852,-33.122L243.852,0.091L243.773,0.091C243.793,68.753 303.44,124.594 376.761,124.595C450.098,124.594 509.785,68.731 509.78,0.05L509.78,0.025L509.798,0.025L509.798,-33.122L777.727,-33.122L777.727,0.091L777.666,0.091C777.685,68.753 837.332,124.594 910.653,124.595C983.977,124.594 1043.65,68.753 1043.67,0.091L1043.67,-33.122L1312.26,-33.122L1312.26,0.091L1311.56,0.091C1311.58,68.753 1371.23,124.594 1444.55,124.595C1517.87,124.594 1577.55,68.753 1577.57,0.091L1576.81,0.091L1576.81,-33.122L1845.39,-33.122L1845.39,0.025L1845.45,0.025L1845.45,0.05C1845.45,68.731 1905.1,124.594 1978.44,124.595C2051.76,124.594 2111.44,68.753 2111.46,0.091L2109.95,0.091L2109.95,-33.122L2378.53,-33.122L2378.53,0.091L2378.41,0.091C2378.36,68.2 2319.61,123.717 2247.09,124.575L2245.39,124.585L2243.68,124.575C2171.13,125.433 2112.39,180.962 2112.4,249.11C2112.4,317.788 2172.05,373.684 2245.39,373.685C2318.72,373.684 2378.41,317.788 2378.41,249.11C2378.4,180.962 2437.14,125.433 2509.69,124.575L2511.39,124.565L2513.1,124.575C2585.64,123.717 2644.4,68.164 2644.41,0.025L2644.48,0.025L2644.48,-33.122L2913.06,-33.122L2913.06,0.025L2913.24,0.025L2913.24,0.05C2913.23,68.198 2971.97,123.727 3044.52,124.585L3046.22,124.575L3047.93,124.585C3120.48,125.443 3179.24,181.005 3179.24,249.15C3179.24,317.298 3237.97,372.827 3310.53,373.685L3312.23,373.675L3313.93,373.685C3386.49,372.827 3445.26,317.298 3445.25,249.15C3445.25,181.005 3386.49,125.443 3313.93,124.585L3312.23,124.595L3310.53,124.585C3237.99,123.727 3179.26,68.22 3179.24,0.091L3179.01,0.091L3179.01,-33.122L3447.59,-33.122L3447.59,0.091L3447.13,0.091C3447.15,68.753 3506.8,124.594 3580.12,124.595C3653.44,124.594 3713.12,68.753 3713.14,0.091L3713.1,0.091L3713.1,-33.122L3981.69,-33.122L3981.69,0.091L3981.02,0.091C3981.04,68.753 4040.69,124.594 4114.01,124.595C4187.35,124.594 4247.03,68.731 4247.03,0.05L4247.03,0.025L4247.05,0.025L4247.05,-33.122L4515.63,-33.122L4515.63,0.091L4514.91,0.091C4514.93,68.753 4574.58,124.594 4647.9,124.595C4721.23,124.594 4780.9,68.753 4780.92,0.091L4780.92,-33.122L4877.4,-33.122L4877.4,0.025L4877.41,0.025C4877.4,86.77 4877.41,410.785 4877.41,498.216L4877.41,498.313C4877.36,585.695 4877.41,909.657 4877.41,996.411C4877.41,997.315 4877.4,998.216 4877.39,999.116C4877.4,1000 4877.41,1000.91 4877.41,1001.82C4877.41,1088.57 4874.28,1410.34 4877.32,1494.6L4877.4,1494.6L4877.4,1527.81L4780.92,1527.81L4780.92,1494.6L4780.8,1494.6C4777.74,1428.44 4719.29,1375.48 4647.9,1375.48C4576.52,1375.48 4518.1,1428.44 4515.04,1494.6L4515.63,1494.6L4515.63,1527.81L4247.05,1527.81L4247.05,1494.6L4246.9,1494.6C4243.85,1428.44 4185.39,1375.48 4114.01,1375.48C4042.63,1375.48 3984.2,1428.44 3981.15,1494.6L3981.69,1494.6L3981.69,1527.81L3713.1,1527.81L3713.1,1494.6L3712.11,1494.6C3709.56,1428.55 3651.81,1375.42 3580.88,1374.59L3579.18,1374.6L3577.47,1374.59C3504.92,1373.73 3446.19,1318.2 3446.19,1250.05C3446.19,1181.37 3386.5,1125.48 3313.17,1125.48C3239.84,1125.48 3180.18,1181.37 3180.18,1250.05C3180.18,1318.2 3238.91,1373.73 3311.47,1374.59L3313.17,1374.58L3314.87,1374.59C3385.8,1375.42 3443.56,1428.55 3446.1,1494.6L3447.59,1494.6L3447.59,1527.81L3179.01,1527.81L3179.01,1494.6L3179.12,1494.6C3176.06,1428.44 3117.61,1375.48 3046.22,1375.48C2974.84,1375.48 2916.42,1428.44 2913.36,1494.6L2913.06,1494.6L2913.06,1527.81L2644.48,1527.81L2644.48,1494.6L2643.34,1494.6C2640.76,1428.03 2582.11,1374.6 2510.41,1374.6C2437.64,1374.6 2378.35,1319.59 2377.43,1251.64L2377.42,1250.05L2377.43,1248.46C2376.52,1180.51 2317.19,1125.48 2244.42,1125.48C2171.66,1125.47 2112.36,1180.51 2111.45,1248.46L2111.46,1250.05L2111.45,1251.64C2110.53,1319.59 2051.2,1374.59 1978.44,1374.6C1906.74,1374.59 1848.12,1428.03 1845.54,1494.6L1845.39,1494.6L1845.39,1527.81L1576.81,1527.81L1576.81,1494.6L1577.62,1494.6C1579.67,1428.13 1637.6,1374.53 1708.85,1373.68L1710.55,1373.67L1712.26,1373.68C1784.81,1372.83 1843.58,1317.3 1843.57,1249.15C1843.57,1181.01 1784.81,1125.44 1712.26,1124.59L1710.55,1124.6L1708.85,1124.59C1636.3,1123.73 1577.56,1068.2 1577.57,1000.05C1577.57,931.372 1517.88,875.476 1444.55,875.475C1371.21,875.476 1311.56,931.372 1311.56,1000.05C1311.55,1068.2 1370.29,1123.73 1442.84,1124.59L1444.55,1124.58L1446.25,1124.59C1518.8,1125.44 1577.57,1181.01 1577.57,1249.15C1577.57,1317.3 1518.81,1372.83 1446.25,1373.68L1444.55,1373.69L1442.84,1373.68C1371.59,1374.53 1313.67,1428.13 1311.62,1494.6L1312.26,1494.6L1312.26,1527.81L1043.67,1527.81L1043.67,1494.6L1043.55,1494.6C1040.49,1428.44 982.037,1375.48 910.653,1375.48C839.271,1375.48 780.849,1428.44 777.792,1494.6L777.727,1494.6L777.727,1527.81L509.798,1527.81L509.798,1494.6L509.866,1494.6C512.386,1428.53 570.118,1375.41 641.065,1374.58L642.767,1374.57L644.47,1374.58C717.022,1373.72 775.787,1318.16 775.787,1250.01C775.792,1181.86 717.027,1126.33 644.47,1125.48L642.767,1125.49L641.065,1125.48C568.51,1126.33 509.777,1181.86 509.78,1250.01C509.78,1318.16 451.016,1373.72 378.463,1374.58L376.761,1374.59L375.059,1374.58C304.111,1375.41 246.375,1428.53 243.856,1494.6L243.852,1527.81L144.914,1527.81L144.914,1494.6L145.011,1494.6C148.044,1410.34 144.915,1088.57 144.914,1001.82C144.914,1000.91 144.922,1000 144.938,999.116C144.922,998.216 144.914,997.315 144.914,996.411C144.909,909.657 144.969,585.695 144.914,498.313L144.914,498.216C144.908,410.785 144.955,86.806 144.914,0.091ZM642.005,374.585L643.707,374.575L645.409,374.585C717.962,375.443 776.726,431.005 776.726,499.15C776.723,567.298 835.457,622.827 908.012,623.685L909.714,623.675L911.417,623.685C983.973,622.827 1042.74,567.298 1042.73,499.15C1042.73,431.005 983.969,375.443 911.417,374.585L909.714,374.595L908.012,374.585C835.457,373.727 776.723,318.198 776.726,250.05C776.726,181.372 717.04,125.476 643.707,125.475C570.375,125.476 510.721,181.372 510.72,250.05C510.715,318.198 569.45,373.727 642.005,374.585ZM1978.44,875.475C1905.11,875.476 1845.45,931.372 1845.45,1000.05C1845.45,1068.73 1905.1,1124.59 1978.44,1124.6C2051.78,1124.59 2111.46,1068.73 2111.46,1000.05C2111.46,931.372 2051.77,875.476 1978.44,875.475ZM4379.25,1124.58C4306.7,1125.43 4247.96,1180.96 4247.97,1249.11C4247.97,1317.79 4307.62,1373.68 4380.96,1373.68C4454.29,1373.68 4513.98,1317.79 4513.98,1249.11C4513.97,1180.96 4572.71,1125.43 4645.26,1124.58L4646.96,1124.57L4648.67,1124.58C4721.22,1123.72 4779.98,1068.16 4779.98,1000.01C4779.99,931.862 4721.22,876.333 4648.67,875.475L4646.96,875.485L4645.26,875.475C4572.71,876.333 4513.97,931.862 4513.98,1000.01C4513.98,1068.16 4455.21,1123.72 4382.66,1124.58L4380.96,1124.59L4379.25,1124.58ZM1177.6,1125.48C1104.27,1125.48 1044.61,1181.37 1044.61,1250.05C1044.61,1318.73 1104.26,1374.59 1177.6,1374.6C1250.94,1374.59 1310.62,1318.73 1310.62,1250.05C1310.62,1181.37 1250.93,1125.48 1177.6,1125.48ZM4114.01,375.475C4040.68,375.476 3981.02,431.372 3981.02,500.05C3981.02,568.731 4040.67,624.594 4114.01,624.595C4187.35,624.594 4247.03,568.731 4247.03,500.05C4247.03,431.372 4187.34,375.476 4114.01,375.475ZM4379.25,374.585L4380.96,374.575L4382.66,374.585C4455.21,375.443 4513.98,431.005 4513.98,499.15C4513.98,567.298 4455.22,622.827 4382.66,623.685L4380.96,623.695L4379.25,623.685C4306.7,624.543 4247.97,680.105 4247.97,748.25C4247.96,816.931 4307.62,872.794 4380.96,872.795C4454.29,872.794 4513.98,816.931 4513.98,748.25C4513.98,680.105 4572.71,624.543 4645.26,623.685L4646.96,623.675L4648.67,623.685C4721.22,622.827 4779.99,567.298 4779.98,499.15C4779.98,431.005 4721.22,375.443 4648.67,374.585L4646.96,374.595L4645.26,374.585C4572.71,373.727 4513.97,318.198 4513.98,250.05C4513.98,181.372 4454.29,125.476 4380.96,125.475C4307.62,125.476 4247.97,181.372 4247.97,250.05C4247.96,318.198 4306.7,373.727 4379.25,374.585ZM2911.33,998.426L2911.34,1000.02L2911.33,1001.61C2910.41,1069.56 2851.08,1124.6 2778.32,1124.6C2705.55,1124.6 2646.26,1069.57 2645.34,1001.61L2645.33,1000.02L2645.34,998.426C2644.42,930.481 2585.1,875.476 2512.33,875.475C2439,875.471 2379.35,931.34 2379.34,1000.02C2379.35,1068.7 2439,1124.6 2512.33,1124.6C2585.1,1124.6 2644.42,1179.6 2645.34,1247.55L2645.35,1249.14L2645.34,1250.74C2646.26,1318.68 2705.55,1373.72 2778.32,1373.71C2851.08,1373.71 2910.41,1318.68 2911.33,1250.74L2911.32,1249.14L2911.33,1247.55C2912.24,1179.6 2971.53,1124.59 3044.3,1124.6C3117.64,1124.6 3177.32,1068.7 3177.32,1000.02C3177.32,931.343 3117.64,875.476 3044.3,875.475C2971.53,875.471 2912.24,930.477 2911.33,998.426ZM3847.06,125.475C3773.73,125.476 3714.08,181.372 3714.08,250.05C3714.07,318.731 3773.73,374.594 3847.06,374.595C3920.4,374.594 3980.09,318.731 3980.08,250.05C3980.08,181.372 3920.4,125.476 3847.06,125.475ZM1444.55,375.475C1371.21,375.476 1311.56,431.372 1311.56,500.05C1311.55,568.731 1371.21,624.594 1444.55,624.595C1517.88,624.594 1577.57,568.731 1577.57,500.05C1577.57,431.372 1517.88,375.476 1444.55,375.475ZM1709.79,374.585L1711.49,374.575L1713.19,374.585C1785.75,375.443 1844.51,431.005 1844.51,499.15C1844.52,567.298 1785.75,622.827 1713.19,623.685L1711.49,623.695L1709.79,623.685C1637.24,624.543 1578.51,680.105 1578.51,748.25C1578.5,816.931 1638.16,872.794 1711.49,872.795C1784.83,872.794 1844.52,816.931 1844.51,748.25C1844.51,680.105 1903.25,624.543 1975.8,623.685L1977.5,623.675L1979.2,623.685C2051.76,622.827 2110.52,567.298 2110.52,499.15C2110.52,431.005 2051.75,375.443 1979.2,374.585L1977.5,374.595L1975.8,374.585C1903.24,373.727 1844.51,318.198 1844.51,250.05C1844.51,181.372 1784.83,125.476 1711.49,125.475C1638.16,125.476 1578.51,181.372 1578.51,250.05C1578.5,318.198 1637.24,373.727 1709.79,374.585ZM2243.68,624.575C2171.13,625.433 2112.39,680.962 2112.4,749.11C2112.4,817.788 2172.05,873.684 2245.39,873.685C2318.72,873.684 2378.41,817.788 2378.41,749.11C2378.4,680.962 2437.14,625.433 2509.69,624.575L2511.39,624.565L2513.1,624.575C2585.65,623.717 2644.41,568.156 2644.41,500.01C2644.42,431.862 2585.65,376.333 2513.1,375.475L2511.39,375.485L2509.69,375.475C2437.14,376.333 2378.4,431.862 2378.41,500.01C2378.41,568.156 2319.64,623.717 2247.09,624.575L2245.39,624.585L2243.68,624.575ZM3580.12,375.475C3506.78,375.476 3447.13,431.372 3447.13,500.05C3447.12,568.731 3506.78,624.594 3580.12,624.595C3653.45,624.594 3713.14,568.731 3713.14,500.05C3713.14,431.372 3653.45,375.476 3580.12,375.475ZM3578.41,1124.59L3580.12,1124.58L3581.82,1124.59C3654.37,1125.44 3713.14,1181.01 3713.14,1249.15C3713.13,1317.3 3771.87,1372.83 3844.42,1373.68L3846.12,1373.67L3847.83,1373.68C3920.38,1372.83 3979.15,1317.3 3979.14,1249.15C3979.14,1181.01 3920.38,1125.44 3847.83,1124.59L3846.12,1124.6L3844.42,1124.59C3771.87,1123.73 3713.13,1068.2 3713.14,1000.05C3713.14,931.372 3653.45,875.476 3580.12,875.475C3506.78,875.476 3447.13,931.372 3447.13,1000.05C3447.12,1068.2 3505.86,1123.73 3578.41,1124.59ZM3847.06,625.475C3773.73,625.476 3714.08,681.372 3714.08,750.05C3714.07,818.731 3773.73,874.594 3847.06,874.595C3920.4,874.594 3980.09,818.731 3980.08,750.05C3980.08,681.372 3920.4,625.476 3847.06,625.475ZM375.059,624.585L376.761,624.575L378.463,624.585C451.016,625.443 509.78,681.005 509.78,749.15C509.785,817.298 451.02,872.827 378.463,873.685L376.761,873.695L375.059,873.685C302.508,874.543 243.774,930.105 243.773,998.25C243.769,1066.93 303.425,1122.79 376.761,1122.8C450.098,1122.79 509.785,1066.93 509.78,998.25C509.781,930.105 568.515,874.543 641.065,873.685L642.767,873.675L644.47,873.685C717.027,872.827 775.792,817.298 775.787,749.15C775.787,681.005 717.022,625.443 644.47,624.585L642.767,624.595L641.065,624.585C568.51,623.727 509.777,568.198 509.78,500.05C509.78,431.372 450.094,375.476 376.761,375.475C303.428,375.476 243.774,431.372 243.773,500.05C243.769,568.198 302.504,623.727 375.059,624.585ZM2779.28,125.475C2705.95,125.476 2646.29,181.372 2646.29,250.05C2646.29,318.731 2705.94,374.594 2779.28,374.595C2852.62,374.594 2912.3,318.731 2912.3,250.05C2912.3,181.372 2852.61,125.476 2779.28,125.475ZM1177.6,625.475C1104.27,625.476 1044.61,681.372 1044.61,750.05C1044.61,818.731 1104.26,874.594 1177.6,874.595C1250.94,874.594 1310.62,818.731 1310.62,750.05C1310.62,681.372 1250.93,625.476 1177.6,625.475ZM4114.01,875.475C4040.68,875.476 3981.02,931.372 3981.02,1000.05C3981.02,1068.73 4040.67,1124.59 4114.01,1124.6C4187.35,1124.59 4247.03,1068.73 4247.03,1000.05C4247.03,931.372 4187.34,875.476 4114.01,875.475ZM1177.6,125.475C1104.27,125.476 1044.61,181.372 1044.61,250.05C1044.61,318.731 1104.26,374.594 1177.6,374.595C1250.94,374.594 1310.62,318.731 1310.62,250.05C1310.62,181.372 1250.93,125.476 1177.6,125.475ZM3178.27,750.765C3179.19,818.713 3238.48,873.719 3311.25,873.715C3384.58,873.714 3444.27,817.847 3444.27,749.17C3444.27,680.492 3384.58,624.595 3311.25,624.595C3238.48,624.599 3179.19,569.593 3178.27,501.645L3178.26,500.05L3178.27,498.456C3177.36,430.509 3118.03,375.475 3045.26,375.475C2972.5,375.47 2913.2,430.506 2912.29,498.456L2912.3,500.05L2912.29,501.645C2911.37,569.59 2852.04,624.594 2779.28,624.595C2705.94,624.59 2646.29,680.489 2646.29,749.17C2646.29,817.851 2705.94,873.719 2779.28,873.715C2852.04,873.714 2911.37,818.71 2912.29,750.765L2912.28,749.17L2912.29,747.576C2913.2,679.626 2972.5,624.59 3045.26,624.595C3118.03,624.595 3177.36,679.629 3178.27,747.576L3178.28,749.17L3178.27,750.765ZM910.653,875.475C837.321,875.476 777.667,931.372 777.666,1000.05C777.662,1068.73 837.318,1124.59 910.653,1124.6C983.991,1124.59 1043.68,1068.73 1043.67,1000.05C1043.67,931.372 983.987,875.476 910.653,875.475ZM2377.36,1494.6L2378.53,1494.6L2378.53,1527.81L2109.95,1527.81L2109.95,1494.6L2111.53,1494.6C2114.1,1428.03 2172.72,1374.59 2244.42,1374.6C2316.12,1374.6 2374.78,1428.03 2377.36,1494.6Z" style="fill:rgb(53,214,44);"/>
        </g>
    </g>
</svg>
