<?xml version="1.0" encoding="UTF-8" standalone="no"?>
<!DOCTYPE svg PUBLIC "-//W3C//DTD SVG 1.1//EN" "http://www.w3.org/Graphics/SVG/1.1/DTD/svg11.dtd">
<svg width="100%" height="100%" viewBox="0 0 757 267" version="1.1" xmlns="http://www.w3.org/2000/svg" xmlns:xlink="http://www.w3.org/1999/xlink" xml:space="preserve" xmlns:serif="http://www.serif.com/" style="fill-rule:evenodd;clip-rule:evenodd;stroke-linejoin:round;stroke-miterlimit:2;">
    <path id="main" d="M0,5.669L0,0L15.816,0L15.816,5.669L15.804,5.669C15.807,17.39 25.342,26.921 37.063,26.922C48.787,26.921 58.328,17.386 58.328,5.662L58.328,5.658L58.33,5.658L58.33,0L101.162,0L101.162,5.669L101.152,5.669C101.155,17.39 110.69,26.921 122.411,26.922C134.133,26.921 143.672,17.39 143.675,5.669L143.675,0L186.612,0L186.612,5.669L186.5,5.669C186.503,17.39 196.039,26.921 207.76,26.922C219.481,26.921 229.021,17.39 229.024,5.669L228.903,5.669L228.903,0L271.838,0L271.838,5.658L271.848,5.658L271.848,5.662C271.848,17.386 281.383,26.921 293.108,26.922C304.828,26.921 314.369,17.39 314.372,5.669L314.131,5.669L314.131,0L357.066,0L357.066,5.669L357.047,5.669C357.039,17.295 347.647,26.772 336.054,26.918L335.782,26.92L335.509,26.918C323.911,27.065 314.521,36.543 314.522,48.176C314.522,59.899 324.058,69.44 335.782,69.44C347.505,69.44 357.047,59.899 357.047,48.176C357.045,36.543 366.435,27.065 378.033,26.918L378.305,26.917L378.578,26.918C390.175,26.772 399.568,17.289 399.569,5.658L399.581,5.658L399.581,0L442.516,0L442.516,5.658L442.545,5.658L442.545,5.662C442.543,17.295 451.933,26.773 463.531,26.92L463.803,26.918L464.076,26.92C475.674,27.066 485.067,36.551 485.067,48.183C485.067,59.815 494.456,69.294 506.055,69.44L506.327,69.439L506.599,69.44C518.198,69.294 527.593,59.815 527.592,48.183C527.592,36.551 518.198,27.066 506.599,26.92L506.327,26.922L506.055,26.92C494.459,26.773 485.071,17.299 485.067,5.669L485.031,5.669L485.031,0L527.966,0L527.966,5.669L527.892,5.669C527.895,17.39 537.431,26.921 549.152,26.922C560.873,26.921 570.413,17.39 570.417,5.669L570.41,5.669L570.41,0L613.347,0L613.347,5.669L613.24,5.669C613.243,17.39 622.779,26.921 634.5,26.922C646.224,26.921 655.764,17.386 655.764,5.662L655.764,5.658L655.768,5.658L655.768,0L698.703,0L698.703,5.669L698.588,5.669C698.591,17.39 708.126,26.921 719.847,26.922C731.57,26.921 741.109,17.39 741.112,5.669L741.112,0L756.536,0L756.536,5.658L756.538,5.658C756.536,20.465 756.538,75.773 756.538,90.697L756.538,90.714C756.528,105.63 756.538,160.929 756.538,175.737C756.538,175.891 756.536,176.045 756.533,176.199C756.536,176.35 756.538,176.505 756.538,176.66C756.538,191.468 756.037,246.393 756.522,260.776L756.536,260.776L756.536,266.445L741.112,266.445L741.112,260.776L741.093,260.776C740.604,249.483 731.26,240.443 719.847,240.443C708.437,240.443 699.098,249.483 698.608,260.776L698.703,260.776L698.703,266.445L655.768,266.445L655.768,260.776L655.744,260.776C655.256,249.483 645.911,240.443 634.5,240.443C623.089,240.443 613.748,249.483 613.261,260.776L613.347,260.776L613.347,266.445L570.41,266.445L570.41,260.776L570.252,260.776C569.844,249.502 560.612,240.432 549.274,240.291L549.002,240.293L548.728,240.291C537.131,240.144 527.742,230.665 527.742,219.032C527.742,207.309 518.2,197.769 506.477,197.769C494.755,197.769 485.218,207.309 485.218,219.032C485.218,230.665 494.606,240.144 506.206,240.291L506.477,240.289L506.749,240.291C518.088,240.432 527.322,249.502 527.728,260.776L527.966,260.776L527.966,266.445L485.031,266.445L485.031,260.776L485.048,260.776C484.559,249.483 475.215,240.443 463.803,240.443C452.392,240.443 443.053,249.483 442.564,260.776L442.516,260.776L442.516,266.445L399.581,266.445L399.581,260.776L399.398,260.776C398.986,249.413 389.61,240.293 378.148,240.293C366.515,240.293 357.037,230.903 356.89,219.304L356.888,219.032L356.89,218.761C356.745,207.162 347.26,197.769 335.627,197.769C323.996,197.767 314.516,207.162 314.37,218.761L314.372,219.032L314.37,219.304C314.223,230.903 304.739,240.291 293.108,240.293C281.646,240.291 272.275,249.413 271.862,260.776L271.838,260.776L271.838,266.445L228.903,266.445L228.903,260.776L229.032,260.776C229.36,249.43 238.621,240.281 250.011,240.135L250.283,240.134L250.556,240.135C262.154,239.99 271.549,230.512 271.547,218.879C271.547,207.247 262.154,197.762 250.556,197.617L250.283,197.619L250.011,197.617C238.413,197.47 229.023,187.991 229.024,176.358C229.024,164.635 219.482,155.094 207.76,155.094C196.036,155.094 186.5,164.635 186.5,176.358C186.498,187.991 195.889,197.47 207.486,197.617L207.76,197.615L208.032,197.617C219.629,197.762 229.024,207.247 229.024,218.879C229.024,230.512 219.631,239.99 208.032,240.135L207.76,240.137L207.486,240.135C196.096,240.281 186.837,249.43 186.51,260.776L186.612,260.776L186.612,266.445L143.675,266.445L143.675,260.776L143.656,260.776C143.167,249.483 133.823,240.443 122.411,240.443C111,240.443 101.661,249.483 101.172,260.776L101.162,260.776L101.162,266.445L58.33,266.445L58.33,260.776L58.341,260.776C58.744,249.498 67.973,240.431 79.315,240.289L79.587,240.287L79.859,240.289C91.457,240.142 100.851,230.658 100.851,219.025C100.852,207.393 91.458,197.914 79.859,197.769L79.587,197.77L79.315,197.769C67.716,197.914 58.327,207.393 58.328,219.025C58.328,230.658 48.934,240.142 37.335,240.289L37.063,240.291L36.791,240.289C25.449,240.431 16.22,249.498 15.817,260.776L15.816,266.445L0,266.445L0,260.776L0.016,260.776C0.5,246.393 0,191.468 0,176.66C0,176.505 0.001,176.35 0.004,176.199C0.001,176.045 0,175.891 0,175.737C-0.001,160.929 0.009,105.63 0,90.714L0,90.697C-0.001,75.773 0.007,20.471 0,5.669ZM79.465,69.594L79.737,69.592L80.009,69.594C91.607,69.74 101.002,79.225 101.002,90.857C101.001,102.489 110.39,111.968 121.989,112.114L122.261,112.113L122.533,112.114C134.132,111.968 143.527,102.489 143.525,90.857C143.525,79.225 134.131,69.74 122.533,69.594L122.261,69.596L121.989,69.594C110.39,69.447 101.001,59.969 101.002,48.336C101.002,36.613 91.46,27.072 79.737,27.072C68.014,27.072 58.478,36.613 58.478,48.336C58.477,59.969 67.866,69.447 79.465,69.594ZM293.108,155.094C281.385,155.094 271.848,164.635 271.848,176.358C271.848,188.082 281.383,197.617 293.108,197.619C304.832,197.617 314.372,188.082 314.372,176.358C314.372,164.635 304.83,155.094 293.108,155.094ZM676.901,197.615C665.303,197.76 655.913,207.239 655.915,218.872C655.915,230.595 665.45,240.135 677.174,240.135C688.897,240.135 698.439,230.595 698.439,218.872C698.437,207.239 707.828,197.76 719.425,197.615L719.697,197.613L719.97,197.615C731.568,197.468 740.962,187.984 740.962,176.351C740.963,164.719 731.568,155.24 719.97,155.094L719.697,155.096L719.425,155.094C707.828,155.24 698.437,164.719 698.439,176.351C698.439,187.984 689.044,197.468 677.446,197.615L677.174,197.617L676.901,197.615ZM165.085,197.769C153.363,197.769 143.825,207.309 143.825,219.032C143.825,230.756 153.361,240.291 165.085,240.293C176.809,240.291 186.35,230.756 186.35,219.032C186.35,207.309 176.808,197.769 165.085,197.769ZM634.5,69.746C622.777,69.746 613.24,79.287 613.24,91.01C613.24,102.734 622.776,112.269 634.5,112.27C646.224,112.269 655.764,102.734 655.764,91.01C655.764,79.287 646.222,69.746 634.5,69.746ZM676.901,69.594L677.174,69.592L677.446,69.594C689.044,69.74 698.439,79.225 698.439,90.857C698.439,102.489 689.046,111.968 677.446,112.114L677.174,112.116L676.901,112.114C665.303,112.261 655.915,121.745 655.915,133.377C655.913,145.101 665.45,154.636 677.174,154.636C688.897,154.636 698.439,145.101 698.439,133.377C698.439,121.745 707.828,112.261 719.425,112.114L719.697,112.113L719.97,112.114C731.568,111.968 740.963,102.489 740.962,90.857C740.962,79.225 731.568,69.74 719.97,69.594L719.697,69.596L719.425,69.594C707.828,69.447 698.437,59.969 698.439,48.336C698.439,36.613 688.897,27.072 677.174,27.072C665.45,27.072 655.915,36.613 655.915,48.336C655.913,59.969 665.303,69.447 676.901,69.594ZM442.239,176.081L442.241,176.353L442.239,176.625C442.092,188.223 432.608,197.619 420.976,197.619C409.343,197.619 399.865,188.225 399.718,176.625L399.717,176.353L399.718,176.081C399.571,164.483 390.088,155.094 378.455,155.094C366.733,155.093 357.197,164.63 357.195,176.353C357.197,188.077 366.733,197.619 378.455,197.619C390.088,197.619 399.571,207.007 399.718,218.606L399.72,218.877L399.718,219.15C399.865,230.747 409.343,240.142 420.976,240.141C432.608,240.141 442.092,230.747 442.239,219.15L442.238,218.877L442.239,218.606C442.385,207.007 451.863,197.617 463.496,197.619C475.22,197.619 484.76,188.077 484.76,176.353C484.76,164.63 475.22,155.094 463.496,155.094C451.863,155.093 442.385,164.482 442.239,176.081ZM591.825,27.072C580.103,27.072 570.567,36.613 570.567,48.336C570.565,60.06 580.103,69.595 591.825,69.596C603.549,69.595 613.091,60.06 613.09,48.336C613.09,36.613 603.549,27.072 591.825,27.072ZM207.76,69.746C196.036,69.746 186.5,79.287 186.5,91.01C186.498,102.734 196.036,112.269 207.76,112.27C219.482,112.269 229.024,102.734 229.024,91.01C229.024,79.287 219.482,69.746 207.76,69.746ZM250.161,69.594L250.433,69.592L250.705,69.594C262.304,69.74 271.697,79.225 271.697,90.857C271.699,102.489 262.304,111.968 250.705,112.114L250.433,112.116L250.161,112.114C238.563,112.261 229.175,121.745 229.175,133.377C229.173,145.101 238.71,154.636 250.433,154.636C262.157,154.636 271.699,145.101 271.697,133.377C271.697,121.745 281.088,112.261 292.685,112.114L292.957,112.113L293.229,112.114C304.828,111.968 314.222,102.489 314.222,90.857C314.222,79.225 304.827,69.74 293.229,69.594L292.957,69.596L292.685,69.594C281.086,69.447 271.697,59.969 271.697,48.336C271.697,36.613 262.157,27.072 250.433,27.072C238.71,27.072 229.175,36.613 229.175,48.336C229.173,59.969 238.563,69.447 250.161,69.594ZM335.509,112.266C323.911,112.413 314.521,121.891 314.522,133.524C314.522,145.247 324.058,154.788 335.782,154.788C347.505,154.788 357.047,145.247 357.047,133.524C357.045,121.891 366.435,112.413 378.033,112.266L378.305,112.265L378.578,112.266C390.176,112.12 399.569,102.636 399.569,91.003C399.571,79.371 390.176,69.892 378.578,69.746L378.305,69.748L378.033,69.746C366.435,69.892 357.045,79.371 357.047,91.003C357.047,102.636 347.652,112.12 336.054,112.266L335.782,112.268L335.509,112.266ZM549.152,69.746C537.428,69.746 527.892,79.287 527.892,91.01C527.891,102.734 537.428,112.269 549.152,112.27C560.875,112.269 570.417,102.734 570.417,91.01C570.417,79.287 560.875,69.746 549.152,69.746ZM548.879,197.617L549.152,197.615L549.424,197.617C561.022,197.762 570.417,207.247 570.417,218.879C570.415,230.512 579.805,239.99 591.403,240.135L591.675,240.134L591.948,240.135C603.546,239.99 612.941,230.512 612.939,218.879C612.939,207.247 603.546,197.762 591.948,197.617L591.675,197.619L591.403,197.617C579.805,197.47 570.415,187.991 570.417,176.358C570.417,164.635 560.875,155.094 549.152,155.094C537.428,155.094 527.892,164.635 527.892,176.358C527.891,187.991 537.281,197.47 548.879,197.617ZM591.825,112.42C580.103,112.42 570.567,121.961 570.567,133.684C570.565,145.408 580.103,154.943 591.825,154.944C603.549,154.943 613.091,145.408 613.09,133.684C613.09,121.961 603.549,112.42 591.825,112.42ZM36.791,112.268L37.063,112.266L37.335,112.268C48.934,112.414 58.328,121.899 58.328,133.531C58.328,145.163 48.934,154.642 37.335,154.788L37.063,154.79L36.791,154.788C25.193,154.935 15.804,164.419 15.804,176.051C15.803,187.774 25.34,197.31 37.063,197.311C48.787,197.31 58.328,187.774 58.328,176.051C58.328,164.419 67.717,154.935 79.315,154.788L79.587,154.787L79.859,154.788C91.458,154.642 100.852,145.163 100.851,133.531C100.851,121.899 91.457,112.414 79.859,112.268L79.587,112.27L79.315,112.268C67.716,112.121 58.327,102.643 58.328,91.01C58.328,79.287 48.786,69.746 37.063,69.746C25.34,69.746 15.804,79.287 15.804,91.01C15.803,102.643 25.192,112.121 36.791,112.268ZM421.13,27.072C409.407,27.072 399.87,36.613 399.87,48.336C399.87,60.06 409.406,69.595 421.13,69.596C432.854,69.595 442.394,60.06 442.394,48.336C442.394,36.613 432.852,27.072 421.13,27.072ZM165.085,112.42C153.363,112.42 143.825,121.961 143.825,133.684C143.825,145.408 153.361,154.943 165.085,154.944C176.809,154.943 186.35,145.408 186.35,133.684C186.35,121.961 176.808,112.42 165.085,112.42ZM634.5,155.094C622.777,155.094 613.24,164.635 613.24,176.358C613.24,188.082 622.776,197.617 634.5,197.619C646.224,197.617 655.764,188.082 655.764,176.358C655.764,164.635 646.222,155.094 634.5,155.094ZM165.085,27.072C153.363,27.072 143.825,36.613 143.825,48.336C143.825,60.06 153.361,69.595 165.085,69.596C176.809,69.595 186.35,60.06 186.35,48.336C186.35,36.613 176.808,27.072 165.085,27.072ZM484.912,133.806C485.059,145.405 494.538,154.794 506.171,154.793C517.893,154.793 527.435,145.257 527.435,133.534C527.435,121.811 517.893,112.27 506.171,112.27C494.538,112.27 485.059,102.881 484.912,91.283L484.911,91.01L484.912,90.738C484.767,79.14 475.282,69.746 463.649,69.746C452.018,69.745 442.538,79.139 442.393,90.738L442.394,91.01L442.393,91.283C442.246,102.881 432.761,112.269 421.13,112.27C409.406,112.269 399.87,121.811 399.87,133.534C399.87,145.258 409.406,154.794 421.13,154.793C432.761,154.793 442.246,145.404 442.393,133.806L442.391,133.534L442.393,133.262C442.538,121.663 452.018,112.269 463.649,112.27C475.282,112.27 484.767,121.664 484.912,133.262L484.914,133.534L484.912,133.806ZM122.411,155.094C110.688,155.094 101.152,164.635 101.152,176.358C101.151,188.082 110.688,197.617 122.411,197.619C134.135,197.617 143.677,188.082 143.675,176.358C143.675,164.635 134.134,155.094 122.411,155.094ZM356.879,260.776L357.066,260.776L357.066,266.445L314.131,266.445L314.131,260.776L314.383,260.776C314.794,249.413 324.165,240.291 335.627,240.293C347.089,240.293 356.466,249.413 356.879,260.776Z" style="fill:rgb(53,214,44);"/>
</svg>
