<?xml version="1.0" encoding="UTF-8" standalone="no"?>
<!DOCTYPE svg PUBLIC "-//W3C//DTD SVG 1.1//EN" "http://www.w3.org/Graphics/SVG/1.1/DTD/svg11.dtd">
<svg width="100%" height="100%" viewBox="0 0 411 412" version="1.1" xmlns="http://www.w3.org/2000/svg" xmlns:xlink="http://www.w3.org/1999/xlink" xml:space="preserve" xmlns:serif="http://www.serif.com/" style="fill-rule:evenodd;clip-rule:evenodd;stroke-linejoin:round;stroke-miterlimit:2;">
    <g id="Artboard1" transform="matrix(1.25119,0,0,1.25119,-720.465,-460.358)">
        <rect x="575.823" y="367.936" width="328.478" height="329.086" style="fill:none;"/>
        <g id="main" transform="matrix(0.799238,0,0,0.799238,149.234,107.649)">
            <path d="M649.347,695.937C626.981,692.441 608.825,682.073 594.926,664.857C568.094,631.624 569.679,585.155 598.727,553.419C615.36,535.247 635.602,526.736 665.584,525.309C676.258,524.802 683.709,522.867 692.867,518.225C718.521,505.224 733.359,481.232 733.395,452.693C733.411,440.706 737.412,424.997 743.285,413.867C753.793,393.955 774.074,377.293 794.587,371.719C809.247,367.736 819.698,366.983 831.501,369.06C854.14,373.044 870.043,381.981 884.45,398.817C914.994,434.509 909.642,490.338 872.861,519.709C856.43,532.83 843.006,537.631 818.079,539.304C811.382,539.754 803.533,540.736 800.635,541.486C788.978,544.507 776.674,551.73 767.719,560.809C754.378,574.335 748.547,588.41 747.044,610.712C746.018,625.927 744.379,634.019 740.319,643.908C734.86,657.205 725.77,669.152 713.987,678.515C702.249,687.843 689.644,693.261 673.644,695.856C664.201,697.387 658.738,697.405 649.347,695.937ZM801.027,525.146L808.494,523.562L808.494,454.208C808.494,414.364 808.172,384.853 807.736,384.853C806.046,384.853 791.831,389.285 790.814,390.128C789.942,390.852 789.721,404.836 789.721,459.297L789.721,527.559L791.641,527.145C792.697,526.917 796.921,526.018 801.027,525.146ZM836.008,520.906C838.838,520.173 842.638,518.979 844.451,518.254L847.747,516.935L847.747,390.159L844.451,388.84C841.452,387.64 831.591,384.853 830.344,384.853C830.06,384.853 829.827,415.765 829.827,453.547C829.827,491.328 830.06,522.24 830.344,522.24C830.628,522.24 833.177,521.64 836.008,520.906ZM763.663,542.744L768.387,539.099L768.387,406.001L765.187,409.876C760.374,415.704 756.442,422.609 753.519,430.365L750.894,437.333L750.411,555.719L754.675,551.054C757.02,548.488 761.064,544.749 763.663,542.744ZM875.893,493.227C880.275,486.782 883.066,481.06 885.197,474.15C886.738,469.152 887.001,466.151 887.001,453.547C887.001,440.942 886.738,437.941 885.197,432.943C882.937,425.615 880.143,420.008 875.456,413.395C868.52,403.61 869.081,400.078 869.081,453.574L869.081,501.171L870.891,499.546C871.887,498.652 874.138,495.808 875.893,493.227ZM611.337,611.2L611.298,563.627L607.435,567.893C602.564,573.274 595.535,587.46 593.888,595.234C592.26,602.923 592.262,619.909 593.894,627.627C595.443,634.958 602.433,649.231 607.162,654.72C609.083,656.949 610.817,658.773 611.015,658.773C611.213,658.773 611.358,637.365 611.337,611.2ZM722.672,643.413C729.459,630.228 729.134,633.987 729.134,568.633L729.134,510.376L723.326,516.095C720.131,519.24 716.102,522.773 714.372,523.947L711.226,526.08L711.291,659.2L715.115,654.933C717.218,652.587 720.619,647.403 722.672,643.413ZM650.627,611.413C650.627,573.632 650.332,542.72 649.97,542.72C648.394,542.72 636.542,546.313 634.31,547.467L631.854,548.737L631.854,674.194L635.907,675.935C639.253,677.372 647.418,679.75 649.987,680.036C650.339,680.075 650.627,649.195 650.627,611.413ZM678.141,678.773C680.971,678.04 684.771,676.846 686.584,676.12L689.881,674.801L689.881,537.401L687.961,537.861C686.905,538.114 682.873,538.988 679.001,539.802L671.961,541.283L671.961,610.695C671.961,648.871 672.193,680.107 672.477,680.107C672.762,680.107 675.31,679.507 678.141,678.773Z" style="fill:white;"/>
        </g>
    </g>
</svg>
