<svg width="458" height="205" xmlns="http://www.w3.org/2000/svg">
    <rect width="458" height="205" fill="white" stroke="black" stroke-width="1"/>
    <text x="229" y="20" text-anchor="middle" font-family="Arial, sans-serif" font-size="16" font-weight="bold">Mayco Glaze Colors - Cone 06</text>
    <rect x="10" y="40" width="20" height="20" fill="#dbdcd6" stroke="black" stroke-width="0.5"/>
    <text x="20" y="75" text-anchor="middle" font-family="Arial, sans-serif" font-size="8">SC-16</text>
    <rect x="32" y="40" width="20" height="20" fill="#d6d6bb" stroke="black" stroke-width="0.5"/>
    <text x="42" y="75" text-anchor="middle" font-family="Arial, sans-serif" font-size="8">SC-37</text>
    <rect x="54" y="40" width="20" height="20" fill="#dcd57a" stroke="black" stroke-width="0.5"/>
    <text x="64" y="75" text-anchor="middle" font-family="Arial, sans-serif" font-size="8">SC-55</text>
    <rect x="76" y="40" width="20" height="20" fill="#e8cc00" stroke="black" stroke-width="0.5"/>
    <text x="86" y="75" text-anchor="middle" font-family="Arial, sans-serif" font-size="8">SC-6</text>
    <rect x="98" y="40" width="20" height="20" fill="#d7b053" stroke="black" stroke-width="0.5"/>
    <text x="108" y="75" text-anchor="middle" font-family="Arial, sans-serif" font-size="8">SC-42</text>
    <rect x="120" y="40" width="20" height="20" fill="#e6a300" stroke="black" stroke-width="0.5"/>
    <text x="130" y="75" text-anchor="middle" font-family="Arial, sans-serif" font-size="8">SC-24</text>
    <rect x="142" y="40" width="20" height="20" fill="#e37506" stroke="black" stroke-width="0.5"/>
    <text x="152" y="75" text-anchor="middle" font-family="Arial, sans-serif" font-size="8">SC-97</text>
    <rect x="164" y="40" width="20" height="20" fill="#f6a173" stroke="black" stroke-width="0.5"/>
    <text x="174" y="75" text-anchor="middle" font-family="Arial, sans-serif" font-size="8">SC-102</text>
    <rect x="186" y="40" width="20" height="20" fill="#f28930" stroke="black" stroke-width="0.5"/>
    <text x="196" y="75" text-anchor="middle" font-family="Arial, sans-serif" font-size="8">SC-23</text>
    <rect x="208" y="40" width="20" height="20" fill="#ff4c01" stroke="black" stroke-width="0.5"/>
    <text x="218" y="75" text-anchor="middle" font-family="Arial, sans-serif" font-size="8">SC-75</text>
    <rect x="230" y="40" width="20" height="20" fill="#dc5c28" stroke="black" stroke-width="0.5"/>
    <text x="240" y="75" text-anchor="middle" font-family="Arial, sans-serif" font-size="8">SC-50</text>
    <rect x="252" y="40" width="20" height="20" fill="#e28673" stroke="black" stroke-width="0.5"/>
    <text x="262" y="75" text-anchor="middle" font-family="Arial, sans-serif" font-size="8">SC-2</text>
    <rect x="274" y="40" width="20" height="20" fill="#eb594e" stroke="black" stroke-width="0.5"/>
    <text x="284" y="75" text-anchor="middle" font-family="Arial, sans-serif" font-size="8">SC-89</text>
    <rect x="296" y="40" width="20" height="20" fill="#e92f01" stroke="black" stroke-width="0.5"/>
    <text x="306" y="75" text-anchor="middle" font-family="Arial, sans-serif" font-size="8">SC-88</text>
    <rect x="318" y="40" width="20" height="20" fill="#c41b05" stroke="black" stroke-width="0.5"/>
    <text x="328" y="75" text-anchor="middle" font-family="Arial, sans-serif" font-size="8">SC-73</text>
    <rect x="340" y="40" width="20" height="20" fill="#971f17" stroke="black" stroke-width="0.5"/>
    <text x="350" y="75" text-anchor="middle" font-family="Arial, sans-serif" font-size="8">SC-74</text>
    <rect x="362" y="40" width="20" height="20" fill="#8c201a" stroke="black" stroke-width="0.5"/>
    <text x="372" y="75" text-anchor="middle" font-family="Arial, sans-serif" font-size="8">SC-87</text>
    <rect x="384" y="40" width="20" height="20" fill="#6b2218" stroke="black" stroke-width="0.5"/>
    <text x="394" y="75" text-anchor="middle" font-family="Arial, sans-serif" font-size="8">SC-81</text>
    <rect x="406" y="40" width="20" height="20" fill="#dfa49e" stroke="black" stroke-width="0.5"/>
    <text x="416" y="75" text-anchor="middle" font-family="Arial, sans-serif" font-size="8">SC-1</text>
    <rect x="428" y="40" width="20" height="20" fill="#f2d9d4" stroke="black" stroke-width="0.5"/>
    <text x="438" y="75" text-anchor="middle" font-family="Arial, sans-serif" font-size="8">SC-100</text>
    <rect x="10" y="77" width="20" height="20" fill="#cb7b8a" stroke="black" stroke-width="0.5"/>
    <text x="20" y="112" text-anchor="middle" font-family="Arial, sans-serif" font-size="8">SC-70</text>
    <rect x="32" y="77" width="20" height="20" fill="#ab4f65" stroke="black" stroke-width="0.5"/>
    <text x="42" y="112" text-anchor="middle" font-family="Arial, sans-serif" font-size="8">SC-95</text>
    <rect x="54" y="77" width="20" height="20" fill="#b0666b" stroke="black" stroke-width="0.5"/>
    <text x="64" y="112" text-anchor="middle" font-family="Arial, sans-serif" font-size="8">SC-17</text>
    <rect x="76" y="77" width="20" height="20" fill="#9a474c" stroke="black" stroke-width="0.5"/>
    <text x="86" y="112" text-anchor="middle" font-family="Arial, sans-serif" font-size="8">SC-18</text>
    <rect x="98" y="77" width="20" height="20" fill="#5f2327" stroke="black" stroke-width="0.5"/>
    <text x="108" y="112" text-anchor="middle" font-family="Arial, sans-serif" font-size="8">SC-3</text>
    <rect x="120" y="77" width="20" height="20" fill="#371625" stroke="black" stroke-width="0.5"/>
    <text x="130" y="112" text-anchor="middle" font-family="Arial, sans-serif" font-size="8">SC-40</text>
    <rect x="142" y="77" width="20" height="20" fill="#61274a" stroke="black" stroke-width="0.5"/>
    <text x="152" y="112" text-anchor="middle" font-family="Arial, sans-serif" font-size="8">SC-13</text>
    <rect x="164" y="77" width="20" height="20" fill="#b68ba7" stroke="black" stroke-width="0.5"/>
    <text x="174" y="112" text-anchor="middle" font-family="Arial, sans-serif" font-size="8">SC-85</text>
    <rect x="186" y="77" width="20" height="20" fill="#a897bb" stroke="black" stroke-width="0.5"/>
    <text x="196" y="112" text-anchor="middle" font-family="Arial, sans-serif" font-size="8">SC-103</text>
    <rect x="208" y="77" width="20" height="20" fill="#64587c" stroke="black" stroke-width="0.5"/>
    <text x="218" y="112" text-anchor="middle" font-family="Arial, sans-serif" font-size="8">SC-53</text>
    <rect x="230" y="77" width="20" height="20" fill="#5d4b68" stroke="black" stroke-width="0.5"/>
    <text x="240" y="112" text-anchor="middle" font-family="Arial, sans-serif" font-size="8">SC-72</text>
    <rect x="252" y="77" width="20" height="20" fill="#473348" stroke="black" stroke-width="0.5"/>
    <text x="262" y="112" text-anchor="middle" font-family="Arial, sans-serif" font-size="8">SC-71</text>
    <rect x="274" y="77" width="20" height="20" fill="#3d2950" stroke="black" stroke-width="0.5"/>
    <text x="284" y="112" text-anchor="middle" font-family="Arial, sans-serif" font-size="8">SC-33</text>
    <rect x="296" y="77" width="20" height="20" fill="#241827" stroke="black" stroke-width="0.5"/>
    <text x="306" y="112" text-anchor="middle" font-family="Arial, sans-serif" font-size="8">SC-104</text>
    <rect x="318" y="77" width="20" height="20" fill="#a3c7ca" stroke="black" stroke-width="0.5"/>
    <text x="328" y="112" text-anchor="middle" font-family="Arial, sans-serif" font-size="8">SC-45</text>
    <rect x="340" y="77" width="20" height="20" fill="#b2c1bd" stroke="black" stroke-width="0.5"/>
    <text x="350" y="112" text-anchor="middle" font-family="Arial, sans-serif" font-size="8">SC-91</text>
    <rect x="362" y="77" width="20" height="20" fill="#93a4b5" stroke="black" stroke-width="0.5"/>
    <text x="372" y="112" text-anchor="middle" font-family="Arial, sans-serif" font-size="8">SC-65</text>
    <rect x="384" y="77" width="20" height="20" fill="#7e98b6" stroke="black" stroke-width="0.5"/>
    <text x="394" y="112" text-anchor="middle" font-family="Arial, sans-serif" font-size="8">SC-30</text>
    <rect x="406" y="77" width="20" height="20" fill="#486298" stroke="black" stroke-width="0.5"/>
    <text x="416" y="112" text-anchor="middle" font-family="Arial, sans-serif" font-size="8">SC-31</text>
    <rect x="428" y="77" width="20" height="20" fill="#248db6" stroke="black" stroke-width="0.5"/>
    <text x="438" y="112" text-anchor="middle" font-family="Arial, sans-serif" font-size="8">SC-11</text>
    <rect x="10" y="114" width="20" height="20" fill="#2d364a" stroke="black" stroke-width="0.5"/>
    <text x="20" y="149" text-anchor="middle" font-family="Arial, sans-serif" font-size="8">SC-58</text>
    <rect x="32" y="114" width="20" height="20" fill="#172a61" stroke="black" stroke-width="0.5"/>
    <text x="42" y="149" text-anchor="middle" font-family="Arial, sans-serif" font-size="8">SC-76</text>
    <rect x="54" y="114" width="20" height="20" fill="#181338" stroke="black" stroke-width="0.5"/>
    <text x="64" y="149" text-anchor="middle" font-family="Arial, sans-serif" font-size="8">SC-12</text>
    <rect x="76" y="114" width="20" height="20" fill="#96b79a" stroke="black" stroke-width="0.5"/>
    <text x="86" y="149" text-anchor="middle" font-family="Arial, sans-serif" font-size="8">SC-96</text>
    <rect x="98" y="114" width="20" height="20" fill="#85baaf" stroke="black" stroke-width="0.5"/>
    <text x="108" y="149" text-anchor="middle" font-family="Arial, sans-serif" font-size="8">SC-101</text>
    <rect x="120" y="114" width="20" height="20" fill="#2a8c72" stroke="black" stroke-width="0.5"/>
    <text x="130" y="149" text-anchor="middle" font-family="Arial, sans-serif" font-size="8">SC-9</text>
    <rect x="142" y="114" width="20" height="20" fill="#2e818c" stroke="black" stroke-width="0.5"/>
    <text x="152" y="149" text-anchor="middle" font-family="Arial, sans-serif" font-size="8">SC-28</text>
    <rect x="164" y="114" width="20" height="20" fill="#024d4a" stroke="black" stroke-width="0.5"/>
    <text x="174" y="149" text-anchor="middle" font-family="Arial, sans-serif" font-size="8">SC-10</text>
    <rect x="186" y="114" width="20" height="20" fill="#103d46" stroke="black" stroke-width="0.5"/>
    <text x="196" y="149" text-anchor="middle" font-family="Arial, sans-serif" font-size="8">SC-29</text>
    <rect x="208" y="114" width="20" height="20" fill="#0a181d" stroke="black" stroke-width="0.5"/>
    <text x="218" y="149" text-anchor="middle" font-family="Arial, sans-serif" font-size="8">SC-32</text>
    <rect x="230" y="114" width="20" height="20" fill="#d7dc99" stroke="black" stroke-width="0.5"/>
    <text x="240" y="149" text-anchor="middle" font-family="Arial, sans-serif" font-size="8">SC-93</text>
    <rect x="252" y="114" width="20" height="20" fill="#8cae78" stroke="black" stroke-width="0.5"/>
    <text x="262" y="149" text-anchor="middle" font-family="Arial, sans-serif" font-size="8">SC-43</text>
    <rect x="274" y="114" width="20" height="20" fill="#4c9457" stroke="black" stroke-width="0.5"/>
    <text x="284" y="149" text-anchor="middle" font-family="Arial, sans-serif" font-size="8">SC-7</text>
    <rect x="296" y="114" width="20" height="20" fill="#405e2d" stroke="black" stroke-width="0.5"/>
    <text x="306" y="149" text-anchor="middle" font-family="Arial, sans-serif" font-size="8">SC-26</text>
    <rect x="318" y="114" width="20" height="20" fill="#2d5231" stroke="black" stroke-width="0.5"/>
    <text x="328" y="149" text-anchor="middle" font-family="Arial, sans-serif" font-size="8">SC-8</text>
    <rect x="340" y="114" width="20" height="20" fill="#264329" stroke="black" stroke-width="0.5"/>
    <text x="350" y="149" text-anchor="middle" font-family="Arial, sans-serif" font-size="8">SC-36</text>
    <rect x="362" y="114" width="20" height="20" fill="#c5c003" stroke="black" stroke-width="0.5"/>
    <text x="372" y="149" text-anchor="middle" font-family="Arial, sans-serif" font-size="8">SC-77</text>
    <rect x="384" y="114" width="20" height="20" fill="#a0b663" stroke="black" stroke-width="0.5"/>
    <text x="394" y="149" text-anchor="middle" font-family="Arial, sans-serif" font-size="8">SC-78</text>
    <rect x="406" y="114" width="20" height="20" fill="#accb63" stroke="black" stroke-width="0.5"/>
    <text x="416" y="149" text-anchor="middle" font-family="Arial, sans-serif" font-size="8">SC-98</text>
    <rect x="428" y="114" width="20" height="20" fill="#9da82f" stroke="black" stroke-width="0.5"/>
    <text x="438" y="149" text-anchor="middle" font-family="Arial, sans-serif" font-size="8">SC-27</text>
    <rect x="10" y="151" width="20" height="20" fill="#74732e" stroke="black" stroke-width="0.5"/>
    <text x="20" y="186" text-anchor="middle" font-family="Arial, sans-serif" font-size="8">SC-52</text>
    <rect x="32" y="151" width="20" height="20" fill="#8a8755" stroke="black" stroke-width="0.5"/>
    <text x="42" y="186" text-anchor="middle" font-family="Arial, sans-serif" font-size="8">SC-79</text>
    <rect x="54" y="151" width="20" height="20" fill="#4c5829" stroke="black" stroke-width="0.5"/>
    <text x="64" y="186" text-anchor="middle" font-family="Arial, sans-serif" font-size="8">SC-39</text>
    <rect x="76" y="151" width="20" height="20" fill="#d6ccb9" stroke="black" stroke-width="0.5"/>
    <text x="86" y="186" text-anchor="middle" font-family="Arial, sans-serif" font-size="8">SC-86</text>
    <rect x="98" y="151" width="20" height="20" fill="#ccb999" stroke="black" stroke-width="0.5"/>
    <text x="108" y="186" text-anchor="middle" font-family="Arial, sans-serif" font-size="8">SC-54</text>
    <rect x="120" y="151" width="20" height="20" fill="#cea380" stroke="black" stroke-width="0.5"/>
    <text x="130" y="186" text-anchor="middle" font-family="Arial, sans-serif" font-size="8">SC-20</text>
    <rect x="142" y="151" width="20" height="20" fill="#c5a371" stroke="black" stroke-width="0.5"/>
    <text x="152" y="186" text-anchor="middle" font-family="Arial, sans-serif" font-size="8">SC-46</text>
    <rect x="164" y="151" width="20" height="20" fill="#c88b2a" stroke="black" stroke-width="0.5"/>
    <text x="174" y="186" text-anchor="middle" font-family="Arial, sans-serif" font-size="8">SC-51</text>
    <rect x="186" y="151" width="20" height="20" fill="#af5f0f" stroke="black" stroke-width="0.5"/>
    <text x="196" y="186" text-anchor="middle" font-family="Arial, sans-serif" font-size="8">SC-5</text>
    <rect x="208" y="151" width="20" height="20" fill="#8a3f10" stroke="black" stroke-width="0.5"/>
    <text x="218" y="186" text-anchor="middle" font-family="Arial, sans-serif" font-size="8">SC-25</text>
    <rect x="230" y="151" width="20" height="20" fill="#b5451c" stroke="black" stroke-width="0.5"/>
    <text x="240" y="186" text-anchor="middle" font-family="Arial, sans-serif" font-size="8">SC-80</text>
    <rect x="252" y="151" width="20" height="20" fill="#73472f" stroke="black" stroke-width="0.5"/>
    <text x="262" y="186" text-anchor="middle" font-family="Arial, sans-serif" font-size="8">SC-41</text>
    <rect x="274" y="151" width="20" height="20" fill="#522d19" stroke="black" stroke-width="0.5"/>
    <text x="284" y="186" text-anchor="middle" font-family="Arial, sans-serif" font-size="8">SC-48</text>
    <rect x="296" y="151" width="20" height="20" fill="#4b1d0c" stroke="black" stroke-width="0.5"/>
    <text x="306" y="186" text-anchor="middle" font-family="Arial, sans-serif" font-size="8">SC-14</text>
    <rect x="318" y="151" width="20" height="20" fill="#25170f" stroke="black" stroke-width="0.5"/>
    <text x="328" y="186" text-anchor="middle" font-family="Arial, sans-serif" font-size="8">SC-34</text>
    <rect x="340" y="151" width="20" height="20" fill="#806347" stroke="black" stroke-width="0.5"/>
    <text x="350" y="186" text-anchor="middle" font-family="Arial, sans-serif" font-size="8">SC-92</text>
    <rect x="362" y="151" width="20" height="20" fill="#948c7b" stroke="black" stroke-width="0.5"/>
    <text x="372" y="186" text-anchor="middle" font-family="Arial, sans-serif" font-size="8">SC-90</text>
    <rect x="384" y="151" width="20" height="20" fill="#a4957c" stroke="black" stroke-width="0.5"/>
    <text x="394" y="186" text-anchor="middle" font-family="Arial, sans-serif" font-size="8">SC-83</text>
    <rect x="406" y="151" width="20" height="20" fill="#a2a9a5" stroke="black" stroke-width="0.5"/>
    <text x="416" y="186" text-anchor="middle" font-family="Arial, sans-serif" font-size="8">SC-60</text>
    <rect x="428" y="151" width="20" height="20" fill="#767b7a" stroke="black" stroke-width="0.5"/>
    <text x="438" y="186" text-anchor="middle" font-family="Arial, sans-serif" font-size="8">SC-35</text>
    <rect x="10" y="188" width="20" height="20" fill="#373832" stroke="black" stroke-width="0.5"/>
    <text x="20" y="223" text-anchor="middle" font-family="Arial, sans-serif" font-size="8">SC-99</text>
    <rect x="32" y="188" width="20" height="20" fill="#0c0c0c" stroke="black" stroke-width="0.5"/>
    <text x="42" y="223" text-anchor="middle" font-family="Arial, sans-serif" font-size="8">SC-15</text>
</svg>